<?xml version="1.0" encoding="UTF-8"?>
<svg width="20px" height="17px" viewBox="0 0 20 17" version="1.1" xmlns="http://www.w3.org/2000/svg" xmlns:xlink="http://www.w3.org/1999/xlink">
    <!-- Generator: Sketch 53.2 (72643) - https://sketchapp.com -->
    <title>Shape Copy</title>
    <desc>Created with Sketch.</desc>
    <g id="Symbols" stroke="none" stroke-width="1" fill="none" fill-rule="evenodd">
        <path d="M17.5,3.77475828e-16 L2.5,3.77475828e-16 C1.11928813,0 1.69088438e-16,1.14167389 0,2.55 L0,14.45 C1.69088438e-16,15.8583261 1.11928813,17 2.5,17 L17.5,17 C18.8807119,17 20,15.8583261 20,14.45 L20,2.55 C20,1.14167389 18.8807119,0 17.5,3.77475828e-16 Z M17.25,4.08 L10.5833333,10.03 C10.4018144,10.1254323 10.2035483,10.1832127 10,10.2 C9.7964517,10.1832127 9.59818556,10.1254323 9.41666667,10.03 L2.75,4.08 C2.40482203,3.77486268 2.36751243,3.24208153 2.66666667,2.89 C2.96582091,2.53791847 3.48815536,2.49986268 3.83333333,2.805 L9.91666667,8.245 L16,2.805 C16.1637454,2.65390447 16.3808679,2.57754293 16.6011142,2.59358944 C16.8213604,2.60963596 17.0256381,2.71669951 17.1666667,2.89 C17.3536532,3.02194616 17.4718616,3.23329046 17.4880612,3.46461983 C17.5042607,3.6959492 17.4167022,3.92228509 17.25,4.08 Z" id="Shape-Copy" fill="#001AFF" fill-rule="nonzero"></path>
    </g>
</svg>