<?xml version="1.0" encoding="UTF-8"?>
<svg width="400px" height="320px" viewBox="0 0 400 320" version="1.1" xmlns="http://www.w3.org/2000/svg" xmlns:xlink="http://www.w3.org/1999/xlink">
    <!-- Generator: Sketch 53.2 (72643) - https://sketchapp.com -->
    <title>Bandwidth</title>
    <desc>Created with Sketch.</desc>
    <g id="Bandwidth" stroke="none" stroke-width="1" fill="none" fill-rule="evenodd">
        <g id="Group-49" transform="translate(200.000000, 177.000000) scale(-1, 1) translate(-200.000000, -177.000000) translate(0.000000, 49.000000)">
            <g id="Group-46" transform="translate(92.000000, 8.000000)">
                <path d="M232.33905,77.6344736 C235.966186,79.7283961 238.199069,83.6062015 238.194053,87.8027455 L238.143469,130.123403 C238.138466,134.309099 235.907782,138.176231 232.290427,140.270287 L195.626468,161.494738 C192.009112,163.588795 187.553657,163.59221 183.935898,161.503701 L101.134635,113.651899 C97.5074986,111.557976 95.2746156,107.680171 95.2796315,103.483627 L95.3302151,61.1629694 C95.3352181,56.9772738 97.5659019,53.1101415 101.183258,51.0160853 L137.847217,29.7916342 C141.464572,27.697578 145.920027,27.6941623 149.537786,29.7826719 L232.33905,77.6344736 Z" id="Polygon" fill="#000000" transform="translate(166.736842, 95.643186) rotate(-300.000000) translate(-166.736842, -95.643186) "></path>
                <path d="M179.32341,80.679292 C181.930446,82.1780753 182.206962,84.4607652 179.941025,85.7778228 L146.913148,104.975009 C144.647211,106.292066 140.696885,106.144748 138.089849,104.645965 L105.518696,85.9208339 C102.911659,84.4220507 102.635144,82.1393607 104.901081,80.8223032 L137.928958,61.6251173 C140.194895,60.3080597 144.14522,60.4553776 146.752256,61.9541608 L179.32341,80.679292 Z" id="Rectangle-Copy" fill="#FFFFFF" transform="translate(142.421053, 83.300063) rotate(-300.000000) translate(-142.421053, -83.300063) "></path>
                <path d="M179.902357,80.0071929 C182.509393,81.5059761 182.785909,83.7886661 180.519972,85.1057236 L147.492095,104.30291 C145.226158,105.619967 141.275833,105.472649 138.668796,103.973866 L106.097643,85.2487348 C103.490607,83.7499515 103.214091,81.4672616 105.480028,80.150204 L138.507905,60.9530181 C140.773842,59.6359606 144.724167,59.7832784 147.331204,61.2820616 L179.902357,80.0071929 Z" id="Rectangle-Copy-2" fill="#FFFFFF" transform="translate(143.000000, 82.627964) rotate(-300.000000) translate(-143.000000, -82.627964) "></path>
                <path d="M206.948922,113.76265 C206.961023,116.784757 205.122793,118.168426 202.843121,116.853161 L169.615043,97.6821046 C167.335371,96.3668397 165.477522,92.8507047 165.465421,89.8285974 L165.314236,52.0717322 C165.302135,49.0496248 167.140365,47.6659556 169.420037,48.9812205 L202.648115,68.1522774 C204.927787,69.4675423 206.785636,72.9836772 206.797737,76.0057846 L206.948922,113.76265 Z" id="Rectangle-Copy-3" fill="#C4C3C6" transform="translate(186.131579, 82.917191) rotate(-300.000000) translate(-186.131579, -82.917191) "></path>
                <path d="M182.67082,10.544401 C185.267792,9.02569042 187.372269,9.92171079 187.371301,12.5457185 C179.196197,30.6980882 172.650745,44.0548359 167.734944,52.6159615 C164.392189,58.4375464 158.549807,66.6548646 150.2078,77.2679159 C147.610828,78.7866264 145.506351,77.8906061 145.507319,75.2665984 L145.521426,37.0195496 C145.522394,34.395542 147.62844,31.0372053 150.225411,29.5184948 L182.67082,10.544401 Z" id="Rectangle-Copy-3" fill="#C4C3C6" transform="translate(166.439310, 43.906158) rotate(-300.000000) translate(-166.439310, -43.906158) "></path>
                <path d="M165.311487,51.0276272 C165.285657,47.9852153 167.151764,46.6003788 169.479553,47.9345083 L203.855265,67.6751762 C206.183055,69.0093057 208.091041,72.5571934 208.116872,75.5996052 L208.025285,113.849388 C208.051115,116.8918 206.185008,118.276636 203.857218,116.942507 L170.01537,97.1697295 C167.687581,95.8356001 165.779595,92.2877124 165.753764,89.2453005 L165.311487,51.0276272 Z" id="Rectangle-Copy-8" fill="#C4C3C6" transform="translate(186.714047, 82.438508) rotate(-300.000000) translate(-186.714047, -82.438508) "></path>
                <path d="M145.214904,68.2881865 C152.791426,67.8275806 180.14555,82.4688363 227.277276,112.211954 C229.103845,108.20127 229.293484,110.492024 227.846195,119.084215 C226.398906,127.676405 224.739362,142.428903 222.867563,163.341707 C225.529398,134.889064 217.274486,119.186442 198.102826,116.23384 C169.345335,111.804936 178.549793,92.5287331 145.214904,68.2881865 Z" id="Rectangle" fill="#000000" transform="translate(187.010407, 115.809679) rotate(-300.000000) translate(-187.010407, -115.809679) "></path>
                <path d="M275.428673,131.583273 C278.035709,133.082057 278.312225,135.364747 276.046288,136.681804 L243.018411,155.87899 C240.752474,157.196047 236.802148,157.04873 234.195112,155.549946 L201.623959,136.824815 C199.016922,135.326032 198.740407,133.043342 201.006344,131.726284 L234.034221,112.529099 C236.300158,111.212041 240.250483,111.359359 242.85752,112.858142 L275.428673,131.583273 Z" id="Rectangle-Copy" fill="#FFFFFF" transform="translate(238.526316, 134.204044) rotate(-300.000000) translate(-238.526316, -134.204044) "></path>
                <path d="M276.00762,80.679292 C278.614657,82.1780753 278.891172,84.4607652 276.625235,85.7778228 L243.597358,104.975009 C241.331421,106.292066 237.381096,106.144748 234.774059,104.645965 L202.202906,85.9208339 C199.59587,84.4220507 199.319354,82.1393607 201.585291,80.8223032 L234.613168,61.6251173 C236.879105,60.3080597 240.829431,60.4553776 243.436467,61.9541608 L276.00762,80.679292 Z" id="Rectangle-Copy-2" fill="#FFFFFF" transform="translate(239.105263, 83.300063) rotate(-300.000000) translate(-239.105263, -83.300063) "></path>
                <path d="M116.218032,93.2192097 C119.845168,95.3131322 122.078051,99.1909375 122.073035,103.387482 L122.022451,145.708139 C122.017448,149.893835 119.786764,153.760967 116.169409,155.855023 L79.5054498,177.079474 C75.888094,179.173531 71.4326395,179.176946 67.8148801,177.088437 L29.0977576,154.688626 C25.4706217,152.594703 23.2377387,148.716898 23.2427546,144.520354 L23.2933382,102.199696 C23.2983412,98.0140005 25.529025,94.1468681 29.1463808,92.0528119 L65.8103397,70.8283609 C69.4276955,68.7343047 73.88315,68.730889 77.5009094,70.8193985 L116.218032,93.2192097 Z" id="Polygon" fill="#000000" transform="translate(72.657895, 123.953918) rotate(-300.000000) translate(-72.657895, -123.953918) "></path>
                <path d="M87.4649568,62.446604 C90.0619285,60.9278935 92.1664054,61.8239139 92.1654376,64.4479215 L92.1513307,102.69497 C92.1503629,105.318978 90.0443168,108.677315 87.4473452,110.196025 L55.0019361,129.170119 C52.4049645,130.68883 50.3004875,129.792809 50.3014554,127.168801 L50.3102404,103.350529 C50.3120143,98.540937 66.0350646,74.9788173 71.542823,71.7578771 L87.4649568,62.446604 Z" id="Rectangle-Copy-3" fill="#C4C3C6" transform="translate(71.233446, 95.808362) rotate(-300.000000) translate(-71.233446, -95.808362) "></path>
                <path d="M86.9813044,132.613006 C89.5883408,134.111789 89.8648565,136.394479 87.5989195,137.711537 L54.5710424,156.908723 C52.3051054,158.22578 48.3547799,158.078463 45.7477435,156.579679 L13.1765904,137.854548 C10.569554,136.355765 10.2930383,134.073075 12.5589753,132.756017 L45.5868524,113.558831 C47.8527894,112.241774 51.8031148,112.389092 54.4101512,113.887875 L86.9813044,132.613006 Z" id="Rectangle-Copy" fill="#FFFFFF" transform="translate(50.078947, 135.233777) rotate(-300.000000) translate(-50.078947, -135.233777) "></path>
                <path d="M72.9693818,102.961341 C72.9435515,99.9189295 74.8096584,98.534093 77.1374482,99.8682224 L111.51316,119.60889 C113.84095,120.94302 115.748936,124.490908 115.774766,127.533319 L115.683179,165.783102 C115.70901,168.825514 113.842903,170.210351 111.515113,168.876221 L77.6732652,149.103444 C75.3454754,147.769314 73.4374893,144.221427 73.411659,141.179015 L72.9693818,102.961341 Z" id="Rectangle-Copy-8" fill="#C4C3C6" transform="translate(94.371942, 134.372222) rotate(-300.000000) translate(-94.371942, -134.372222) "></path>
                <path d="M183.707471,106.072381 C187.334607,108.166303 189.56749,112.044109 189.562474,116.240653 L189.51189,158.56131 C189.506887,162.747006 187.276203,166.614138 183.658848,168.708194 L146.994889,189.932646 C143.377533,192.026702 138.922078,192.030117 135.304319,189.941608 L52.5030556,142.089806 C48.8759197,139.995884 46.6430366,136.118078 46.6480525,131.921534 L46.6986362,89.6008765 C46.7036391,85.415181 48.934323,81.5480486 52.5516787,79.4539924 L89.2156377,58.2295414 C92.8329934,56.1354852 97.2884479,56.1320695 100.906207,58.220579 L183.707471,106.072381 Z" id="Polygon" fill="#000000" transform="translate(118.105263, 124.081093) rotate(-300.000000) translate(-118.105263, -124.081093) "></path>
                <path d="M132.428673,158.192173 C135.035709,159.690956 135.312225,161.973646 133.046288,163.290703 L100.018411,182.487889 C97.7524738,183.804947 93.8021483,183.657629 91.1951119,182.158846 L58.6239588,163.433714 C56.0169224,161.934931 55.7404067,159.652241 58.0063437,158.335184 L91.0342208,139.137998 C93.3001578,137.82094 97.2504832,137.968258 99.8575196,139.467041 L132.428673,158.192173 Z" id="Rectangle-Copy" fill="#FFFFFF" transform="translate(95.526316, 160.812944) rotate(-300.000000) translate(-95.526316, -160.812944) "></path>
                <path d="M133.00762,107.288191 C135.614657,108.786975 135.891172,111.069665 133.625235,112.386722 L100.597358,131.583908 C98.3314212,132.900966 94.3810957,132.753648 91.7740593,131.254864 L59.2029061,112.529733 C56.5958697,111.03095 56.319354,108.74826 58.585291,107.431203 L91.6131682,88.2340166 C93.8791052,86.916959 97.8294306,87.0642769 100.436467,88.5630601 L133.00762,107.288191 Z" id="Rectangle-Copy-2" fill="#FFFFFF" transform="translate(96.105263, 109.908962) rotate(-300.000000) translate(-96.105263, -109.908962) "></path>
                <path d="M160.054185,141.043648 C160.066286,144.065756 158.228056,145.449425 155.948384,144.13416 L122.720306,124.963103 C120.440634,123.647838 118.582785,120.131703 118.570684,117.109596 L118.419499,79.3527307 C118.407398,76.3306233 120.245628,74.9469541 122.5253,76.262219 L155.753378,95.4332759 C158.03305,96.7485408 159.890899,100.264676 159.903,103.286783 L160.054185,141.043648 Z" id="Rectangle-Copy-3" fill="#C4C3C6" transform="translate(139.236842, 110.198189) rotate(-300.000000) translate(-139.236842, -110.198189) "></path>
                <path d="M134.039241,38.9823081 C136.636213,37.4635976 138.74069,38.3596179 138.739722,40.9836256 L138.725615,79.2306744 C138.724647,81.854682 136.618601,85.2130187 134.02163,86.7317292 L101.576221,105.705823 C98.979249,107.224534 96.8747721,106.328513 96.8757399,103.704506 L96.8898468,65.4574568 C96.8908146,62.8334491 98.9968607,59.4751124 101.593832,57.9564019 L134.039241,38.9823081 Z" id="Rectangle-Copy-3" fill="#C4C3C6" transform="translate(117.807731, 72.344066) rotate(-300.000000) translate(-117.807731, -72.344066) "></path>
                <path d="M118.41675,128.540508 C118.39092,125.498096 120.257027,124.113259 122.584817,125.447389 L156.960528,145.188057 C159.288318,146.522186 161.196304,150.070074 161.222135,153.112486 L161.130548,191.362269 C161.156378,194.404681 159.290271,195.789517 156.962481,194.455388 L123.120634,174.68261 C120.792844,173.348481 118.884858,169.800593 118.859027,166.758181 L118.41675,128.540508 Z" id="Rectangle-Copy-8" fill="#C4C3C6" transform="translate(139.819310, 159.951388) rotate(-300.000000) translate(-139.819310, -159.951388) "></path>
                <path d="M98.3201667,95.569185 C105.896689,95.1085791 133.250814,109.749835 180.382539,139.492952 C182.209108,135.482269 182.398748,137.773023 180.951458,146.365213 C179.504169,154.957404 177.844625,169.709901 175.972826,190.622705 C178.634661,162.170063 170.379749,146.46744 151.208089,143.514838 C122.450598,139.085935 131.655057,119.809732 98.3201667,95.569185 Z" id="Rectangle" fill="#000000" transform="translate(140.115670, 143.090677) rotate(-300.000000) translate(-140.115670, -143.090677) "></path>
                <path d="M279.233787,106.072381 C282.860922,108.166303 285.093805,112.044109 285.08879,116.240653 L285.038206,158.56131 C285.033203,162.747006 282.802519,166.614138 279.185163,168.708194 L242.521204,189.932646 C238.903849,192.026702 234.448394,192.030117 230.830635,189.941608 L148.029371,142.089806 C144.402235,139.995884 142.169352,136.118078 142.174368,131.921534 L142.224952,89.6008765 C142.229955,85.415181 144.460639,81.5480486 148.077995,79.4539924 L184.741953,58.2295414 C188.359309,56.1354852 192.814764,56.1320695 196.432523,58.220579 L279.233787,106.072381 Z" id="Polygon" fill="#000000" transform="translate(213.631579, 124.081093) rotate(-300.000000) translate(-213.631579, -124.081093) "></path>
                <path d="M227.954989,158.192173 C230.562025,159.690956 230.838541,161.973646 228.572604,163.290703 L195.544727,182.487889 C193.27879,183.804947 189.328464,183.657629 186.721428,182.158846 L154.150275,163.433714 C151.543238,161.934931 151.266722,159.652241 153.532659,158.335184 L186.560537,139.137998 C188.826474,137.82094 192.776799,137.968258 195.383835,139.467041 L227.954989,158.192173 Z" id="Rectangle-Copy" fill="#FFFFFF" transform="translate(191.052632, 160.812944) rotate(-300.000000) translate(-191.052632, -160.812944) "></path>
                <path d="M228.533936,107.288191 C231.140972,108.786975 231.417488,111.069665 229.151551,112.386722 L196.123674,131.583908 C193.857737,132.900966 189.907411,132.753648 187.300375,131.254864 L154.729222,112.529733 C152.122186,111.03095 151.84567,108.74826 154.111607,107.431203 L187.139484,88.2340166 C189.405421,86.916959 193.355746,87.0642769 195.962783,88.5630601 L228.533936,107.288191 Z" id="Rectangle-Copy-2" fill="#FFFFFF" transform="translate(191.631579, 109.908962) rotate(-300.000000) translate(-191.631579, -109.908962) "></path>
                <path d="M255.580501,141.043648 C255.592602,144.065756 253.754372,145.449425 251.4747,144.13416 L218.246622,124.963103 C215.96695,123.647838 214.109101,120.131703 214.097,117.109596 L213.945815,79.3527307 C213.933714,76.3306233 215.771944,74.9469541 218.051616,76.262219 L251.279694,95.4332759 C253.559366,96.7485408 255.417215,100.264676 255.429316,103.286783 L255.580501,141.043648 Z" id="Rectangle-Copy-3" fill="#C4C3C6" transform="translate(234.763158, 110.198189) rotate(-300.000000) translate(-234.763158, -110.198189) "></path>
                <path d="M229.565557,38.9823081 C232.162529,37.4635976 234.267006,38.3596179 234.266038,40.9836256 L234.251931,79.2306744 C234.250963,81.854682 232.144917,85.2130187 229.547946,86.7317292 L197.102537,105.705823 C194.505565,107.224534 192.401088,106.328513 192.402056,103.704506 L192.411196,78.9226936 C192.412852,74.4342813 202.677662,54.7063649 205.456418,53.0813464 L229.565557,38.9823081 Z" id="Rectangle-Copy-3" fill="#C4C3C6" transform="translate(213.334047, 72.344066) rotate(-300.000000) translate(-213.334047, -72.344066) "></path>
                <path d="M213.943066,128.540508 C213.917236,125.498096 215.783343,124.113259 218.111132,125.447389 L252.486844,145.188057 C254.814634,146.522186 256.72262,150.070074 256.74845,153.112486 L256.656864,191.362269 C256.682694,194.404681 254.816587,195.789517 252.488797,194.455388 L218.646949,174.68261 C216.31916,173.348481 214.411173,169.800593 214.385343,166.758181 L213.943066,128.540508 Z" id="Rectangle-Copy-8" fill="#C4C3C6" transform="translate(235.345626, 159.951388) rotate(-300.000000) translate(-235.345626, -159.951388) "></path>
                <g id="Group-47" transform="translate(165.028861, 176.813954) rotate(-300.000000) translate(-165.028861, -176.813954) translate(115.528861, 121.813954)">
                    <path d="M93.015782,23.96492 C96.6460093,26.0588426 98.881751,29.9349945 98.8782807,34.1288564 L98.843284,76.422465 C98.8398227,80.6054853 96.6091401,84.4693251 92.9902448,86.5607099 L56.3106818,107.758085 C52.6917865,109.849469 48.2334851,109.85124 44.6126422,107.76273 L5.86250272,85.3629489 C2.23227537,83.2690262 -0.0034662587,79.3928743 4.03404635e-06,75.1990125 L0.0350007053,32.9054039 C0.038462027,28.7223836 2.26914458,24.8585437 5.88803989,22.767159 L42.5676029,1.56978418 C46.1864982,-0.521600615 50.6447996,-0.523371151 54.2656425,1.56513851 L93.015782,23.96492 Z" id="Polygon" fill="#000000"></path>
                    <path d="M40.5609496,8.48925052 C43.1590209,6.97246764 45.2651738,7.86869176 45.2651738,10.4910231 L45.2651738,48.7136381 C45.2651738,51.3359694 43.1590209,54.6913845 40.5609496,56.2081673 L8.1018027,75.1581778 C5.50373142,76.6749607 3.39757851,75.7787366 3.39757851,73.1564052 L3.39757851,49.353349 C3.39757851,44.5468294 19.1219836,21.005557 24.6320741,17.788705 L40.5609496,8.48925052 Z" id="Rectangle-Copy-3" fill="#C4C3C6"></path>
                    <path d="M84.8516193,77.2356648 C87.4608754,78.7344522 87.7384103,81.0157861 85.4715109,82.3311669 L52.4296058,101.503912 C50.1627064,102.819293 46.2098013,102.670613 43.6005452,101.171825 L11.0016601,82.446643 C8.39240397,80.9478556 8.11486903,78.6665217 10.3817684,77.3511409 L43.4236735,58.1783956 C45.6905729,56.8630149 49.643478,57.0116953 52.2527341,58.5104826 L84.8516193,77.2356648 Z" id="Rectangle-Copy" fill="#FFFFFF"></path>
                    <path d="M47.8985378,9.68547426 C47.8715681,6.64499609 49.7383568,5.26173223 52.0681271,6.59586795 L86.4730993,26.3366037 C88.8028696,27.6707394 90.7133848,31.2170647 90.7403544,34.2575428 L90.6628259,72.4828616 C90.6897956,75.5233397 88.8230069,76.9066036 86.4932366,75.5724679 L52.6224579,55.79984 C50.2926876,54.4657043 48.3821724,50.919379 48.3552027,47.8789008 L47.8985378,9.68547426 Z" id="Rectangle-Copy-8" fill="#C4C3C6"></path>
                </g>
                <path d="M140.96291,93.9716237 C162.589838,103.612786 169.484702,93.5858374 179.975452,106.577622 C186.969286,115.238811 197.130617,114.875497 210.459447,105.487678 C200.638281,112.345817 193.807982,117.351764 189.96855,120.505519 C186.129118,123.659274 184.939462,124.214964 186.39958,122.172588 C158.066069,107.256332 142.920512,97.8560109 140.96291,93.9716237 Z" id="Rectangle-Copy-11" fill="#000000" transform="translate(175.711178, 108.674184) rotate(-300.000000) translate(-175.711178, -108.674184) "></path>
                <path d="M166.651764,71.6512704 C171.863735,72.9687415 201.422472,89.2943051 255.327975,120.627961 C257.463158,121.647232 258.00086,125.166658 256.94108,131.186237 C255.881301,137.205816 255.074504,169.444183 254.520691,227.901336 C242.946153,200.656338 238.964101,183.119133 242.574537,175.28972 C247.990189,163.545601 240.97453,147.858981 236.060585,137.314334 C230.924369,126.292722 217.035922,119.341393 212.998762,118.909639 C194.564792,116.938217 191.063888,88.6334505 166.651764,71.6512704 Z" id="Rectangle" fill="#000000" transform="translate(212.060072, 149.776303) rotate(-300.000000) translate(-212.060072, -149.776303) "></path>
            </g>
            <g id="Group-48">
                <g id="Group-47-Copy" transform="translate(138.882072, 72.892027) scale(-1, -1) rotate(-182.000000) translate(-138.882072, -72.892027) translate(64.382072, 2.892027)">
                    <path d="M124.715974,34.3465382 C128.902576,36.7633689 131.480955,41.237298 131.476927,46.0779489 L131.436305,94.8941957 C131.432287,99.7223331 128.859694,104.182079 124.686135,106.596025 L82.3847407,131.062745 C78.2111817,133.476691 73.0695779,133.478762 68.8937987,131.068179 L24.20475,105.214081 C20.0181481,102.79725 17.4397691,98.3233212 17.4437972,93.4826703 L17.4844195,44.6664235 C17.4884372,39.8382861 20.0610296,35.3785404 24.2345886,32.964594 L66.5359834,8.49787425 C70.7095424,6.08392789 75.8511462,6.08185672 80.0269254,8.49243976 L124.715974,34.3465382 Z" id="Polygon" fill="#000000" transform="translate(74.460362, 69.780310) rotate(-257.000000) translate(-74.460362, -69.780310) "></path>
                    <path d="M113.030564,8.22646968 C116.026839,6.47574826 118.455786,7.51017753 118.45577,10.5369321 L118.455533,54.6543451 C118.455517,57.6810997 116.026543,61.5540092 113.030269,63.3047306 L75.5961468,85.1774652 C72.5998722,86.9281867 70.1709249,85.8937574 70.1709411,82.8670028 L70.1710884,55.392973 C70.1711182,49.8451786 88.3056731,22.6732084 94.6602886,18.9602104 L113.030564,8.22646968 Z" id="Rectangle-Copy-3" fill="#C4C3C6" transform="translate(94.313355, 46.701967) rotate(-257.000000) translate(-94.313355, -46.701967) "></path>
                    <path d="M88.0206451,60.3374065 C91.0298001,62.0673248 91.3498573,64.7004907 88.735513,66.2187472 L50.6293151,88.348571 C48.0149707,89.8668274 43.4562238,89.6952415 40.4470688,87.9653232 L2.85202491,66.3524929 C-0.157130074,64.6225745 -0.477187337,61.9894086 2.13715701,60.4711522 L40.2433549,38.3413284 C42.8576993,36.8230719 47.4164462,36.9946578 50.4256012,38.7245762 L88.0206451,60.3374065 Z" id="Rectangle-Copy" fill="#FFFFFF" transform="translate(45.436335, 63.344950) rotate(-257.000000) translate(-45.436335, -63.344950) "></path>
                    <path d="M58.7704385,61.206464 C58.7393542,57.697075 60.8922652,56.1004688 63.5790999,57.6403442 L103.257035,80.4253384 C105.94387,81.9652138 108.147178,86.0584514 108.178263,89.5678404 L108.088615,133.688375 C108.1197,137.197764 105.966788,138.79437 103.279954,137.254494 L64.2180857,114.432686 C61.531251,112.892811 59.3279423,108.799573 59.2968579,105.290184 L58.7704385,61.206464 Z" id="Rectangle-Copy-8" fill="#C4C3C6" transform="translate(83.474184, 97.447419) rotate(-257.000000) translate(-83.474184, -97.447419) "></path>
                </g>
                <g id="Group-39" transform="translate(108.476399, 100.866558) scale(-1, -1) rotate(-176.000000) translate(-108.476399, -100.866558) translate(3.476399, 51.866558)">
                    <g id="Group-9" transform="translate(104.890562, 49.169285) rotate(-181.000000) translate(-104.890562, -49.169285) translate(0.890562, 2.169285)" fill="#000000" fill-rule="nonzero">
                        <path d="M104.891205,3.01876999 L195.721814,0.326225535 L207.555515,53.9651849 L146.933453,49.6903822 L136.916466,53.47001 C136.162136,54.7352373 135.239533,55.8764621 134.17737,56.8567268 L125.656765,64.7269206 L117.852497,73.8496716 C116.799015,75.0806422 115.619898,76.1800349 114.337298,77.126324 L106.832637,82.6676852 L101.664749,90.2429924 L101.614696,90.3135942 C100.052174,92.4352968 97.6716776,93.6979486 95.13381,93.7521833 L94.3512649,93.7690253 C91.6756683,93.8259093 89.3427615,91.850136 88.8021556,89.0673123 L88.6421708,88.2391867 C87.2388329,81.0057325 89.005632,73.4875895 93.4456537,67.7995371 L100.563048,58.6811189 C102.139415,56.2715481 102.43802,53.1743719 101.359996,50.4802538 L96.6002036,43.1726611 C86.2802652,41.5732753 77.5008243,41.2992887 70.2618807,42.3507013 C63.0229371,43.402114 52.9469465,46.4147376 40.033909,51.3885723 L24.3097138,60.3181011 C17.8296182,63.3247514 3.86211746,56.9696338 0.494433035,50.3725831 C-0.487758151,48.4485762 0.20993764,46.0467667 2.03561393,45.0406728 C30.3536574,27.0142038 51.0028476,15.1513868 63.9831844,9.45222195 C72.9789174,5.50254277 86.6149244,3.35805879 104.891205,3.01876999 Z" id="Stroke-3"></path>
                    </g>
                    <g id="Group-18" transform="translate(106.895653, 49.228609) rotate(-181.000000) translate(-106.895653, -49.228609) translate(13.395653, 7.228609)" fill="#C4C3C7">
                        <path d="M47.7100824,31.2812735 L34.2337025,38.5699985 L18.6299807,47.7944631 C16.6705121,48.9525465 14.4376821,49.4901852 12.1969121,49.3437747 C9.94593356,49.195564 3.27296474,44.8304295 1.60897608,43.2199135 L0.135546452,41.7936108 L48.0645449,15.6461271 L59.6200216,10.1657523 L97.8792836,3.5508758 L183.377249,0.144162381 L186.240172,36.3939738 L152.10467,36.1086212 L132.692036,29.5189465 L125.042452,44.8860535 L108.452474,62.4439184 L95.1485047,73.8297386 L87.2091123,83.9014642 L84.7721119,80.0521869 L85.6772673,72.9308739 L99.1746313,51.8375543 L96.9866053,41.1813867 L90.0289322,33.2266136 L76.6291163,29.6101531 L63.519676,29.5189465 L47.7100824,31.2812735 Z" id="Fill-10"></path>
                    </g>
                    <polyline id="Fill-19" fill="#FFFFFF" transform="translate(173.135954, 61.014829) rotate(-181.000000) translate(-173.135954, -61.014829) " points="195.187164 47.9527776 195.437175 48.2857453 192.75385 50.6764713 153.687434 74.0768798 150.834732 71.5375852"></polyline>
                    <path d="M132.427933,68.6226424 L128.737492,76.490539 C102.39466,79.0118822 85.6273322,80.9971939 78.435508,82.446474 C71.2436837,83.8957541 66.460241,86.8136694 64.0851797,91.2002199 C58.9154621,87.6297898 53.6454081,85.1373705 48.2750176,83.7229622 C42.9046271,82.3085539 34.4255982,81.1798552 22.8379309,80.3368661 L17.4908396,77.0078185 L41.9987091,72.8197015 L54.8551719,71.3345532 L132.427933,68.6226424 Z" id="Fill-20" fill="#FFFFFF" transform="translate(74.959386, 79.911431) rotate(-181.000000) translate(-74.959386, -79.911431) "></path>
                </g>
            </g>
        </g>
    </g>
</svg>