<?xml version="1.0" encoding="UTF-8"?>
<svg width="400px" height="320px" viewBox="0 0 400 320" version="1.1" xmlns="http://www.w3.org/2000/svg" xmlns:xlink="http://www.w3.org/1999/xlink">
    <!-- Generator: Sketch 53.2 (72643) - https://sketchapp.com -->
    <title>Builder</title>
    <desc>Created with Sketch.</desc>
    <g id="Builder" stroke="none" stroke-width="1" fill="none" fill-rule="evenodd">
        <g id="Group-43">
            <g id="Group-Copy-2" transform="translate(229.656946, 211.057304) scale(1, -1) rotate(-60.000000) translate(-229.656946, -211.057304) translate(155.156946, 123.057304)">
                <g id="Group-9" transform="translate(0.473987, 0.083620)">
                    <path d="M82.6202665,14.0136852 L138.191485,45.9476194 C143.687718,49.1060232 147.072352,54.9351455 147.072352,61.2425259 L147.072352,125.171416 C147.072352,131.478796 143.687718,137.307918 138.191485,140.466322 L82.6202665,172.400256 C77.1097882,175.566846 70.3158368,175.566846 64.8053585,172.400256 L9.23413989,140.466322 C3.73790673,137.307918 0.353272732,131.478796 0.353272732,125.171416 L0.353272732,61.2425259 C0.353272732,54.9351455 3.73790673,49.1060232 9.23413989,45.9476194 L61.2939722,8.10779313 C66.8044505,4.94120339 77.1097882,10.8470954 82.6202665,14.0136852 Z" id="Polygon" fill="#000000" transform="translate(73.712813, 90.988615) rotate(-360.000000) translate(-73.712813, -90.988615) "></path>
                    <path d="M56.7095764,54.0180641 C58.3639473,54.6602909 59.7220273,55.5876542 61.0312811,56.7025568 C61.7041285,57.8450162 62.502971,58.2040202 63.4930689,58.0945585 C64.3867055,57.9950478 65.2917745,57.4867777 66.2925903,57.8530536 C65.338457,59.361789 64.9560543,59.0327638 64.4735096,60.98126 C64.3039282,61.6655874 61.681415,61.821911 61.1931541,62.0496374 C59.2624989,62.9490611 57.8420621,62.4222768 55.9280792,62.4697357 C54.5468962,62.5041818 49.9053021,67.7609049 48.6713119,69.5329609 C51.4372505,67.9740874 58.9043688,63.4367524 61.6624477,64.9209929 C61.8358398,65.0139971 62.1126004,65.017059 62.2397864,64.8555455 C63.0074279,63.8807233 65.4222797,65.2038877 66.1920647,64.2061015 C68.868211,60.737388 69.5182148,59.4993443 73.2289979,59.5238392 C75.0746242,59.5357039 75.7851533,58.0551974 77.5743318,58.7789464 C77.8739573,58.900273 79.6999587,57.9793268 79.9490909,58.5840457 C80.4768891,59.8646719 81.4172467,58.2993209 82.244194,57.7608149 C84.0417088,56.5900331 85.5951407,58.9077488 87.5184124,59.3107671 C89.2104151,59.6655611 101.416896,57.5685394 103.092941,57.0070693 C101.15657,56.7670954 98.0350962,55.4075734 96.1013447,55.1764024 C94.2288045,54.9521206 83.337184,55.214489 81.442017,55.6986469 C82.4290186,55.2669235 84.5035889,53.4810175 87.6657278,50.3409289 L98.289594,47.7320121 C104.131287,46.9810722 107.33604,46.541303 107.903851,46.4127045 C107.659324,46.2983948 104.220602,45.5187926 97.5876849,44.0738981 L86.1289866,47.282973 L81.5778312,53.2144268 C80.3089341,53.6563227 79.54071,53.9284294 79.2731589,54.0307468 C77.488982,54.7131606 78.0660572,53.7905268 76.2390086,52.8451751 C73.2956288,51.3222786 73.1480553,54.7923751 70.121552,54.5068559 C69.7490447,54.4716445 67.2664923,53.3984186 66.9690103,53.7926341 C65.2984434,56.0052164 63.2846648,56.1984968 61.2496885,56.2425111 C59.9968824,54.5959917 58.6423752,53.4477912 56.7095764,54.0180641 Z M95.5154361,22.8114593 C96.0240784,23.5477457 96.6407593,23.0767809 97.2050941,23.1938569 C98.165969,23.2223657 99.127083,23.2504943 100.087958,23.2782429 C100.16086,23.3774534 100.233762,23.4766639 100.306665,23.5758744 C100.94677,23.5922194 101.589743,23.2075411 102.226502,23.613506 C102.37159,24.0194708 102.520023,24.026693 102.672042,23.6230089 C102.843661,23.6313715 103.015758,23.6393539 103.187855,23.6480966 C103.400108,24.6474239 103.756493,24.4018684 104.139408,23.9263422 C107.873435,24.4140321 112.740615,28.69774 116.470818,29.4686171 C118.089725,29.8035001 119.815953,30.4557807 121.478602,29.7225352 C122.073771,29.4598744 122.236785,30.2372135 122.572852,30.5036754 C122.887407,30.752652 122.403623,31.1570963 122.284828,31.471453 C120.278942,36.7820661 117.494614,38.1430941 116.336306,44.1116896 C115.654371,47.6247299 113.68147,50.0126242 112.220797,52.8368928 C109.712483,57.6864241 105.996144,59.9386167 103.099417,63.9366862 C101.58568,66.0258086 98.4111734,63.6963427 97.5196153,66.5913129 L97.3214647,66.9866345 C97.3401085,67.1170146 97.3255281,67.2367514 97.2784405,67.3469853 C96.7095642,67.579997 96.8192761,68.028915 97.1273775,68.5420728 C97.1032361,68.7750845 97.0795728,69.0084763 97.0554314,69.241868 C96.8835734,69.342599 96.8434175,69.4509323 97.0484997,69.5718095 C97.1072995,72.584616 95.8753718,74.5463993 94.6962683,76.4298785 C93.3321604,78.6090887 91.5655368,79.9904334 90.0200101,81.8184156 C89.3402269,82.6223628 88.4625322,83.1385616 88.2435865,84.707304 C88.1513234,85.3690875 87.7318369,85.1687659 87.4375989,85.2390875 C81.2841747,86.704058 75.2430916,85.6648184 69.2603303,83.2062224 C65.2559676,81.5603162 63.0718036,84.2740803 59.1714161,82.0796655 C59.0442555,81.6828235 58.7689003,81.9222971 58.5920228,81.7387006 L58.5164914,81.7998995 L58.4574525,81.7029697 C58.4103649,81.4920048 58.3453504,81.457034 58.2573898,81.6524141 C58.0494392,81.7231159 57.8842739,81.6106013 57.7528109,81.3536422 C57.3679829,80.000046 55.1928679,79.2736426 54.1865784,80.1623559 C54.0149595,80.1600752 53.8435795,80.1574144 53.6721996,80.1547535 C53.1673817,79.2257479 52.7416806,78.9756309 52.5203447,80.4922973 C52.1751946,80.5474143 51.7927568,80.9142271 51.5391528,80.1977068 C51.0094764,78.8688181 50.3203713,79.401742 49.6439345,79.7871805 C47.4100197,80.0167711 45.1897292,79.5442858 42.9694388,79.3382625 C40.3700569,79.0976485 31.9551168,86.0431499 29.3903934,85.1046412 C26.8498113,84.1752554 24.6904719,82.1401096 22.6513613,79.6704901 C22.2141871,79.1409873 22.1790506,78.6635605 22.4144889,77.9056074 C23.9157963,73.0747018 31.5405242,61.5024176 33.6910198,57.3488803 C34.2228473,56.3214243 35.0106692,55.5292607 35.8838225,55.9230618 C36.779205,56.3263658 37.4867149,55.9800793 38.054396,55.0320678 C39.4878207,52.639232 41.1036204,51.8953432 43.1611357,52.7308401 C44.8983594,53.4363371 49.5219698,54.1879337 51.1119549,52.4401562 C49.5585404,51.8274078 48.1925204,52.8411796 46.6269156,52.9909456 C47.2254308,51.3218523 47.7759022,49.7858 48.3600759,48.1573792 C47.1640017,47.9726424 46.6159206,49.2927884 45.9970884,50.3901858 C45.1569204,51.8794838 41.4475754,51.9850508 39.8740829,50.9800217 C39.5485327,50.7720978 39.298753,51.1773024 39.0403685,51.5125655 C38.4229705,52.3138519 37.730041,52.9463664 36.9345704,53.1698752 C36.303787,53.3470096 35.8357788,52.9577699 36.0590268,51.8349046 C37.0306579,46.9492622 40.3489602,43.3527017 42.6705966,39.3367667 C43.1390829,39.4371175 43.362092,39.1455679 43.2808239,38.3689891 L43.7206274,37.8235213 C46.044176,37.3635799 48.2374568,36.0422936 50.5067471,35.2212411 C50.9190628,35.0718551 51.3177543,34.8270599 51.6820263,34.300598 C49.6589303,34.6913581 47.6358344,35.0824984 45.2651981,35.5405393 C47.8392435,31.0532593 50.0820021,26.6632893 54.0137017,26.4496636 C57.9850792,26.2333771 61.9356617,26.8537279 65.8802685,27.5333769 C66.2691599,27.6006576 66.6700026,27.4908038 67.0655867,27.462295 C67.0655867,27.4611547 66.9723674,27.501067 66.9723674,27.501067 C67.0739525,27.6451313 67.1755375,27.7895757 67.2768835,27.93364 C68.0463006,29.7787274 65.5614736,30.1279493 66.1449303,32.1197618 C66.8988108,34.6912526 67.0721895,38.4605947 68.8400082,39.5496296 C70.5953977,40.6310621 72.1124806,42.441939 73.7139389,43.9791317 C75.0529492,45.2639268 76.3372231,46.7167336 77.1415376,48.9803297 C77.6293849,50.3533119 77.9207547,52.0839841 79.2356236,52.109452 C79.3747354,52.1121128 79.5716908,52.4831069 79.6376613,52.7488086 C80.0325284,54.3316153 80.4560782,53.5645394 80.8822573,52.8157092 C81.0945103,52.4428145 81.3029389,52.0623175 81.4975042,51.6658556 C83.7557993,47.0535172 85.6585799,40.2265148 85.1661912,34.4316328 C84.7859047,29.9561365 84.0313071,25.5612249 83.4430699,21.1302023 C83.9550585,20.8124246 84.4868861,20.8964304 85.0163234,20.9333018 C85.011543,21.1058748 85.0065235,21.2780678 85.001982,21.4506408 C85.0662794,21.8113718 85.193679,21.854325 85.3729467,21.6376584 C85.8043843,21.6445005 86.236061,21.6521028 86.6677376,21.6589449 C87.1419605,22.719471 87.4448034,22.7373365 87.8542509,21.7292665 C88.5574584,22.1884477 89.3142072,21.8018689 90.0288878,22.0793542 C90.4003305,23.2869856 90.9386117,22.7647049 91.4589662,22.4283015 C91.8567015,22.4317225 92.2539587,22.4351436 92.651216,22.4385647 C92.7300938,22.6955237 92.8092106,22.7445588 92.8883274,22.4389448 C93.0520586,22.4503483 93.2155508,22.462512 93.379282,22.4739155 C93.3728283,22.732395 93.4117892,22.9844125 93.5953593,22.9980967 C93.7856221,23.0125412 93.824822,22.758243 93.8269732,22.5020442 C94.0014605,22.5073658 94.1764257,22.5119272 94.350913,22.5168687 C94.4259664,22.6164594 94.5005418,22.7156699 94.5755952,22.8148804 C94.8887161,22.8133599 95.2023151,22.8122196 95.5154361,22.8114593 Z" id="Fill-3" fill="#C4C3C6" transform="translate(72.473853, 53.403540) rotate(-150.000000) translate(-72.473853, -53.403540) "></path>
                    <path d="M17.3417499,63.9930699 L65.0672762,91.7656525 C68.8872879,93.9886053 71.9840192,98.9062037 71.9840192,102.749416 L71.9840192,158.767366 C71.9840192,162.610578 68.8872879,163.924058 65.0672762,161.701105 L17.3417499,133.928522 C13.5217382,131.70557 10.4250069,126.787971 10.4250069,122.944759 L10.4250069,66.9268094 C10.4250069,63.0835971 13.5217382,61.7701172 17.3417499,63.9930699 Z" id="Rectangle" fill="#FFFFFF"></path>
                    <path d="M82.1218732,64.1099455 L129.8474,91.8160866 C133.667411,94.0337212 136.764143,98.9395551 136.764143,102.773573 L136.764143,158.657508 C136.764143,162.491526 133.667411,163.801864 129.8474,161.584229 L82.1218732,133.878088 C78.3018616,131.660454 75.2051303,126.75462 75.2051303,122.920602 L75.2051303,67.0366665 C75.2051303,63.2026485 78.3018616,61.8923109 82.1218732,64.1099455 Z" id="Rectangle-Copy-6" fill="#C4C3C6" transform="translate(105.984636, 112.847087) scale(-1, 1) translate(-105.984636, -112.847087) "></path>
                </g>
            </g>
            <g id="Group-40" transform="translate(202.335447, 144.617817) rotate(-8.000000) translate(-202.335447, -144.617817) translate(15.335447, 25.117817)">
                <g id="Group-39" transform="translate(255.351144, 77.400928) rotate(9.000000) translate(-255.351144, -77.400928) translate(145.851144, 16.400928)">
                    <g id="Group-9" transform="translate(-0.000000, -0.000000)" fill-rule="nonzero">
                        <g id="Group-42" transform="translate(74.686154, 62.009761) rotate(10.000000) translate(-74.686154, -62.009761) translate(23.686154, 11.009761)">
                            <g id="Group-41-Copy" transform="translate(64.380141, 45.292647) rotate(22.000000) translate(-64.380141, -45.292647) translate(40.380141, 6.792647)">
                                <path d="M33.2864562,22.376162 L30.8858486,27.5500369 L28.4725015,33.7152638 L29.3477508,34.9918191 L29.5150568,35.3218824 C32.029937,40.2832685 32.0803072,45.9248876 29.6539926,50.9196782 L29.3738659,51.4963445 L29.2328126,51.6711634 L30.6058515,54.2406474 C34.1494382,60.9356706 30.7856655,70.0900612 23.4268185,73.6653156 L16.7875567,76.8909636 L4.99134513,49.8845924 L0.320617213,33.5218212 L2.32819646,15.2215015 L13.3734286,9.66953491 L47.6673275,0.236049219 L33.2864562,22.376162 Z" id="Path" fill="#000000"></path>
                                <path d="M29.5036323,10.2078542 L14.0432346,15.0284826 L7.47364019,18.7716411 L6.09094475,33.0586126 L9.88081982,48.1082088 L17.7614674,68.5591478 C21.5728352,66.4601804 23.4426979,60.6180545 21.6229847,56.7209717 L18.957893,51.0677528 L20.7059639,48.611961 C22.2046223,45.1149219 22.1735609,41.1714404 20.6199932,37.6973305 L18.6140102,34.380962 L21.694627,25.4603506 L24.0230001,19.7721489 L29.5036323,10.2078542 Z" id="Path" fill="#C4C3C7"></path>
                                <path d="M11.2063136,52.7089827 L18.8523268,63.6702449 C19.4698146,64.6740047 19.2847371,66.0019401 18.4191444,66.7783396 L16.5420207,68.444163 L11.2063136,52.7089827 Z" id="Path" fill="#FFFFFF"></path>
                            </g>
                            <g id="Group-41" transform="translate(46.822399, 50.991885) rotate(37.000000) translate(-46.822399, -50.991885) translate(22.822399, 5.491885)">
                                <path d="M33.9662888,24.5789108 L31.3086391,31.1102865 L28.4486983,39.4413126 L29.708064,41.5357718 L29.8537849,41.8635798 C32.4174514,47.6307057 32.4687203,54.1785386 29.9956204,59.98383 L29.7514434,60.5570048 L29.1920385,61.3475803 L31.0478576,65.3077109 C34.5725016,72.9011141 31.1872792,83.4062624 23.8091088,87.493765 L17.7882446,90.8293206 L5.53264319,58.8351769 L0.545990671,38.9149823 L2.62976862,17.2554238 L13.9097898,10.7900433 L47.892701,0.130757803 L33.9662888,24.5789108 Z" id="Path" fill="#000000"></path>
                                <path d="M35.4071365,10.3377415 L16.6919181,16.2958216 L8.73925124,20.9221973 L7.06546202,38.5802519 L11.6532055,57.1808764 L21.1929368,82.4573179 C25.8066978,79.8630885 28.0702158,72.6424835 25.8674052,67.8258643 L22.6412415,60.8387398 L24.7573273,57.8034915 C26.5714927,53.4813083 26.533892,48.6073425 24.6532575,44.3134988 L22.2249623,40.2146164 L25.95413,29.1891415 L28.772687,22.1587799 L35.4071365,10.3377415 Z" id="Path" fill="#C4C3C7"></path>
                                <path d="M13.8775652,63.8970131 L23.288043,77.1418716 C24.0480279,78.354748 23.8202403,79.9593367 22.7548954,80.897486 L20.4445893,82.910356 L13.8775652,63.8970131 Z" id="Path" fill="#FFFFFF"></path>
                            </g>
                        </g>
                        <path d="M124.550862,3.61391991 L204.67569,0.37290316 L218.72737,64.5867731 L174.473048,59.4868316 L162.578587,64.0116123 C161.682873,65.5262789 160.587348,66.8924959 159.326104,68.0660196 L149.20849,77.4878207 L139.941476,88.4091202 C138.690542,89.8827765 137.290423,91.1989143 135.767427,92.3317641 L126.856174,98.9656036 L120.719674,108.034381 L120.66024,108.118902 C118.804856,110.658898 115.978185,112.170481 112.964648,112.235408 L112.035431,112.255571 C108.85835,112.323669 106.088189,109.958373 105.446257,106.626916 L105.256287,105.635526 C103.589923,96.9759972 105.687871,87.9756537 110.960082,81.166203 L119.411483,70.2500903 C121.283306,67.3654731 121.637879,63.6576892 120.357801,60.4324263 L114.705886,51.684143 C102.451692,49.7694386 92.0267286,49.4414356 83.4309968,50.700134 C74.8352651,51.9588325 62.8707413,55.5653943 47.5374257,61.5198195 L28.8660599,72.2098032 C21.1714063,75.8092141 4.58599038,68.2011863 0.587104139,60.3035282 C-0.579178188,58.0002037 0.249286048,55.124878 2.41714708,53.9204329 C36.042814,32.3400489 60.5622618,18.1384799 75.9754905,11.3157257 C86.6572851,6.58736803 102.849076,4.02009943 124.550862,3.61391991 Z" id="Stroke-3" fill="#000000"></path>
                    </g>
                    <g id="Group-18" transform="translate(9.936964, 6.436672)" fill="#C4C3C7">
                        <path d="M56.6852806,37.4775339 L40.6737305,46.210025 L22.1346439,57.2616908 C19.806561,58.6491699 17.153692,59.2933052 14.4913894,59.1178933 C11.8169579,58.9403248 3.88867332,53.7105353 1.9116559,51.7810049 L0.161045386,50.0721771 L57.1064244,18.7453449 L70.835712,12.1794059 L116.292288,4.25424075 L190.127892,0.155066957 L193.529386,43.5853172 L180.718529,43.2610929 L157.653999,35.3661215 L148.56538,53.7771774 L128.854502,74.8129411 L113.047797,88.4540885 L103.61485,100.520843 L100.719402,95.9090924 L101.794835,87.3771747 L117.831316,62.1056461 L115.23168,49.3386823 L106.965133,39.8082111 L91.0445496,35.4753945 L75.4689676,35.3661215 L56.6852806,37.4775339 Z" id="Fill-10"></path>
                    </g>
                    <polyline id="Fill-19" fill="#FFFFFF" points="69.2638912 25.1615368 69.5587472 25.5642315 66.3937788 28.4558534 20.315761 56.7597457 16.9512913 53.6887482"></polyline>
                    <polygon id="Fill-20" fill="#FFFFFF" points="200.277143 6.4366722 201.661914 22.2716877 188.704119 20.5003377 164.691746 22.5873022 146.686343 33.353665 117.44703 26.3819149 97.5552629 20.4149191 91.1862569 16.4494692 120.379051 11.4589962 135.693116 9.68909391"></polygon>
                </g>
                <g id="Group-38" transform="translate(-0.000000, 44.037585)">
                    <g id="Group-36">
                        <g id="Group-11-Copy" transform="translate(112.386096, 125.245638) scale(-1, 1) rotate(-300.000000) translate(-112.386096, -125.245638) translate(57.386096, 84.745638)">
                            <g id="Group-7" transform="translate(55.044746, 40.576026) rotate(-98.000000) translate(-55.044746, -40.576026) translate(22.044746, -9.423974)">
                                <path d="M47.4917863,7.11478954 C48.4029641,7.5233637 50.8274592,10.2369915 51.2757725,11.001286 C51.995014,12.228747 53.498977,13.4322152 53.2335921,14.6714989 C52.993845,15.7901227 51.4004965,16.62118 50.3947364,17.569072 C49.1332921,18.7579358 47.8895171,19.967663 46.5833802,21.1057594 C45.9646108,21.6447295 45.8752253,22.0133156 46.503349,22.6155713 C47.105835,23.1927909 47.5673136,23.9153587 48.1206029,24.5482139 C48.9621432,25.5117535 49.4080313,26.5403172 49.6176368,27.8842654 C50.327524,32.4376939 52.0771239,36.7244191 53.4480481,41.1029431 C55.9719759,49.1631549 61.101352,61.9536351 62.7425114,70.2502983 C63.5951382,74.3037016 64.6885515,78.3240712 65.2401085,82.4181581 C65.9534603,87.7191904 57.0101848,98.7466312 56.7028788,99.0877471 C56.0848023,99.7727608 40.6899176,93.1368803 38.7490743,91.9615776 C36.4278229,90.5553871 17.610352,41.4624884 15.5582965,38.1817249 C14.6273707,36.6927763 13.8966962,35.0776045 13.0974236,33.562229 C14.2628996,32.3542404 14.3512458,32.3365066 13.0613922,32.0207744 C11.9499632,31.7481598 10.7962666,31.583687 9.65331013,31.5186628 C6.37688113,31.3333266 4.36917192,29.492135 3.24527051,26.5827394 C2.59116266,24.8882867 1.43642671,19.74825 0.267832547,19.7082619 C1.68414234,16.1861789 4.3133926,13.6540623 7.18446874,11.4574981 C10.5610234,8.87461404 13.6363972,5.63549567 17.1958803,3.31861944 C18.190749,2.67127459 21.788305,0.127957934 24.6315067,0.216993304 C27.596368,0.309838465 42.4917416,4.87093508 47.4917863,7.11478954 Z" id="Path" fill="#000000"></path>
                                <path d="M44.9495643,9.41453398 C41.8107369,13.0466101 38.4209133,16.4993427 34.1999247,18.7217853 C29.8839875,20.9939272 25.0158288,21.4424296 20.1795068,21.2512219 C15.7286261,21.0745307 11.4997932,19.6743856 7.25878466,18.4173943 C8.26048507,16.6724405 10.0233477,15.7160508 11.4289862,14.4035543 C14.1923596,11.8244454 17.0715363,9.356863 20.0439692,7.02799904 C22.4143476,5.17096698 25.0876232,4.27359954 28.2265866,4.99091979 C33.8529242,6.27643441 39.4436733,7.67428126 44.9495643,9.41453398 Z" id="Fill-15-Copy" fill="#C4C3C6"></path>
                                <path d="M4.13286203,21.9802604 C11.2490685,24.5269117 18.3470117,24.8284309 25.5072647,24.4134186 C27.0535499,24.3236404 27.5255286,24.8341903 27.8227534,26.1632462 C28.4870329,29.1320244 28.5636668,29.0527486 25.2694849,29.1482861 C19.2125447,29.3244547 13.3453986,27.8615784 7.36473417,27.3998136 C6.70009653,27.348657 6.50707945,26.9143339 6.28290749,26.436985 C5.63223584,25.0499967 4.95291601,23.6745272 4.13286203,21.9802604" id="Fill-77-Copy" fill="#C4C3C6"></path>
                                <path d="M46.1976574,10.9735019 C46.602304,12.4557233 46.9550483,13.8312802 47.3606561,15.1884825 C47.5029071,15.6639708 47.3718695,15.9656098 47.0537269,16.234349 C43.7848356,18.9937743 41.0432985,22.4562158 37.3960322,24.7107161 C36.8901438,25.0234372 36.3647119,25.303951 35.8319111,25.560223 C33.2989449,26.7795925 32.5694275,26.4495558 31.4676224,23.7541985 C31.2744301,23.2811344 31.4227685,23.102783 31.715921,22.9510977 C37.2746062,20.0725406 41.3451015,15.0766232 46.1976574,10.9735019" id="Fill-79-Copy" fill="#C4C3C6"></path>
                                <path d="M43.6542434,28.0220359 C43.9405994,33.4783567 45.9053003,38.2982396 47.3811352,43.242509 C48.5485868,47.1539723 49.8005951,51.0393252 51.0017983,54.9406345 C53.0759255,61.6774463 55.1852255,68.4033789 57.1772829,75.1648504 C57.7087825,76.96936 57.8743432,78.8870142 58.1880558,80.7560742 C58.2235838,80.9671322 58.1798843,81.2275096 58.0850245,81.4197102 C56.8212919,83.9941101 55.643182,86.6174668 54.0600523,89.0138092 C53.8102902,89.3916828 53.5971219,90.0792532 53.1345468,89.9584932 C52.6836959,89.8406343 52.3916554,89.2832526 52.210107,88.7207939 C51.3709346,86.1162947 50.4830888,83.5281143 49.5870715,80.9431978 C44.4937711,66.2510949 37.4560208,52.4583458 30.7380228,38.5176384 C30.5294732,38.0853684 30.3660442,37.6186474 30.0942547,37.2313451 C29.4430256,36.30298 29.5488992,35.7724338 30.6243331,35.1987332 C34.9132786,32.9104583 39.1482215,30.5162918 43.6542434,28.0220359" id="Fill-73-Copy" fill="#FFFFFF"></path>
                                <path d="M53.21848,90.1706406 C48.6970394,87.6511345 45.554394,86.7032345 41.2568486,84.3315274 C40.7831443,84.0701966 36.2528032,73.9413589 36.1570948,73.4792706 C34.103685,63.5919658 29.2135773,54.9216665 24.510049,46.1658722 C22.4759881,42.3802096 20.5535294,38.5346659 18.471096,34.5049791 C21.798083,34.9078785 24.9374541,35.4561541 28.0965196,35.613991 C30.3506751,35.7268305 31.2690603,36.8351501 32.0993386,38.757922 C36.488446,48.9294025 41.4777172,58.839206 45.3157244,69.2512493 C46.838074,73.3809687 48.3545498,77.5120726 49.9584416,81.8733553 L53.21848,90.1706406 Z" id="Fill-75-Copy" fill="#B1B2B7"></path>
                            </g>
                        </g>
                        <path d="M142.821848,90.2567188 C141.582329,90.7944201 140.430213,91.3145261 139.241397,91.8801836 C139.770926,92.8842073 140.882018,94.2603288 142.502123,95.7888231 C146.734265,99.7816543 153.166405,103.653085 158.284599,105.323384 C180.167053,112.464624 195.164183,119.644546 203.46443,126.785186 C212.899837,134.902395 214.112294,143.943335 206.136678,149.212818 C203.028979,151.266072 199.347384,151.474179 194.677948,150.872414 C192.424361,150.581988 191.065993,150.311153 186.204787,149.265763 C184.663616,148.934339 183.70811,148.734523 182.740452,148.545144 C182.365985,148.471858 182.0062,148.403776 181.660629,148.340831 C179.330358,150.217183 175.850681,151.28273 171.725281,151.622004 C167.241388,151.990759 161.863004,151.571296 155.210878,150.564412 C152.350422,150.131445 149.494092,149.629111 145.797426,148.931335 C145.019618,148.784517 138.365214,146.549806 137.660468,146.416211 C136.427781,147.43538 120.262931,147.929051 114.635631,145.592673 C112.105768,144.542309 101.052524,141.888291 89.9348338,139.937953 C86.3556831,139.310076 80.9558777,137.414528 73.7354176,134.251311 C45.4537539,122.766958 27.7945548,116.284233 20.7578202,114.803136 C15.7710966,113.753527 13.2584236,113.075608 10.3288807,111.675349 C5.46210718,109.349134 2.19798164,105.793652 1.14713032,101.437395 C0.392017268,98.4921666 0.191879814,92.3184025 0.0779350203,79.9358216 C0.0523919059,77.1600065 0.0373825844,74.23355 0.0297874341,71.017389 C0.0279789461,70.251586 0.0217349563,60.6122194 0.0070631533,60.00538 C-0.0746225075,56.6267853 0.537593416,54.0902164 2.60856328,52.0591881 C5.594598,49.1307432 10.3071973,48.6633 15.0432937,49.9359603 C17.3568493,50.5576475 19.4102766,51.4557436 22.4136078,52.9773016 C22.5403925,53.0415337 27.3933291,55.5556242 28.9069766,56.300298 C34.7282369,59.1642012 39.5448788,60.8734944 44.5690337,61.5971346 C44.5969212,61.6011513 44.6247319,61.6052021 44.6524667,61.6092872 C45.5203936,61.4107606 46.488081,61.1970191 47.6117132,60.9573335 C50.9302304,60.2494498 55.2487177,59.3922335 60.8528751,58.3441486 C77.1979637,55.2873034 84.7328987,55.1822909 93.6023121,57.2231065 C93.8052313,57.2697974 94.0123515,57.3179733 94.2626348,57.3765772 C94.3907362,57.4065722 94.5785358,57.4506582 94.8814615,57.5217486 C97.0714897,58.0351065 98.199809,58.2562664 99.7696898,58.4451334 C107.51263,59.3766603 114.025332,58.7209926 121.67107,56.7394986 C123.329961,56.3095753 128.649774,54.7952133 128.889788,54.7296622 C129.76348,54.4910451 130.616931,54.2341975 131.45839,53.9582992 C134.497044,52.961983 142.332367,49.5289553 142.740997,49.3796423 C149.430084,46.9354579 156.648765,47.9033765 161.899992,53.9369065 C168.558599,61.5874798 166.723836,72.1787408 157.527901,81.0949326 C154.950945,83.5934975 152.807511,85.2887008 150.464784,86.669316 C149.484997,87.2467242 148.485505,87.7616596 147.341059,88.2914498 C146.695388,88.5903457 146.04439,88.8765058 145.118629,89.2728932 C144.873514,89.3778451 143.988772,89.7551222 143.993966,89.7529042 C143.538276,89.9474671 143.180521,90.1011272 142.821848,90.2567188 Z" id="Path" fill="#000000" fill-rule="nonzero"></path>
                        <g id="Group-11" transform="translate(167.213896, 95.688525) scale(-1, 1) rotate(-300.000000) translate(-167.213896, -95.688525) translate(89.713896, 38.688525)">
                            <g id="Group-7" transform="translate(77.401161, 57.115859) rotate(-98.000000) translate(-77.401161, -57.115859) translate(30.401161, -14.384141)">
                                <path d="M68.1403891,10.2013527 C69.4477311,10.7871759 72.9263545,14.6780393 73.5695867,15.7739027 C74.6015418,17.5338652 76.7594018,19.2594263 76.3786322,21.0363403 C76.0346472,22.6402495 73.7485384,23.8318389 72.3054913,25.1909488 C70.4955931,26.8955698 68.7110463,28.6301051 66.8370237,30.2619344 C65.9492242,31.0347225 65.8209754,31.5632098 66.7221964,32.4267382 C67.5866328,33.2543693 68.2487543,34.290404 69.0426042,35.1978067 C70.2500315,36.5793524 70.889784,38.0541313 71.1905224,39.9811158 C72.2090562,46.5099287 74.7193517,52.6563362 76.6863298,58.934367 C80.3076175,70.4912883 87.6671572,88.8305797 90.0218641,100.726531 C91.2451982,106.538396 92.8140087,112.302896 93.6053731,118.173094 C94.6288778,125.773839 81.7972217,141.585243 81.3563044,142.074343 C80.469499,143.056532 58.3811862,133.54185 55.5964979,131.856674 C52.2660068,129.840445 25.2670268,59.4498914 22.3227732,54.7458555 C20.9870971,52.6109661 19.9387381,50.2950947 18.7919555,48.1223137 C20.4641603,46.3902712 20.5909178,46.364844 18.7402584,45.9121397 C17.1455993,45.5212585 15.4902955,45.2854335 13.8504015,45.1922004 C9.14943815,44.926461 6.26881189,42.2865171 4.65625769,38.1149572 C3.71775512,35.6854111 2.06096006,28.3155056 0.384281481,28.2581697 C2.41637814,23.2081241 6.18878068,19.5775158 10.3081508,16.4280304 C15.1527726,12.7246304 19.5652656,8.0803063 24.67235,4.75831464 C26.0997704,3.83013636 31.2614811,0.183469097 35.3408575,0.311130104 C39.5947889,0.444253681 60.9664118,6.98406132 68.1403891,10.2013527 Z" id="Path" fill="#000000"></path>
                                <path d="M64.4928531,13.4987803 C59.9893182,18.7065365 55.1256583,23.6571457 49.0694571,26.8437362 C42.8770255,30.1015867 35.8922762,30.7446601 28.9532054,30.4705021 C22.5671591,30.217158 16.4997033,28.209597 10.414778,26.4072932 C11.8520003,23.9053375 14.381325,22.5340435 16.3981106,20.6521551 C20.3629507,16.954168 24.4939433,13.4160903 28.7587384,10.0769104 C32.1597162,7.41425413 35.9952855,6.12758757 40.4990156,7.15609822 C48.5715869,8.99929933 56.5930965,11.003565 64.4928531,13.4987803 Z" id="Fill-15-Copy" fill="#C4C3C6"></path>
                                <path d="M5.92975856,31.5158145 C16.1399678,35.1672631 26.3239733,35.5995884 36.5973798,35.004534 C38.8159629,34.8758079 39.4931497,35.6078463 39.9196027,37.513478 C40.8726994,41.7701821 40.9826524,41.6565145 36.2562174,41.7934985 C27.565825,42.0460931 19.1477458,39.9485867 10.5667925,39.2864975 C9.61318197,39.2131479 9.33624443,38.5904052 9.0146064,37.9059711 C8.08103403,35.9172747 7.10635775,33.9450941 5.92975856,31.5158145" id="Fill-77-Copy" fill="#C4C3C6"></path>
                                <path d="M66.2835954,15.7340652 C66.8641753,17.8593092 67.3702866,19.831615 67.9522456,21.7776036 C68.156345,22.4593699 67.9683346,22.891867 67.5118691,23.2771916 C62.8217207,27.2337205 58.8882109,32.1982506 53.6551766,35.4308062 C52.9293367,35.879193 52.1754562,36.2814004 51.4110029,36.6488491 C47.776747,38.3972098 46.7300482,37.9239955 45.1491974,34.0593287 C44.8720084,33.3810383 45.0848417,33.1253138 45.5054519,32.9078239 C53.4809567,28.780481 59.3212326,21.6172172 66.2835954,15.7340652" id="Fill-79-Copy" fill="#C4C3C6"></path>
                                <path d="M62.6343492,40.1786544 C63.0452079,48.0020555 65.8641265,54.9129171 67.9816288,62.0021269 C69.656668,67.6104749 71.4530277,73.1813854 73.1764931,78.7751744 C76.1524148,88.4345737 79.1788018,98.0783741 82.0369712,107.773131 C82.7995575,110.360479 83.0371011,113.110057 83.4872105,115.789959 C83.5381855,116.092579 83.4754862,116.465915 83.3393829,116.741496 C81.5262015,120.432731 79.8358698,124.194162 77.5644229,127.630094 C77.2060685,128.171898 76.9002184,129.157753 76.2365236,128.984604 C75.5896506,128.815615 75.1706359,128.016428 74.9101536,127.209962 C73.7061236,123.47557 72.4322578,119.764576 71.1466678,116.058262 C63.8388889,94.9923788 53.7412472,75.2160105 44.1023806,55.2274963 C43.8031572,54.6076974 43.5686721,53.9385018 43.1787132,53.3831786 C42.2443411,52.0520669 42.3962467,51.2913573 43.9392605,50.4687719 C50.092965,47.1877895 56.1691874,43.7549772 62.6343492,40.1786544" id="Fill-73-Copy" fill="#FFFFFF"></path>
                                <path d="M76.3569496,129.288786 C69.8696652,125.676259 65.3606522,124.317138 59.1946089,120.916528 C58.5149462,120.541826 52.0148915,106.01886 51.8775709,105.356307 C48.9313741,91.1796568 41.9151327,78.7479777 35.1665921,66.1937138 C32.2481569,60.7657417 29.4898465,55.2519106 26.5020074,49.4740509 C31.2755104,50.0517376 35.7798254,50.837868 40.3123977,51.0641782 C43.5466207,51.2259702 44.8643039,52.815105 46.0555727,55.5720205 C52.3529878,70.1561286 59.5115073,84.365038 65.0182132,99.2940707 C67.202454,105.215359 69.3782672,111.138633 71.6795031,117.391943 L76.3569496,129.288786 Z" id="Fill-75-Copy" fill="#B1B2B7"></path>
                            </g>
                        </g>
                        <path d="M175.145713,142.607517 C172.991383,149.182722 152.825247,143.017937 140.898307,139.656321 C141.481142,139.099829 142.243457,138.507465 143.185254,137.879228 C141.652958,137.861765 140.477579,138.092008 139.659117,138.569957 C139.230752,138.820105 138.866664,138.954356 138.52377,138.996919 C138.026764,138.861845 137.551726,138.735253 137.101325,138.618726 C136.957664,138.578781 136.811394,138.53755 136.662515,138.495032 C136.624092,138.475366 136.585169,138.455256 136.545708,138.434722 C136.539156,138.431313 136.535723,138.439745 136.535278,138.458565 C132.765102,137.374162 127.354701,135.48095 120.304076,132.77893 C113.672166,130.545112 108.905672,128.631087 106.004593,127.036855 C101.652975,124.645508 126.274265,137.881469 133.03582,140.275695 C129.731981,142.099782 122.753994,139.700399 113.751592,137.503929 C109.171347,135.760845 92.5958443,129.534191 89.6685022,127.492423 C91.3237997,128.986667 96.6741379,131.499179 98.6190762,133.034034 C99.553266,133.771254 96.2647642,134.455976 91.7435367,133.329872 C80.8677417,130.621031 71.436715,126.338249 64.0513599,119.865314 C45.4652597,103.575425 12.5612962,111.446621 10.358723,102.223281 C9.18560592,99.1615953 8.9348252,64.8953527 9.44254443,61.8082683 C10.3554996,56.2572288 4.21514849,61.3901647 30.7219492,72.0992212 L52.0229286,75.4846103 C58.4527288,71.3885462 61.2545481,70.4039807 67.8051654,68.9647216 C79.1840296,66.4646313 95.3259541,68.2895327 100.980499,68.9647216 C116.348503,70.7997598 126.84092,66.9962482 134.444802,64.8994508 C147.457855,61.3110556 150.429932,53.1150745 154.455745,57.763639 C157.624188,61.422207 157.760972,68.6595215 149.82383,76.3921276 C143.303516,82.744416 141.466663,81.8405746 131.02137,87.1343583 C129.063896,88.895504 129.084142,91.3480909 130.438375,94.0648424 C133.881147,100.971449 145.945387,109.585334 156.054394,112.886234 C200.208457,127.303887 206.74874,139.190349 199.387503,144.082821 C198.728679,144.520693 197.653827,144.649433 196.288163,144.579258 C196.269098,144.576056 196.249992,144.572821 196.230848,144.569553 C193.260355,144.062441 190.249415,142.630446 186.213683,141.493564 C179.332192,139.555021 167.588933,136.093453 156.744028,132.332812 C157.170542,131.117997 158.047227,129.730286 159.374081,128.16968 C157.279679,128.427956 155.806653,128.985802 154.955003,129.843217 C154.003814,130.800844 153.161631,130.924951 151.987735,130.640504 C147.167014,128.877256 142.719578,127.089072 139.210792,125.396084 C135.428974,123.571358 129.563565,121.998157 121.614563,120.676481 C128.501069,124.857807 132.885739,126.759515 140.775739,129.798563 C148.665739,132.837611 162.647461,138.379821 175.145713,142.607517 Z" id="Path" fill="#C4C3C6"></path>
                        <path d="M142.779826,68.8758764 C146.029174,68.6685991 147.73745,64.0840122 146.595368,58.6359149 C145.453286,53.1878176 143.361896,49.7952197 140.112548,50.0024969 C136.8632,50.2097742 131.81204,58.912626 136.367954,63.5881928 C140.923867,68.2637597 139.530477,69.0831536 142.779826,68.8758764 Z" id="Oval" fill="#000000" transform="translate(140.749723, 59.449170) scale(-1, 1) rotate(-445.000000) translate(-140.749723, -59.449170) "></path>
                        <path d="M143.906184,67.5598738 C144.584445,66.6339927 145.774458,62.7879493 147.476224,56.0217436 C147.042584,55.0789088 146.047146,54.6571597 144.489911,54.7564964 C142.154059,54.9055013 138.517788,61.1371086 141.789832,64.4836498 C145.061877,67.8301911 142.888794,68.9486954 143.906184,67.5598738 Z" id="Oval-Copy-3" fill="#FFFFFF" transform="translate(143.980908, 61.442600) scale(-1, 1) rotate(-445.000000) translate(-143.980908, -61.442600) "></path>
                        <path d="M187.11144,148.438721 C186.152284,146.960722 184.088704,141.347663 180.9207,131.599544 C181.491968,129.665417 182.705034,129.017737 184.559898,129.656505 C187.342195,130.614657 192.701672,140.261844 189.413551,143.752518 C186.12543,147.243192 188.550174,150.655719 187.11144,148.438721 Z" id="Oval-Copy-5" fill="#000000" transform="translate(185.684193, 139.281142) scale(-1, 1) rotate(-445.000000) translate(-185.684193, -139.281142) "></path>
                        <path d="M189.464631,147.211332 C188.986263,146.92907 187.210141,142.481836 184.136265,133.86963 C184.872565,132.854963 186.044805,132.624538 187.652985,133.178354 C190.065255,134.009078 194.767021,141.437832 191.948826,143.909957 C189.130631,146.382083 190.182183,147.634726 189.464631,147.211332 Z" id="Oval-Copy-4" fill="#FFFFFF" transform="translate(188.478844, 140.088764) scale(-1, 1) rotate(-445.000000) translate(-188.478844, -140.088764) "></path>
                        <path d="M9.16925015,82.3669612 C9.02219133,76.5475001 8.94108341,70.262264 8.92082281,64.4892472 C21.5936995,68.3938441 35.4005364,72.1609776 52.1758421,75.7010732 C47.2280156,80.1658265 44.8324383,84.2618906 41.8379667,85.4321946 C27.4849476,83.0948377 21.8037964,85.437505 9.16925015,82.3669612 Z" id="Path" fill="#FFFFFF"></path>
                        <path d="M157.371689,114.413706 C185.054377,123.438103 197.28493,131.426084 200.446241,137.177349 C193.44746,138.598923 185.226369,131.455518 172.330401,126.529617 C160.17955,121.888329 151.14448,116.845652 145.22519,111.401586 C142.547102,108.39917 141.534042,106.70438 142.186011,106.317217 C146.804422,109.760309 152.340761,112.773652 157.371689,114.413706 Z" id="Path" fill="#FFFFFF"></path>
                        <path d="M133.176094,80.6608259 C139.105407,79.328358 145.266928,74.003349 151.660656,64.6857986 C153.073607,64.0288393 155.706713,62.4750143 155.867242,65.8285461 C156.027771,69.1820779 148.047092,82.8814274 134.878081,85.4488242 C132.484803,85.9154115 130.240627,87.9735259 128.668087,90.8782479 C128.164642,90.172219 128.099894,88.5574382 128.687558,85.5874497 C131.271194,85.3611693 131.290813,83.2225212 133.176094,80.6608259 Z" id="Path" fill="#FFFFFF"></path>
                        <path d="M140.941892,129.721494 C156.268544,136.105492 165.192699,139.708033 167.714355,140.529117 C163.692546,141.380362 156.312765,139.984047 148.889983,137.083625 C138.399132,132.984367 117.974239,123.472444 119.489957,119.96939 C119.714598,119.450212 130.753331,124.61161 131.31469,124.266351 C133.088703,125.621786 136.297771,127.440168 140.941892,129.721494 Z" id="Path-Copy-18" fill="#FFFFFF"></path>
                        <path d="M146.941664,106.300488 C142.126839,106.621837 133.434327,98.9908584 124.793373,95.3077038 C117.179098,92.0621647 108.929596,88.0628744 112.444518,87.779477 C114.908033,87.5808513 122.927775,85.6948428 128.996192,85.7184792 C135.06461,85.7421156 137.172008,84.8465901 139.704426,84.013429 C142.447605,83.7731755 135.351326,90.4079429 137.198794,92.8792592 C142.034045,99.3472655 152.061146,105.958805 146.941664,106.300488 Z" id="Path-Copy-24" fill="#000000"></path>
                        <path d="M16.0761789,64.7512968 C19.2562865,72.6840713 16.0752607,74.6460087 12.3220913,76.4698701 C11.9520401,76.6496974 22.3928689,81.2707706 26.3444613,79.3552784 C31.105437,77.0474463 32.597515,74.0993042 28.3114683,70.3743659 C20.4680187,63.5577425 11.8452027,46.735605 10.9934563,47.0923926 C10.1417098,47.4491803 12.8960712,56.8185223 16.0761789,64.7512968 Z" id="Oval" fill="#000000" transform="translate(20.839678, 63.453107) scale(-1, 1) rotate(-445.000000) translate(-20.839678, -63.453107) "></path>
                    </g>
                </g>
            </g>
        </g>
    </g>
</svg>