<?xml version="1.0" encoding="UTF-8"?>
<svg width="24px" height="24px" viewBox="0 0 24 24" version="1.1" xmlns="http://www.w3.org/2000/svg" xmlns:xlink="http://www.w3.org/1999/xlink">
    <!-- Generator: Sketch 54.1 (76490) - https://sketchapp.com -->
    <title>Combined Shape</title>
    <desc>Created with Sketch.</desc>
    <g id="Illustrations" stroke="none" stroke-width="1" fill="none" fill-rule="evenodd">
        <path d="M12,8.90224528 L20.2606793,0.64156601 C21.1161006,-0.213855337 22.5030126,-0.213855337 23.358434,0.64156601 C24.2138553,1.49698736 24.2138553,2.88389939 23.358434,3.73932073 L15.0977547,12 L23.358434,20.2606793 C24.2138553,21.1161006 24.2138553,22.5030126 23.358434,23.358434 C22.5030126,24.2138553 21.1161006,24.2138553 20.2606793,23.358434 L12,15.0977547 L3.73932073,23.358434 C2.88389939,24.2138553 1.49698736,24.2138553 0.64156601,23.358434 C-0.213855337,22.5030126 -0.213855337,21.1161006 0.64156601,20.2606793 L8.90224528,12 L0.64156601,3.73932073 C-0.213855337,2.88389939 -0.213855337,1.49698736 0.64156601,0.64156601 C1.49698736,-0.213855337 2.88389939,-0.213855337 3.73932073,0.64156601 L12,8.90224528 Z" id="Combined-Shape" fill="#C4C3C6"></path>
    </g>
</svg>