<?xml version="1.0" encoding="UTF-8"?>
<svg width="400px" height="320px" viewBox="0 0 400 320" version="1.1" xmlns="http://www.w3.org/2000/svg" xmlns:xlink="http://www.w3.org/1999/xlink">
    <!-- Generator: Sketch 53.2 (72643) - https://sketchapp.com -->
    <title>Communication Moderator</title>
    <desc>Created with Sketch.</desc>
    <defs>
        <path d="M101.631538,101.087572 C120.181442,82.5376682 120.181442,52.4623317 101.631538,33.9124279 C83.0816343,15.362524 53.0062978,15.362524 34.456394,33.9124279 C15.9064901,52.4623317 15.9064901,82.5376682 34.456394,101.087572 C53.0062978,119.637476 83.0816343,119.637476 101.631538,101.087572 Z" id="path-1"></path>
    </defs>
    <g id="Communication-Moderator" stroke="none" stroke-width="1" fill="none" fill-rule="evenodd">
        <g id="Group-5" transform="translate(184.473653, 178.896489) rotate(-345.000000) translate(-184.473653, -178.896489) translate(-40.526347, -7.103511)">
            <g id="Group" transform="translate(192.500000, 185.562693) scale(-1, 1) rotate(-325.000000) translate(-192.500000, -185.562693) translate(44.000000, 63.062693)">
                <g id="creator" transform="translate(169.156709, 122.500000) rotate(-19.000000) translate(-169.156709, -122.500000) translate(67.156709, 29.000000)">
                    <path d="M20.8803824,9.6080472 C21.4041789,7.49871009 22.763531,6.37490295 24.5304743,5.62443669 C25.3802199,5.26352788 26.3461418,5.0023504 27.5053655,4.78073781 C29.0955608,4.47673498 30.8095929,4.27565709 33.8279603,3.99280032 C34.0934212,3.96792349 34.4121303,3.93830712 34.9870487,3.88489594 C37.9557346,3.60838147 39.380629,3.43940021 40.3271053,3.22868074 C41.2082168,3.03251382 45.4254356,1.93148293 45.2526886,1.97516555 C50.8923147,0.54907043 55.2504188,-0.0794200421 59.9503671,0.236131618 C69.9892257,0.910134458 80.7896871,0.990648193 87.0140234,0.598743717 C91.8278989,0.295646446 95.2722717,1.56981245 97.8227556,4.14452271 C98.1390988,4.46387075 98.38922,4.74279688 98.6953667,5.1084173 C100.913336,5.54377062 99.9840622,6.90830238 106.10708,9.46382353 C106.348401,9.56457506 106.348401,9.56457506 106.589322,9.66527352 C107.002737,9.83811031 108.660641,10.5325124 109.071565,10.7042889 C112.080291,11.9620127 117.945455,15.6127869 128.536594,22.5822977 C128.894014,22.8175496 128.894014,22.8175496 129.251192,23.0528337 C130.579907,23.9282632 137.44336,28.4671065 139.179026,29.607606 C142.550937,31.8232754 144.78605,33.2588625 146.232278,34.1274749 C150.215414,36.519769 152.749599,39.8063404 154.112127,43.9441337 C155.06404,46.8349514 155.333865,49.1543379 155.603614,54.3150333 C155.665942,55.5074717 155.69316,55.9961004 155.734887,56.6236764 L155.737359,56.6607221 C155.910667,59.2485068 158.22597,67.3529792 161.910789,78.5092524 C162.240973,79.5089286 162.580672,80.529045 162.929249,81.5680417 C164.24881,85.5012326 165.655331,89.5866322 167.114912,93.7488704 C168.109964,96.5864244 168.844036,98.6529206 169.907033,101.626985 C170.604855,103.579359 171.125623,105.288288 171.550036,106.94605 C171.708702,107.565806 171.844651,108.139306 171.999224,108.826369 C172.041712,109.015222 172.088049,109.223455 172.166859,109.577922 C172.22644,109.845028 172.268502,110.030271 172.308441,110.200238 C172.478183,110.922604 172.5934,111.286427 172.734075,111.580084 C172.774696,111.664881 172.820391,111.749852 172.867901,111.829221 C174.276575,114.168049 193.704402,137.343545 201.227149,145.219096 C202.853773,146.927533 203.463843,149.364771 202.834581,151.638112 C202.302212,153.561404 200.948744,155.129007 199.167685,155.946432 L156.672155,186.223547 L155.861978,186.446579 C151.30564,187.700885 146.436027,186.204545 143.368037,182.608478 L143.28984,182.516821 L116.728804,147.978626 C116.481097,147.868146 116.216304,147.749345 115.9352,147.622447 C114.421348,146.939053 112.737259,146.157942 110.924855,145.291114 C108.729559,144.24116 89.3145692,141.096974 75.2724805,133.704069 C56.164919,123.644285 41.2220222,108.590293 39.5594877,106.858827 C34.3996,101.485005 6.87321475,52.4118272 5.04376732,49.1130936 C4.92497994,48.8989044 4.79901037,48.6757653 4.65995254,48.4328183 C4.45639991,48.077193 3.71398651,46.8024071 3.56669121,46.5462564 C3.11292077,45.7571369 2.77038422,45.1331781 2.4576712,44.5117166 C1.56997083,42.7475701 1.01683015,41.170178 0.81665195,39.4906248 C0.543967862,37.2027262 18.7265239,32.6180717 19.9385404,30.5237919 C21.9494979,27.0492441 25.2616286,25.196323 29.1615134,24.8831206 C22.7800663,20.8114142 19.6681961,14.4895408 20.8803824,9.6080472 Z" id="Path" fill="#000000" fill-rule="nonzero"></path>
                    <path d="M196.148487,149.575217 L165.46046,115.707884 L157.245641,93.1261599 L146.151673,44.1290714 L99.2558877,12.8980225 L125.833864,42.2017475 L88.1407888,9.53702178 L72.1971726,8.57598564 L55.2920793,7.1370572 L28.2333642,11.4590941 L30.6476228,16.2642748 L40.3099403,20.5863116 L57.2150336,20.5863116 L79.4452314,27.3083131 L95.3888476,47.033186 C98.8364926,59.8583337 99.3674564,69.0186491 96.981739,74.5141324 C94.5960215,80.0096156 88.0615672,84.6782983 77.378376,88.5201803 L60.4732826,85.1591796 L45.4911436,70.748889 C45.4911436,70.748889 44.043645,63.0605999 40.6626263,59.195449 C37.2816076,55.3302982 28.0947459,51.0292676 25.6804873,51.9903038 C23.2662286,52.9513399 19.8693614,55.356556 29.061506,71.2057751 L38.2483676,87.0602456 L53.2305066,105.314681 C67.500002,115.393028 78.41353,122.256568 85.9710907,125.9053 C93.5286513,129.554033 105.04473,133.519337 120.519325,137.801212 L153.621611,178.395798 L196.148487,149.575217 Z" id="Path" fill="#C4C3C7" fill-rule="nonzero"></path>
                    <path d="M67.0194234,97.5054206 C61.2320182,92.9862804 52.4640544,90.6369115 49.4132931,88.6467675 L74.6656927,88.1661943 C85.8471132,89.8374194 91.7736528,92.849631 92.4453116,97.2028293 C79.3529896,100.417317 70.8776936,100.518181 67.0194234,97.5054206 Z" id="Path" fill="#FFFFFF" transform="translate(70.929302, 93.928994) scale(1, -1) rotate(-44.000000) translate(-70.929302, -93.928994) "></path>
                    <path d="M87.3108013,26.4805585 C81.523396,22.4213837 77.0677646,22.7000869 74.0170033,20.912503 L110.468624,22.7956313 C121.650044,24.2967564 127.576584,27.0023803 128.248243,30.912503 C104.814885,30.6639899 91.1690714,29.186675 87.3108013,26.4805585 Z" id="Path-Copy" fill="#FFFFFF" transform="translate(101.132623, 25.912503) scale(-1, 1) rotate(-44.000000) translate(-101.132623, -25.912503) "></path>
                    <path d="M114.006195,31.7657257 C110.164377,28.9243034 107.206621,29.1193956 105.181453,27.8680868 L129.378914,29.1862767 C136.80141,30.2370642 140.73559,32.131001 141.181453,34.8680868 C125.625827,34.6941277 116.567408,33.6600073 114.006195,31.7657257 Z" id="Path-Copy-2" fill="#FFFFFF" transform="translate(123.181453, 31.368087) rotate(-153.000000) translate(-123.181453, -31.368087) "></path>
                    <path d="M64.0508153,64.6181955 C64.0508153,64.6181955 80.7454412,77.4639081 89.4755141,77.4639081 C81.5057178,71.4148689 70.1225416,64.2051669 70.1225416,64.2051669 L64.0508153,64.6181955 Z" id="Path" fill="#101010" fill-rule="nonzero"></path>
                    <path d="M33.2089552,51.3003601 C33.2089552,51.3003601 43.2596619,50.3587198 44.2141341,45.6115154 C45.0248604,51.6792449 35.5146379,56.6604664 35.5146379,56.6604664 L33.2089552,51.3003601 Z" id="Path" fill="#101010" fill-rule="nonzero"></path>
                    <path d="M29.310723,32.1996787 C29.310723,32.1996787 26.1827857,33.0181804 27.5792783,37.7763378 C28.3383571,40.4559458 29.439084,43.0360192 30.8566558,45.45842 C30.8566558,45.45842 39.1428554,41.4102881 39.3798984,39.8324535 C39.3541329,39.8324535 35.3450139,34.6453223 29.310723,32.1996787 Z" id="Path" fill="#FFFFFF" fill-rule="nonzero"></path>
                    <path d="M41.7472846,9.31842434 L41.7472846,9.31842434 C42.1796341,9.78709625 42.3299611,10.4537877 42.1411555,11.0652184 C41.9523499,11.6766491 41.4533883,12.1389805 40.8338295,12.27657 L37.2748484,13.0728 L29.3183045,13.7380048 L27.8507863,11.2182896 L41.7472846,9.31842434 Z" id="Path" fill="#FFFFFF" fill-rule="nonzero"></path>
                    <polygon id="Path" fill="#101010" fill-rule="nonzero" points="28.442864 13.9220905 40.6025025 12.2659567 29.5004751 17.7904322"></polygon>
                    <polygon id="Path" fill="#FFFFFF" fill-rule="nonzero" points="165.228727 117.66297 154.920401 124.848339 145.331136 44.1909966"></polygon>
                    <polygon id="Path-Copy-3" fill="#FFFFFF" fill-rule="nonzero" transform="translate(183.967062, 137.626884) rotate(-13.000000) translate(-183.967062, -137.626884) " points="193.915857 152.41982 183.607531 155.626884 174.018266 119.626884"></polygon>
                    <polygon id="Path" fill="#101010" fill-rule="nonzero" points="166.464294 116.541592 145.33796 130.905228 171.86808 121.636732"></polygon>
                </g>
                <g id="Scroll" transform="translate(76.483186, 92.413601) rotate(13.000000) translate(-76.483186, -92.413601) translate(6.483186, 59.913601)">
                    <path d="M39.1437574,64.2321709 C39.5828023,61.074952 39.9227622,58.3644991 40.1290106,56.2145082 C33.829917,58.3191074 20.9983151,60.0027867 18.7120922,60.0027867 C5.37633428,60.0027867 0.654690364,47.2162383 0.654690364,32.2220779 C0.654690364,17.2279175 8.31591132,4.44136916 21.6516692,4.44136916 C31.8944856,4.44136916 97.2407931,0.232170861 124.536866,0.232170861 C132.848886,0.232170861 139.65469,18.9411244 139.65469,34.3266771 C139.65469,37.4837556 135.023623,44.1079151 126.963231,52.2671065 L39.1437574,64.2321709 Z" id="Path" fill="#000000"></path>
                    <path d="M112.556375,46.1381992 C98.7040876,49.3303162 77.4593203,52.4447493 48.822073,55.4814983 C48.9741971,46.2022859 48.4957772,36.6701583 47.142746,29.8951388 C45.4528008,21.4330929 41.0042299,14.9303701 33.7970333,10.3869702 L121.378273,7.48149834 C125.856002,10.8856964 129.304736,15.7000481 130.777746,27.3694052 C131.29492,31.4665171 121.314028,44.1200881 112.556375,46.1381992 Z" id="Path" fill="#C4C3C6"></path>
                    <path d="M52.8428388,29.7454874 C45.3294592,19.8894563 39.1721704,13.3810322 34.3709723,10.2202151 L121.886598,7.18823502 C125.957292,10.4201559 128.785417,17.2215437 130.370972,27.5923984 C83.6944697,35.5984784 57.8517585,36.3161748 52.8428388,29.7454874 Z" id="Path" fill="#FFFFFF"></path>
                    <g id="Group-3" transform="translate(12.744498, 19.020401)">
                        <path d="M19.9634412,-2.27246079e-13 C21.7431151,1.65350396 28.5417666,5.98256406 28.5417666,16.4069071 C28.5417666,21.6480805 27.3049985,28.7509964 26.2559542,33.4448492 C13.8772305,35.7825024 4.44687374,37.8574279 3.39782936,36.150959 C7.49434592,35.1259062 10.5420959,32.7514548 12.5410793,29.0276049 C14.1220806,26.082402 16.3563154,19.9239392 15.969798,13.2517327 C15.4725084,4.66733699 10.4064254,2.24485575 9.3866105,1.23860263 L19.9634412,-2.27246079e-13 Z" id="Path" fill="#FFFFFF"></path>
                        <path d="M26.3130755,33.4852562 C13.903418,35.794563 4.44949525,37.844328 3.39782936,36.1585517 C7.50458291,35.1459287 10.5599491,32.8002699 12.5639278,29.1215755 C13.4384835,27.5161576 15.2674329,23.3244296 19.8099091,20.3942141 C22.8382266,18.4407371 25.7488458,17.9142489 28.5417666,18.8147496 C28.277071,23.6617251 27.2244129,29.4670482 26.3130755,33.4852562 Z" id="Path" fill="#C4C3C6"></path>
                        <path d="M6.18064836,5.44846051 C8.40283093,7.86811831 9.51392221,11.0746767 9.51392221,15.0681358 C9.51392221,16.015098 9.48183354,16.9353379 9.4196708,17.8257371 L0.129723038,19.0696118 C0.0336920955,18.6555119 -0.106493566,16.3637277 0.129723038,14.529228 C0.328701576,12.9839257 1.06093104,9.82925995 2.79821242,7.80450461 C4.20668827,6.16296337 5.99195398,5.45233799 6.18064836,5.44846051 Z" id="Path" fill="#C4C3C6"></path>
                    </g>
                    <path d="M110.896339,17.7149473 L110.896339,6.22227504 C113.430669,5.89473101 115.268675,5.81855892 116.410358,5.99375877 C118.752721,6.35321192 121.337885,5.88606591 120.031916,6.63014309 C119.371661,7.00632381 116.379182,8.28081179 114.578612,8.93081516 C114.069605,9.11456605 113.585912,9.27948095 113.124055,9.42729003 C116.063208,9.43430293 119.173985,9.59350518 122.838991,9.97882565 C132.249966,10.9682488 131.696213,11.3846533 123.355585,12.3735217 C121.684977,12.5715897 119.546545,12.720473 116.940288,12.8201715 C117.861548,13.1286026 118.818744,13.5072939 119.830756,13.9700144 C121.841971,14.8895984 124.964771,16.6901376 125.546301,17.2205415 C126.696553,18.2696687 123.281527,17.6027166 119.301519,18.0955724 C117.315233,18.34154 114.513506,18.2146649 110.896339,17.7149473 Z" id="Combined-Shape-Copy" fill="#000000" transform="translate(120.325242, 12.059725) scale(-1, -1) rotate(-7.000000) translate(-120.325242, -12.059725) "></path>
                </g>
            </g>
            <g id="Group-4" transform="translate(340.947750, 139.000000) rotate(-11.000000) translate(-340.947750, -139.000000) translate(248.447750, 47.000000)">
                <path d="M20.3142583,115.229708 C-6.04613136,88.869318 -6.04613136,46.130682 20.3142583,19.7702923 C46.674648,-6.59009742 89.4132841,-6.59009742 115.773674,19.7702923 C139.226429,43.2230476 141.952484,79.917182 123.215463,106.408041 L124.004045,107.196623 C129.38554,105.756798 135.315149,107.194019 139.461751,111.34062 L179.766837,151.645707 C186.015226,157.894096 186.015226,168.024735 179.766837,174.273124 L175.524197,178.515765 C169.275808,184.764153 159.145168,184.764153 152.89678,178.515765 L112.591693,138.210678 C108.445091,134.064076 107.007871,128.134467 108.447696,122.752972 L107.775034,122.080311 C81.2553655,141.441773 44.0358742,138.951324 20.3142583,115.229708 Z" id="Path" fill="#000000" fill-rule="nonzero"></path>
                <path d="M108.234413,114.054407 L115.561567,121.381562 C112.989155,125.264301 113.413411,130.547114 116.834334,133.968037 C125.911043,138.592967 132.989543,143.445576 138.069832,148.525866 C143.884427,154.340461 157.778701,167.566708 162.069832,170.030483 C164.930586,171.673 169.415374,171.673 175.524197,170.030483 C179.42944,166.12524 179.42944,159.793591 175.524197,155.888348 L135.21911,115.583261 C131.798187,112.162338 126.515374,111.738083 122.632635,114.310495 L115.248584,106.926444 C135.476746,82.7640903 134.237562,46.7194624 111.531033,24.012933 C87.5137892,-0.00431098534 48.574143,-0.00431098534 24.556899,24.012933 C0.539655073,48.0301769 0.539655073,86.9698231 24.556899,110.987067 C47.5040148,133.934183 84.0733735,134.95663 108.234413,114.054407 Z" id="Path-2" fill="#C4C3C7" fill-rule="nonzero"></path>
                <rect id="Rectangle" fill="#000000" transform="translate(115.569832, 114.025866) rotate(-43.000000) translate(-115.569832, -114.025866) " x="110.069832" y="108.525866" width="11" height="11"></rect>
                <path d="M130.068203,145.085915 C124.981019,141.070495 120.812021,138.418915 117.56121,137.131175 L176.816581,135.895924 C179.572781,137.212632 181.487657,139.983568 182.56121,144.208731 C150.957328,147.470467 133.459659,147.762862 130.068203,145.085915 Z" id="Path" fill="#FFFFFF" transform="translate(150.061210, 141.395924) scale(-1, 1) rotate(-45.000000) translate(-150.061210, -141.395924) "></path>
                <path d="M105.874179,105.330213 C84.9811292,126.223262 51.1068029,126.223262 30.2137533,105.330213 C9.32070366,84.4371632 9.32070366,50.5628368 30.2137533,29.6697872 C51.1068029,8.7767376 84.9811292,8.7767376 105.874179,29.6697872 C126.767228,50.5628368 126.767228,84.4371632 105.874179,105.330213 Z" id="Path" fill="#000000" fill-rule="nonzero"></path>
                <mask id="mask-2" fill="white">
                    <use xlink:href="#path-1"></use>
                </mask>
                <use id="Path" fill="#000000" fill-rule="nonzero" xlink:href="#path-1"></use>
                <g id="Scroll" mask="url(#mask-2)">
                    <g transform="translate(-48.869379, 82.727126) scale(-1, 1) rotate(25.000000) translate(48.869379, -82.727126) translate(-213.369379, 7.727126)">
                        <path d="M90.9774,149.34133 C92.0134195,141.99093 92.815627,135.680656 93.302314,130.675209 C78.4382657,135.574979 48.1593779,139.494795 42.7645496,139.494795 C11.2959986,139.494795 0.15427774,109.726112 0.15427774,74.8178322 C0.15427774,39.9095525 18.2325545,10.1408696 49.7011055,10.1408696 C73.8712046,10.1408696 228.069686,0.341329809 292.480562,0.341329809 C312.094539,0.341329809 328.154278,43.8981124 328.154278,79.7176021 C328.154278,87.0676756 317.226292,102.489547 298.206087,121.485164 L90.9774,149.34133 Z" id="Path" fill="#000000"></path>
                        <path d="M241.591613,110.073108 C211.744932,116.856357 165.970125,123.474527 104.26719,129.927619 C104.594962,110.209292 103.56414,89.9535214 100.648846,75.5566048 C97.0076237,57.5747573 87.4225585,43.7564713 71.8936503,34.1017467 L260.599621,27.9276189 C270.247511,35.1615398 277.678287,45.392037 280.852093,70.189421 C281.966416,78.8957838 260.461196,105.784622 241.591613,110.073108 Z" id="Path" fill="#C4C3C6"></path>
                        <path d="M112.269882,75.7343549 C96.147422,54.9271781 82.9349064,41.1871717 72.6323356,34.5143356 L260.426281,28.1134888 C269.161314,34.9364329 275.229998,49.2949182 278.632336,71.1889447 C178.47234,88.0906694 123.018189,89.6058061 112.269882,75.7343549 Z" id="Path" fill="#FFFFFF"></path>
                        <g id="Group-3" stroke-width="1" fill="none" transform="translate(25.878152, 52.714667)">
                            <path d="M42.6804604,-2.2710124e-13 C46.4852805,3.5304544 61.0203287,12.7735827 61.0203287,35.0309639 C61.0203287,46.2215773 58.3762038,61.3872625 56.1334192,71.4092725 C29.6685618,76.4004781 9.50710937,80.8307245 7.26432484,77.1871828 C16.0223947,74.9985565 22.538274,69.9287819 26.8119626,61.9778592 C30.1920345,55.6894529 34.9686744,42.5403026 34.1423268,28.2942401 C33.079156,9.9653952 22.2482198,4.79307039 20.0679259,2.644584 L42.6804604,-2.2710124e-13 Z" id="Path" fill="#FFFFFF"></path>
                            <path d="M56.2555407,71.495547 C29.7245489,76.4262291 9.51271398,80.8027543 7.26432484,77.2033942 C16.0442807,75.0413072 22.5764428,70.0330088 26.8608112,62.178499 C28.730551,58.750715 32.6407186,49.8008092 42.3522195,43.5444031 C48.8265534,39.3734657 55.0492565,38.2493424 61.0203287,40.172033 C60.4544276,50.5209806 58.2039172,62.9161299 56.2555407,71.495547 Z" id="Path" fill="#C4C3C6"></path>
                            <path d="M13.2137999,11.6331995 C17.964673,16.7994959 20.3401096,23.6459314 20.3401096,32.1725061 C20.3401096,34.1943985 20.2715062,36.1592351 20.1386065,38.0603576 L0.277338909,40.7161981 C0.0720313766,39.8320389 -0.2276759,34.9387699 0.277338909,31.0218652 C0.702741301,27.722436 2.2681974,20.9867983 5.98238516,16.663672 C8.99360942,13.1587596 12.8103844,11.6414784 13.2137999,11.6331995 Z" id="Path" fill="#C4C3C6"></path>
                        </g>
                        <path d="M237.371872,50.3584437 L237.371872,25.9080993 C242.822932,25.2112584 246.776278,25.0492043 249.231911,25.4219372 C254.27007,26.1866639 259.830468,25.1928236 257.021475,26.7758274 C255.601342,27.5761415 249.164853,30.2875797 245.29203,31.670444 C244.197213,32.061369 243.156843,32.4122209 242.163439,32.7266806 C248.48523,32.7416004 255.176163,33.0802988 263.05918,33.9000575 C283.301132,36.005028 282.110073,36.8909172 264.170316,38.9947077 C260.577025,39.4160918 255.977497,39.7328368 250.37173,39.9449426 C252.353257,40.6011215 254.412079,41.4067768 256.588804,42.391202 C260.914701,44.3475916 267.631495,48.1781893 268.8823,49.306609 C271.356364,51.5385983 264.011025,50.1196761 255.450475,51.1682133 C251.178197,51.6915023 245.151999,51.4215795 237.371881,50.358445 Z" id="Combined-Shape-Copy" fill="#000000" transform="translate(257.652388, 38.327113) scale(-1, -1) rotate(-7.000000) translate(-257.652388, -38.327113) "></path>
                    </g>
                </g>
                <g id="Group-2" mask="url(#mask-2)">
                    <g transform="translate(63.471505, 80.221456) scale(-1, 1) rotate(161.000000) translate(-63.471505, -80.221456) translate(17.971505, 49.221456)" id="Combined-Shape">
                        <path d="M0.201137173,61.9318765 C0.0850592374,60.6140293 0.0257882933,59.2798746 0.0257882933,57.9318765 C0.0257882933,33.0790627 20.1729746,12.9318765 45.0257883,12.9318765 C69.878602,12.9318765 90.0257883,33.0790627 90.0257883,57.9318765 C90.0257883,59.2798746 89.9665173,60.6140293 89.8504394,61.9318765 C87.826408,38.9527969 68.5306039,20.9318765 45.0257883,20.9318765 C21.5209727,20.9318765 2.22516854,38.9527969 0.201137173,61.9318765 Z" fill="#000000"></path>
                        <path d="M1.16557289,48.8874034 C1.05594411,47.606175 1,46.3096207 1,45 C1,20.1471863 21.1471863,0 46,0 C70.8528137,0 91,20.1471863 91,45 C91,47.7561139 90.7522249,50.4543568 90.2777347,53.0736688 C88.3069264,30.0408879 68.9865006,11.9610723 45.4433076,11.9610723 C23.3466077,11.9610723 4.96972205,27.8874901 1.16557289,48.8874034 Z" fill="#FFFFFF"></path>
                    </g>
                </g>
            </g>
        </g>
    </g>
</svg>