<svg enable-background="new 0 0 398.7 377.3" viewBox="0 0 398.7 377.3" xmlns="http://www.w3.org/2000/svg"><path d="m325.1 96c0 .2-17.4-17.1-22.8-40.6 1.5-1.9 6-6.1 7.5-8-2.9-1.6-7.5-1.1-9.5-1.7-.7-5.3.1-15.8 1.5-25.1l-63.7 9.1s8.2-15.4 19.7-28.7h-130.2c0 .6 0 .5-.1.1-3.2 2-16.3 8.1-21.6 10.2 1.5.6 24.2-3.1 24.4-1.9.4 2.1 1.1 4.1.9 6.3-.1 1.1-10.8 5.8-14.5 7.5 3.9-.2 11.9-1 12.3 0 2 6-8.5 39.7-20.1 50.1-1.4 1.2-64.2-.9-67.3-1.3.3.9 50.5 15.2 50.7 16.1s-37.5 26-38.7 27.2-47.1-15.8-47.2-15.6c12.3 8.7 21.5 13.3 35 21.5-1.9.8-28.2 9.7-41.4 13.8v26c5.7-13.7 12.3-23.9 12.5-24.1.3.3 13.9 50.6 3.9 69-13.8 23.5 2.7 36.3 1.1 48.3-.2 5.5-1.7 10.8-6 15-14.2 12.7-14.4 26.2-5.7 36.2 0 .1.1.2.1.3 10.2-1.6 27.5-2.8 44.8 1.9l4 19.6 13.7-13.2c8.3 4.5 20.6 13.8 29.1 21.1l-3.9 19.2 17.7-6.9 37.7 30.6 197.8-.2v-328.5c-6.6 15.8-13.9 31.4-21.7 46.7z" fill="#c3c2c6"/><path d="m384.9 136.8c-7.2-7.6-23.4-15.3-35.6-20.3-10.5-4.3-20.2-10.3-28.6-17.9-21.6-19.1-50.4-43.9-63-49.6-6.5-3-20.6 3.3-32.7 8.6-5.4-4-10.5-7.5-10.9-7.7-1.8-.8-34.1-5-35.8-5.3-34.2-7-42.8 8.2-49.5 27.3-.2.7-7.4 12.6-17.7 30.2-4 3.1-4.9 32.8-4.6 35.4-.1 1.1-9.4 14.8-12.2 32.7-1.4 8.8-9.3 15.1-18.1 14.2-7.2-.7-27.4-8.8-29.8-9.7-1.5-.6-3.1.1-3.8 1.7-.6 1.4-.4 3.2.6 4.5.1.1.2.2.3.4 12.9 21.6 34.4 30 56.4 28.4.9 9.7-2.3 19.9-6.6 28.7-5.8 11.8-23 10.1-26.4-2.6 0-.1 0-.1-.1-.2-2.2-8.5-12.2-20.7-13.5-21.6-.6-.4-12.7-.5-13.7-.4-12 1.3 1.5-5.6 1.2-7.9.6.9 1.9 3 7.6 2.4 4.5-.5 3-6.3 2.5-7.7-.9-2.4-12.6-3-14.2-3.4-1.7-.3-9.3 7.6-10.3 8.4-3.6 2.9 5.4 10.8 7.1 11.7l.2.1c8.4 4.7 14.5 12.7 16.8 22 6.6 27.3 25.6 36 43.2 36 44.1 0 51.4-37 61.9-58.3 10.8 5.2 20.8 4.7 29.7-1.7 9.8 31.1-.3 112.2-.4 114.6-.1 2.3 5.5 34.3 5.9 36.1.3 1.2.3 2.6 0 3.7-.4 1.4-4.1 7.8-4.3 8.4 18.1 0 66.8-.1 67.5-.2.1-.9-12-28.4-12.1-30.3-.1-2.6 4.6-84 4.6-84 .8.6 28.6 24.9 29.8 25.3.3 2.3-21.8 58.5-21.6 60.1s18.8 8.8 18.8 29.1h74c.2-2.3 46.1-166.5 46.8-168.3 9.6-23.7 2.2-60.7-9.4-72.9z"/><g fill="#c3c2c6"><path d="m299.9 186.8s-41.1 32-31.1 51.7c0 0 41.7 45.8 25.9 72.1l-19.6 32.1 14.4 15.2c5 5.3 7.2 9.6 6 16.3l18.3-6.9v-2.2c0-9-5.4-17.4-14.5-22.3l22.5-56s-35.3-60.9-17.9-94.1z"/><path d="m335.5 336.2 5.9 20.1c2 7 .9 12.5-3.2 17.9h21.5c4.1-8 3.2-18.3-2.7-26.8z"/><path d="m363.2 267.5s36.5 26.9 36.5 106.7h-18.8s8.8-52-17.7-106.7z"/><path d="m315.3 119.6c-7.3-4.8-36.4-30.9-52.9-45.8-6.5-5.9-15.5-7.9-23.8-5.3.2.2 9.2 13.2 9.1 16.9.3 0-5.5 4.6-5.5 4.6-7-4.7-15.4-7.9-25.6-9-.1 0-2.7 13.1-5.5 18.1l-6.1.1c-5.2-4.7-9.2-23.9-10.1-26.1-.4-1-21.2-10.9-35.1-2.5-14.8 8.9-17.7 26.1-17.8 30.6v.1c-9.3 13.8-3.5 8.9-6.9 19 0 0-19 83.1-16.4 94.5.7 3.3-2.6 20.6-4.9 23.1l-20.7 13.1c27.2 0 36.5-9.9 36.5-27.9 0-23 11.2-35.2 17.4-40.2 3.7-3 7.3-6.2 10.6-9.6l13.6-13.9 5.1-32.4c1.1-6.9 7-11.9 13.9-11.9 7.8 0 14.1 6.3 14.1 14.1v3.3h-15.3l.7 28.7c15.8 3.7 15.5 11.9 15.5 11.9l1.3-46.8 17.3-26.7c.2 0 .3-.1.3-.1 1.6 4.3 5.9 9.8 4.7 14.8-1 4.4-12.4 18.8-13 19 3 22 5.2 42.4 8.3 65.4 31.6 1 57.4-22.1 72.9-42.7 1.9-2.6-10.1-16.6-7.3-19.8 2.1-2.4 15 9 16.9 5.2 4.4-8.7 9.4-21.3 8.7-21.8z"/><path d="m203.1 251c-2.7 12-5.7 85.6 0 104 4.2-9 17.9-25.2 17.9-41 0-26.4-5.6-46-17.9-63z"/><path d="m213.1 374.2c-1.9-6.2-2.3-9.5-4.7-14.9-1.7 5.3-4.9 9.1-5.9 14.9 4 .3 7.7-.1 10.6 0z"/></g><path d="m171.3 67.3c-24 0-28.9 29.6-30.3 33.9-1.2 3.8-15.1 17-13.8 21.7.8 3.1 3.1 6.6 3.1 8.7.1 2.4-6.1 5.1-9.2 7.1-2.2 4.4-9.1 18.4-6.8 25 1 2.9 4.9 3.9 5 6.2.2 2.3-4.1 4-5.8 7.3-2.1 4.2.5 27.1 1.7 37.6 1.8 15.5-22.2 36.1-22.2 36.1 2.3 0 4.4-.1 6.4-.2 14-4.2 23.9-17.1 23.9-32.1v-30.4c0-10.4 4.8-20.2 13.1-26.6l7.7-6c7.4-5.7 11.7-14.4 11.7-23.7v-24c0-16.5 13.4-29.9 29.9-29.9z" fill="#fff"/><path d="m194.6 178.9c-.1-.2-.2-.3-.4-.5-8.4-9.8-15.6-10.2-21.3-1-1.4 2.3-3.2 4.2-5 6.2l-.6.7c-8.7 9.4-18.5 3.5-29.8-3.3-1.5-.9-3-1.8-4.6-2.7-1-.6-1.7.1-1.8 1.6-.1 1.3.4 3 1.2 4.2.1.1.2.3.3.4 19.7 24.6 37.7 30.8 52.1 17.8 4.7-4.3 8.4-10.4 11-18.2.2-.7.2-1.7-.1-2.8-.2-1-.6-1.8-1-2.4z" fill="#fff"/><path d="m297.1 155.9c1-1.4-43.6 33.2-60.8 25.1-12.2-5.7-13.7-30.2-9.5-39.4 1.8-3.9 7.2-7.9 8.2-12.1 1.4-5.8-5.3-18.9-5.7-17.1-1 4.4-12.8 20.6-13.4 20.8 3 22 5.2 42.4 8.3 65.4 31.6 1 57.4-22.1 72.9-42.7z" fill="#fff"/></svg>