<?xml version="1.0" encoding="UTF-8"?>
<svg width="400px" height="320px" viewBox="0 0 400 320" version="1.1" xmlns="http://www.w3.org/2000/svg" xmlns:xlink="http://www.w3.org/1999/xlink">
    <!-- Generator: Sketch 53.2 (72643) - https://sketchapp.com -->
    <title>council-member</title>
    <desc>Created with Sketch.</desc>
    <g id="council-member" stroke="none" stroke-width="1" fill="none" fill-rule="evenodd">
        <g transform="translate(43.000000, 18.000000)" fill-rule="nonzero">
            <path d="M91.7244523,259.472144 C96.4625991,259.372037 101.154222,258.518257 105.621766,256.943114 L105.621766,256.943114 C105.982066,256.840586 106.32521,256.703882 106.668353,256.584265 C108.384071,257.50702 109.979689,258.429774 111.678249,259.318352 C114.234668,260.685395 116.327844,262.565079 118.918578,263.880858 C120.359781,264.615644 122.212756,265.743455 123.808373,264.308059 C124.511818,263.658714 124.426032,262.599255 125.129476,262.018262 C130.516829,256.89185 131.048702,258.173453 134.325723,253.149569 C134.668866,252.636928 134.926224,245.374511 134.994853,244.810606 C135.04893,243.976484 134.674166,243.172057 133.999736,242.674601 C132.146761,241.187941 129.350141,240.777829 127.136866,239.63293 L126.930979,239.530402 C129.472974,234.231075 128.851706,227.96444 125.318205,223.262588 C121.522306,218.022916 116.466594,213.816028 110.614504,211.027551 C108.528633,210.006226 106.272252,209.3749 103.957519,209.164955 C101.517247,205.482059 98.4586424,202.245026 94.9156872,199.595653 C92.7738785,197.841888 90.2158788,196.665125 87.4866295,196.178045 C85.4126581,191.734199 82.3076214,187.845115 78.4276401,184.831586 C76.8725904,183.526207 75.0779363,182.533839 73.1432296,181.909531 C71.8582626,178.253317 69.9165168,174.860269 67.4127324,171.89594 C65.7089012,169.723119 63.4684606,168.027481 60.9101624,166.974584 C60.1706862,164.293455 59.0127487,161.744726 57.478727,159.421671 C55.3414528,157.614286 53.4084251,155.58018 51.7139155,153.355417 L51.473715,153.167448 L51.473715,152.876952 C48.7803542,149.194199 46.7965698,145.045618 45.6231176,140.641915 C42.9097415,137.548208 38.9351856,135.845407 34.8140961,136.011056 C30.3436587,136.190022 26.0844294,137.95351 22.8040722,140.983676 L20.3334387,143.068417 L20.1275526,143.854467 C18.4074591,143.34733 16.6195836,143.105297 14.8259849,143.136769 C13.7433427,143.150927 12.6640297,143.259567 11.6004356,143.461442 L10.8112055,143.56397 L10.0219753,143.820291 C2.45566029,146.246792 -1.45617607,152.19343 0.499742109,158.328036 C1.60710414,162.171363 3.4736773,165.755847 5.99003875,168.871357 C6.42673753,169.385458 6.89063937,169.876011 7.37977009,170.340928 C7.16898231,171.893757 7.32766524,173.474192 7.84301387,174.954699 C9.07176084,178.894421 11.1638523,182.513104 13.9681261,185.549284 C14.5343129,186.130277 15.1004997,186.677094 15.6838438,187.258088 C15.3762452,189.341387 15.7301728,191.468345 16.6961172,193.34143 C19.1414179,198.333657 22.8192826,202.625828 27.3850385,205.815699 C27.3618632,208.058652 28.0328063,210.254296 29.3066423,212.104098 C32.3440164,216.737054 36.4654102,220.566233 41.3166662,223.262588 C41.4203964,226.011548 42.5669455,228.619054 44.5250583,230.559181 L44.6966301,230.747149 C45.9196347,232.179106 47.2565014,233.510586 48.6942523,234.728662 C51.4492031,237.010507 54.4882327,238.92881 57.7360846,240.436068 C58.0576775,242.920602 59.1982127,245.228542 60.9787911,246.997875 C63.851356,249.892409 67.1488568,252.335402 70.758382,254.243204 C77.1764117,257.760238 84.3996423,259.561712 91.7244523,259.472144 Z" id="Path" fill="#040404"></path>
            <path d="M41.3568039,159.526153 C39.3615855,159.253655 39.8782046,160.979475 39.0409254,161.651637 C36.6894181,163.595456 34.5694986,163.46829 33.9816217,161.070308 C32.485208,155.220685 29.8842983,149.480061 31.5232277,143.158109 C34.943602,140.178798 36.2975002,140.26963 38.3639763,143.521439 C39.8734187,146.362929 41.0683889,149.366747 41.9268663,152.477539 C42.3722275,154.875521 40.608597,157.23717 41.321175,159.635152 L41.3568039,159.526153 Z" id="Path" fill="#FFFFFF"></path>
            <path d="M26.95434,155.08647 C28.33687,154.612063 28.6825024,156.204716 29.2355144,157.068814 C32.294362,162.151748 35.0939852,167.234681 38.3774939,172.317615 C47.6545648,186.159461 58.412895,198.990381 70.4694711,210.592104 C76.6908561,216.606909 83.8627303,221.825387 90.3779029,227.535216 C90.7062537,227.806306 91.0864495,228.21294 91.7604329,227.924907 C97.3360306,232.808459 103.451442,237.065067 109.992547,240.615298 C111.634301,241.547169 112.377411,243.834489 115.263443,243.24148 C115.263443,244.935792 117.406364,245.30854 118.616078,245.969321 C121.709489,247.663633 124.854744,249.357944 128,251.052255 C127.191025,252.322428 126.463781,253.640911 125.822515,255 C121.110392,252.526306 116.501959,249.928362 111.997215,247.206169 C92.3373418,235.359185 74.5212523,220.796604 59.098162,203.967348 C47.3288091,191.013587 37.0799877,176.805347 28.5442495,161.609568 C27.9016397,160.492766 27.3692544,159.318362 26.95434,158.102344 C26.5914259,157.051871 25.0015164,155.747252 26.95434,155.08647 Z" id="Path" fill="#C4C3C6"></path>
            <path d="M109.317004,251.403715 C111.890912,252.488827 109.943089,252.796546 108.638744,253.217634 C99.9046737,256.200349 90.1985338,255.411004 82.1518388,251.063605 C79.1835007,249.61329 76.4733373,247.744984 74.1170718,245.524675 C72.0475106,243.532603 72.8996829,241.62151 76.2909806,240.795529 C79.6805106,239.838129 83.2834399,239.743063 86.725743,240.520202 C94.9230638,242.660186 102.794885,245.762252 110.151785,249.751753 C111.890912,250.739691 110.569175,250.691104 109.612655,250.901648 C108.549181,250.194409 107.138037,250.137272 106.012662,250.755887 L109.317004,251.403715 Z" id="Path" fill="#C4C3C6"></path>
            <path d="M114.953189,243.261956 C111.731802,239.907209 108.386514,236.669879 105.306726,233.197717 C102.989291,230.939645 101.48395,228.04541 101.005642,224.928267 C100.904183,222.995156 102.179915,221.236646 104.12083,220.634192 C105.92341,219.748684 108.077503,219.792925 109.837909,220.751608 C114.762563,223.005972 119.01981,226.383403 122.227862,230.581015 C125.28995,234.573163 124.351854,239.622056 119.661372,244 L115.855886,239.487866 C116.847082,243.043897 116.847082,243.043897 114.84699,243.094218 L114.953189,243.261956 Z" id="Path" fill="#FFFFFF"></path>
            <path d="M83.354464,236.298265 C73.1260896,238.390036 65.3462734,235.611653 58.6952252,230.533917 C57.5425561,229.649694 56.4789444,228.671703 55.5173092,227.611824 C54.5621978,226.605858 53.2424076,225.567956 54.5448321,224.130861 C55.6956087,222.810117 57.4279747,222.03123 59.268292,222.007154 C61.805184,221.940769 64.3312635,222.336936 66.700795,223.172798 C73.3518432,225.296505 78.8567578,228.665694 84.6221573,231.843271 C86.2371638,232.753431 85.9766789,233.982945 85.9940445,235.036815 C86.0114102,236.090685 84.1532844,235.851169 83.354464,236.298265 Z" id="Path" fill="#C4C3C6"></path>
            <path d="M67.012515,218.269127 C56.9642666,220.478598 50.1501359,217.473717 44.6158166,212.011903 C43.1263494,210.529252 41.8037343,208.88106 40.6726141,207.098038 C38.9431393,204.411321 40.6726141,202.2372 44.4428691,202.007415 C46.8048954,201.928767 49.1465727,202.476844 51.239705,203.598235 C57.0965756,206.649506 62.5529948,210.444466 67.4794732,214.893054 C69.5375482,216.660631 69.624022,217.844908 67.012515,218.269127 Z" id="Path" fill="#C4C3C6"></path>
            <path d="M92.403094,228.629546 C91.1791372,225.203409 88.3623598,222.70233 86.5515744,219.635938 C84.9922869,216.997813 83.198268,214.496734 83.0306027,211.327558 C82.9132369,209.61449 83.0306027,207.764376 85.277318,206.753666 C87.3038325,205.570744 89.8359165,205.796004 91.6318336,207.318979 C95.4378363,210.539547 99.1264734,213.794376 100.518096,218.41966 C101.725286,222.4625 100.752827,226.162727 96.594727,230 C96.7120928,226.813693 91.3971021,225.357585 95.3037041,221.811535 C92.3360279,222.496762 92.3192614,222.513892 93.0402223,224.329745 C93.4258525,225.306193 93.8953154,226.248381 94.3480117,227.207699 C95.4881359,229.623125 93.442619,228.612415 92.3024948,228.578153 L92.403094,228.629546 Z" id="Path" fill="#FFFFFF"></path>
            <path d="M27.3502441,189.020666 C26.1870772,186.580434 28.1038452,185.631454 30.4137965,185.123073 C32.3854851,184.766888 34.4145761,185.190292 36.0985702,186.309297 C41.1671293,189.640611 45.8742253,193.526706 50.1384869,197.900401 C50.9289848,198.673495 51.2050748,199.855685 50.8429401,200.9168 C50.6299659,201.933564 49.0736157,201.730211 48.0906577,201.848833 C37.7040683,203.085896 31.0363366,196.544717 27.3502441,189.020666 Z" id="Path" fill="#C4C3C6"></path>
            <path d="M74.5011963,213 C71.6385461,209.110628 69.1946682,204.906143 67.213436,200.462024 C66.2561419,198.362775 65.8536563,196.036019 66.0473943,193.721177 C66.1667753,192.002077 67.3716913,190.576047 68.9948885,190.232789 C70.4788252,189.708428 72.1198407,190.085008 73.2541795,191.210212 C76.2538393,193.621188 78.6440126,196.756156 80.2180394,200.34406 C81.7264607,204.016907 81.0157073,208.269558 78.4041968,211.196823 C77.5782506,212.258507 76.8818646,214.381874 75.5862628,211.550718 C75.3757275,211.196823 75.0842171,211.314788 74.5011963,213 Z M69.9665899,195.608614 C70.5334157,202.821321 70.5334157,202.821321 74.0801257,206.680456 C71.5698971,203.040398 71.7642374,199.434045 69.9665899,195.608614 Z" id="Shape" fill="#FFFFFF"></path>
            <path d="M61.1837177,197 C58.9769121,193.598004 60.0368738,189.549629 56.7179772,186.794013 C58.2782898,189.656439 59.1294547,192.837805 59.2028056,196.081461 C55.1888521,190.740328 52.1306018,185.076005 52.0263432,178.544173 C51.7777956,176.39402 53.3148882,174.437939 55.5016276,174.121578 C57.5137366,173.657155 59.5969871,174.551958 60.6102958,176.315865 C64.4331086,181.01062 67.2654655,185.909494 65.4235647,191.982056 C64.5916406,194.053674 63.1063718,195.81152 61.1837177,197 L61.1837177,197 Z M57.7084333,184.973945 L56.092426,180.211151 C55.3626163,181.810089 56.0576732,183.511087 57.7258097,184.973945 L57.7084333,184.973945 Z" id="Shape" fill="#FFFFFF"></path>
            <path d="M18.2395281,166.062604 C19.7533971,165.873753 21.291452,166.114332 22.6662374,166.755021 C29.3152623,169.870899 33.1684708,175.029409 37.5055706,179.789778 C38.5629627,180.949577 38.0253057,182.767173 34.9068951,182.940277 C29.6643669,183.37615 24.51432,181.40821 20.9995007,177.625974 C18.7721357,175.247922 17.1193732,172.421751 16.1605877,169.351586 C15.6229307,167.689784 16.46526,166.668469 18.2395281,166.062604 Z" id="Path" fill="#C4C3C6"></path>
            <path d="M39.5143859,160.175084 C43.5913706,157.93755 45.9727869,159.100363 47.9731766,161.936921 C50.8880302,166.130094 53.1551385,170.340885 51.3643134,175.450213 C50.6640317,177.130775 49.6446386,178.682084 48.3542032,180.03099 C47.7794577,180.446382 47.1361955,180.773566 46.4490702,181 C46.4490702,179.608149 43.5913706,180.383357 43.7247299,179.238163 C44.3534238,173.952651 39.1905133,170.270411 39,165.143465 C39,163.381628 40.1430798,161.725501 39.5334373,160.034137 L39.5143859,160.175084 Z" id="Path" fill="#FFFFFF"></path>
            <path d="M11.2393527,150.066817 C12.9004822,149.815744 14.5916885,150.279376 15.874721,151.337569 C20.4596339,154.804989 24.3899383,159.023684 27.4895793,163.804681 C28.6528276,165.521914 27.8773288,167.050251 24.6519584,166.998734 C20.2929012,167.00568 16.1801123,165.030675 13.5305994,161.658139 C11.5111975,159.153258 10.0251789,156.280902 9.1596057,153.209353 C8.64848143,151.612326 9.37110539,150.719365 11.2393527,150.066817 Z" id="Path" fill="#C4C3C6"></path>
            <path d="M46.0755712,186.547618 C46.4896209,179.17719 56.1335281,178.21141 56.1335281,178.21141 C56.1335281,178.21141 79.251302,171.840649 82.0116332,171.840649 C96.5723803,171.840649 94.6919047,146.42538 83.9611171,130.481534 C63.258633,109.793505 65.9844601,71.6875449 79.1305375,54.5407101 C86.15213,45.3742697 96.2618431,39.765967 107.165151,36.6653041 C121.79754,8.78482098 154.023346,-5.5621841 185.0173,2.00534276 C216.011254,9.57286962 237.644775,37.0702426 237.280264,68.4343905 C237.292748,76.4830129 235.868002,84.4714351 233.070759,92.0367037 C243.853026,108.695153 243.217534,130.123467 231.466316,146.13734 L206.24379,162.301451 C207.813728,162.470886 237.677061,171.755931 239.195244,172.247293 C243.818798,173.755266 258,178.21141 258,178.21141 C258,178.21141 253.58347,190.393795 251.892767,196.188477 C239.816318,237.513704 216.957325,267.961196 179.313308,278.228965 C167.578232,281.538327 155.413016,283.142382 143.204726,282.990092 C114.71507,282.596347 88.0140627,269.278185 70.884048,246.917354 C57.9622475,229.939954 44.8851784,207.608404 46.0755712,186.547618 Z" id="Path" fill="#000000"></path>
            <path d="M218.62267,41 L219,40.373925 C218.097722,39.6531601 217.411094,38.7149695 217.01044,37.6554414 C216.210845,37.2041717 215.668132,36.4282367 215.535421,35.5465572 C198.829978,16.6984043 180.049217,10.1246167 159.759135,12.4476845 C156.245427,12.8671158 152.893515,14.112051 150,16.0723293 C167.357196,13.5350779 183.410887,18.8731911 198.812826,32.0537176 C205.639075,33.964894 212.431022,36.0408269 218.62267,41 Z" id="Path" fill="#C4C3C6"></path>
            <path d="M89.5317621,117 L88.7259423,117 C88.5609744,115.862551 88.0625571,114.79438 87.2894808,113.921484 C87.3103384,113.009203 86.8892651,112.139744 86.1508223,111.570311 C77.8824097,87.8894219 82.3669725,69.7566271 96.0483924,55.4635193 C98.5069283,52.9420776 101.58643,51.0625363 105,50 C92.7375238,61.8404443 88.7084244,77.3345115 92.3346138,96.6851805 C90.2850285,102.994446 88.3755858,109.405201 89.5317621,117 Z" id="Path" fill="#C4C3C6"></path>
            <path d="M218.781935,204.538156 C215.980555,193.837726 218.021066,182.56255 211.985994,171 C210.031945,186.213881 207.144103,199.923279 201.506758,212.922695 C188.50282,242.944755 159.555226,259.54479 128.878384,254.574922 C125.175697,253.9057 121.577594,252.769242 118.174345,251.194059 C159.416886,245.04089 189.523076,227.20684 201.437588,185.26724 C157.860564,229.843912 112.312198,226.260198 65,196.035287 C68.8908057,211.57035 84.1946416,221.205809 121.373452,231.771004 C111.222772,237.856557 104.080982,236.690159 68.3374467,223.048379 C97.233164,271.005914 145.185183,290.496586 195.177714,257.854359 C224.886177,238.448208 234.051186,208.375435 231.63024,175.614877 C231.543778,174.380863 231.336268,172.521388 229.364927,172.504484 C226.840226,172.504484 226.650009,174.583714 226.580839,176.17272 C226.183968,186.079038 223.518905,195.772153 218.781935,204.538156 Z" id="Path" fill="#C4C3C6"></path>
            <path d="M145,255.741868 C169.410389,253.770866 190.88808,237.951434 201.583798,212.894003 C204.968129,204.792796 207.528296,196.375563 209.226061,187.768014 C210.89107,183.07754 212.296268,178.29999 213.435344,173.456827 C217.730882,184.151655 216.264534,194.503699 218.817705,204.392986 C222.597629,197.24776 225.029833,189.475745 225.994187,181.460809 C227.381896,178.397813 228.535241,175.235251 229.444418,172 C231.324794,172 231.531808,173.919584 231.618064,175.136464 C232.369896,184.537994 232.010927,193.994654 230.548492,203.31322 C224.530642,218.231277 214.015696,230.93491 200.445222,239.682488 C181.313688,252.314039 162.527176,257.232974 145,255.741868 Z" id="Path" fill="#FFFFFF"></path>
            <path d="M122.636236,232.467279 C104.639177,227.371206 91.791515,222.275132 82.8877065,216.856307 C80.1321759,213.141836 77.5029404,209.178223 75,204.965469 C94.0992719,212.320802 105.00084,216.057923 112.561327,217.00919 C141.838841,223.600111 170.306917,216.465608 198,190 C182.896248,215.989975 157.269812,228.322473 124.651218,233.23169 C128.030668,234.824315 131.609759,235.966781 135.294455,236.629073 C147.950032,238.749491 160.959914,237.044053 172.614674,231.736842 C159.680902,241.606238 143.595491,247.619605 125.08177,251 C115.033106,246.908656 105.832811,241.029696 97.9397928,233.656363 C110.718566,237.342523 116.040185,236.459204 122.636236,232.467279 Z" id="Path" fill="#FFFFFF"></path>
            <path d="M160.387128,100.546128 C163.058665,100.886794 167.655789,101.295593 172.20087,102.045057 C176.745951,102.794522 178.567453,101.27856 177.526595,96.9350715 C176.641683,91.972882 173.100791,87.8646128 168.262956,86.1870678 C158.045197,82.5419445 147.914177,78.5050556 137.505594,75.5412638 C124.095869,71.7598742 100.190824,88.5887612 100,101.22746 C100,105.042916 101.491897,108.960572 103.660352,108.313307 C108.430952,106.882511 116.185346,105.315448 121.00799,106.712178 C125.830633,108.108907 127.218444,110.8172 127.947045,116.318951 C128.710341,122.212469 124.911208,120.100341 120.435518,122.144335 C117.243552,123.575131 112.334171,122.8427 108.864643,122.706434 C101.058206,122.399835 100.190824,126.981789 101.54394,133.573671 C104.423648,148.103064 109.10751,162.002226 118.683406,174.061792 C130.826753,189.255484 148.174391,191.384645 163.527051,178.762979 C181.447161,163.99512 189.097469,144.389807 190.936319,122.808634 C191.578182,115.296954 187.32801,111.072699 179.989959,114.717823 C170.899797,119.231643 161.792287,122.689401 151.817395,120.56024 C150.39128,120.34523 148.936274,120.40307 147.532529,120.730573 C144.271173,121.309704 140.732254,124.358663 138.650538,119.027244 C136.568821,113.695825 136.395345,108.960572 141.374117,105.247315 C146.352889,101.534059 152.233738,100.443929 160.387128,100.546128 Z M145.416117,146.876667 C141.061859,152.821284 135.996349,154.183947 129.803242,152.702051 C126.455148,151.901487 124.269346,149.908592 124.598951,146.416769 C125.154075,139.94412 125.795938,133.471471 126.333715,126.981789 C127.522453,129.120117 128.041465,131.555562 127.825612,133.982469 C128.033783,149.32946 128.033783,149.32946 145.416117,146.876667 Z M120.799818,161.031328 C126.00411,163.824787 136.204521,156.279041 139.88222,158.237869 C145.086512,161.031328 155.078751,159.242833 157.229858,158.237869 C146.821275,169.394672 131.208401,174.964557 120.799818,161.031328 Z" id="Shape" fill="#C4C3C6"></path>
            <path d="M98.1406231,65.0336296 C100.656368,59.2549891 104.726942,54.2804256 109.903212,50.6588135 C110.521391,47.7701763 111.843609,45.2404821 112.496133,42.4031225 C124.155691,14.6277644 156.386901,11.636572 180.684803,33.1047872 C172.476748,33.7201182 165.024247,36.010517 159.031337,41.7536064 C157.433749,43.2902348 155.925897,44.9166887 154.51519,46.6249769 C155.511146,46.9326424 156.507103,47.274493 157.503059,47.6334361 L161.74446,50.607536 C167.660002,43.8789985 176.393914,40.2877257 185.355495,40.89898 C193.83861,40.9922623 201.910303,44.5521617 207.678656,50.7442762 C221.587702,65.3242026 225.880617,92.7064326 209.121075,101.252697 L209.121075,101.252697 C205.17559,102.187696 201.071619,102.246054 197.100912,101.423622 C184.565598,98.5862622 173.249473,90.0912758 170.175746,73.9388368 C168.578781,65.4951279 171.291904,58.5555615 177.76562,56.5899208 C184.1959,54.6756509 191.14328,55.6163896 196.826165,59.1708925 C201.824637,61.9059792 205.103631,66.9624283 205.54937,72.6227121 C206.098863,78.3999866 204.158465,82.6047485 199.934236,84.7071294 C195.710007,86.8095104 191.348405,86.570215 186.952459,82.5705634 C184.023743,79.8674264 182.967438,75.70186 184.256509,71.939011 C184.892948,70.1823467 186.223552,68.7612519 187.939243,68.0058236 C189.654934,67.2503953 191.606389,67.2263812 193.340318,67.9393594 C196.77465,69.4435019 197.238285,72.7594523 197.461517,76.0754028 C197.461517,76.793289 197.135255,77.5966378 197.925152,78.2803389 C201.119081,75.1182212 200.706961,69.1529289 196.826165,65.1532773 C192.498906,60.6921275 188.240334,61.5638464 184.222165,63.102174 C180.203996,64.6405015 177.817135,69.7169823 178.418143,73.8191891 C179.980765,84.5191116 194.748394,94.9455538 202.35544,90.7236993 C210.941271,85.9890691 211.301876,69.5973346 202.784732,60.9314229 C193.700923,51.7014578 183.895904,49.3255963 174.022198,52.2142336 C166.08889,54.5730025 163.358596,61.7689568 164.148492,71.6655305 C164.148492,72.7765449 164.766672,74.0072069 164.148492,75.1694988 C160.988906,71.7509932 157.915179,68.3324876 154.755593,65.0507222 C153.570748,63.8029676 154.00004,63.1192665 154.498018,62.0424372 C154.704078,61.5638464 154.944481,61.1023482 155.167713,60.6408499 C151.905097,62.9996188 147.886928,62.7432309 143.147549,61.7347717 C125.804171,58.0256931 109.628465,58.9145046 97.4537566,71.8877334 C96.011337,68.6743381 98.501228,67.4607686 98.1406231,65.0336296 Z" id="Path" fill="#C4C3C6"></path>
            <path d="M103,57.3250561 C105.028341,54.856281 107.417875,52.6681838 110.105666,50.8357124 C110.520422,48.9471657 111.252244,47.2161389 111.885862,45.4462707 C116.961672,43.3551703 122.519032,42.2896739 128.371292,41.9856996 C136.949515,41.5401351 147.811126,41.837232 156.303335,45.0915972 C155.754953,45.6854565 155.219509,46.2906398 154.697379,46.906752 C155.692883,47.2064185 156.688387,47.5393812 157.683891,47.8889921 L161.923365,50.785768 C167.83622,44.2321666 176.566164,40.7342637 185.523674,41.3296259 C194.002936,41.420483 202.070962,44.8878282 207.836695,50.9189531 C213.220394,56.4181017 217.16276,63.78711 219,71.2365493 C214.384715,66.6992208 208.273058,62.9742162 201.866502,59.807808 C194.627948,53.1002725 186.952976,50.5456029 179.166035,51.3736118 C176.594293,51.3674686 174.029783,51.7323439 171.557645,52.4612744 C170.479943,52.8122093 169.290792,52.5621208 168.459381,51.8096837 C166.48069,52.7313212 164.367388,53.351215 162.194004,53.6475038 C161.354997,53.7678404 160.498067,53.6638675 159.715393,53.3467696 C158.998599,53.3906352 158.286336,53.2090065 157.684309,52.8288385 C150.455027,48.4347776 140.024206,48.1173359 131.572831,48.1507508 C122.071489,48.1507508 113.069312,50.356135 106.115431,56.5044787 C105.141824,57.3728893 104.010528,57.5618909 103,57.3250561 Z M122.535015,28.9073583 C137.574522,15.5712721 161.685015,17.233362 180.855104,33.7380752 C178.856807,33.8840525 176.903312,34.1268189 175.004788,34.4913921 C159.306563,30.3506336 140.788159,24.359015 125.82383,29.6723047 C124.480622,30.1491196 123.308547,29.7222885 122.535015,28.9073583 Z M174.447372,58.3632949 C175.450728,57.5968225 176.615579,57.0036636 177.937248,56.6126161 C184.364606,54.7481156 191.30883,55.6643959 196.989134,59.1264849 C201.985335,61.7904617 205.26284,66.7154477 205.708376,72.2285691 C205.962303,74.8300843 205.68428,77.1042275 204.894659,79 C204.52618,78.9526479 204.14665,78.8476806 203.762375,78.6752726 C202.22715,77.9774935 200.59705,77.3383173 199.000289,76.645146 C201.149756,73.4199363 200.446951,68.4259748 196.989134,64.953333 C194.841564,62.7958971 192.71092,61.9189735 190.61821,61.7662435 C186.920428,59.9655654 181.332342,58.2368163 178.012361,59.4784059 C176.385803,60.0866979 175.110667,59.4423913 174.447372,58.3632949 Z M184.410841,71.6037452 C184.415591,71.5900392 184.420373,71.5763387 184.425187,71.5626436 C185.061337,69.851651 186.391337,68.4675034 188.106249,67.7317156 C189.82116,66.9959277 191.771729,66.972538 193.50487,67.6669794 C196.937643,69.1320155 197.401067,72.3617542 197.624197,75.5914928 C197.624197,75.7295204 197.611489,75.8707917 197.597164,76.0137698 C197.413551,75.9275961 197.230918,75.8402227 197.04947,75.7514679 C195.772506,76.4667643 194.158857,76.2538031 193.125003,75.2335367 C191.248473,73.416925 188.762659,72.3142398 186.119484,72.1259499 C185.449175,72.074516 184.879188,71.8857228 184.410841,71.6037452 Z" id="Combined-Shape" fill="#FFFFFF"></path>
            <path d="M226.905674,123.522108 C227.572194,116.952434 224.675932,110.506115 219.184617,106.337063 C218.544161,105.823334 218.081609,105.889622 217.405572,106.585641 C217.350822,106.644964 217.291352,106.70036 217.227667,106.75136 C215.964545,108.408549 213.118073,109.502293 212.744473,110.960619 C212.370874,112.418945 215.092813,112.998961 216.124659,114.274996 C219.908449,118.385904 220.979723,124.093616 218.91776,129.156549 C216.338145,135.685872 209.186383,140.309428 200.575804,140.756869 C197.97716,140.923586 195.37561,140.473127 193.014861,139.44769 C190.103151,138.370911 188.055859,135.898087 187.677725,133.001227 C187.543714,132.377742 187.365417,131.763231 187.144012,131.161748 L186.521346,131.161748 C185.276014,133.514955 186.521346,135.205288 187.553192,136.845904 C191.306978,142.397486 200.255575,144.485544 208.68825,141.900329 C208.93005,141.866744 209.175859,141.866744 209.417659,141.900329 L213.224816,140.243141 C214.642641,139.058659 216.179727,138.004231 217.814752,137.094483 L218.988922,136.183029 C221.883981,133.401834 224.264534,130.193185 226.033942,126.687338 L226.905674,123.522108 Z" id="Path" fill="#FFFFFF"></path>
            <path d="M203.218348,140.493051 C200.316395,139.537512 197.700731,137.842555 195.618233,135.568157 C190.727576,130.086383 194.646918,123.856305 201.395002,120.428021 C204.922409,118.687776 208.53502,117.887263 211.244478,120.341009 C213.154047,121.605094 213.877242,124.101398 212.94854,126.223039 C211.750226,129.408918 209.135937,131.820143 205.910765,132.714154 C205.125822,133.055119 204.256922,133.140208 203.422835,132.957788 C205.114119,131.233305 206.554511,129.270049 207.70003,127.127966 C208.978076,124.117342 207.478502,122.04645 204.155582,122.429304 C200.864979,122.969938 198.108896,125.266763 196.93036,128.450553 C196.34814,129.953946 196.409356,131.637687 197.09914,133.092849 C197.788924,134.54801 199.044167,135.64146 200.560012,136.107633 C204.921687,137.254692 209.555291,136.061863 212.863337,132.940386 C216.334519,130.276224 217.810691,125.684202 216.56115,121.437364 C215.765849,118.521801 214.245407,115.865978 212.147631,113.728077 C211.346722,112.840551 210.579894,112.736137 209.216645,113.571455 C207.737183,114.430033 206.122601,115.018913 204.445272,115.3117 C199.026356,116.355847 190.812779,124.012927 189.46657,128.955224 C188.324849,133.375447 189.210961,136.908146 192.874694,139.257477 C195.212709,140.445008 197.795775,141.041821 200.406646,140.997722 C201.318829,141.001748 202.230083,140.937769 203.133145,140.806295 C203.149912,140.698939 203.178494,140.593859 203.218348,140.493051 L203.218348,140.493051 Z" id="Path" fill="#C4C3C6"></path>
            <path d="M187.899181,129.876812 C189.75008,123.372695 194.084265,117.819533 200,114.372671 C199.838656,113.42236 198.207286,114.179089 198.404485,113 L198.404485,113 C196.455893,113.433843 194.694424,114.455341 193.366958,115.921325 C189.082372,120.197723 186.196103,124.720497 187.200023,130 L187.899181,129.876812 Z" id="Path" fill="#C4C3C6"></path>
            <path d="M158.401147,127.232141 C162.206746,127.070812 163.952434,127.034962 166.745534,127.017036 C168.467042,127.068171 170.187426,126.881266 171.860399,126.46135 C172.26794,126.35721 172.669982,126.231566 173.064923,126.084917 C175.665998,125.529231 177.359315,123.503664 179.419227,124.113127 C179.889734,124.267013 180.327926,124.51023 180.711036,124.830142 C180.938548,126.299831 181.032057,127.788108 180.990346,129.275633 C180.990346,129.705841 180.990346,130.100199 180.850691,130.494558 C179.436684,133.54187 177.621168,136.320302 176.032593,139.636495 C175.840567,140.012927 175.631084,140.371435 175.421602,140.729942 C174.626433,142.110283 173.670947,143.386351 172.576131,144.53012 C172.209536,144.888627 171.825485,145.247135 171.40652,145.587717 C170.394021,145.713194 169.259324,145.874522 168.0548,146 L166.850275,146 L165.261699,145.659418 C160.588385,143.532685 156.715868,139.902293 154.228953,135.316481 C154.228953,134.886272 154.159126,134.473989 154.019471,134.079631 C153.99351,133.607973 153.99351,133.135185 154.019471,132.663527 C154.035557,130.590174 155.065337,128.663926 156.7602,127.536872 C157.299163,127.394105 157.847626,127.292253 158.401147,127.232141 L158.401147,127.232141 Z" id="Path" fill="#FFFFFF"></path>
            <path d="M107.22458,129.90098 C109.720235,129.741131 110.872076,129.687848 112.70455,129.616804 C113.841583,129.592151 114.974384,129.467358 116.090263,129.243823 L116.875609,129.048452 C118.620823,128.746514 119.772663,127.805181 121.099025,128.036074 C121.393853,128.07405 121.678477,128.170604 121.936728,128.32025 C122.021091,128.968657 122.021091,129.625554 121.936728,130.273961 C121.906208,130.459683 121.865422,130.643505 121.814563,130.824552 C120.802339,132.209911 119.545786,133.470943 118.324136,134.980628 L117.905285,135.477937 C117.310683,136.138446 116.64971,136.733729 115.933194,137.254038 L115.147848,137.733585 C114.467215,137.733585 113.716773,137.928956 112.931427,138 L112.128629,138 L111.098953,137.893434 C108.375062,137.249348 105.927335,135.729809 104.1181,133.559748 C104.101757,133.378877 104.066657,133.200273 104.013387,133.026918 C103.995538,132.820104 103.995538,132.612096 104.013387,132.405282 C104.013387,131.570515 104.571856,130.771269 105.950574,130.060829 L107.22458,129.90098 Z" id="Path" fill="#FFFFFF"></path>
            <path d="M133.398211,101.639393 L131.426281,98.0770372 C130.741038,96.6054651 129.790043,95.2816475 128.624065,94.1762574 C126.741234,92.835652 124.441409,92.2642403 122.172049,92.5731972 C119.906059,92.7335032 117.657367,93.3034801 115.391377,93.3391037 C114.474602,93.3391037 113.384852,93.1609859 113.038899,92.2703969 C112.416184,90.4892189 119.45632,86.4993802 120.822833,85.4128616 C132.031699,76.5069716 145.593042,83.0973302 156.767312,87.6215223 C161.014389,89.0837681 165.02556,91.1909914 168.668082,93.8734571 C169.432312,94.327935 169.9304,95.140571 170,96.0464943 C169.895292,96.9239081 169.264381,97.6378247 168.425916,97.8276723 C167.613106,97.9340551 166.787619,97.8611959 166.004247,97.6139309 C162.418503,96.7184727 158.768359,96.1228087 155.089442,95.8327529 C152.098368,95.7707781 149.135251,96.4359379 146.440626,97.7742369 C143.603814,99.1813675 141.510801,101.60377 138.81237,103.117771 C137.701807,104.047595 136.179849,104.260679 134.86851,103.669936 C134.386519,103.248726 133.997314,102.726506 133.726866,102.138123 L133.398211,101.639393 Z" id="Path" fill="#FFFFFF"></path>
            <path d="M138.451719,128.167031 C138.658046,131.665376 138.630536,135.180702 138.96066,138.780941 C139.455845,144.300174 135.122972,141.769817 134.572766,138.271473 C134.177455,135.685261 133.988564,133.057413 134.008805,130.425671 C133.963376,129.273711 134.094033,128.121489 134.393949,127.02922 C135.164238,124.61774 137.585145,124.108272 138.272902,126.859397 C138.369701,127.286268 138.429641,127.724586 138.451719,128.167031 L138.451719,128.167031 Z" id="Path" fill="#FFFFFF"></path>
            <path d="M228.063426,267.376621 C223.302869,267.448579 218.561159,266.768091 214.016683,265.360757 L214.016683,265.360757 L212.948096,265.019085 C211.345217,266.009934 209.725102,266.983698 208.070516,267.957463 C205.571402,269.409568 203.572111,271.374182 201.021292,272.775036 C199.625235,273.560881 197.815532,274.739649 196.160946,273.372962 C195.41983,272.757953 195.4543,271.664603 194.730419,271.117928 C189.077252,266.300355 188.611899,267.51329 185.061434,262.576131 C184.716729,262.080707 184.113495,254.854347 184.010083,254.290589 C183.934007,253.464468 184.292148,252.657675 184.958023,252.15514 C186.68155,250.600533 189.542604,250.088025 191.628071,248.87509 L191.834894,248.755505 C189.028752,243.593758 189.347508,237.314249 192.662187,232.457757 C196.217744,227.093631 201.085752,222.709251 206.812341,219.713397 C208.848758,218.607479 211.075957,217.888995 213.378978,217.595032 C215.656861,213.836581 218.57221,210.496096 221.996612,207.720715 C224.058816,205.868729 226.571038,204.579521 229.28713,203.979408 C231.145322,199.472405 234.064698,195.471622 237.801351,192.311314 C239.302243,190.95265 241.059512,189.901762 242.971932,189.219184 C244.071236,185.510287 245.853496,182.035056 248.228688,178.969029 C249.830293,176.744916 251.993872,174.977438 254.502325,173.843951 C255.09887,171.141869 256.128834,168.552127 257.552967,166.173418 C259.61223,164.301032 261.45089,162.203462 263.033782,159.920823 L263.292311,159.749987 L263.292311,159.459566 C265.824648,155.680072 267.614007,151.460497 268.566303,147.02271 C271.147345,143.831281 275.056689,141.981878 279.183227,142.000134 C283.662843,142.047923 287.982646,143.656617 291.385797,146.54437 L293.971087,148.54315 L294.21238,149.311912 C296.961016,148.416469 299.884026,148.176492 302.743837,148.611484 L303.588366,148.731069 L304.398423,148.953156 C312.102587,151.054438 316.307993,156.845776 314.636172,163.04712 C313.714389,166.919878 312.014456,170.568717 309.637944,173.775616 C309.224298,174.305208 308.776181,174.800632 308.328064,175.296056 C308.599097,176.831972 308.516613,178.408732 308.08677,179.908626 C307.049582,183.881272 305.123305,187.571467 302.450838,190.705457 C301.916545,191.320466 301.365016,191.884225 300.813488,192.413816 C301.227647,194.477163 300.974324,196.617436 300.089606,198.529742 C297.879211,203.593244 294.403164,208.014717 289.98974,211.376604 C290.125851,213.604684 289.559679,215.819589 288.369625,217.714617 C287.073642,219.893571 285.535893,221.92204 283.785044,223.762209 C281.735865,225.897391 279.418938,227.763328 276.890937,229.314376 C276.905391,232.048224 275.884415,234.687936 274.029883,236.711572 L273.874765,236.899492 C272.713103,238.376905 271.427358,239.754203 270.031301,241.016637 C267.391243,243.405328 264.44086,245.433462 261.25855,247.047146 C261.072675,249.538213 260.039722,251.893097 258.328554,253.72683 C255.592399,256.721477 252.406643,259.279922 248.883628,261.311946 C242.597686,265.102624 235.419004,267.193688 228.063426,267.376621 Z" id="Path" fill="#040404"></path>
            <path d="M274.852832,165.75715 C276.714817,165.411225 276.31582,167.159058 277.113814,167.796289 C279.39142,169.616948 281.353154,169.380262 281.802025,167.031612 C282.932516,161.11447 285.126998,155.270154 283.298263,149.007087 C279.97329,146.166859 278.726425,146.312511 276.947565,149.626111 C275.680681,152.536686 274.705216,155.588897 274.038214,158.729406 C273.722342,161.132676 275.484577,163.444913 274.935957,165.86639 L274.852832,165.75715 Z" id="Path" fill="#FFFFFF"></path>
            <path d="M286.981201,161.074017 C285.567176,160.635028 285.256781,162.25591 284.791187,163.117003 C281.997628,168.266679 279.462731,173.51766 276.427752,178.549147 C267.876541,192.651638 257.793337,205.807681 246.353872,217.78799 C240.439113,224.001369 233.575922,229.45496 227.385256,235.415077 C227.07486,235.702108 226.695488,236.124213 226.022964,235.854066 C220.705544,240.919205 214.822728,245.382213 208.485616,249.158803 C206.89915,250.121201 206.278359,252.434334 203.312357,251.944693 C203.312357,253.633111 201.260297,254.0721 200.104936,254.781236 C197.104446,256.604728 194.069467,258.411335 191,260.16729 C191.871893,261.396419 192.666594,262.676354 193.379699,264 C197.932167,261.382952 202.415658,258.63083 206.77844,255.760518 C225.763415,243.26497 242.789512,228.13001 257.321182,210.831706 C268.417794,197.495082 277.92877,182.965682 285.670642,167.523775 C286.262735,166.395409 286.742053,165.213649 287.10191,163.994981 C287.42955,163.015698 289.016016,161.681847 286.981201,161.074017 Z" id="Path" fill="#C4C3C6"></path>
            <path d="M211.744705,259.499748 C209.262599,260.770192 211.19693,261.034868 212.497895,261.440704 C221.181931,264.361795 230.677312,263.139134 238.397382,258.105789 C241.23732,256.410403 243.806672,254.273775 246.014878,251.771213 C247.932091,249.530291 247.007721,247.483465 243.618363,246.707082 C240.255854,245.764306 236.71009,245.764306 233.347581,246.707082 C225.416025,249.346979 217.845301,253.023559 210.820335,257.647017 C209.108538,258.793946 210.460857,258.688076 211.402345,258.864526 C212.419428,258.057839 213.802923,257.947074 214.928647,258.582205 L211.744705,259.499748 Z" id="Path" fill="#C4C3C6"></path>
            <path d="M203.638883,251.917058 C206.788021,248.553374 210.046378,245.255323 213.031689,241.826007 C215.281837,239.537335 216.670892,236.66557 216.999967,233.6219 C217.0078,231.726732 215.617305,230.057784 213.595985,229.536255 C211.714027,228.727835 209.504859,228.839152 207.734583,229.831603 C202.805756,232.199738 198.6225,235.654396 195.574904,239.87343 C192.626,243.860625 193.863811,248.783089 198.906073,253 L202.546696,248.471333 C201.69115,251.966283 201.69115,251.966283 203.748101,251.949874 L203.638883,251.917058 Z" id="Path" fill="#FFFFFF"></path>
            <path d="M233.742296,244.429775 C242.697728,246.274087 251.996859,243.582038 258.509242,237.259877 C259.621615,236.24483 260.650866,235.145051 261.587419,233.970773 C262.489644,232.822197 263.781063,231.656219 262.3835,230.124784 C261.143983,228.736472 259.343327,227.959121 257.465492,228.001659 C254.887104,228.0214 252.33806,228.541834 249.964645,229.533094 C243.330642,232.091285 237.881914,235.97208 232.27397,239.644042 C230.681809,240.688202 231.017932,242.028207 231.053313,243.124575 C231.088695,244.220943 232.928525,243.925098 233.742296,244.429775 Z" id="Path" fill="#C4C3C6"></path>
            <path d="M252.021363,226.52756 C262.016565,228.242016 268.583378,225.13885 273.785659,219.669735 C275.177312,218.184928 276.396189,216.54563 277.418727,214.783535 C279.004996,212.108984 277.231104,210.068781 273.478639,210.000203 C271.162337,209.987429 268.882258,210.578107 266.860656,211.714659 C261.239877,214.880725 256.046381,218.758468 251.407323,223.252949 C249.462864,225.018839 249.411694,226.218958 252.021363,226.52756 Z" id="Path" fill="#C4C3C6"></path>
            <path d="M226.223105,236.477911 C227.309439,233.09549 230.085628,230.491026 231.792726,227.396111 C233.275659,224.723999 234.94827,222.153359 235,219.075356 C235,217.299585 234.879296,215.574551 232.482462,214.644385 C230.358886,213.552055 227.76683,213.868994 225.981697,215.439254 C222.239877,218.821674 218.601518,222.119535 217.359992,226.719627 C216.308144,230.76162 217.480696,234.363898 221.946739,238 C221.670845,234.854349 227.119762,233.213875 222.86064,229.865278 C225.94721,230.44029 225.964454,230.44029 225.309204,232.266797 C224.964336,233.247699 224.516007,234.194777 224.102165,235.158767 C223.050317,237.577197 225.102283,236.511735 226.274835,236.444086 L226.223105,236.477911 Z" id="Path" fill="#FFFFFF"></path>
            <path d="M288.702396,193.97315 C289.77617,191.41515 287.779622,190.492878 285.346854,190.075245 C283.321966,189.793546 281.268793,190.308846 279.5921,191.519558 C274.573759,195.136126 269.949485,199.307973 265.800822,203.961532 C265.015138,204.780765 264.783297,206.010541 265.213602,207.076376 C265.482045,208.103056 267.05915,207.842036 268.082591,207.929042 C278.753214,208.781709 285.212633,201.821164 288.702396,193.97315 Z" id="Path" fill="#C4C3C6"></path>
            <path d="M242.609722,220.924816 C245.193067,216.783424 247.358152,212.33576 249.065488,207.662948 C249.891054,205.459434 250.176975,203.050507 249.893952,200.683017 C249.706351,198.9071 248.488889,197.483967 246.908355,197.193052 C245.46155,196.703361 243.890978,197.161911 242.844193,198.37964 C240.073353,200.993753 237.92528,204.332917 236.591636,208.099193 C235.29704,211.973885 236.166786,216.336211 238.811294,219.232183 C239.67102,220.314072 240.374433,222.4604 241.546788,219.49393 C241.68747,219.022785 241.968835,219.179833 242.609722,220.924816 Z M246.189311,202.759547 C245.970472,210.245522 245.970472,210.245522 242.734773,214.381131 C244.985694,210.45492 244.641803,206.703207 246.189311,202.672298 L246.189311,202.759547 Z" id="Shape" fill="#FFFFFF"></path>
            <path d="M254.965083,203 C256.94596,199.620956 255.720502,195.566102 258.79254,192.677019 C257.427543,195.588084 256.776995,198.786453 256.895599,202.003182 C260.521611,196.56292 263.190759,190.83544 262.989313,184.36457 C263.112347,182.228941 261.572351,180.361661 259.464024,180.090079 C257.511117,179.689744 255.532901,180.650658 254.629341,182.438515 C251.1712,187.236758 248.68671,192.203953 250.751523,198.151071 C251.62091,200.16901 253.093765,201.863958 254.965083,203 L254.965083,203 Z M257.734953,190.936811 L259.077921,186.206149 C259.866914,187.709824 259.279366,189.433137 257.734953,190.936811 Z" id="Shape" fill="#FFFFFF"></path>
            <path d="M294.862667,173.034397 C293.436485,172.896119 292.000883,173.176664 290.732453,173.841524 C284.646709,177.103662 281.258247,182.249095 277.41462,187.00778 C276.470571,188.168025 277.060601,189.9168 279.993896,189.984061 C284.892903,190.204989 289.611765,188.119277 292.738557,184.350988 C294.71314,181.955841 296.129618,179.153063 296.885629,176.145199 C297.307079,174.51413 296.548468,173.555667 294.862667,173.034397 Z" id="Path" fill="#C4C3C6"></path>
            <path d="M274.383094,165.086932 C270.705411,162.902966 268.691838,164.206005 267.077651,167.252545 C264.731256,171.730593 262.934018,176.190287 264.731256,181.439146 C265.430552,183.144931 266.393432,184.703646 267.576884,186.045662 C268.08088,186.461389 268.642954,186.783728 269.240994,187 C269.240994,185.55014 271.703877,186.265894 271.520825,185.036266 C270.755334,179.658939 275.08202,175.547944 274.998814,170.354144 C274.998814,168.518878 273.850579,166.830434 274.299888,165.050227 L274.383094,165.086932 Z" id="Path" fill="#FFFFFF"></path>
            <path d="M121.457875,78.761859 L120.871377,78.7641769 C120.754902,77.8699704 120.395516,77.0312159 119.835607,76.3468477 C119.85367,75.6292163 119.549949,74.9465393 119.014288,74.5007654 C113.071131,55.8979257 116.392417,41.6223551 126.3953,30.3405046 C128.192659,28.3501482 130.439945,26.8629038 132.927795,26.0173283 C123.965408,35.3659114 120.983959,47.5646339 123.562059,62.7748154 C122.050377,67.7433754 120.640375,72.7913606 121.457875,78.761859 Z" id="Path-Copy-12" fill="#000000" transform="translate(124.495577, 52.390753) rotate(13.000000) translate(-124.495577, -52.390753) "></path>
            <path d="M168.542219,34.6917895 C172.548333,32.376626 177.561609,30.6428385 183.114992,29.6519526 C163.136331,40.5283436 156.529406,54.6836693 162.353667,72.3067456 C161.354694,74.0237543 149.542997,74.5649983 148.051192,71.2977484 C144.532616,63.5916044 152.885787,43.906916 168.542219,34.6917895 Z" id="Path-Copy-23" fill="#000000" transform="translate(165.184255, 51.663723) rotate(13.000000) translate(-165.184255, -51.663723) "></path>
            <path d="M302.700827,155.039268 C301.065455,154.847484 299.426061,155.364463 298.217746,156.452996 C293.89961,159.976825 290.249883,164.209073 287.434119,168.957763 C286.378259,170.640773 287.2091,172.155482 290.359373,171.987181 C294.617991,171.840128 298.558998,169.75905 301.004526,166.365927 C302.871093,163.845934 304.190318,160.982741 304.881786,157.950875 C305.314515,156.402506 304.552911,155.544171 302.700827,155.039268 Z" id="Path" fill="#C4C3C6"></path>
            <path d="M189.460709,184.255939 L187.82571,184.243556 C175.484104,184.150087 164.538367,180.310712 155.947784,174.057524 L155.102782,173.900195 C154.443509,173.895202 153.863348,173.890808 153.25757,173.98684 C154.12801,176.17549 153.599672,185.450088 162.088315,188.972162 C168.539318,191.648787 183.978852,189.198219 187.223108,188.28056 C189.003731,187.788116 190.659511,187.13422 192.139639,186.338937 C192.612179,186.057426 194.759761,184.094832 195.181696,184.098027 C193.282736,184.050105 191.359417,184.270319 189.460709,184.255939 Z" id="Path" fill="#C4C3C6" transform="translate(174.219633, 182.042221) rotate(-62.000000) translate(-174.219633, -182.042221) "></path>
        </g>
    </g>
</svg>