<?xml version="1.0" encoding="UTF-8"?>
<svg width="400px" height="320px" viewBox="0 0 400 320" version="1.1" xmlns="http://www.w3.org/2000/svg" xmlns:xlink="http://www.w3.org/1999/xlink">
    <!-- Generator: Sketch 53.2 (72643) - https://sketchapp.com -->
    <title>Creator</title>
    <desc>Created with Sketch.</desc>
    <g id="Creator" stroke="none" stroke-width="1" fill="none" fill-rule="evenodd">
        <g id="Group-22" transform="translate(70.000000, 145.000000)">
            <path d="M143.530914,106.991879 C188.952563,109.5 220.999641,88.0407979 217.795748,61.8941673 C216.973809,55.1864096 213.923875,32.445726 208.299629,26 C192.000737,7.32048698 163.008193,2.05608964 126.533164,4.3187984 C89.8055382,6.59717682 5.735994,-6.45084258 1.20669794,4.3187984 C-2.8667624,14.0045652 22.2237807,72.55 33.9882345,72.55 C85.9287758,72.55 98.1092656,104.483758 143.530914,106.991879 Z" id="Oval-Copy" fill="#000000"></path>
            <path d="M106,54.0414815 C108.342038,69.362116 130.310964,80.6203469 156.059693,79.3983831 C182.53646,78.1461425 202.983584,63.905479 201.729623,47.5848804 C201.688803,47.0535565 201.62549,46.5267245 201.540277,46.0047113 L201.609277,46 L203,60.1934472 L202.945333,60.1970137 C203.315858,76.1103221 183.165731,89.7567043 157.227921,90.9186172 C132.049817,92.0504794 110.484873,81.2491059 107.35044,66.433714 L107.24037,66.4408951 L106,54.0414815 Z" id="Path" stroke="#979797" stroke-width="0.5" fill="#D8D8D8"></path>
            <path d="M156.647492,76.9073938 C131.547057,78.1686209 110.23767,66.3996117 109.051643,50.6145617 C107.865617,34.8271475 127.252074,20.734237 152.352508,19.1431792 C177.452943,17.5564004 198.76233,29.340546 199.948357,45.4577908 C201.134383,61.5726715 181.747926,75.6504457 156.647492,76.9073938 Z" id="Oval-Copy-18" stroke="#979797" stroke-width="0.5" fill="#D8D8D8"></path>
            <path d="M156.082518,72.1117537 C180.927901,70.112818 199.650233,55.7871465 198.213156,40 C198.525993,41.0552642 198.748783,42.1363442 198.875994,43.2403386 C200.715446,59.2052387 181.873747,73.7710525 156.791882,75.7680197 C131.710017,77.760736 109.885978,66.694822 108.046526,51.0575837 C108.029183,50.9101605 108.013678,50.7628456 108,50.615648 C112.210756,64.536352 132.735234,73.9863585 156.082518,72.1117537 Z" id="Path" fill="#FFFFFF"></path>
            <path d="M154.745545,26.4137091 C132.760886,28.0577836 116.033038,40.5070214 117.38285,54.2198602 C117.581401,56.2369499 118.160037,58.1715548 119.072616,60 C117.399675,57.5436525 116.357286,54.8548255 116.076271,52.0006766 C114.726458,38.2912136 131.454307,25.8353978 153.438966,24.1798335 C172.189793,22.7677943 188.70857,29.8052451 194,40.574277 C187.63723,31.0892405 172.153257,25.1119116 154.745545,26.4137091 Z" id="Path" fill="#000000"></path>
            <path d="M173.338303,52.6368662 L143.464699,59.910975 C141.787597,60.3172291 140.248237,59.2946183 140.026441,57.6271579 C139.974763,57.2386571 139.998988,56.8354881 140.097786,56.4397495 L145.768966,33.6833687 C146.193002,31.9786861 147.864368,30.7908124 149.502067,31.0308205 C149.88364,31.0867792 150.242559,31.2189661 150.559133,31.420141 L174.761558,46.8899715 C176.12028,47.7637007 176.404728,49.6837944 175.39689,51.1774504 C174.902968,51.9091945 174.160218,52.4357252 173.338303,52.6368662 Z" id="Path" fill="#FFFFFF"></path>
            <path d="M171.483697,54.1287912 L143.26913,60.9166842 C141.685167,61.2959092 140.232545,60.3447018 140.024608,58.7923179 C139.97616,58.430628 139.999395,58.0552402 140.093039,57.6867316 L145.468378,36.4986108 C145.870294,34.9115989 147.449529,33.8054934 148.995699,34.0286116 C149.355947,34.0806298 149.694736,34.2036086 149.993478,34.3908118 L172.832706,48.7802571 C174.114899,49.5926181 174.381782,51.3791555 173.428808,52.7695858 C172.961773,53.450776 172.259967,53.9411548 171.483697,54.1287912 Z" id="Path" fill="#000000"></path>
        </g>
        <g id="Group-25" transform="translate(199.503493, 125.965144) rotate(-40.000000) translate(-199.503493, -125.965144) translate(6.003493, -44.034856)">
            <g id="Group-18" transform="translate(101.901474, 121.251469) scale(-1, 1) translate(-101.901474, -121.251469) translate(0.901474, 0.751469)">
                <path d="M65.0652007,7.72542736 C76.4726829,-1.78857789 94.2399819,-2.2434171 110.114869,4.86722484 C126.618878,12.2596618 139.12108,26.7940359 143.133687,45.5826474 C146.808751,62.7907526 153.248487,75.5858868 159.251233,80.7394455 C162.277021,82.2418679 164.840198,84.1106171 166.904326,86.5556403 C169.952319,90.1660814 171.483896,94.6571404 171.149219,99.3279575 C184.167189,117.883834 191.619449,143.301505 190.900438,166.304158 C193.533687,167.699574 195.848768,169.574806 197.745375,171.988071 C201.593898,176.884978 202.699795,182.866084 201.59236,188.901377 C200.799185,193.224016 198.899879,197.514355 196.107585,201.846211 C191.424083,209.112014 184.00676,216.741332 175.009962,223.72905 C166.013164,230.716769 156.772251,236.025728 148.547512,238.78562 C143.643942,240.431061 138.996925,241.225182 134.585981,240.944527 C128.427396,240.552676 122.857152,238.03898 119.008629,233.142073 C117.112022,230.728808 115.841795,228.04205 115.116857,225.164469 C90.8995467,219.95043 66.2464928,205.036978 51.4880855,186.258204 C35.8838746,166.403218 30.5910741,140.742391 41.4601068,115.586399 C41.4276532,115.518845 41.3915466,115.448141 41.3518499,115.374906 C41.1158506,114.93952 40.7960207,114.496212 40.4790407,114.149005 C37.5410259,112.904881 34.2171339,112.046692 30.5041458,111.516281 C27.3089671,111.05984 24.6671444,110.901415 19.9096777,110.778751 C17.2080234,110.709092 16.3489049,110.676801 15.0890689,110.561533 C13.8757545,110.450521 12.783629,110.284259 11.6111395,109.973942 C8.6713744,109.195889 6.07139632,107.879796 3.71057069,104.875853 C0.854199678,101.241372 -0.269097297,96.8984777 0.0536270317,92.5109414 C0.274906888,89.5025738 1.14572239,86.6289174 2.50950211,83.7391391 C4.45571548,79.6152143 7.50438039,75.3010743 11.5298508,70.6544706 C18.0512161,63.1268534 27.3071925,54.6282509 36.5004793,47.4879216 C41.2314911,43.8133945 46.0263317,40.60477 50.7076468,37.9859315 C49.4863974,27.8642114 54.0312193,16.9279274 65.0652007,7.72542736 Z" id="Path" fill="#000000" fill-rule="nonzero"></path>
                <path d="M14.8711656,96.5133009 C21.5728159,94.602927 32.4681962,87.8319233 44.0310366,78.5121326 C60.7027352,65.0745397 71.8788381,51.8862281 68.551958,47.7970092 C67.6300385,46.6638362 65.7899071,46.4696799 63.2564845,47.0670814 C65.1813429,46.2069419 67.0289062,45.5073373 68.7714922,44.9833568 C63.6726755,39.3638905 60.8823841,29.2433321 74.1227865,18.1870377 C87.9133705,6.67131848 123.252806,17.2910631 129.894369,48.4278134 C134.636439,70.6594199 143.383147,85.9676434 152.133662,92.4110828 C156.193417,94.1413943 157.996794,96.2801821 157.543793,98.8274463 C157.328841,100.036142 156.682523,100.905665 155.604838,101.436015 C156.316035,102.252877 156.995511,103.075669 157.642844,103.900358 C172.405065,122.707131 180.484924,152.769638 176.194656,176.647589 C181.195333,176.64669 185.122963,177.926621 187.022607,180.346729 C192.061716,186.766453 182.435277,200.705418 166.680529,212.957044 C150.92578,225.20867 135.008724,231.133515 129.969615,224.713791 C128.76799,223.182946 130.460083,220.161103 135.045892,215.648262 C138.303717,212.540607 143.43274,208.285359 150.432959,202.882519 C160.933287,194.778259 164.654945,190.228635 168.214818,183.683296 C157.543793,195.223074 135.804314,197.888062 114.521611,196.925173 C76.9002001,195.223074 63.2179598,178.690666 62.5545244,177.845462 C52.1514835,164.592197 44.234447,143.439885 54.6905863,120.139344 C58.1309349,112.472845 51.0344768,103.850517 47.3894632,102.167383 C32.6658104,95.3685428 16.2787141,98.0776544 14.8711656,96.5133009 L14.8711656,96.5133009 Z M89.1526872,45.2750025 C87.3464703,47.0674654 85.1794464,48.2802109 82.8895783,48.9118194 C83.878288,52.4355777 85.1116064,59.1991862 87.2590394,70.5566846 C87.9998663,74.4748232 94.6517461,83.369552 102.972384,81.8642807 C115.304885,79.6332305 126.061156,81.5000215 135.045892,85.5275826 C129.672512,76.7895608 125.12488,64.9788195 121.314668,50.0931637 C117.85194,36.5650549 106.824098,29.4279556 101.207708,27.1868052 C95.5913183,24.9456548 85.3708956,23.0992825 78.6102643,27.1868052 C74.2082254,29.8483072 73.6254569,36.1999492 76.9889723,38.923704 C80.5415175,41.800534 88.0156171,38.923704 87.2590394,35.2257657 C87.1493835,34.6897983 86.8007367,33.65603 86.2056338,33.3095434 C86.3527946,33.9269116 86.1010903,34.8493356 85.4505209,36.0768152 C82.5875689,37.2909129 80.6742777,37.5077907 79.7106474,36.7274485 C77.8131552,35.1908706 77.8022478,32.0577405 80.447851,30.5908843 C83.8356451,28.7125201 87.7943588,29.0266738 92.0342324,29.4279556 C94.4599904,34.5933744 93.4928793,40.9678604 89.1526872,45.2750025 Z" id="Shape" fill="#C4C3C6"></path>
                <g id="Group-28" transform="translate(95.266729, 137.880207) rotate(1.000000) translate(-95.266729, -137.880207) translate(55.766729, 96.880207)" fill="#000000" fill-rule="nonzero">
                    <path d="M54.4150035,22.6557387 C49.0035624,16.6849285 53.3402574,9.89905538 60.8069148,6.16492966 C64.7099403,4.26943437 68.7072417,3.39750654 71.7052178,6.0701549 C73.8181282,7.44701106 74.618333,10.1660132 73.5907374,12.476929 C72.2648206,15.9470259 69.3721473,18.5733591 65.8035416,19.5471264 C64.9350135,19.9185096 63.9735883,20.0111888 63.0506831,19.8124957 C64.9220639,17.9341683 66.5158366,15.7957674 67.7833371,13.4625865 C69.1974768,10.1833797 67.5382196,7.92774028 63.8614565,8.34474924 C60.2204524,8.93361488 57.170886,11.4353424 55.8668536,14.9031629 C55.2226356,16.5406755 55.2903697,18.3746259 56.0536056,19.9596048 C56.8168414,21.5445838 58.2057505,22.7355816 59.8830102,23.2433422 C64.7091407,24.4927326 69.8361568,23.1934891 73.4964614,19.7935408 C77.3372746,16.8917052 78.970638,11.8900215 77.5880388,7.26431693 C76.7080498,4.08865254 73.5907374,-1.90140699 64.1819948,0.592173513 C58.1860426,1.72947069 49.0978384,10.06965 47.6082779,15.4528566 C46.3449798,20.2674146 47.32545,24.11527 51.379317,26.6741887 C53.9662969,27.9676611 56.8244229,28.6177171 59.7133135,28.569684 C60.7226309,28.574069 61.7309205,28.5043824 62.7301447,28.3611795 C62.7486977,28.2442455 62.7803232,28.129791 62.8244207,28.0199903 C59.6134516,26.9792065 56.7192576,25.1330399 54.4150035,22.6557387 Z" id="Path"></path>
                    <path d="M33.0545997,50.2428715 C27.8596162,44.5316618 32.0228434,38.0408266 39.1908345,34.4690542 C42.937739,32.6559717 46.7751484,31.8219538 49.6532054,34.3784001 C51.6815994,35.6953929 52.449796,38.2961776 51.4633042,40.5066187 C50.1904241,43.8258419 47.4134577,46.3379867 43.9875963,47.2694163 C43.1538093,47.6246523 42.2308411,47.713302 41.3448521,47.5232478 C43.1413777,45.7265868 44.6713995,43.6811598 45.8882,41.4494216 C47.2457741,38.312789 45.6528871,36.1552209 42.1231945,36.554099 C38.6278306,37.1173618 35.7002469,39.5103185 34.4483757,42.8273643 C33.8299265,44.3936807 33.8949513,46.1478941 34.6276577,47.6639609 C35.3603641,49.1800277 36.6937168,50.319243 38.3038861,50.8049271 C42.9369714,51.9999961 47.8589069,50.7572415 51.3727993,47.505117 C55.0599799,44.7294482 56.6280088,39.945229 55.3007136,35.520642 C54.4559241,32.48305 51.4633042,26.7534278 42.4309113,29.1385918 C36.6747972,30.2264413 27.9501212,38.204004 26.5201431,43.3531582 C25.307377,47.9583876 26.2486283,51.638945 30.1403407,54.0866063 C32.6238414,55.3238408 35.3676423,55.9456335 38.1409772,55.8996887 C39.109922,55.9038831 40.07788,55.8372263 41.0371353,55.7002497 C41.0549461,55.5883998 41.0853066,55.4789216 41.1276402,55.3738948 C38.0451099,54.3783625 35.2666836,52.612464 33.0545997,50.2428715 Z" id="Path-Copy-25" transform="translate(40.895706, 42.237113) rotate(-180.000000) translate(-40.895706, -42.237113) "></path>
                    <path d="M7.79065585,76.5869773 C1.59884715,71.4743203 4.58078348,63.8141481 11.075292,58.7028918 C14.4798065,56.0884427 18.1495558,54.4974385 21.4711542,56.684421 C23.7254222,57.7108185 24.9552344,60.33253 24.3689558,62.8619497 C23.6960383,66.6218582 21.3818695,69.800731 18.1391178,71.4196065 C17.3728941,71.9501632 16.4702228,72.2139064 15.5544897,72.1747852 C17.0209382,69.9361083 18.177657,67.4821269 18.989327,64.8877704 C19.7791987,61.3062699 17.8079565,59.3069066 14.3665937,60.379122 C10.9888047,61.6196584 8.50341844,64.6995879 7.8510194,68.4533235 C7.51577347,70.2308639 7.89433312,72.0824403 8.89475806,73.5583628 C9.895183,75.0342853 11.4259444,75.9995218 13.1152681,76.2196466 C17.939894,76.6379837 22.6158291,74.413522 25.5309915,70.31317 C28.7038523,66.687126 29.4083965,61.3167085 27.2958756,56.8602675 C25.9116893,53.7886018 21.9083638,48.2517623 13.3461183,52.4450012 C7.81230013,54.6581622 0.556831873,64.7357422 0.0549657217,70.4684718 C-0.328046567,75.5834766 1.26717127,79.3204504 5.57808984,81.2056385 C8.27100742,82.0636946 11.1128649,82.2201362 13.8646493,81.6618058 C14.829687,81.4882451 15.7810667,81.2395996 16.7112045,80.9178512 C16.7089186,80.7957595 16.7195464,80.6738815 16.7428861,80.5545327 C13.4970613,80.0632948 10.4160521,78.6978167 7.79065585,76.5869773 Z" id="Path-Copy-26"></path>
                </g>
                <path d="M29.3326356,71.9362137 C31.1314889,70.3124822 33.0213575,68.6780793 34.9785037,67.0576511 C42.2661992,61.0237701 49.5453196,55.9630994 55.3437007,52.8367675 C58.0964721,51.3525468 60.410207,50.3643692 62.1057853,49.9346015 C63.4748573,49.5875913 64.1871791,49.6518946 64.3620771,49.8727219 C64.536975,50.0935492 64.4503927,50.8193088 63.8337686,52.1163648 C63.0700875,53.7227521 61.6436643,55.8312556 59.6514055,58.2757045 C55.4549524,63.4246414 52.097551,65.9023327 44.8098555,71.9362137 C37.5221599,77.9700946 38.1254202,72.01125 32.3270391,75.1375819 C29.5742677,76.6218025 21.5513028,79.7417363 29.3326356,71.9362137 Z" id="Path" fill="#FFFFFF"></path>
                <path d="M50.9344882,119.922543 C54.3172096,112.062395 47.7927669,109.432543 44.2088088,107.706895 C40.0473909,105.703206 23.871256,98.67595 19.8282209,97.947589 C60.1822975,95.2345266 74.2246469,79.623896 78.6779159,85.9854054 C83.0767166,92.2691066 63.5451372,101.599072 53.207805,124.226804 C53.5516315,123.311851 50.5377571,120.844394 50.9344882,119.922543 Z" id="Path" fill="#000000"></path>
                <path d="M177.490287,178.886598 C194.594359,179.696789 177.29671,201.812665 164.664194,211.162792 C148.906284,222.826221 132.986035,228.466616 127.945915,222.355101 C126.744049,220.897751 128.243496,226.532268 149.268567,212.914614 C170.293639,199.296961 179.007117,190.22927 177.490287,178.886598 Z" id="Path" fill="#FFFFFF"></path>
                <path d="M144.342802,81.5935541 C171.072951,96.3423534 170.08608,135.126419 151.580183,151.234978 C128.495768,171.328933 113.196221,172.022602 92.9667344,177.741873 C91.9527834,178.028537 83.0838125,174.597649 86.4682026,172.642664 C91.4159605,169.784604 111.544054,166.448865 129.833797,152.517445 C160.634182,129.056587 146.564134,101.134058 144.342802,81.5935541 Z" id="Path-Copy-11" fill="#FFFFFF" transform="translate(125.354377, 129.676158) rotate(-87.000000) translate(-125.354377, -129.676158) "></path>
                <path d="M68.0978313,58.2083672 C68.0972788,55.1964191 65.1892087,55.2441621 65.3886732,52.4472369 C66.0879143,52.6818019 68.5248879,50.7935057 69.5519537,50.1574429 C75.3290049,46.5797099 75.7539419,42.6303348 76.7551722,38.9998007 C77.7564025,35.3692667 77.2083584,32.0130806 75.6681792,27.9795639 C76.822805,29.5558324 79.0057961,30.1582007 79.5624322,32.7327931 C82.5297288,46.4573426 75.0396675,64.0164805 68.2747054,64.8544834 C68.1589612,62.7002415 68.0982478,60.4787727 68.0978313,58.2083672 Z" id="Path" fill="#000000" fill-rule="nonzero" transform="translate(72.804509, 46.417024) rotate(73.000000) translate(-72.804509, -46.417024) "></path>
            </g>
            <g id="creator" transform="translate(242.781329, 205.310857) rotate(-19.000000) translate(-242.781329, -205.310857) translate(125.281329, 103.810857)" fill-rule="nonzero">
                <path d="M49.8803824,25.6080472 C50.4041789,23.4987101 51.763531,22.3749029 53.5304743,21.6244367 C54.3802199,21.2635279 55.3461418,21.0023504 56.5053655,20.7807378 C58.0955608,20.476735 59.8095929,20.2756571 62.8279603,19.9928003 C63.0934212,19.9679235 63.4121303,19.9383071 63.9870487,19.8848959 C66.9557346,19.6083815 68.380629,19.4394002 69.3271053,19.2286807 C70.2082168,19.0325138 74.4254356,17.9314829 74.2526886,17.9751656 C79.8923147,16.5490704 84.2504188,15.92058 88.9503671,16.2361316 C98.9892257,16.9101345 105.672134,17.1110148 111.89647,16.7191103 C116.710346,16.416013 120.154719,17.690179 122.705203,20.2648893 C123.021546,20.5842373 123.271667,20.8631635 123.577814,21.2287839 C125.795783,21.6641372 128.984062,22.9083024 135.10708,25.4638235 C135.348401,25.5645751 135.348401,25.5645751 135.589322,25.6652735 C136.002737,25.8381103 137.660641,26.5325124 138.071565,26.7042889 C141.080291,27.9620127 146.945455,31.6127869 157.536594,38.5822977 C157.894014,38.8175496 157.894014,38.8175496 158.251192,39.0528337 C159.579907,39.9282632 166.44336,44.4671065 168.179026,45.607606 C171.550937,47.8232754 173.78605,49.2588625 175.232278,50.1274749 C179.215414,52.519769 181.749599,55.8063404 183.112127,59.9441337 C184.06404,62.8349514 184.333865,65.1543379 184.603614,70.3150333 C184.665942,71.5074717 184.69316,71.9961004 184.734887,72.6236764 L184.737359,72.6607221 C184.910667,75.2485068 187.22597,83.3529792 190.910789,94.5092524 C191.240973,95.5089286 191.580672,96.529045 191.929249,97.5680417 C193.24881,101.501233 194.655331,105.586632 196.114912,109.74887 C197.109964,112.586424 197.844036,114.652921 198.907033,117.626985 C199.604855,119.579359 200.125623,121.288288 200.550036,122.94605 C200.708702,123.565806 200.844651,124.139306 200.999224,124.826369 C201.041712,125.015222 201.088049,125.223455 201.166859,125.577922 C201.22644,125.845028 201.268502,126.030271 201.308441,126.200238 C201.478183,126.922604 201.5934,127.286427 201.734075,127.580084 C201.774696,127.664881 201.820391,127.749852 201.867901,127.829221 C203.276575,130.168049 222.704402,153.343545 230.227149,161.219096 C231.853773,162.927533 232.463843,165.364771 231.834581,167.638112 C231.302212,169.561404 229.948744,171.129007 228.167685,171.946432 L185.672155,202.223547 L184.861978,202.446579 C180.30564,203.700885 175.436027,202.204545 172.368037,198.608478 L172.28984,198.516821 L145.728804,163.978626 C145.481097,163.868146 145.216304,163.749345 144.9352,163.622447 C143.421348,162.939053 141.737259,162.157942 139.924855,161.291114 C134.742345,158.81245 129.557455,156.137764 124.699894,153.358064 C118.571023,149.850867 113.397458,146.422853 109.450878,143.114764 C108.347648,142.190018 107.342236,141.27574 106.438041,140.369981 C104.639207,138.568038 102.688289,136.650649 100.070983,134.10394 C99.7117262,133.754449 99.7117262,133.754449 99.3521,133.404859 C89.9642473,124.280413 89.1766562,123.507683 86.2923301,120.503769 C81.1324424,115.129947 79.1799157,112.677864 79.0889968,109.785788 C79.0784001,109.744855 79.0631844,109.691314 79.043092,109.626856 C78.9439802,109.308899 78.7740203,108.879011 78.5390881,108.366137 C78.024077,107.241831 77.2527049,105.837651 76.3050202,104.303967 C74.3491887,101.13875 71.8712159,97.7847758 69.7331264,95.4261838 C69.2955828,94.943516 68.9329322,94.5467954 68.1394569,93.6812342 C61.0712082,85.9708478 58.4912962,82.5602175 57.1324945,77.60128 C55.3120753,70.9576723 53.6060572,66.0567691 51.7766098,62.7580355 C51.6578224,62.5438463 51.5318528,62.3207071 51.392795,62.0777602 C51.1892424,61.7221348 50.446829,60.447349 50.2995337,60.1911983 C49.8457632,59.4020788 49.5032267,58.77812 49.1905136,58.1566585 C48.3028133,56.3925119 47.7496726,54.8151199 47.5494944,53.1355667 C47.2768103,50.8476681 47.7265239,48.6180717 48.9385404,46.5237919 C50.9494979,43.0492441 54.2616286,41.196323 58.1615134,40.8831206 C51.7800663,36.8114142 48.6681961,30.4895408 49.8803824,25.6080472 Z" id="Path" fill="#000000"></path>
                <path d="M225.148487,165.575217 L194.46046,131.707884 L186.245641,109.12616 L175.151673,60.1290714 L128.255888,28.8980225 L154.833864,58.2017475 L117.140789,25.5370218 L101.197173,24.5759856 L84.2920793,23.1370572 L57.2333642,27.4590941 L59.6476228,32.2642748 L69.3099403,36.5863116 L86.2150336,36.5863116 L108.445231,43.3083131 L124.388848,63.033186 L130.675429,83.2096935 L110.378751,83.6875858 L93.4736581,80.326585 L78.4915191,65.9162945 C78.4915191,65.9162945 77.0440205,58.2280053 73.6630018,54.3628545 C70.2819831,50.4977037 61.0951215,46.1966731 58.6808628,47.1577092 C56.2666042,48.1187454 52.869737,50.5239615 62.0618815,66.3731805 L71.2487432,82.2276511 L86.2308822,100.482086 L95.8984824,114.414485 L118.107549,136.02992 L149.519325,153.801212 L182.621611,194.395798 L225.148487,165.575217 Z" id="Path" fill="#C4C3C7"></path>
                <path d="M93.0508153,80.6181955 C93.0508153,80.6181955 109.745441,93.4639081 118.475514,93.4639081 C110.505718,87.4148689 99.1225416,80.2051669 99.1225416,80.2051669 L93.0508153,80.6181955 Z" id="Path" fill="#101010"></path>
                <path d="M62.2089552,67.3003601 C62.2089552,67.3003601 72.2596619,66.3587198 73.2141341,61.6115154 C74.0248604,67.6792449 64.5146379,72.6604664 64.5146379,72.6604664 L62.2089552,67.3003601 Z" id="Path" fill="#101010"></path>
                <path d="M58.310723,48.1996787 C58.310723,48.1996787 55.1827857,49.0181804 56.5792783,53.7763378 C57.3383571,56.4559458 58.439084,59.0360192 59.8566558,61.45842 C59.8566558,61.45842 68.1428554,57.4102881 68.3798984,55.8324535 C68.3541329,55.8324535 64.3450139,50.6453223 58.310723,48.1996787 Z" id="Path" fill="#FFFFFF"></path>
                <path d="M70.7472846,25.3184243 L70.7472846,25.3184243 C71.1796341,25.7870963 71.3299611,26.4537877 71.1411555,27.0652184 C70.9523499,27.6766491 70.4533883,28.1389805 69.8338295,28.27657 L66.2748484,29.0728 L58.3183045,29.7380048 L56.8507863,27.2182896 L70.7472846,25.3184243 Z" id="Path" fill="#FFFFFF"></path>
                <polygon id="Path" fill="#101010" points="57.442864 29.9220905 69.6025025 28.2659567 58.5004751 33.7904322"></polygon>
                <path d="M0.6437291,0.474360383 C0.6437291,0.474360383 -3.23752656,20.1730177 10.3442062,29.6575564 C10.3442062,29.6575564 24.5701529,38.4125152 31.0389123,25.280077 C37.5076717,12.1476388 28.4514085,7.04057948 23.925939,5.58141968 C18.3622734,3.78965728 13.5759239,13.6067986 0.6437291,0.474360383 Z" id="Path" fill="#000000"></path>
                <path d="M28.6322101,18.6140801 C28.6322101,18.6140801 29.0829479,13.20612 23.5362208,12.52476 C16.8016668,11.6931788 13.3283338,15.3414059 10.5443647,12.9968835 C8.72860488,11.4378734 7.01898166,9.75657899 5.4271642,7.96447624 C5.4271642,7.96447624 5.90441606,20.5025741 11.0110109,24.2581019 C16.1176058,28.0136297 19.8242619,28.9525116 21.6802413,28.9525116 C22.6884237,29.0029754 23.678467,28.6678106 24.4536049,28.0136297 C24.4536049,28.0136297 23.2021445,23.9576596 28.6322101,18.6140801 Z" id="Path" fill="#C4C3C7"></path>
                <path d="M5.67514494,9.27292692 L7.09662943,15.0014544 C7.37485106,16.1938979 7.93097395,17.3051741 8.72044201,18.2462487 C8.75675731,18.2925294 8.7982605,18.3336679 8.8397637,18.3799486 C10.1327184,19.820695 12.0644108,20.5289176 13.9920155,20.2689353 C15.9196203,20.008953 17.5901745,18.8148837 18.4477538,17.0840878 L20.0456269,13.8701474 C17.9999236,13.8131549 15.9603379,14.117884 14.0224754,14.7700507 C11.2365733,15.7059502 7.61541939,11.6846678 5.67514494,9.27292692 Z" id="Path" fill="#FFFFFF"></path>
                <polygon id="Path" fill="#FFFFFF" points="194.228727 133.66297 183.920401 140.848339 174.331136 60.1909966"></polygon>
                <path d="M38.0494491,22.6378129 L231.766607,118.894 C234.636238,120.402571 235.687384,123.419713 234.084385,126.227331 C232.560223,128.893521 229.196553,129.328283 226.458315,127.924473 L77.966751,58.1311375 L72.9107346,53.0973292 C72.1486531,52.3430437 63.2979966,48.2939971 62.2468498,48.0635209 L52.0034237,44.9206646 L31.4377354,34.6068576 L38.0494491,22.6378129 Z" id="Path" fill="#000000"></path>
                <path d="M39.5584325,29.9541059 L230.857619,122.662091 C231.013455,122.735905 231.132505,122.870007 231.187332,123.033492 C231.242159,123.196977 231.228034,123.375742 231.148211,123.528587 C230.990704,123.831439 230.621694,123.955221 230.31342,123.808614 L51.0922877,37.0974149 L50.6220573,36.6588834 C50.5341264,36.5802475 50.4263028,36.5272492 50.3103315,36.5056615 L49.5178082,36.3577232 L38.8768625,31.3172522 C39.2718355,31.0424997 39.5206319,30.6032165 39.5531491,30.1231783 L39.5584325,29.9541059 Z" id="Path" fill="#C4C3C7"></path>
                <polygon id="Path" fill="#101010" points="195.464294 132.541592 174.33796 146.905228 200.86808 137.636732"></polygon>
                <ellipse id="Oval" fill="#000000" cx="31.630904" cy="26.0062642" rx="8.29066265" ry="8.28671329"></ellipse>
                <ellipse id="Oval" fill="#C4C3C7" cx="31.630904" cy="26.0062642" rx="3.8689759" ry="3.86713287"></ellipse>
            </g>
        </g>
    </g>
</svg>