<?xml version="1.0" encoding="UTF-8"?>
<svg width="400px" height="320px" viewBox="0 0 400 320" version="1.1" xmlns="http://www.w3.org/2000/svg" xmlns:xlink="http://www.w3.org/1999/xlink">
    <!-- Generator: Sketch 53.2 (72643) - https://sketchapp.com -->
    <title>Discovery Provider</title>
    <desc>Created with Sketch.</desc>
    <g id="Discovery-Provider" stroke="none" stroke-width="1" fill="none" fill-rule="evenodd">
        <g id="Group-52" transform="translate(194.500000, 158.000000) scale(-1, 1) translate(-194.500000, -158.000000) translate(48.000000, 16.000000)">
            <g id="Group-51">
                <g id="Group" transform="translate(111.730656, 0.541718)">
                    <path d="M80.3511147,263.840773 C115.963858,263.840773 142.584299,256.660788 142.584299,240.168362 C142.584299,223.675936 130.58754,207.900572 82.6005069,207.900572 C34.6134736,207.900572 18.1179309,228.683712 18.1179309,240.168362 C18.1179309,251.653012 44.7383714,263.840773 80.3511147,263.840773 Z" id="Oval-Copy-9" fill="#000000"></path>
                    <path d="M85.5996965,246.62192 C107.337964,246.62192 125.700213,242.086121 131.599527,235.86599 C131.599527,238.433768 131.276045,240.592978 131.599527,242.086525 C132.892443,248.056044 112.102203,255.226664 85.5996965,255.226664 C59.0971898,255.226664 37.6126632,248.484833 37.6126632,240.168362 C37.6126632,238.673347 38.3069501,237.229217 39.5998658,235.86599 C45.4991804,242.086121 63.861429,246.62192 85.5996965,246.62192 Z" id="Path" fill="#D8D8D8"></path>
                    <ellipse id="Oval" fill="#D8D8D8" cx="82.6005069" cy="228.69537" rx="47.9870333" ry="15.0583018"></ellipse>
                    <path d="M82.0920632,225.827122 C104.039452,225.827122 120.090377,232.559503 120.090377,225.827122 C120.090377,219.094741 102.298503,213.637068 80.3511147,213.637068 C58.4037264,213.637068 40.6118528,219.094741 40.6118528,225.827122 C40.6118528,232.559503 60.1446749,225.827122 82.0920632,225.827122 Z" id="Oval-Copy-10" fill="#FFFFFF"></path>
                    <g id="Group-2" transform="translate(90.623802, 72.477640) rotate(2.000000) translate(-90.623802, -72.477640) translate(2.623802, 3.477640)">
                        <path d="M6.4328509,108.812098 L8.03889511,106.860745 L134.338256,11.6982456 L137.845658,9.62345217 C138.083915,9.46315923 138.329902,9.31244119 138.58363,9.171598 C147.565842,4.18561597 159.022053,7.95293282 165.79088,18.7519789 C172.559707,29.5510249 171.40037,42.2114331 162.418158,47.1974152 C161.80712,47.5365995 161.166925,47.8097759 160.50126,48.0191829 L25.9427981,128.311851 C23.9722867,129.121007 22.8861944,129.581559 22.6845213,129.693507 C19.0916364,131.6879 13.0119144,128.032391 9.10508203,121.5287 C6.28005857,116.825893 5.3647314,111.921588 6.4328509,108.812098 Z" id="Path" fill="#000000" transform="translate(88.066685, 68.619015) rotate(5.000000) translate(-88.066685, -68.619015) "></path>
                        <path d="M166.156,31.3256359 C160.402421,26.9940204 153.400651,26.1526678 147.5555,29.3757482 C147.325647,29.5024916 147.102808,29.6381207 146.88697,29.7823656 L143.709609,31.6494465 C73.0119676,79.3003326 32.8502162,105.79328 23.2243547,111.128289 C18.9268129,113.510146 18.7490248,106.590545 18.8969759,106.16268 L20.3518701,104.406721 L134.766184,18.7719614 L137.943546,16.9048804 C138.159383,16.7606356 138.382223,16.6250065 138.612076,16.4982631 C146.749085,12.0114269 157.12754,15.4011786 163.259787,25.1185307 C164.535962,27.1407968 165.50108,29.2356115 166.156,31.3256359 Z" id="Path" fill="#D8D8D8" transform="translate(92.510063, 63.084923) rotate(5.000000) translate(-92.510063, -63.084923) "></path>
                        <path d="M86.160937,59.783515 L137.029671,21.7102037 L140.207032,19.8431227 C140.42287,19.6988778 140.645709,19.5632488 140.875562,19.4365053 C149.012571,14.9496691 159.391026,18.3394208 165.523274,28.0567729 C166.799448,30.0790391 167.764567,32.1738538 168.419487,34.2638781 C162.665907,29.9322627 155.664138,29.09091 149.818987,32.3139905 C149.589134,32.4407339 149.366295,32.576363 149.150457,32.7206078 C126.304892,44.9402973 110.562834,53.9413419 101.924283,59.7237418 C98.9386769,56.5579694 93.6842283,56.5778938 86.160937,59.783515 Z" id="Path" fill="#FFFFFF" transform="translate(127.290212, 38.632859) rotate(5.000000) translate(-127.290212, -38.632859) "></path>
                    </g>
                    <path d="M70.6037486,90.9882912 L90.0984809,80.263538 L90.0984809,223.16936 C89.8829528,227.331408 87.8834931,229.412432 84.1001017,229.412432 C82.3534595,229.412432 77.7623187,228.697187 74.3347188,228.009643 C71.8474054,227.510712 70.6037486,225.588102 70.6037486,222.241812 L70.6037486,90.9882912 Z" id="Rectangle" fill="#000000"></path>
                    <polygon id="Rectangle-Copy-12" fill="#D8D8D8" transform="translate(82.600507, 158.774056) scale(-1, 1) translate(-82.600507, -158.774056) " points="79.6013173 94.9555383 85.5996965 100.304047 85.5996965 222.592573 79.6013173 222.592573"></polygon>
                    <path d="M173.585619,43.7918203 C169.366875,40.4900775 164.232912,39.8487624 159.947025,42.3055324 C159.778488,42.4021416 159.615094,42.5055239 159.456834,42.6154736 L157.127072,44.0386426 C105.288875,80.360189 75.8407523,100.554248 68.7827049,104.620821 C65.631584,106.436374 65.501223,101.161958 65.6097064,100.835821 L66.67649,99.4973536 L153.274251,33.3959199 L155.604013,31.9727508 C155.762273,31.8628012 155.925668,31.7594189 156.094205,31.6628096 C162.060569,28.2427509 166.965608,31.6535169 171.462005,39.0604988 C172.397745,40.6019567 173.105406,42.1987142 173.585619,43.7918203 Z" id="Path-Copy" fill="#D8D8D8" transform="translate(119.585619, 67.665152) scale(1, -1) rotate(62.000000) translate(-119.585619, -67.665152) "></path>
                </g>
                <path d="M79.9327496,248.932961 C100.103876,238.370562 149.223044,272.177448 137.992493,253.289021 C126.761941,234.400593 92.3452388,231.419596 70.9682317,229.815739 C49.5912247,228.211882 35.1016567,238.90014 35.767646,245.619377 C36.4336353,252.338614 59.7616229,259.495359 79.9327496,248.932961 Z" id="Oval-Copy-29" fill="#F9F9F9" transform="translate(87.693057, 244.397691) rotate(-19.000000) translate(-87.693057, -244.397691) "></path>
                <g id="Group-33" transform="translate(0.000000, 70.751999)">
                    <path d="M149.899595,116.591353 C159.310059,120.748404 164.366005,123.399054 169.201536,127.208187 C175.760526,132.374954 179.827243,138.613858 181.112969,146.471701 C182.750589,156.481755 179.236077,168.724477 179.791223,184.797449 C179.842792,186.290485 178.391171,205.737302 133.644482,205.575495 C120.390092,205.527566 107.928104,207.528314 94.2547258,207.025768 C51.388709,205.450289 25.2933208,199.061467 9.87437908,179.761035 L9.17273002,178.882757 L9.06928692,177.788187 C8.97223302,176.761223 8.85854221,175.73549 8.72823925,174.711352 C8.69921201,174.482619 8.40994018,172.271857 8.30494031,171.440634 C8.10039308,169.821351 7.92255465,168.302093 7.75760903,166.722489 C6.85898638,158.116818 6.57940428,149.970853 7.21829662,142.23163 C7.76841443,135.567778 8.98900214,129.627303 11.0115482,124.54568 C14.6734762,115.345128 25.6806532,107.564899 34.5862313,106.334392 C36.3710127,106.08739 44.0836218,105.281628 52.0804188,103.187757 C60.8404263,100.894047 69.8747618,97.2956047 70.2210449,97.0115856 C71.6783183,94.0038943 71.405915,92.3182436 68.9792003,89.6469935 C68.7476925,89.3941976 67.5794829,88.1381384 67.2422139,87.7689148 C62.3003574,82.358842 57.0225511,77.9889373 58.5789384,72.2424751 C58.472433,70.2866172 57.9931361,68.4430755 56.7381335,64.5825645 C54.8204916,58.6837104 54.131364,55.4869941 54.6183628,51.7342307 C49.4086846,43.362333 50.6413909,28.5484148 57.7795121,21.5574587 C68.6594535,5.53477728 105.605639,0.696326184 118.414428,14.0299845 C129.665193,25.2437563 134.619395,45.032447 131.701885,60.2057164 C131.216376,62.9383533 130.187768,64.7528691 127.820235,67.9516501 C127.566497,68.294163 127.448015,68.4543325 127.324171,68.6229811 C125.317287,71.3559213 124.886853,72.5452977 125.40909,74.3010801 L125.751528,75.452374 L125.341029,76.5780946 C125.196784,76.9736621 125.08633,77.3479668 124.841169,78.2454178 C124.136856,80.8236679 120.492352,81.9656139 119.395311,83.3761455 C118.287634,84.8003528 116.80569,85.7867175 114.992352,86.3016636 C114.723853,88.3599231 114.832381,90.6824381 115.228552,94.7754132 C115.269214,95.1955044 115.286872,95.3787642 115.30902,95.611831 C115.412167,96.6972834 115.487998,97.5890238 115.541034,98.4002683 C126.502601,105.279876 137.985639,111.359916 149.899595,116.591353 Z" id="Path" fill="#000000" fill-rule="nonzero" transform="translate(94.211450, 106.705719) rotate(-4.000000) translate(-94.211450, -106.705719) "></path>
                    <path d="M116.561603,54.6408511 C114.910597,52.1675098 112.579768,50.6199439 110.001502,50.611122 C105.026185,50.5940985 101.013513,56.3134953 101.038951,63.3857524 C101.05498,67.8422828 102.670634,71.7725795 105.108474,74.074509 C104.297784,77.0773704 102.67211,73.5257305 100.496251,76.1684637 C98.7034976,78.3679973 97.9363826,81.9976273 96.295852,84.3236452 C92.9963576,89.0043953 86.2246944,85.4023738 80.8026523,84.2706335 C73.383847,82.7221096 68.9199327,84.0753714 64.4905865,78.3102171 C63.4377612,77.1588036 61.2252653,72.1120859 59.6233872,65.5085243 C58.2190481,59.7192949 58.2406417,57.6157419 57.4498731,53.5046166 C57.0455579,51.402623 57.823036,46.9403809 57.6145948,46.8005743 C55.5141175,45.1994735 54.4341623,42.6497317 54.7732542,40.0922548 C54.7886623,39.1055594 56.4969728,34.4847033 57.3531477,33.2538851 C59.9851232,29.0618486 63.2787675,24.3904146 67.192964,21.021442 C67.9546157,20.2762822 68.868274,19.6928099 69.8764687,19.307726 C70.7863497,19.0165535 71.7621898,18.9986049 72.6720017,18.6864308 C73.9984031,17.9861232 75.2394033,17.1447662 76.3721631,16.177844 C77.5510606,15.1887533 79.2817649,15.1160006 80.5571073,16.0019237 C81.2247107,14.6021129 83.6980383,15.7463376 85.1609747,15.1373042 C86.783304,15.0134719 88.416762,15.0962486 90.0195942,15.3835183 C91.7545439,15.3889458 93.4615174,13.4831628 95.030713,15.8402231 C95.2744923,16.3883579 95.6218568,16.8880757 96.0548339,17.3135214 C96.5958449,17.6003874 97.1980888,17.7605363 97.812991,17.7810512 C101.371573,18.3802214 103.66155,22.2936364 107.241128,22.6828588 C108.048771,22.6615693 108.855309,22.770552 109.62772,23.0053451 C113.080771,24.4862419 114.746597,29.8467976 115.797658,32.9162829 C117.399566,37.7896438 117.870192,47.5028525 116.561603,54.6408511 Z" id="Path" fill="#FFFFFF" fill-rule="nonzero" transform="translate(86.015600, 50.661670) rotate(-4.000000) translate(-86.015600, -50.661670) "></path>
                    <path d="M76.4577747,110.253714 C74.4460462,114.484837 42.8563975,126.703342 42.8360268,129.076706 C42.8194637,131.006449 67.5889272,127.121295 74.5750425,127.895118 C76.1810493,128.073009 83.4292145,129.866634 70.1647346,139.238634 C56.9002548,148.610635 42.0665391,147.883709 37.2458872,153.014645 C32.4252352,158.14558 27.712668,159.092125 22.1987006,168.227891 C22.7008728,157.682183 18.9050839,143.473708 23.8874211,132.764451 C25.9421998,128.347819 30.4121027,121.085659 54.8152159,117.194382 C65.5324404,115.485432 76.4577747,110.253714 76.4577747,110.253714 Z" id="Path-Copy-6" fill="#FFFFFF" fill-rule="nonzero" transform="translate(49.639615, 139.240803) rotate(-4.000000) translate(-49.639615, -139.240803) "></path>
                    <path d="M146.417359,193.310507 C133.372553,196.236637 120.618423,197.141608 110.174393,197.290249 C110.249578,197.251613 110.3247,197.212944 110.399755,197.174243 C125.628207,189.324716 139.416608,181.043687 149.796873,171.019443 C159.178571,162.060251 167.910718,151.930012 171.107638,140.723666 C171.117999,140.771758 158.535303,177.108042 146.417359,193.310507 Z" id="Path" fill="#D8D8D8" transform="translate(140.641016, 169.006958) rotate(-4.000000) translate(-140.641016, -169.006958) "></path>
                    <path d="M96.8261435,198.701904 C85.0774085,198.26885 75.0686926,196.973689 66.5135552,195.054033 C76.0171148,190.419678 85.2642717,185.65426 94.6588011,180.977035 C123.397772,166.813717 154.887723,152.414413 156.313522,128.300747 C162.647576,130.601908 162.966918,134.50386 161.896714,137.083879 C156.903584,149.16072 150.394153,160.799101 140.148336,171.049104 C138.178207,173.007918 136.082753,174.916842 133.861975,176.775877 C131.495682,178.709133 128.973212,180.588622 126.457545,182.446703 C117.897949,188.406906 108.183587,193.842351 97.3767348,198.721739 C97.191425,198.71522 97.007886,198.708603 96.8261435,198.701904 Z" id="Path" fill="#D8D8D8" transform="translate(114.441145, 163.511243) rotate(-4.000000) translate(-114.441145, -163.511243) "></path>
                    <path d="M45.0137162,183.111508 C46.1540728,179.84079 53.924324,167.248358 68.3117819,155.221155 C82.4080835,143.437343 103.135986,132.189189 103.407674,131.446387 C106.930435,124.363633 114.329844,118.564355 117.867581,111.614138 C122.496589,111.614992 127.044503,113.489541 132.920243,116.824555 C133.696333,117.265056 137.60099,119.927708 138.301813,120.329905 C137.495448,123.342366 136.187744,126.205453 134.388713,128.897244 C124.674128,140.874458 81.372118,164.799178 68.383044,175.376213 C67.4202099,176.161866 85.3458778,168.23741 87.6557298,167.965289 C88.3280353,167.847717 88.8540678,167.629577 89.1943604,167.327234 C106.193354,155.640912 136.765298,139.587001 146.116524,124.80425 C149.667947,126.102861 149.644425,128.401178 148.812778,129.85029 C147.028515,133.05399 145.025883,136.192607 142.804883,139.266141 C131.133183,155.558875 93.7194484,179.390987 62.1471494,194.508866 C57.5304869,184.888159 42.195706,191.252796 45.0137162,183.111508 Z" id="Path" fill="#D8D8D8" transform="translate(96.971677, 153.061502) rotate(-4.000000) translate(-96.971677, -153.061502) "></path>
                </g>
            </g>
        </g>
    </g>
</svg>