<?xml version="1.0" encoding="UTF-8"?>
<svg width="22px" height="21px" viewBox="0 0 22 21" version="1.1" xmlns="http://www.w3.org/2000/svg" xmlns:xlink="http://www.w3.org/1999/xlink">
    <!-- Generator: Sketch 53.2 (72643) - https://sketchapp.com -->
    <title>learn copy</title>
    <desc>Created with Sketch.</desc>
    <g id="Symbols" stroke="none" stroke-width="1" fill="none" fill-rule="evenodd">
        <g id="Alert-me" transform="translate(-603.000000, -11.000000)" fill="#001AFF" fill-rule="nonzero">
            <path d="M624.714,11.1320781 C624.534562,10.9997767 624.30425,10.9654763 624.09525,11.035477 L614,14.4620135 L603.90475,11.035477 C603.695062,10.9654763 603.46475,10.9997767 603.286,11.1320781 C603.105875,11.2636795 603,11.4750817 603,11.6997841 L603,27.7999553 C603,28.1016585 603.189062,28.3683614 603.47025,28.4642624 L613.78275,31.9642996 C613.853562,31.9880999 613.926438,32 614,32 C614.073562,32 614.146438,31.9880999 614.21725,31.9642996 L624.52975,28.4642624 C624.810938,28.3683614 625,28.1016585 625,27.7999553 L625,11.6997841 C625,11.4750817 624.894125,11.2636795 624.714,11.1320781 Z M612.372,27.7523548 L605.567812,25.4430303 L606.003,24.1151161 L612.807188,26.4244407 L612.372,27.7523548 Z M605.585,21.2758859 L605.97,19.9318717 L612.79,21.9576932 L612.405,23.3017075 L605.585,21.2758859 Z M612.372,19.3522655 L605.567812,17.0422409 L606.003,15.7143268 L612.807188,18.0236514 L612.372,19.3522655 Z M615.628,27.7523548 L615.192812,26.4244407 L621.997,24.1151161 L622.432187,25.4430303 L615.628,27.7523548 Z M615.21,21.9569932 L622.03,19.9311716 L622.415,21.2751859 L615.595,23.3010075 L615.21,21.9569932 Z M615.628,19.3522655 L615.192812,18.0243514 L621.997,15.7150268 L622.432187,17.0429409 L615.628,19.3522655 Z" id="learn-copy"></path>
        </g>
    </g>
</svg>