<?xml version="1.0" encoding="UTF-8"?>
<svg width="400px" height="320px" viewBox="0 0 400 320" version="1.1" xmlns="http://www.w3.org/2000/svg" xmlns:xlink="http://www.w3.org/1999/xlink">
    <!-- Generator: Sketch 53.2 (72643) - https://sketchapp.com -->
    <title>Live Streaming provider</title>
    <desc>Created with Sketch.</desc>
    <g id="Live-Streaming-provider" stroke="none" stroke-width="1" fill="none" fill-rule="evenodd">
        <g id="Group-24" transform="translate(12.000000, 39.000000)">
            <g id="Group-22" transform="translate(137.000000, 73.000000)">
                <path d="M102.153846,93.7335496 C138.346764,92.2372407 168.258658,86.5511691 165.289294,60.7973559 C164.527521,54.1903731 164.353125,37.5214195 159.140579,31.1725318 C144.034783,12.7736529 109.356303,5.07935034 75.5512821,7.308065 C41.5121552,9.5522139 4.38931454,-6.04814141 0.19156745,4.55970043 C-3.58371156,14.0999518 60.9236389,87.3742366 71.8269231,87.3742366 C119.965365,87.3742366 65.960928,95.2298585 102.153846,93.7335496 Z" id="Oval-Copy" fill="#000000" transform="translate(82.762634, 47.374654) scale(-1, 1) translate(-82.762634, -47.374654) "></path>
                <path d="M14.1038679,50.3963162 C15.8714222,61.8343755 32.4515403,70.2395308 51.884305,69.3272386 C71.8665253,68.3923424 87.2981279,57.7605666 86.3517541,45.5759554 C86.3209468,45.1792804 86.2731637,44.7859588 86.2088532,44.3962348 L86.2609275,44.3927175 L87.3105172,54.9892427 L87.2692596,54.9919054 C87.5488979,66.8724423 72.3414408,77.0605405 52.7659754,77.9279999 C33.7638662,78.7730241 17.488636,70.7089488 15.1230557,59.648093 L15.0399845,59.6534542 L14.1038679,50.3963162 Z" id="Path" stroke="#979797" stroke-width="0.5" fill="#D8D8D8"></path>
                <path d="M52.3300798,67.4663271 C33.3613555,68.4241669 17.2575747,59.4861842 16.3612788,47.4982163 C15.4649829,35.508453 30.1155808,24.8055817 49.0843052,23.5972517 C68.0530296,22.3921714 84.1568104,31.3416494 85.0531063,43.5819029 C85.9494022,55.8203609 71.2988042,66.5117369 52.3300798,67.4663271 Z" id="Oval-Copy-18" stroke="#979797" stroke-width="0.5" fill="#D8D8D8"></path>
                <path d="M51.9193741,63.8871964 C70.6953527,62.3948336 84.8440619,51.6995925 83.7580447,39.9132454 C83.9944598,40.7010831 84.1628251,41.5081944 84.2589598,42.3324131 C85.6490575,54.2514673 71.4101409,65.1259935 52.4554496,66.6168866 C33.5007583,68.1046062 17.0080481,59.8430306 15.6179505,48.1686017 C15.604844,48.0585387 15.593127,47.9485565 15.5827901,47.8386619 C18.764913,58.2315629 34.2755283,65.2867364 51.9193741,63.8871964 Z" id="Path" fill="#FFFFFF"></path>
                <path d="M50.5166209,29.7700101 C34.0513999,30.9974411 21.5232221,40.2917768 22.5341527,50.5294899 C22.6828555,52.0354062 23.11622,53.4797409 23.7996879,54.8448192 C22.5467535,53.0109624 21.7660653,51.0035416 21.5556015,48.8726948 C20.5446709,38.6375018 33.0728487,29.3382552 49.5380698,28.1022461 C63.5813394,27.0480478 75.9529352,32.3020586 79.9159061,40.3419883 C75.1505642,33.2606622 63.5539767,28.7981158 50.5166209,29.7700101 Z" id="Path" fill="#000000"></path>
                <path d="M64.5827122,49.3476603 L41.8787223,54.778355 C40.6041224,55.0816557 39.4342057,54.3181962 39.2656403,53.0733058 C39.2263656,52.7832594 39.2447765,52.482262 39.3198631,52.186812 L43.6299692,35.1973831 C43.9522375,33.9247033 45.2224787,33.0378621 46.4671323,33.2170471 C46.7571288,33.2588247 47.0299079,33.3575126 47.2705045,33.5077055 L65.6643882,45.0571513 C66.6970192,45.7094589 66.9131999,47.1429599 66.1472413,48.2580917 C65.7718597,48.8043962 65.2073691,49.1974928 64.5827122,49.3476603 Z" id="Path" fill="#FFFFFF"></path>
                <path d="M63.2112489,50.4614998 L41.7340397,55.529196 C40.5283111,55.8123173 39.4225607,55.1021662 39.2642769,53.9431894 C39.2273978,53.6731595 39.2450848,53.392903 39.3163675,53.1177823 L43.4081289,37.2991828 C43.7140715,36.1143535 44.9162014,35.2885587 46.0931612,35.455134 C46.3673855,35.4939697 46.6252748,35.5857831 46.8526808,35.7255449 L64.2381286,46.4683982 C65.2141461,47.0748896 65.4173006,48.4086804 64.6918868,49.446746 C64.3363756,49.955308 63.8021533,50.3214144 63.2112489,50.4614998 Z" id="Path" fill="#000000"></path>
            </g>
            <g id="Group-23" transform="translate(188.500000, 121.000000) scale(-1, 1) translate(-188.500000, -121.000000) " fill-rule="nonzero">
                <g id="Group-20">
                    <path d="M165.420892,64.9558803 C165.420892,64.9558803 141.055704,71.13081 128.452764,70.064293 C115.849824,68.997776 114.614825,70.1865688 112.829285,63.271191 C111.043744,56.3558132 115.009132,53.0815381 118.401659,52.9592622 C121.794186,52.8369864 152.706356,41.9951956 157.237165,41.818575 C161.767974,41.6419543 165.77056,46.818298 167.489143,52.9592622 C169.207726,59.1002264 167.57098,60.4588468 165.420892,64.9558803 Z" id="Path" stroke="#000000" stroke-width="4" fill="#000000"></path>
                    <path d="M159.829662,41.7512119 C159.829662,41.7512119 135.978502,46.3188787 124.705044,48.6875499 C111.962439,51.3548502 114.563429,56.4383308 110.245935,45.809852 C107.809848,39.8236972 108.207118,32.9688035 111.310317,32.4937119 C114.413516,32.0186202 139.044223,21.573391 143.204309,20.9557719 C147.364395,20.3381527 152.37149,25.7066883 155.527158,30.8580392 C158.682827,36.00939 160.661679,37.6247016 159.829662,41.7512119 Z" id="Path" stroke="#000000" stroke-width="4" fill="#000000"></path>
                    <path d="M146.268289,12.4305147 C146.326287,12.5429038 146.38071,12.6571137 146.431476,12.7729714 L166.078304,57.6108534 C167.106146,57.7686521 168.201473,57.9379691 169.351982,58.117178 C174.241997,58.8788713 179.132747,59.6636283 183.702362,60.4290209 C185.139826,60.6697905 186.52552,60.9053629 187.853487,61.1349616 C197.126557,62.7382285 202.402699,63.7826292 205.038205,64.7729192 L240.078055,72.299889 C240.632551,72.4190012 241.167243,72.6169693 241.665928,72.8877942 C243.476231,73.8709288 244.832679,75.5508134 245.367376,77.5793259 C245.922359,79.6847986 245.521474,81.9100307 244.305045,83.6729761 C239.193272,91.13554 236.16966,92.3520747 224.541676,91.8717751 L192.229618,91.4041255 L147.644408,91.0270792 L125.027117,94.2498826 L118.527453,95.482824 C118.585074,96.2306049 118.696148,97.0615539 118.857771,97.9336075 C119.116542,99.3298345 119.490083,100.751804 119.916398,101.983515 C120.286973,103.054183 120.663376,103.87278 120.889566,104.20756 C121.026692,104.410519 121.151232,104.621756 121.26248,104.840072 L128.1278,118.312764 C133.155506,125.011327 133.792046,133.428386 131.114764,142.332763 L130.861002,143.195547 C129.534936,147.630011 125.195425,150.401642 120.579887,150.051307 L119.681979,149.978571 C115.801187,149.68179 112.219037,147.779666 109.921755,144.717825 C109.874627,144.655012 109.828739,144.591272 109.784119,144.526641 L104.063779,136.240969 L85.485963,112.898389 L77.6132381,104.513565 C76.2869226,103.288789 75.1447237,101.895036 74.2213503,100.369988 L63.5521264,85.3313186 C63.3923718,85.1061384 63.2483881,84.8701062 63.1212132,84.6249233 L59.1684336,77.0042816 L6.52167158,82.0607189 C2.92471194,82.4061874 -0.147354603,79.4838971 0.00531708284,75.8620642 L2.24122397,22.8196085 C2.37894312,19.5524948 5.10954937,17.0037281 8.36761302,17.1011948 L52.7392328,18.4285954 L71.456215,11.9326993 C79.7473528,7.76942994 84.9869181,6.38401283 97.9286359,4.29404417 L117.700729,1.11433486 C128.821938,-2.3247156 141.096091,2.40779085 146.268289,12.4305147 Z" id="Path" fill="#000000"></path>
                    <path d="M203.679814,84.0456028 C203.679814,84.0456028 233.540997,89.8018246 235.385473,81.1708979 L235.385473,81.1708979 C235.782353,80.8763521 235.986462,80.4158847 235.926077,79.9512997 C235.865693,79.4867148 235.549262,79.0830061 235.087977,78.8820334 L198.585191,71.1639278 L198.376944,71.0889947 L158.869446,63.5411915 C158.451233,63.4320438 158.10611,63.16074 157.924895,62.7986729 L159.047943,59.9716528 C161.295984,54.2723062 158.859627,47.9107722 153.217017,44.7466165 L153.217017,44.7466165 L149.498315,36.5721003 L148.546327,34.3036721 C146.747678,30.0370687 143.409331,26.4625737 139.085947,24.1740842 L139.085947,24.1740842 L134.623504,13.5063406 C133.030515,11.7230075 130.988767,10.3204431 128.673579,9.41908255 C125.267248,8.11115997 120.849429,10.0049229 120.492433,10.1002922 L95.7853723,12.1439213 C89.9614135,13.4794851 84.3093329,15.3794234 78.9247741,17.8115858 L64.176399,24.7871729 C63.6037188,24.9506632 56.5307462,28.4588931 56.5307462,28.4588931 C56.5307462,28.6087592 8.93135114,24.9097906 8.93135114,25.0528447 L8.93135114,71.3751028 C8.93135114,71.4909084 63.1574745,67.1788512 63.2244111,67.2878447 L70.319696,73.8478939 L70.4089448,73.9705116 C72.8018854,78.1415292 74.9179514,82.440958 76.7456143,86.8453746 C78.7750894,91.8779791 81.6783213,96.5774787 85.343255,100.762488 L96.7745473,113.705472 L111.716295,130.388297 L119.971815,142.527454 C120.551933,143.256348 124.702005,139.257647 124.702005,139.257647 C124.919596,138.994265 125.025318,138.667453 124.999501,138.338014 L125.981239,131.716656 C125.974324,131.564005 125.936495,131.41386 125.869678,131.27387 L113.226088,104.025483 C113.073208,103.689813 113.073208,103.31209 113.226088,102.97642 L110.823806,89.8018246 C110.905618,89.62471 114.393761,87.2064157 114.542509,87.0769858 L124.0847,85.3603375 C124.29132,85.1818759 124.549401,85.0613211 124.828441,85.0129205 L140.380056,82.3357665 C140.478895,82.325352 140.578712,82.325352 140.677552,82.3357665 L181.739467,82.9420431 L181.836154,82.9420431 L203.456691,84.0319786 L203.679814,84.0456028 Z" id="Path" fill="#C4C3C7"></path>
                    <polyline id="Path" fill="#000000" points="109.564186 129.922644 120.57324 130.107186 112.542763 133.656054 105.687655 130.760177"></polyline>
                    <path d="M70.7065299,81.3883232 C70.7065299,81.3883232 67.1176184,72.7251414 64.7568795,65.3275964 C62.3961407,57.9300514 61.9695897,56.0011398 61.9695897,56.0011398 C61.9695897,56.0011398 57.92471,57.7134718 60.2780946,67.2091312 C61.7583178,72.9480283 65.4672478,77.9909354 70.7065299,81.3883232 Z" id="Path" stroke="#000000" stroke-width="4" fill="#000000"></path>
                    <polygon id="Path" fill="#FFFFFF" points="9.6756304 44.3808221 44.6567557 56.7478217 44.1059891 28.4346193 9.6756304 25.3871834"></polygon>
                    <path d="M130.715227,12.9794563 C131.925391,12.1741264 132.589924,10.8448955 132.467256,9.4749649 C132.393331,6.98439432 124.638568,8.2637038 118.842826,7.62404906 C113.047083,6.98439432 109.00337,8.44743442 103.835993,9.30484396 C98.6686155,10.1622535 90.5959744,12.8569692 88.3116831,13.2312353 C86.0273918,13.6055014 78.8936017,17.5046734 78.8936017,17.5046734 L80.3721074,20.9070922 C80.3721074,20.9070922 86.8627475,17.184846 90.632937,16.4227042 C94.4031266,15.6605624 101.337318,14.7282996 104.819199,14.0478158 C108.30108,13.3673321 120.587463,15.4768317 123.70711,14.8916157 C126.083493,14.3869672 128.423942,13.7483773 130.715227,12.9794563 Z" id="Path" fill="#FFFFFF"></path>
                    <polyline id="Path" fill="#000000" points="226.669875 75.4148683 223.283779 82.1350051 233.703688 75.4148683"></polyline>
                    <polygon id="Path" fill="#FFFFFF" points="121.31752 130.669326 119.828961 143.362918 113.130448 134.009745"></polygon>
                    <polygon id="Path" fill="#FFFFFF" points="230.100198 77.6549139 236.680805 79.2554056 223.283779 82.1350051"></polygon>
                </g>
                <g id="Group-19" transform="translate(130.248871, 92.588551)">
                    <path d="M99.7090646,136.435253 C99.6542731,136.329652 99.6028522,136.222324 99.5548802,136.113435 L79.8296304,91.3399117 C78.7428215,91.1741258 77.5782301,90.995172 76.3508109,90.8050165 C71.4621852,90.0476558 66.5728745,89.2673703 62.0049327,88.5063937 C60.5681332,88.2670363 59.1831232,88.0328529 57.8558693,87.8046178 C48.595943,86.2122776 43.2972247,85.1668816 40.7148675,84.1953346 L5.64708021,76.7030823 C5.12923706,76.5924448 4.62971722,76.4084587 4.16353543,76.1566543 C2.44008707,75.2257473 1.14640451,73.6322555 0.635493594,71.7044584 C0.104261131,69.6999829 0.488024303,67.5813057 1.65085334,65.9051503 C6.68553326,58.5948621 9.58039508,57.4368029 21.0883239,57.9101209 L53.4081663,58.3753479 L98.0234893,58.7506094 L120.679621,55.5397219 L127.505478,54.251903 C127.455546,53.420957 127.335651,52.4779741 127.150273,51.4831541 C126.642378,48.7575657 125.701316,46.0533413 125.067561,45.1203988 C124.938193,44.9299567 124.820665,44.7316845 124.71565,44.5267134 L117.837041,31.100908 C112.864899,24.5292044 112.231536,16.249263 114.885679,7.4695427 L115.139023,6.61282546 C116.417343,2.36113609 120.592384,-0.291034711 125.028951,0.0438935401 L125.928631,0.116375172 C129.698999,0.403152223 133.179808,2.24147331 135.413333,5.20224779 C135.457744,5.26111877 135.500989,5.32086507 135.543045,5.38145164 L141.270032,13.6319125 L159.86409,36.8686133 L167.755437,45.2278402 C169.064476,46.4285335 170.19123,47.7959732 171.101123,49.2928934 L181.777552,64.2603732 C181.92823,64.4716105 182.064075,64.6931091 182.184104,64.9232646 L186.250431,72.7204402 L239.157819,67.6664386 C242.434942,67.35339 245.269036,69.9387646 245.269036,73.2413373 L245.269036,125.997077 C245.269036,129.151922 242.672649,131.6841 239.529211,131.594955 L192.844205,130.271009 L174.030274,136.765258 C165.768897,140.893399 160.565715,142.262862 147.648981,144.33752 L127.849176,147.504474 C116.897869,150.886121 104.803836,146.254574 99.7090646,136.435253 Z" id="Path" fill="#000000"></path>
                    <path d="M41.9614385,64.8276221 C41.9614385,64.8276221 12.1001849,59.120714 10.255704,67.6776993 L10.255704,67.6776993 C9.85882302,67.9697218 9.65471387,68.4262444 9.71509865,68.8868492 C9.77548343,69.347454 10.0919145,69.7477041 10.5532009,69.9469551 L47.0932604,77.5989395 L47.3015083,77.6732307 L89.0403266,84.4809979 C89.4585406,84.5892105 89.8036643,84.8581901 89.9848793,85.2171553 L111.017912,134.762573 C112.610904,136.530628 114.652657,137.921177 116.96785,138.814815 C120.37419,140.111533 124.792019,138.233994 125.149016,138.139441 L149.856135,136.11332 C155.680108,134.789198 161.332202,132.905537 166.716773,130.494211 L181.465183,123.578384 C182.037865,123.382525 189.110854,119.904351 189.110854,119.904351 C189.110854,119.755768 236.710362,123.423048 236.710362,123.281219 L237.454104,77.355805 C237.454104,77.2409915 182.48411,81.5161072 182.417173,81.4080474 L175.321872,74.9041983 L175.232623,74.782631 C172.839676,70.6473467 170.723605,66.3847512 168.895938,62.0180674 C166.866458,57.0285773 163.963219,52.3693384 160.298277,48.2201819 L148.866958,35.3880809 L133.925175,18.8346705 L125.669635,6.79951051 C125.498574,6.58339091 124.256525,6.12413677 123.646656,6.5090998 C121.404005,7.99751552 119.924615,10.2503278 119.548636,12.7495531 C119.383332,14.3375253 119.420768,15.9375282 119.660197,17.5176917 C119.667112,17.6690354 119.704941,17.8178941 119.771759,17.9566847 L132.415378,44.9716342 C132.568258,45.3044283 132.568258,45.6789157 132.415378,46.0117098 L134.817666,59.120714 C134.735854,59.2963112 131.247703,61.693888 131.098954,61.822209 L121.55674,63.5241508 C121.35012,63.7010835 121.092039,63.8206055 120.812998,63.8685914 L105.261346,66.5498252 C105.162507,66.5601504 105.062689,66.5601504 104.963849,66.5498252 L63.9018366,65.9487425 L63.8051501,65.9487425 L42.1845612,64.8681446 L41.9614385,64.8276221 Z" id="Path" fill="#C4C3C7"></path>
                    <path d="M80.2202839,84.0207679 C80.2202839,84.0207679 104.585472,77.8458382 117.188412,78.9123552 C129.791352,79.9788722 131.026351,78.7900794 132.811891,85.7054572 C134.597432,92.620835 130.632044,95.8951102 127.239517,96.017386 C123.84699,96.1396618 92.9348202,106.981453 88.4040112,107.158073 C83.8732022,107.334694 79.8706155,102.15835 78.1520328,96.017386 C76.4334501,89.8764218 78.0701955,88.5245945 80.2202839,84.0207679 Z" id="Path" stroke="#000000" stroke-width="9" fill="#000000"></path>
                    <path d="M85.0672349,107.225436 C85.0672349,107.225436 108.918394,102.657769 120.191852,100.289098 C132.934458,97.621798 130.333467,92.5383174 134.650962,103.166796 C137.087048,109.152951 136.689779,116.007845 133.58658,116.482936 C130.48338,116.958028 105.852673,127.403257 101.692587,128.020876 C97.5325014,128.638495 92.525407,123.26996 89.3697382,118.118609 C86.2140694,112.967258 84.2352178,111.351947 85.0672349,107.225436 Z" id="Path" stroke="#000000" stroke-width="7" fill="#000000"></path>
                    <path d="M81.5278277,86.4921594 C81.5278277,86.4921594 105.551728,81.7752804 115.999159,81.7752804 C126.446589,81.7752804 128.604291,83.1229601 128.604291,83.1229601 C128.604291,83.1229601 130.695261,88.5136789 128.604291,90.5351985 C126.513322,92.556718 125.371446,92.556718 119.105953,93.9043977 C112.840461,95.2520774 88.8091456,103.338156 85.672692,100.642796 C82.5362384,97.9474368 78.3913741,93.2305579 81.5278277,86.4921594 Z" id="Path" fill="#C4C3C7"></path>
                    <path d="M92.4388849,105.245686 C92.4388849,105.245686 113.730977,101.154935 124.066435,99.7913513 C134.611446,98.4277675 135.666696,112.063605 129.342683,113.427189 C123.018669,114.790773 101.928647,124.335859 98.7628981,121.608691 C95.5971495,118.881524 89.2731363,112.063605 92.4388849,105.245686 Z" id="Path" fill="#C4C3C7"></path>
                    <path d="M110.951258,137.584418 C110.951258,137.584418 127.338064,136.207287 128.58942,130.010194 L131.107029,117.61601 C131.148569,119.693519 131.360216,121.765138 131.740156,123.813102 C132.365834,127.255931 121.684616,133.879934 114.675532,136.207287 C107.666448,138.534639 110.951258,137.584418 110.951258,137.584418 Z" id="Path" stroke="#000000" stroke-width="9" fill="#000000" stroke-linejoin="bevel"></path>
                    <path d="M81.3746553,87.0020535 C81.3746553,87.0020535 94.5823119,91.5378328 90.9400891,97.0009269 C87.9968787,101.335116 83.3686804,102.47746 81.006754,95.0589414 C80.1014272,92.4157518 80.2314992,89.5672296 81.3746553,87.0020535 L81.3746553,87.0020535 Z" id="Path" fill="#FFFFFF"></path>
                    <path d="M91.7777642,104.922418 C91.7777642,104.922418 101.535442,107.915434 101.244625,112.237936 C100.953808,116.560438 97.9002289,117.61601 97.9002289,117.61601 C97.9002289,117.61601 90.247148,116.560438 91.7777642,104.922418 Z" id="Path" fill="#FFFFFF"></path>
                    <path d="M112.415188,125.082829 C112.415188,125.082829 111.970652,136.897465 109.532651,132.186963 C107.094651,127.476461 108.199044,127.385741 108.199044,127.385741 L112.415188,125.082829 Z" id="Path" fill="#FFFFFF"></path>
                    <path d="M198.751582,125.082829 C198.751582,125.082829 191.44276,119.269092 192.663378,114.907102 C193.883996,110.545111 185.354556,110.902984 185.354556,110.902984 L188.398658,124.346827 L198.751582,125.082829 Z" id="Path" stroke="#000000" stroke-width="4" fill="#000000"></path>
                    <path d="M174.190367,67.588325 C174.190367,67.588325 177.779278,76.2515068 180.140017,83.6490518 C182.500756,91.0465968 182.927307,92.9755084 182.927307,92.9755084 C182.927307,92.9755084 186.972187,91.2631764 184.618802,81.767517 C183.138579,76.02862 179.429649,70.9857129 174.190367,67.588325 L174.190367,67.588325 Z" id="Path" stroke="#000000" stroke-width="4" fill="#000000"></path>
                    <polygon id="Path" fill="#FFFFFF" points="236.709825 103.28686 198.751582 92.2288265 202.245893 120.542029 236.348598 123.589465"></polygon>
                    <path d="M143.674917,108.337023 C143.674917,108.337023 143.674917,132.645619 163.646468,126.251148 C183.61802,119.856677 176.783311,101.935691 176.783311,101.935691 L143.674917,108.337023 Z" id="Path" fill="#FFFFFF"></path>
                    <path d="M15.9230902,62.8662059 C15.9230902,62.8662059 11.3902844,63.4620066 10.4822346,65.5439616 C9.57418479,67.6259166 27.4300162,67.6526942 40.0831689,68.991572 C52.7363217,70.3304498 62.412262,69.6610109 74.3211116,69.6610109 L110.04766,69.6610109 C115.257782,69.6610109 132.376754,64.3054996 132.376754,64.3054996 L132.510728,60.1215064 C132.510728,60.1215064 115.652263,65.4100738 106.891815,65.5305728 C98.1313678,65.6510718 82.2702687,65.4703233 74.2020231,65.5305728 C66.1337775,65.5908223 39.6068149,62.1499063 32.4019609,62.1833782 C25.1971069,62.2168502 15.9230902,62.8662059 15.9230902,62.8662059 Z" id="Path" fill="#FFFFFF"></path>
                    <path d="M133.248165,58.6281427 C133.803217,61.8507024 134.051529,65.1132323 133.990164,68.3771135 C133.990164,74.644309 131.02217,70.4661787 131.02217,60.0208528" id="Path" stroke="#000000" stroke-width="4" fill="#000000"></path>
                </g>
            </g>
        </g>
    </g>
</svg>