<?xml version="1.0" encoding="UTF-8"?>
<svg width="400px" height="320px" viewBox="0 0 400 320" version="1.1" xmlns="http://www.w3.org/2000/svg" xmlns:xlink="http://www.w3.org/1999/xlink">
    <!-- Generator: Sketch 53.2 (72643) - https://sketchapp.com -->
    <title>Membership screener</title>
    <desc>Created with Sketch.</desc>
    <g id="Membership-screener" stroke="none" stroke-width="1" fill="none" fill-rule="evenodd">
        <g id="Group-29" transform="translate(40.000000, 39.000000)">
            <g id="Scroll-Copy" transform="translate(156.000000, 107.500000) scale(-1, 1) rotate(-90.000000) translate(-156.000000, -107.500000) translate(73.000000, -48.000000)">
                <path d="M135.897806,0.52006689 C147.26109,0.52006689 156.565239,30.7773118 156.565239,55.6597528 C156.565239,69.996795 154.687055,116.761349 150.882648,154.789916 C148.084373,182.761264 142.78695,210.867758 142.78695,229.92839 C150.882648,229.92839 153.276197,228.284172 156.565239,235.374285 C165.58614,254.82043 171.006496,283.705529 156.565239,293.917655 C147.953809,300.007223 133.76736,300.007223 119.823135,302.086497 C90.8341058,306.409157 57.1770539,307.804557 37.1533996,310.255339 C23.7098991,311.900748 10.899294,304.605094 5.00405809,285.068076 C-0.836575561,266.455621 20.7310934,158.290813 20.3269197,83.1816385 C20.0177104,25.720056 -10.1349716,11.860062 4.55317578,6.99705388 C32.1308279,5.63417255 103.553888,0.52006689 135.897806,0.52006689 Z" id="Path" fill="#000000"></path>
                <path d="M11.4842767,17.2096123 L131.41332,12.4816054 C140.550771,20.7368556 145.119497,43.926604 145.119497,82.0508506 C145.119497,120.175097 140.550771,169.706599 131.41332,230.645355 C69.3905384,234.346086 35.5058244,236.738784 29.7591786,237.823449 C24.0125328,238.908115 18.8554109,243.884468 14.2878128,252.752508 C19.894885,202.494757 25.0520069,160.228512 29.7591786,125.953772 C32.497754,106.013145 33.2303589,69.6099379 29.7591786,48.9548019 C27.4450584,35.1847112 21.3534245,24.6029813 11.4842767,17.2096123 Z" id="Rectangle" fill="#C4C3C6"></path>
                <path d="M45.7161012,72.8907879 C81.2211327,70.7314813 104.875331,70.2915387 116.678697,71.5709599 C134.383745,73.4900918 135.302224,74.498481 113.782607,77.6206288 C92.2629906,80.7427767 79.9104785,79.8728412 61.4943788,78.5931337 C49.216979,77.7399953 43.9575532,75.8392134 45.7161012,72.8907879 Z" id="Rectangle" fill="#000000" transform="translate(87.667436, 75.307362) rotate(-6.000000) translate(-87.667436, -75.307362) "></path>
                <path d="M37.8399868,51.2303387 C27.5445304,35.6631081 19.107302,25.383297 12.5283019,20.3909052 L132.449477,15.6020067 C138.027481,20.7067042 141.902812,31.4492405 144.075472,47.8296156 C80.1154528,60.4749181 44.7036245,61.6084925 37.8399868,51.2303387 Z" id="Path" fill="#FFFFFF"></path>
                <g id="Group-3" transform="translate(17.704403, 228.829431)">
                    <g id="Group-4" transform="translate(69.594186, 37.333878) rotate(-356.000000) translate(-69.594186, -37.333878) translate(2.094186, 5.333878)">
                        <path d="M121.628777,0.308711023 C123.717699,0.1377618 127.264984,5.07605185 130.176318,13.4995773 C134.814733,26.9201663 128.879564,33.7654816 122.142068,38.1802104 C104.99978,41.9604715 50.2721042,52.6276889 48.8193679,49.8681273 C27.0560242,58.5542858 17.5584671,59.8864127 20.3266967,53.864508 C22.516097,49.1017674 21.64381,46.539599 21.1085535,35.7498538 C20.4198976,21.8678731 13.4042909,17.9504351 11.9920322,16.3232051 L121.628777,0.308711023 Z" id="Path-Copy-6" fill="#FFFFFF"></path>
                        <path d="M134.10688,38.4879425 C131.532808,51.9905941 71.073546,55.1258491 55.0219831,58.2519394 C38.9704201,61.3780296 13.6168934,67.3621451 16.3920407,61.4132621 C17.6031418,58.817112 20.1359051,52.0385933 26.4264112,47.300089 C30.47737,44.2485881 66.8917138,27.9730135 95.7970523,22.2953947 C115.067278,18.5103155 125.444236,13.2449467 126.927925,6.49928845 C136.725425,18.9459774 133.863478,34.4143228 134.10688,38.4879425 Z" id="Path-Copy-5" fill="#C4C3C6"></path>
                        <path d="M6.74354716,25.7173711 C9.16144145,29.238956 10.3703886,33.905801 10.3703886,39.717906 C10.3703886,41.0961208 10.3354738,42.4354436 10.2678363,43.731336 L0.159705682,45.541679 C0.0552171174,44.9389954 -0.097314954,41.6035185 0.159705682,38.9335764 C0.376208627,36.6845338 1.17292689,32.0932137 3.06321384,29.1463723 C4.59573677,26.757263 6.53823412,25.7230144 6.74354716,25.7173711 Z" id="Path-Copy-2" fill="#C4C3C6"></path>
                    </g>
                </g>
                <path d="M45.7161012,72.8907879 C81.2211327,70.7314813 104.875331,70.2915387 116.678697,71.5709599 C134.383745,73.4900918 135.302224,74.498481 113.782607,77.6206288 C92.2629906,80.7427767 79.9104785,79.8728412 61.4943788,78.5931337 C49.216979,77.7399953 43.9575532,75.8392134 45.7161012,72.8907879 Z" id="Rectangle-Copy" fill="#000000" transform="translate(87.667436, 75.307362) rotate(-6.000000) translate(-87.667436, -75.307362) "></path>
                <path d="M45.4379907,124.377675 C75.2267194,122.324685 95.0700495,121.95562 104.967981,123.270481 C119.814878,125.242771 120.582767,126.253961 102.523178,129.311756 C84.4635898,132.369551 74.1039649,131.46255 58.658975,130.127583 C48.362315,129.237605 43.9553202,127.320969 45.4379907,124.377675 Z" id="Rectangle-Copy-4" fill="#000000" transform="translate(80.625793, 126.933800) rotate(-6.000000) translate(-80.625793, -126.933800) "></path>
                <path d="M42.6426594,152.649972 C79.4551472,150.577946 103.983591,150.196698 116.22799,151.506227 C134.594589,153.47052 135.55029,154.481748 113.244017,157.551986 C90.9377431,160.622224 78.1251764,159.721036 59.0232465,158.394745 C46.2886265,157.510552 40.8284308,155.595627 42.6426594,152.649972 Z" id="Rectangle-Copy-5" fill="#000000" transform="translate(86.150567, 155.183839) rotate(-185.000000) translate(-86.150567, -155.183839) "></path>
                <path d="M45.4404246,99.9714362 C64.2631025,98.1224034 76.795732,97.88931 83.0383131,99.2721559 C92.4021848,101.346425 92.8811852,102.362988 81.4592513,105.297329 C70.0373175,108.231671 63.5008114,107.253564 53.755544,105.812589 C47.2586991,104.851938 44.4869926,102.904887 45.4404246,99.9714362 Z" id="Rectangle-Copy-2" fill="#000000" transform="translate(67.653165, 102.792428) rotate(-6.000000) translate(-67.653165, -102.792428) "></path>
                <path d="M13.9186076,222.395353 L13.9186076,206.023875 C17.0954292,205.540949 19.3944083,205.426158 20.8155449,205.6795 C23.6944618,206.192717 26.8717981,205.525739 25.2666765,206.588111 C24.4551803,207.125211 20.7772269,208.944889 18.5642088,209.872945 C17.9386058,210.135299 17.3441152,210.37076 16.7764622,210.581797 C20.388875,210.59181 24.212224,210.819115 28.716756,211.369264 C40.2834609,212.781934 39.6028627,213.376464 29.351684,214.788342 C27.2983975,215.071138 24.6701239,215.283709 21.4668633,215.426056 C22.5991518,215.866425 23.775609,216.40711 25.0194383,217.067769 C27.4913526,218.380724 31.3294792,220.951483 32.0442171,221.708778 C33.4579528,223.206692 29.2606615,222.254437 24.3689715,222.958122 C21.9058032,223.312457 18.4223486,223.124867 13.9186076,222.395353 Z" id="Combined-Shape" fill="#000000" transform="translate(25.567271, 214.340312) scale(1, -1) rotate(5.000000) translate(-25.567271, -214.340312) "></path>
                <path d="M116.751707,30.7392288 L116.751707,12.2792076 C120.233019,11.7530924 122.757818,11.6307415 124.326104,11.912155 C127.543717,12.489524 131.094858,11.7391741 129.300898,12.9343427 C128.393932,13.5385802 124.283278,15.5857173 121.809905,16.6297805 C121.110701,16.924929 120.446271,17.1898223 119.811835,17.4272396 C123.849238,17.438504 128.122392,17.6942215 133.156869,18.3131397 C146.084363,19.9023934 145.323694,20.5712401 133.866495,22.1596029 C131.571645,22.4777481 128.634163,22.7168907 125.054048,22.8770307 C126.319547,23.3724461 127.634411,23.9807162 129.024573,24.7239576 C131.787301,26.2010327 136.076972,29.0931357 136.875796,29.945093 C138.455854,31.630246 133.764764,30.5589591 128.297581,31.3506051 C125.569097,31.7456886 121.720475,31.5418967 116.751713,30.7392297 Z" id="Combined-Shape-Copy" fill="#000000" transform="translate(129.703830, 21.655568) scale(-1, -1) rotate(-7.000000) translate(-129.703830, -21.655568) "></path>
            </g>
            <g id="membership" transform="translate(94.000000, 0.000000)" fill-rule="nonzero">
                <path d="M49.2155172,173.250618 C49.064678,173.234554 36.2205003,167.378828 30.4516972,160.546476 C27.2020762,156.697709 24.9955144,154.797372 22.2675583,153.748543 L22.0588427,153.663107 C20.7441714,153.09168 19.5112014,152.351807 18.3915345,151.462583 C10.3822277,145.501833 5.17484486,137.305096 2.23161598,126.976178 C1.66628341,125.040635 1.32482403,123.48104 0.691501283,120.216851 C0.39335201,118.680169 0.278882455,118.103242 0.112265813,117.32066 C0.0376242407,116.970076 0,116.612757 0,116.254467 L0,105.904743 C0,105.468222 0.0558476534,105.033459 0.166209217,104.610838 C0.418581205,103.644398 0.624328265,102.879078 1.08924029,101.16614 C1.9933011,97.8351879 2.37719937,96.3650782 2.79634146,94.5476479 C3.10908585,93.1883137 3.40016804,92.0502491 3.99293729,89.8150391 L4.03946424,89.6396151 C5.00435052,86.0018135 5.39324095,84.3977949 5.73768037,82.4390622 C6.36751911,78.8483123 6.21206351,75.7974951 5.31206706,68.7519869 C5.23541346,68.1519979 5.20078625,67.8800053 5.15946452,67.5518075 C3.94651186,58.0084712 6.38153947,49.1323067 12.0335824,40.8854549 C14.5012942,37.1068204 17.9721318,34.0732508 22.1139956,32.0942011 C26.402585,30.0979783 28.4847161,29.1814003 31.1366544,28.1983581 C34.9604341,26.7916853 37.1044475,24.6081616 37.9724332,21.1937769 C39.0726736,16.1664746 41.8880253,11.6658301 45.9892296,8.41560736 C50.5266365,4.89654758 55.7685886,2.60816824 62.2531034,0.952264905 C62.7280191,0.825382051 63.0568634,0.765350511 63.673443,0.670098176 C63.7706341,0.655086727 63.8272121,0.646297061 63.8706971,0.639363644 C64.6383275,0.221475269 65.5029679,3.69482223e-13 66.3854567,3.69482223e-13 L73.2191584,3.69482223e-13 C73.7292975,3.69482223e-13 74.2366814,0.0740485877 74.7251279,0.219784122 C75.4462335,0.434937073 76.1690482,0.574619597 77.7256778,0.817336936 C77.7954341,0.828209507 77.7954341,0.828209507 77.8658166,0.839171506 C79.6839232,1.12234308 80.5299799,1.27579472 81.7623172,1.59699754 C87.2397079,3.14658352 92.8314397,4.26891734 98.3681364,4.94074208 C105.160625,5.60844467 111.655181,8.03676496 117.257039,12.0243931 C118.981274,13.2889291 120.775059,14.4578826 122.551667,15.4815904 C126.08796,17.4372083 129.417224,19.7387468 132.549125,22.4031676 C136.205495,25.609469 140.20877,28.406165 144.400062,30.6963899 C153.571519,35.4861313 159.619058,43.1781546 162.368045,53.262424 C162.506313,53.76837 162.506313,53.76837 162.643887,54.2724103 C164.742756,61.9617863 165.797796,65.3436329 167.455538,69.1766339 C170.236241,75.2162587 171.718641,81.7617342 171.80874,88.398135 L171.807922,88.5825283 C171.801912,88.8501226 171.883075,89.112635 172.039588,89.3314121 C172.664418,90.2048118 173,91.2487473 173,92.319081 L173,103.864695 C173,104.674747 172.807839,105.467943 172.445563,106.18283 C171.225921,114.48024 167.717833,121.284187 161.533816,126.489744 C160.193862,127.610772 159.824225,128.929807 160.315122,131.154622 C161.831387,137.801164 160.584923,144.771838 156.909202,150.416342 C152.799833,157.001159 147.511847,160.290868 137.398185,164.242645 C134.387849,165.409386 131.407553,166.469143 128.450284,167.420796 C128.885647,168.776708 129.387512,170.365495 130.062833,172.515518 C130.311752,173.30805 130.425475,173.669976 130.560361,174.098625 C131.416671,176.819843 132.01039,178.674026 132.633382,180.552941 C138.70505,199.151392 144.788564,217.741051 150.883924,236.321917 C151.688248,238.773785 150.542651,241.402182 148.270339,242.533901 C146.373343,243.664156 143.929268,243.492223 142.206247,242.045798 L123.804957,226.598459 C122.524194,231.917714 121.767148,235.123797 120.98823,238.57085 C120.754835,239.613764 120.534277,240.488039 120.092753,242.167764 C120.072856,242.243453 120.072856,242.243453 120.053013,242.318923 C119.119151,245.870827 118.786286,247.404652 118.632082,249.227454 C118.405539,251.90535 116.144382,253.964607 113.430472,253.964607 L113.030581,253.964607 C110.768833,253.964607 108.764402,252.522294 108.06591,250.392217 C106.515057,245.662838 104.896092,240.720423 102.98804,234.891321 C103.332092,235.942398 95.1219948,210.852223 92.8215729,203.829996 C90.921902,198.031095 89.1738869,192.701208 87.5160381,187.653994 C81.6604158,205.435875 72.1189973,234.408578 66.8427474,250.433281 C65.2094042,255.393971 58.0259072,255.106096 56.8027575,250.030934 C54.6376063,241.047165 52.8403038,233.580485 51.1639354,226.602204 C49.8519012,227.747955 48.2957435,229.045175 46.0781749,230.867244 L46.0245372,230.911315 C42.4160635,233.876219 40.8379276,235.219394 39.0163916,236.939442 C38.2508305,237.664968 37.6140498,238.102664 36.4924008,238.780651 C36.4298628,238.818434 36.4298628,238.818434 36.3702528,238.854429 C35.9958488,239.080563 35.8136293,239.195993 35.7001679,239.277816 L35.6681946,239.328625 C35.1333478,240.172015 34.6866413,240.728197 33.7625222,241.348243 C32.1347507,242.440411 30.1411115,242.619817 28.3673526,241.942739 C24.9275385,240.651662 23.9740172,237.592941 24.6560665,234.779087 C24.7124389,234.546518 24.7666139,234.360607 24.842076,234.12058 C24.8585751,234.068249 24.8585751,234.068249 24.8653881,234.046858 C25.4319358,232.228887 26.0342634,230.368917 26.8211632,227.990879 C27.1885416,226.880649 34.6533263,208.633895 49.2155172,173.250618 Z" id="Path-2" fill="#000000"></path>
                <path d="M92.8157828,147.382468 C93.4165222,146.408295 94.5826634,146.943651 95.3689252,145.758846 C91.6054696,146.96998 88.0805429,146.794454 84.573285,146.768125 C76.0979865,146.651485 67.7806597,144.472819 60.3493525,140.422835 C51.1831955,135.695155 43.6123688,128.402927 38.5725496,119.447395 C30.9307912,105.844077 29.0932354,91.4157825 33.3779207,76.3819214 C36.7401262,64.2119597 44.3132885,53.6089913 54.7660099,46.4370679 C59.306893,43.2337057 64.483853,41.3116885 69.4752906,38.9157491 C75.1734804,36.1599801 80.9600142,35.870361 86.9409049,35.9405717 C98.7206234,36.0771789 110.130782,40.0446392 119.425004,47.2357143 C125.313169,51.5943846 130.260944,57.0826365 133.975265,63.3753936 C139.169894,72.3009258 142.094082,81.7267092 141.873222,92.2056527 C141.519845,108.880688 135.265088,122.729744 122.958765,133.858137 C115.012427,141.04073 105.112166,145.738542 94.4943193,147.364915 C94.1755649,147.413368 93.8538068,147.439761 93.5313694,147.443902 C93.2917321,147.43923 93.0526741,147.418706 92.8157828,147.382468 Z M62.2487491,132.857634 C62.6594534,133.508143 63.2835392,133.99793 64.0156297,134.244295 C76.3837936,139.984018 89.025824,140.773888 101.897549,136.236523 C107.545168,134.393848 112.685899,131.27561 116.916034,127.126688 C119.25715,125.678593 120.935687,123.55472 122.631892,121.474728 C135.206645,105.939098 136.677982,84.2559728 126.315838,67.1843228 C124.805155,64.7093964 123.471161,62.0062854 120.803171,60.4265452 C120.803171,59.5489117 120.167094,59.057437 119.619361,58.5308569 C106.83598,46.2352122 91.6938136,41.8470449 74.3253777,45.5945397 C66.6997864,47.1567921 59.6742007,50.8290432 54.0592577,56.1875756 C53.4538299,56.4168658 52.9203824,56.8014517 52.5132372,57.3021701 C49.7690136,59.8213555 47.3904324,62.7071044 45.445715,65.8766489 C35.2419797,82.5516846 35.1359669,99.4987867 44.6859563,116.516099 C45.3927085,117.762339 46.081792,119.149 47.486462,119.824778 C47.63874,120.770714 48.10522,121.638843 48.8116224,122.290928 C50.0572732,123.668812 51.4619433,124.923828 52.6810909,126.301712 C55.3742266,129.127068 58.6334968,131.360375 62.2487491,132.857634 Z" id="Shape" fill="#C4C3C6"></path>
                <path d="M136.880234,222.372742 C134.562325,220.992883 132.795466,218.953857 130.853671,217.15213 C126.182865,212.819199 121.608275,208.363223 116.666318,203.661157 C114.97818,212.836777 113.360017,221.643262 111.733107,230.458537 L111.365741,230.458537 C110.832184,228.929267 110.281134,227.417575 109.782565,225.879516 C106.738669,216.449018 99.391335,194.037303 96.3736798,184.57165 C96.1462623,183.842171 95.402782,183.016013 96.1812496,182.260167 C96.9597171,181.504321 97.4407926,182.47989 98.079311,182.611724 C98.4548436,182.697696 98.8409768,182.727314 99.2251453,182.699613 C102.723876,182.365634 107.097289,183.112691 110.648501,182.699613 C113.893574,182.295323 114.147232,176.995612 117.497266,177.188968 C118.338311,177.126028 119.167796,177.415517 119.788935,177.988758 C120.742339,179.113738 120.79482,177.988758 121.100959,177.276857 C122.526692,179.658651 129.401697,198.792102 130.145178,201.156319 C131.570911,205.726551 133.372757,210.164949 134.676034,214.761548 C135.393274,217.292753 136.162995,219.797592 136.906475,222.311219 L136.880234,222.372742 Z" id="Path" fill="#FFFFFF"></path>
                <path d="M78.0691162,189.480292 C79.0962454,188.440235 78.6535173,187.110771 79.1139545,185.907922 C79.8577378,186.432473 79.6629374,187.110771 79.5212644,187.671497 C77.5732607,195.476447 69.3650814,221.685882 66.6732945,229.273776 C66.1066025,230.874559 65.7878382,232.556738 65.3096919,234.202742 C65.1768734,234.682072 65.2034371,235.288019 64.3445446,235.414634 C63.9372347,230.964999 62.5736321,226.723375 61.7767215,222.36418 C60.9798109,218.004985 59.8818452,213.754317 58.934407,209.449386 C58.6687701,208.201317 58.5270971,207.414492 57.1634945,208.807264 C50.841337,215.138045 44.4129248,221.278903 38.0110762,227.492113 C37.7999411,227.622383 37.5739314,227.725655 37.3381295,227.799608 C40.8799544,216.494641 50.4251726,186.893716 54.3743074,175.941463 C55.3394547,176.258002 55.1977817,176.719245 55.1092361,177.062916 C54.9055811,177.86783 55.0649633,178.184369 55.9504195,177.967314 C57.8140369,177.552168 59.7550564,178.154805 61.0772111,179.559053 C62.2991407,180.752857 64.2648535,180.192131 65.5044922,181.413067 C67.7712602,183.683105 71.0563028,184.397579 73.2610888,186.776144 C73.6624783,187.209617 74.1965719,187.490352 74.775219,187.572014 C76.1037056,187.651263 77.3207708,188.356355 78.0691162,189.480292 L78.0691162,189.480292 Z" id="Path" fill="#C4C3C6"></path>
                <path d="M40.6837907,154.023586 C39.8687574,150.975798 38.7981115,148.003361 37.4834182,145.138384 C36.9798929,144.071816 37.8759972,140.966726 38.7806358,140.48505 C40.178528,139.656146 41.9621202,139.932976 43.0477992,141.147354 C46.2274443,144.27548 49.1633953,147.645704 51.8296213,151.228145 C53.3344716,153.230697 55.0867899,155.031464 57.0440948,156.586791 C58.5973423,157.816785 59.7494764,159.511252 61.6355626,160.388591 C62.5828728,160.835861 62.3183087,161.584179 61.4051358,162.03145 C60.8476401,162.336755 60.1896345,162.395912 59.5873242,162.194876 C58.6909189,161.913082 57.7439223,161.83379 56.813668,161.962639 C54.2544714,162.188374 51.6861631,161.646738 49.4314755,160.405793 C48.3716799,159.882975 47.1955345,159.645898 46.0177448,159.717685 C44.1657959,159.717685 43.4574468,157.997413 42.3479844,156.853433 C41.6745229,155.972187 41.101941,155.017121 40.641119,154.006383 L40.6837907,154.023586 Z" id="Path" fill="#C4C3C6"></path>
                <path d="M39.6103737,147.778362 C39.4663535,146.125678 39.1302295,144.497667 38.6094838,142.930567 C38.391899,142.309757 39.54945,141.195951 40.350162,141.250728 C41.5499585,141.290965 42.6806214,141.849289 43.4746794,142.793623 C45.3165787,144.996603 47.0036639,147.336871 48.5226463,149.795994 C49.3946791,151.198521 50.4071215,152.499262 51.5427231,153.676056 C52.4110095,154.769599 53.3723451,155.778007 54.4148422,156.68881 C55.0588931,157.163547 54.7455711,157.410045 53.988376,157.346138 C53.4959871,157.313473 53.0183395,157.1569 52.5958334,156.88966 C51.9486634,156.499793 51.2590127,156.193259 50.5418331,155.976704 C48.6278961,155.359506 46.8291799,154.402214 45.2240611,153.146542 C44.4759362,152.587331 43.6513622,152.150239 42.7784081,151.850144 C41.3771622,151.338889 41.107357,150.325508 40.4633061,149.522107 C40.1017505,148.976739 39.8091944,148.384458 39.592967,147.760103 L39.6103737,147.778362 Z" id="Path" fill="#FFFFFF"></path>
                <path d="M130.927623,156.99723 C129.420229,157.254496 127.921702,157.591603 126.40544,157.742414 C124.649611,157.975604 122.942922,158.49085 121.351236,159.268266 C118.815899,160.331889 116.189369,161.163276 113.503919,161.752211 C107.891092,163.074024 102.198462,162.399811 96.5856354,162.985312 C90.6447286,163.606298 84.7126889,164.395838 78.7540481,164.759558 C76.4916471,164.92499 74.2307479,164.418901 72.2545188,163.304676 C70.8623959,162.506265 70.7559916,161.769953 71.9530399,160.643307 C73.7973811,158.948901 76.1116747,158.558567 78.4348352,158.594052 C82.8683477,158.656151 87.0624505,157.378693 91.3718247,156.757707 C94.2270067,156.340759 97.1885931,156.598025 100.105844,156.589153 C103.023096,156.580282 105.550198,155.435893 108.006364,153.927784 C110.240854,152.561614 112.69702,151.550293 114.922643,150.15751 C117.148266,148.764726 119.480294,147.700178 121.032023,145.455757 C122.131534,143.876677 124.162083,144.062973 125.749281,143.512957 C127.684972,142.842252 129.128267,141.206415 129.553234,139.201538 C130.439937,135.990151 132.523688,133.426365 133.915811,130.489987 C134.944386,128.334278 136.735525,126.560031 137.311881,124.200283 C137.610315,122.723576 138.043663,121.277407 138.606467,119.879993 C139.273415,118.205125 140.506632,116.81749 142.091208,115.958908 C146.063635,113.856426 148.227189,110.441002 149.681381,106.369106 C150.169067,105.011808 149.459705,103.814191 149.592711,102.545605 C149.962117,98.0303466 149.493135,93.4856805 148.209455,89.1411726 C147.216348,85.5039673 147.065609,81.6715948 145.549347,78.1585868 C144.919789,76.7125759 144.964124,74.9915568 144.556241,73.4390911 C143.341458,68.781694 142.224213,64.1065545 141.355245,59.3781876 C141.089234,57.9321767 139.945388,56.9740836 139.165089,55.8296946 C137.966566,53.8344496 136.524985,51.9958596 134.873449,50.3561441 C129.464564,45.4947087 124.91578,39.6574377 118.230043,36.2863694 C112.617217,33.447575 107.33247,29.9079532 101.16102,28.3022601 C99.3820239,27.9656801 97.5683789,27.8494802 95.7610021,27.956282 C91.1856172,27.9119259 86.6190993,27.5925615 82.0348474,27.6369177 C77.9737499,27.6812738 73.8949184,27.459493 69.8249539,27.3885232 C66.130043,27.2291057 62.504052,28.4246733 59.6278752,30.7507203 C58.515655,31.5058489 57.3041028,32.1029558 56.027863,32.5249668 C52.5963244,33.9798489 49.7677434,36.2420132 46.8859603,38.5041775 C42.4524478,41.9462157 38.5598238,45.9560128 33.9401038,49.1496565 C32.618917,50.0367797 32.2819701,51.8642536 31.7410816,53.3457495 C30.7657088,56.0071192 28.7440271,57.9854041 27.0770264,60.1499848 C24.4878551,63.5033107 22.2356308,66.8477653 22.324301,71.3543514 C22.3775032,74.0955623 22.8031204,76.8900005 21.6681412,79.5868552 C21.1627207,80.8022141 22.2799659,82.1949976 21.9075508,83.4103564 C21.2070559,85.645907 20.8346408,87.9524275 19.9036032,90.1613643 C18.8484272,92.6719231 17.8907885,95.2179669 19.2917785,98.3051558 C20.6931435,101.189492 21.6469542,104.270655 22.1203594,107.442525 C22.3686361,109.482909 24.0445039,110.991018 24.106573,113.031402 C24.2041103,116.579895 25.7203716,119.915478 25.152882,123.543812 C24.6917967,126.453577 22.4041042,128.121368 21.0563164,130.419017 C20.6040982,131.190815 19.7794648,130.915806 19.2385763,130.29482 C15.4966918,126.001144 11.4178603,121.769566 11.6395359,115.559703 C11.5939003,112.568297 11.7568578,109.577349 12.1272223,106.608629 C12.1981585,106.173939 12.3577649,105.570695 12.1272223,105.286816 C10.0789395,102.554476 11.9853499,100.035046 12.5617065,97.4890024 C13.0707674,95.8997072 13.4882045,94.2824818 13.811957,92.6453095 C14.0602337,90.3831452 15.1952129,88.4048603 15.585362,86.1693097 C16.6743841,80.9953543 16.5986612,75.6437538 15.3636864,70.5027131 C14.0294933,64.9672834 14.505,59.1496679 16.7203412,53.9046371 C17.5471017,51.5548796 18.6232014,49.3005409 19.9302043,47.1802429 C21.1981888,45.2817991 23.2110035,44.2793498 24.5410573,42.567202 C26.6514092,39.8614761 29.6484637,39.9058322 32.5213798,39.9058322 C36.1745941,39.9058322 38.7282973,37.8299638 41.0425908,35.470216 C43.3568843,33.1104681 45.9815237,31.5136463 48.0298065,29.0651861 C49.8032115,26.9006054 51.5766165,24.7448959 51.9490315,21.8085179 C52.117505,20.4689618 53.2613512,19.714907 54.1214527,18.9342386 C57.7569329,15.6518826 61.3746791,12.3340416 65.8791278,10.2049458 C66.2219409,10.0336285 66.5960597,9.93401741 66.9786389,9.91219512 C71.1145955,9.92055562 75.1853322,10.9440534 78.8338513,12.8929292 C81.1392778,14.0373182 83.3826352,15.3413894 85.7501308,16.3260962 C86.9090904,16.7466264 87.9346342,17.4694419 88.7205842,18.4197071 C90.1570423,20.3358933 92.2673942,21.1609179 94.1738046,22.3319206 C94.6096633,22.6209775 95.1454322,22.7172691 95.6545978,22.5980576 C97.9334232,22.0480412 100.08811,22.5980576 102.251664,23.2900137 C103.501915,23.6892192 104.805368,23.5384082 106.082219,23.7690603 C109.400221,24.5390728 112.600134,25.7504249 115.596537,27.3707807 C119.939421,29.3526237 124.064154,31.7816628 127.903968,34.6185776 C129.77491,36.0557173 132.204475,36.57912 134.013348,38.1670706 C138.225185,41.8575034 142.525692,45.4947087 146.205507,49.6996729 C148.989753,52.8844454 150.373009,57.0273109 152.21735,60.8241985 C154.416372,65.3307846 157.227219,69.5002638 159.603582,73.9003952 C161.414349,77.3748863 162.503223,81.1802078 162.804578,85.0870194 C163.380935,91.2347835 162.990786,97.3381914 160.774029,103.148849 C159.834125,105.597309 158.787816,108.081254 158.007518,110.511972 C156.854804,114.131435 154.744452,116.775062 152.297153,119.383204 C150.984834,120.775988 149.468572,121.991347 148.865615,123.969631 C148.611694,124.69209 148.468206,125.448751 148.439998,126.214053 C148.439998,129.523023 148.369061,132.831993 148.439998,136.140962 C148.701088,141.496866 146.301849,146.636263 142.029139,149.87363 C139.493014,152.083425 136.792609,154.097085 133.951279,155.897197 C133.025624,156.494259 131.976628,156.873411 130.883288,157.006101 L130.785751,156.92626 L130.927623,156.99723 Z" id="Path" fill="#C4C3C6"></path>
                <path d="M161.548088,82.6705295 C161.24972,78.823959 160.15997,75.0773988 158.345142,71.6588085 C155.971928,67.3261841 153.161544,63.2308433 150.966767,58.7927594 C149.119943,55.0489501 147.737056,50.9711859 144.953437,47.8337682 C141.277633,43.694486 136.977298,40.1176541 132.766183,36.4880924 C130.981812,34.9237777 128.528301,34.4140572 126.654712,32.9727784 C122.807412,30.1884701 118.678483,27.8029795 114.33363,25.8542677 C111.291277,24.412989 108.231081,22.9365571 104.822932,22.3389537 C103.547107,22.1104583 102.244516,22.2686475 100.995456,21.8643863 C98.8452891,21.1789001 96.6772783,20.6428147 94.3932833,21.1789001 C93.8842498,21.2922052 93.3503075,21.190203 92.9211772,20.897675 C91.0119002,19.7464097 88.9152642,18.9378875 87.4788455,17.0484062 C86.6925643,16.1159045 85.671005,15.4036383 84.5167896,14.9831593 C82.1435761,14.0164479 79.9041905,12.7421466 77.59343,11.6084579 C73.9508349,9.68909963 69.8851332,8.68110083 65.7541281,8.67317073 C65.372021,8.6947445 64.9984948,8.79345852 64.6567399,8.96318413 C60.1958123,11.0547959 56.5289298,14.3240379 52.8977347,17.5581268 C52.0055492,18.3227075 50.8992392,19.0609235 50.7297239,20.3791662 C50.3639278,23.2705119 48.6241661,25.3972769 46.8041076,27.5328301 C44.7431591,29.9320319 42.0666025,31.601806 39.818295,33.8164538 C37.5699875,36.0311016 34.9291183,38.1490782 31.3068451,38.2105962 C28.416164,38.2105962 25.4273425,38.2105962 23.2771754,40.8470817 C21.9388971,42.5344324 19.9314797,43.5275086 18.6556544,45.3994133 C17.3513097,47.4863572 16.2775421,49.704859 15.4527084,52.0169918 C13.2556105,57.1920286 12.8052149,62.9256242 14.1679612,68.37199 C15.3998351,73.4181175 15.4821009,78.6703286 14.4088513,83.7514885 C13.9716804,85.9485597 12.8386048,87.899559 12.6244803,90.1229951 C12.579871,90.4569499 12.517418,90.7909047 12.4460432,91.1160712 C13.4006817,89.6044862 14.3463983,88.0753247 15.3010368,86.5461631 C15.8580419,85.6119153 16.5000815,84.7294583 17.2192357,83.9096776 C17.9987546,79.4976226 17.8499563,74.9748725 16.7820648,70.6217909 C15.4788424,65.4561419 15.8980177,60.0144926 17.9775934,55.1016798 C18.7605613,52.9158482 19.7774293,50.8182871 21.0110242,48.8444209 C22.2154746,47.086764 24.1158298,46.1376292 25.3827332,44.5381614 C27.3723069,42.0247119 30.200535,42.0774416 32.9395446,42.059865 C36.3923026,42.059865 38.8101253,40.1264423 40.9692143,37.9469477 C43.1283033,35.767453 45.6442664,34.2646563 47.580309,31.9884905 C49.3022271,29.9759733 50.9438484,27.9634561 51.2918008,25.2215112 C51.4523942,23.982363 52.5319387,23.2793002 53.3438275,22.5850257 C56.7787417,19.5354909 60.213656,16.4332263 64.4604591,14.4646505 C64.7857877,14.3030131 65.1407586,14.2073806 65.5043161,14.1834254 C69.417029,14.1906316 73.2680704,15.1442595 76.7190882,16.9605234 C78.8960208,18.0326941 81.0194224,19.2366892 83.2677299,20.1594591 C84.3583783,20.5535231 85.3245502,21.2233553 86.0691924,22.10167 C87.4253144,23.859327 89.4148881,24.6590609 91.2171029,25.7488083 C91.6291837,26.0185825 92.1364827,26.1077017 92.6178341,25.9948802 C94.6532958,25.6288125 96.7522011,25.8328204 98.6757738,26.5836953 C99.0967766,26.6327117 99.5140366,26.7090427 99.9248336,26.8121907 L100.210333,26.8912853 C100.968691,26.9615916 101.727048,26.9528033 102.485406,27.0934159 C105.622529,27.8055692 108.647621,28.9318638 111.478636,30.4417524 C115.57263,32.2879508 119.459825,34.5500058 123.077048,37.1911552 C124.861419,38.5357628 127.145414,39.0191184 128.85841,40.4955503 C132.936997,43.8209807 136.787752,47.4085773 140.385447,51.2348344 C143.017394,54.1964864 144.328907,58.0545435 146.077591,61.5962223 C148.156383,65.7970225 150.815096,69.6726561 153.063403,73.7679969 C154.774763,77.0058639 155.803561,80.5512535 156.087912,84.1909028 C156.22174,85.6321815 156.302037,87.0822485 156.310959,88.5147389 C156.423146,88.8140895 156.551202,89.1074356 156.694598,89.3935674 C157.105004,90.0790536 157.542175,90.799693 157.720612,91.1512244 C158.731755,92.9967642 159.728029,94.8276569 160.709433,96.6439024 C161.781054,92.0651873 162.064547,87.3417255 161.548088,82.6705295 Z" id="Path" fill="#FFFFFF"></path>
                <path d="M116.190995,50.0340263 C120.267924,52.2511903 123.56322,54.2814669 126.139057,58.1891123 C129.536994,59.5357211 132.424813,61.8412496 134.417266,64.79813 C130.39363,54.9610574 122.301948,48.33505 113.535218,43.0342441 C108.907593,40.2394281 104.137853,37.2832095 99.1105283,35.2869124 C94.0832041,33.2906153 88.7627674,33.1292125 83.4423307,33.8342877 C77.94425,34.5563526 72.1086458,35.4483151 67.0635572,37.8948409 C61.9750465,40.2522865 57.1279849,43.0593028 52.5855741,46.2792887 C49.2458676,48.7173197 46.4568574,51.9538694 43.7921979,55.1989141 L43.7122581,55.275368 L43.5967895,55.4282759 C42.9661535,56.2013101 42.3443996,56.9658494 41.7137635,57.7218938 C38.6310598,61.3557173 35.9157474,65.2610355 33.6043165,69.3853659 C35.2221608,67.7134766 37.1729792,66.3675942 39.3422166,65.4267512 C40.4613736,63.8127237 41.6515881,62.2411707 42.8950959,60.7035972 L45.5064621,57.4840372 C47.6115431,56.5241156 48.7839933,54.8336342 50.1429696,53.0836887 C54.0500773,49.9678282 58.2791418,47.2410325 62.7645733,44.9455924 C71.1383743,41.4666641 80.1841489,39.7126652 89.3134637,39.7976943 C94.4096021,39.7473675 99.4310479,40.9714145 103.880269,43.3485547 C108.001609,45.5402341 112.08742,47.8083674 116.190995,50.0340263 Z M97.1475625,37.7504279 C96.9343898,37.6230047 96.7123348,37.5040764 96.4902798,37.385148 C96.7478636,37.461602 97.0054473,37.5380559 97.2541489,37.6314996 C97.5028504,37.7249433 97.9558426,37.8948409 98.3022483,38.030759 C97.9203138,37.8948409 97.529497,37.8353767 97.1475625,37.7504279 Z" id="Shape" fill="#FFFFFF"></path>
                <path d="M113.5794,125.901218 C117.410779,123.683793 120.498888,121.653278 122.914514,117.753669 C126.150625,116.366027 128.86319,114.055217 130.683453,111.135377 C126.914014,120.973607 119.313195,127.600395 111.092985,132.901824 C106.748397,135.696969 102.244536,138.662031 97.5548573,140.650068 C92.8651789,142.638104 87.8215625,142.816517 82.8487338,142.111359 C77.6900876,141.380713 72.230594,140.497142 67.4524312,138.084312 C62.6606516,135.696545 58.1157589,132.877427 53.8789092,129.664894 C50.746558,127.226576 48.1274169,123.981149 45.6233056,120.735723 L45.552518,120.65926 L45.4463366,120.506334 C44.8534905,119.741705 44.2694928,118.96858 43.6766466,118.220942 C40.7843462,114.562433 38.2460964,110.657934 36.0935252,106.556098 C37.5931223,108.207844 39.4224735,109.554079 41.4733826,110.515178 C42.5263482,112.129395 43.6501013,113.701133 44.8180967,115.238888 C45.6233056,116.292377 46.437363,117.37985 47.2691172,118.450331 C49.2423215,119.418861 50.3395293,121.109542 51.6225545,122.859693 C55.2652282,125.958486 59.2328709,128.686102 63.4617803,130.998747 C71.27562,134.446899 79.7887914,136.187892 88.3878633,136.096275 C93.195062,136.139236 97.9217844,134.91058 102.04987,132.544997 C105.898945,130.412531 109.730324,128.135635 113.5794,125.901218 Z M95.7055313,138.194758 C95.5020169,138.322196 95.2985026,138.432643 95.0949883,138.551585 C95.3338964,138.475122 95.5728045,138.398659 95.8117127,138.305204 C96.0506208,138.21175 96.466498,138.041832 96.7938906,137.905898 C96.4311042,138.016345 96.0683177,138.101303 95.7055313,138.194758 L95.7055313,138.194758 Z" id="Shape" fill="#FFFFFF"></path>
                <path d="M134.566667,145.033736 C135.070992,142.894723 135.833017,140.824192 136.836184,138.867135 C137.237188,138.094187 135.837937,136.429374 134.779967,136.318953 C133.119668,136.165844 131.467595,136.686513 130.198274,137.762923 C127.2755,140.315787 124.53838,143.071914 122.007536,146.010539 C120.530492,147.693907 118.870869,149.209389 117.058966,150.529315 C115.531735,151.650516 114.499361,152.958582 112.571125,153.926892 C111.598474,154.428034 111.990947,154.818755 113.048918,154.869719 C113.732691,154.912035 114.41682,154.792701 115.04541,154.521467 C116.004806,154.116909 117.010636,153.831626 118.040148,153.672073 C120.789145,153.214174 123.43856,152.289006 125.87254,150.937025 C127.003355,150.344182 128.21699,149.92331 129.473052,149.688415 C131.503672,149.272212 132.032657,147.989627 133.082096,147.063788 C133.67417,146.415355 134.178954,145.692966 134.583731,144.914821 L134.566667,145.033736 Z" id="Path" fill="#FFFFFF"></path>
                <path d="M106.92048,67.7769464 L99.8485507,64.4292683 L67.0052945,67.8040166 L65.9640288,68.8868235 C66.0508009,70.7997824 66.1288958,72.7217647 66.1983136,74.6347236 L66.8143958,75.266361 L81.478888,75.8077645 C81.7478816,87.3667285 82.9626916,95.6592249 83.0928499,101.371031 C83.9027232,105.377417 83.1275587,107.909982 80.7673564,108.968727 C78.4854426,110.174869 76.0340728,110.997181 73.504528,111.405042 C73.504528,114.11206 88.845843,113.823311 84.3857548,114.211317 L73.947066,114.779791 L72.9578635,119.670469 L78.2856731,123.902439 L94.2343931,123.324942 C99.5882343,123.036193 104.039645,121.520264 106.313075,118.957621 C107.643416,117.605842 108.356692,115.728537 108.274126,113.796241 L106.92048,67.7769464 Z" id="Path" fill="#000000"></path>
                <path d="M100.035804,64.4292683 L65.9640288,64.542791 C66.0925369,66.9966269 66.2124777,69.4591953 66.3152842,71.9130312 L84.6234016,72.2972617 L84.9146866,104.668684 C84.9146866,107.288438 82.0960761,109.113533 77.8039063,109.506496 L67.7545747,110.109039 L71.986774,118.946341 L87.3049369,118.308868 C92.44526,118.00323 96.7288625,116.483773 98.9134999,114.012472 C100.199896,112.67843 100.885535,110.860108 100.806852,108.991278 L100.035804,64.4292683 Z" id="Path" fill="#C4C3C6"></path>
                <path d="M101.365208,61.9512195 L65.9640288,62.2190537 C65.9640288,62.808289 66.0244698,63.3885965 66.0590076,64.0046152 L98.0064133,64.6652729 L98.0064133,110.000679 C98.0064133,113.625368 93.9482293,116.250144 87.8609534,116.767956 L73.588234,117.660737 L74.2617198,118.946341 L87.576017,118.38389 C93.0416137,118.053561 97.6092293,116.446555 99.9664298,113.866419 C101.339751,112.493921 102.09708,110.591279 102.055963,108.616868 L101.365208,61.9512195 Z" id="Path" fill="#FFFFFF"></path>
            </g>
        </g>
    </g>
</svg>