<?xml version="1.0" encoding="UTF-8"?>
<svg width="22px" height="17px" viewBox="0 0 22 17" version="1.1" xmlns="http://www.w3.org/2000/svg" xmlns:xlink="http://www.w3.org/1999/xlink">
    <!-- Generator: Sketch 53.2 (72643) - https://sketchapp.com -->
    <title>Shape</title>
    <desc>Created with Sketch.</desc>
    <g id="Current-page---Roles" stroke="none" stroke-width="1" fill="none" fill-rule="evenodd">
        <g id="Roles_main_page_v2" transform="translate(-341.000000, -2411.000000)" fill="#111111" fill-rule="nonzero">
            <g id="Group" transform="translate(121.000000, 2314.000000)">
                <g id="Button-Copy-10">
                    <g id="Group-6" transform="translate(220.000000, 50.000000)">
                        <g id="Group-2" transform="translate(0.000000, 40.000000)">
                            <path d="M15,13.9310345 C16.66,13.9310345 17.99,12.4062069 17.99,10.5172414 C17.99,8.62827586 16.66,7.10344828 15,7.10344828 C13.34,7.10344828 12,8.62827586 12,10.5172414 C12,12.4062069 13.34,13.9310345 15,13.9310345 Z M7,13.9310345 C8.66,13.9310345 9.99,12.4062069 9.99,10.5172414 C9.99,8.62827586 8.66,7.10344828 7,7.10344828 C5.34,7.10344828 4,8.62827586 4,10.5172414 C4,12.4062069 5.34,13.9310345 7,13.9310345 Z M7,16.2068966 C4.67,16.2068966 0,17.5382759 0,20.1896552 L0,23.0344828 L14,23.0344828 L14,20.1896552 C14,17.5382759 9.33,16.2068966 7,16.2068966 Z M15,16.2068966 C14.71,16.2068966 14.38,16.2296552 14.03,16.2637931 C15.19,17.2196552 16,18.5055172 16,20.1896552 L16,23.0344828 L22,23.0344828 L22,20.1896552 C22,17.5382759 17.33,16.2068966 15,16.2068966 Z" id="Shape"></path>
                        </g>
                    </g>
                </g>
            </g>
        </g>
    </g>
</svg>