<?xml version="1.0" encoding="UTF-8"?>
<svg width="400px" height="320px" viewBox="0 0 400 320" version="1.1" xmlns="http://www.w3.org/2000/svg" xmlns:xlink="http://www.w3.org/1999/xlink">
    <!-- Generator: Sketch 53.2 (72643) - https://sketchapp.com -->
    <title>Membership_Curator</title>
    <desc>Created with Sketch.</desc>
    <g id="Membership_Curator" stroke="none" stroke-width="1" fill="none" fill-rule="evenodd">
        <g id="Curator" transform="translate(88.000000, 23.000000)" fill-rule="nonzero">
            <path d="M175.887594,153.637172 C174.311096,159.059481 170.537432,162.362726 166.03138,164.855742 C165.311405,165.279554 165.311405,165.516391 165.658979,166.239365 C169.296096,173.718412 169.544363,181.259784 165.547259,188.676505 C163.481734,192.254327 160.400024,195.131866 156.696528,196.940851 C151.569807,199.720564 145.958965,200.680375 140.236402,201.241303 C129.4616,202.250975 119.021958,200.393678 108.706449,197.50178 C96.5795923,193.991682 85.050032,188.663049 74.5076221,181.696062 C67.3101547,177.101503 61.0636638,171.154891 56.1110116,164.182628 C53.8393654,160.966638 51.4684122,157.837903 50.0905284,154.135775 C47.8685357,148.165003 47.0989069,142.057115 49.3705531,135.899367 C51.3194518,130.639104 55.1675957,127.173812 59.9839823,124.680797 C60.8189401,124.190065 61.69048,123.764983 62.5907894,123.409359 C63.422485,123.135127 63.6335123,122.74871 63.3355914,121.901085 C62.2932778,118.794224 61.8714488,115.511431 62.0942547,112.240649 C62.3365637,107.591878 64.6073539,103.286767 68.3009384,100.473616 C70.2416194,98.8108567 72.4551203,97.4991557 74.842783,96.5969771 C75.3376435,96.4084555 75.7209736,96.0051987 75.8855059,95.5000502 C80.6398256,85.0917105 85.4437988,74.7083009 90.4960393,64.4370769 C90.9429205,63.5271263 91.2904948,62.5673153 91.737376,61.6822948 C93.12096,59.572149 93.4380858,56.9322704 92.5938984,54.5522704 C90.7169819,49.4237462 91.804887,43.6740781 95.4241462,39.5941773 C96.5254342,38.3288151 97.8201948,37.2474572 99.2598767,36.3906524 C99.5384398,36.2750197 99.75534,36.0465229 99.85702,35.7615825 C99.9587001,35.476642 99.9356828,35.1618167 99.7936515,34.8948431 C97.7989735,28.8234422 98.2033709,22.2145705 100.923268,16.4340632 C102.627403,12.6690846 105.34992,9.46014733 108.780929,7.17251059 C117.892341,1.0521575 128.108542,-0.443651804 138.808865,0.104811609 C154.176614,0.890111496 168.216133,5.72656159 181.486022,13.3053288 C189.993123,18.1379514 197.562336,24.4719049 203.830084,32.0029451 C209.246126,38.1773611 212.66603,45.8585557 213.636644,54.0287372 C214.62409,61.6952813 211.647185,69.337752 205.741742,74.2969533 C204.584645,75.3838767 203.290961,76.3141807 201.893598,77.0642005 C201.136383,77.4506179 200.950182,77.8370353 201.248103,78.7220558 C202.267506,81.7513084 202.426547,85.0058028 201.707398,88.1207243 C200.565368,93.2438712 197.201345,96.4847914 192.744947,98.7534355 C191.269931,99.5304 189.701139,100.112768 188.07752,100.486081 C187.593211,100.532773 187.180714,100.859271 187.022384,101.321241 C185.201757,106.465163 183.34389,111.59662 181.448782,116.715612 C181.126285,117.302478 181.323702,118.04037 181.895663,118.385933 C184.850045,121.15318 187.717533,124.032613 190.671914,126.79986 C193.626296,129.567107 196.506197,132.047658 199.361271,134.702719 C199.9447,135.251183 200.478474,135.051741 201.061903,134.889695 C203.348339,134.195876 205.769389,134.076031 208.112695,134.540673 C213.239416,135.699925 215.94553,139.215077 217.137213,144.138783 C217.32528,144.687145 217.401276,145.267964 217.360654,145.846499 C216.988253,147.803516 218.142696,148.850582 219.421273,150.0223 C226.05504,155.893811 233.0313,161.363206 240.31297,166.401411 C244.446622,169.39303 248.518206,172.484369 252.564964,175.613104 C259.019915,180.599135 281.115709,196.990712 286.167949,203.185855 C287.572685,204.942237 288.787731,206.843431 289.792653,208.857466 C291.141983,211.438903 291.371028,214.464964 290.425735,217.221533 C288.381051,224.036005 283.354163,229.542728 276.77103,232.179626 C274.155235,233.335505 271.163659,233.267024 268.603035,231.99265 C264.072156,229.786331 235.757265,209.218953 231.201559,204.569479 C224.907981,198.162429 218.45303,191.90496 212.1098,185.535306 C207.864428,181.284714 203.420442,177.320819 198.864737,173.381855 C198.385608,172.879393 197.672035,172.67876 197.002732,172.858322 C192.099451,173.805668 187.804426,172.63395 184.514884,168.719916 C182.487452,166.216831 181.544003,163.002028 181.895663,159.79492 C182.031098,158.835898 181.568179,157.891367 180.728807,157.414091 C179.115069,156.217443 177.600638,154.95847 175.887594,153.637172 Z" id="Path" fill="#000000"></path>
            <path d="M68.9713674,132.056923 C79.6829998,131.504659 90.4078965,132.84683 100.658819,136.022459 C113.784157,139.818122 126.255891,145.610214 137.642015,153.198107 C141.833421,156.063194 145.798401,159.250125 149.501501,162.730404 C152.541173,165.615287 155.374295,168.712879 157.979665,172 C158.053949,170.322492 157.924536,168.64213 157.594294,166.99617 C157.121904,164.91958 157.258648,162.755423 155.791752,160.878987 C153.151116,157.40086 150.241412,154.13821 147.089823,151.121517 C143.945991,148.194034 140.583832,145.513306 137.03288,143.102879 C127.328759,136.643638 116.701983,131.712318 105.519467,128.479185 C96.7879201,125.778088 87.6540968,124.634995 78.5310575,125.101599 C74.1396659,125.236461 69.8023827,126.116145 65.7019286,127.703591 C62.272239,128.969706 59.2595619,131.169811 57,134.058456 C60.8952804,132.906317 64.9151332,132.234224 68.9713674,132.056923 L68.9713674,132.056923 Z" id="Path" fill="#C4C3C6"></path>
            <path d="M133.898251,7.00278953 C141.218468,6.9902405 148.510862,7.90481043 155.601733,9.72471482 C165.041689,12.2214687 174.017847,16.2252124 182.184773,21.5818688 C188.972305,25.8275021 195.002817,31.1794386 200.026823,37.4162652 C201.27508,38.9949103 202.415807,40.6558464 203.441272,42.3878182 C204.310404,43.8668553 203.937919,45.6068988 203.813757,47.1977958 C203.639964,50.3313562 202.868705,53.4026715 201.541596,56.2460223 C200.460882,58.3970758 198.92245,60.2849627 197.034523,61.7768751 C196.587541,62.1497416 196.388882,62.0503105 196.090894,61.5158685 C194.69663,58.8980379 192.982451,56.4640013 190.987844,54.26983 C187.738604,50.7381334 184.126194,47.55946 180.2106,44.7865926 C171.443131,38.4936225 161.755626,33.5966997 151.491977,30.2696577 C145.229949,28.1816017 138.774246,26.7284153 132.222067,25.9319777 C126.857306,25.2211624 121.407885,25.4991777 116.143114,26.752284 C112.225076,27.576591 108.88658,30.1241135 107.054471,33.6876004 C106.594417,34.5639776 106.335659,35.5321289 106.297084,36.5213857 C106.297084,36.9439677 106.297084,37.5281252 105.825269,37.6026985 C105.353454,37.6772717 105.341038,37.0806854 105.241709,36.7451056 C102.932299,29.3623493 103.67727,22.5388928 108.892066,16.4735981 C111.97214,13.0327091 115.949245,10.5191895 120.377032,9.21513063 C124.721441,7.69679404 129.296996,6.948142 133.898251,7.00278953 Z" id="Path" fill="#FFFFFF"></path>
            <path d="M200.623765,46.3978894 C195.486714,39.9612084 189.307714,34.4368457 182.345098,30.0557654 C173.996752,24.5247431 164.807595,20.3925315 155.137339,17.8208874 C147.866679,15.9356439 140.385955,14.9890806 132.876446,15.0041356 C128.151013,14.9364182 123.450361,15.7007861 118.988122,17.2625005 C114.454921,18.6006614 110.382506,21.1786168 107.22695,24.7076595 C106.46914,25.5977031 105.778774,26.543397 105.161634,27.5368199 C104.756389,30.9606662 105.115468,34.4320876 106.212843,37.699462 C106.31178,38.0344941 106.31178,38.6425155 106.794099,38.5556553 C107.276419,38.4687951 107.251684,37.8979996 107.264051,37.4761072 C107.302474,36.4884649 107.56021,35.5218937 108.018448,34.6469468 C109.843325,31.0892756 113.168641,28.5459107 117.071212,27.7229489 C122.315198,26.4718877 127.743106,26.1943262 133.086688,26.9039814 C139.623946,27.721691 146.062583,29.1974788 152.305259,31.3090338 C162.528389,34.630646 172.17765,39.5195769 180.910507,45.8022767 C184.811257,48.5745156 188.409429,51.7521808 191.645204,55.2824458 C193.631937,57.4730362 195.339349,59.9031004 196.728108,62.5166587 C197.02492,63.0502284 197.222795,63.1494972 197.668013,62.7772392 C199.548486,61.2877617 201.080845,59.4029559 202.157293,57.255413 C203.046757,55.3882424 203.667198,53.4037003 204,51.3613288 C202.987505,49.6323037 201.859514,47.9740329 200.623765,46.3978894 Z" id="Path" fill="#C4C3C6"></path>
            <path d="M175.697281,59.2673747 C168.824485,54.236525 161.372985,50.0141693 153.495801,46.6870169 C147.04265,43.9074349 140.325173,41.7597214 133.441249,40.2751711 C128.153702,39.0542983 122.74046,38.4337742 117.308257,38.4258342 C116.857099,38.4271562 116.419103,38.2768633 116.067257,38 C115.583267,38.0851668 115.099278,38.1460003 114.615288,38.194667 L114.689748,38.3650007 C114.573239,38.4086643 114.452722,38.4412584 114.329858,38.4623342 C110.764131,38.6361876 107.251332,39.3800433 103.930282,40.6645052 C100.914654,41.9906744 98.147225,43.6331776 96.8193556,46.8573506 C95.6503952,49.86603 95.7350856,53.2047087 97.0551455,56.152702 C97.8481109,53.9240842 99.5201904,52.1006945 101.696483,51.0913588 C105.692297,48.9541688 110.163015,47.8134849 114.714568,47.7698523 C121.090489,47.7803065 127.439998,48.573251 133.614989,50.1301903 C138.902128,51.4549152 144.059836,53.2340852 149.028203,55.4470339 C152.348588,56.8391582 155.573646,58.4403931 158.683178,60.2407099 C162.633495,62.4840386 166.404542,65.0179243 169.963863,67.820558 C174.540503,71.2507023 178.428533,75.4832892 181.430698,80.3035823 C181.553273,80.5864017 181.786779,80.8089634 182.078596,80.9211128 C182.370412,81.0332622 182.695986,81.025563 182.981948,80.8997501 C184.949101,80.2452126 186.604262,78.9080988 187.635695,77.1402428 C189.745395,74.0742369 189.311045,72.3830669 187.002786,69.7550618 C183.632665,65.8682163 179.841938,62.351703 175.697281,59.2673747 L175.697281,59.2673747 Z" id="Path" fill="#C4C3C6"></path>
            <path d="M94.6987441,112.731761 C89.1922773,112.483262 83.7092556,113.595427 78.7315359,115.970517 C75.4529168,117.54123 72.8438516,120.238566 71.3773962,123.573465 C71.0861238,124.275874 70.4031281,124.734316 69.6448108,124.736416 C68.9093968,124.84896 68.9592554,124.073659 68.7847504,123.673504 C67.014771,119.659448 66.2918217,115.482828 67.8748314,111.281199 C69.3819165,107.403327 72.4716702,104.358228 76.3632536,102.915455 C83.0816964,100.089359 90.0743614,99.6892041 97.3163192,100.176893 C102.742257,100.596044 108.119587,101.504225 113.383245,102.890445 C117.80173,104.092259 122.132948,105.596362 126.346474,107.392191 C129.96122,108.855258 133.600896,110.668461 137.15332,112.606713 C141.91191,115.135422 146.448614,118.063673 150.714852,121.360107 C153.82661,123.786645 156.743965,126.454181 159.440102,129.338201 C162.222292,132.207994 164.603941,135.442845 166.52002,138.95443 C166.985216,139.868378 167.117484,140.916669 166.893959,141.918079 C166.233333,145.94464 164.887151,149.646075 161.459374,152.209569 C161.142895,152.424656 160.814093,152.620903 160.474668,152.797297 C159.8639,153.147433 159.465031,153.084909 159.290526,152.284598 C158.044062,146.482349 154.765861,141.81804 150.864428,137.541382 C144.354321,130.495912 136.488781,124.846785 127.742514,120.934942 C121.877746,118.082686 115.710045,115.905492 109.357165,114.444926 C104.555246,113.29718 99.6350582,112.722146 94.6987441,112.731761 Z" id="Path" fill="#C4C3C6"></path>
            <path d="M68.8307877,114.764778 C70.3230512,110.983895 73.4011066,108.01137 77.2838419,106.601533 C84.0163629,103.831642 91.0605747,103.441173 98.2543981,103.917057 C103.68089,104.332021 109.058968,105.21813 114.325175,106.564926 C118.741499,107.739948 123.069732,109.211769 127.279044,110.969906 C131.019334,112.434165 134.597544,114.166872 138.163287,115.984994 C142.916362,118.457026 147.449632,121.314175 151.715602,124.526506 C154.825002,126.902347 157.742751,129.509121 160.442944,132.323687 C163.218326,135.125708 165.599824,138.277197 167.524559,141.694946 L167.674171,142 C167.748976,141.621733 167.83625,141.231264 167.898588,140.779784 C168.114884,139.80229 167.982896,138.781788 167.524559,137.887872 C165.599824,134.470123 163.218326,131.318634 160.442944,128.516613 C157.742751,125.702047 154.825002,123.095273 151.715602,120.719432 C147.45287,117.502607 142.919203,114.645208 138.163287,112.17792 C134.597544,110.347596 131.006866,108.627091 127.279044,107.15063 C123.068451,105.409086 118.740242,103.953581 114.325175,102.794459 C109.06914,101.463911 103.704218,100.586075 98.291801,100.170994 C91.0979776,99.6951099 84.0537658,100.097781 77.3212448,102.855469 C73.4385095,104.265306 70.3604541,107.237832 68.8681906,111.018715 C68.0686363,113.125697 67.8158844,115.393956 68.1326003,117.620084 C68.259415,116.646454 68.4935067,115.689113 68.8307877,114.764778 Z" id="Path" fill="#FFFFFF"></path>
            <path d="M148.647227,110 C145.995346,107.932133 143.355856,105.976379 140.592447,104.195023 C138.6593,102.94932 136.651801,101.853102 134.644303,100.731969 C134.037096,100.395629 133.764473,100.121574 134.24776,99.3492383 C135.724897,96.7427637 137.048972,94.0515934 138.213189,91.2895391 C140.41896,86.5184962 142.884962,81.8844806 145.165084,77.1508087 C146.701688,73.9742658 148.151548,70.7478947 149.539449,67.5090666 C150.49363,65.266801 151.398244,63.0245354 152.178938,60.7199846 C152.451561,59.9227346 152.82332,59.8230783 153.517271,60.2466174 C157.112801,62.3624943 160.52442,64.779418 163.715861,67.4716955 C164.521339,68.1817463 165.760536,68.7173986 165.971199,69.689047 C166.181863,70.6606955 165.178113,71.6074299 164.868314,72.6289064 C163.99271,75.0006803 162.853707,77.2655749 161.472914,79.3806173 C160.407205,81.2242579 159.713255,83.2921251 158.821033,85.247879 C155.376066,92.8715821 152.897672,100.89391 149.390745,108.492699 C149.16769,108.978523 148.91985,109.439434 148.647227,110 Z" id="Path" fill="#FFFFFF"></path>
            <path d="M146.239961,59.5728299 C140.914564,57.4371473 135.387895,55.8139617 129.73873,54.7264089 C123.836557,53.6480803 118.356856,54.0721421 112.429833,54.1327224 C108.632041,54.428559 105.183346,56.4069238 103.073336,59.5001335 C100.662765,63.6922876 98.3143213,67.9086738 95.9410267,72.112944 C93.5677321,76.3172141 91.0701813,80.7759214 88.585056,85.1498163 C87.056704,87.8880441 85.5656289,90.638388 84,93.4977763 C85.8638439,93.194875 87.5413034,92.8677416 89.2436142,92.6738847 C90.9505611,92.6011157 92.6494265,92.402655 94.3256953,92.0801982 C102.257385,91.5263312 110.229546,92.0606092 118.008939,93.667401 C121.579022,94.5866371 125.096322,95.690764 128.54587,96.9750833 C129.614473,97.3385649 130.944015,93.6189368 131.540445,92.7465811 C133.347845,90.1635227 134.392364,87.145756 134.559873,84.0230234 C134.78203,80.3818355 136.711648,77.0433255 139.791061,74.9723323 C141.598641,73.7602813 142.535322,71.6464068 142.201633,69.5322248 C141.973661,67.8786796 142.419783,66.2038998 143.444195,64.8675447 C144.450671,63.4741987 145.544126,62.1172008 146.699709,60.8086672 C147.221586,60.1180522 147.060052,59.8636151 146.239961,59.5728299 Z" id="Path" fill="#C4C3C6"></path>
            <path d="M213.707399,152 C216.372121,154.185619 218.886717,156.270169 221.451355,158.316819 C222.614825,159.251708 223.828337,160.123429 225.054359,160.982516 C225.614116,161.3814 225.956701,162.021892 225.980131,162.713324 C226.218187,166.955797 224.304811,171.02964 220.900896,173.527718 C219.925083,174.273102 219.011822,175.081655 217.960945,175.751238 C217.23534,176.206049 216.709902,176.041811 216.096891,175.220625 C214.53958,172.692863 212.587787,170.436009 210.317073,168.537431 C206.013485,165.126349 205.425495,165.050547 206.413819,164.153559 C209.145216,161.531916 211.279575,158.341956 212.669034,154.804667 C213.094388,153.94558 213.344597,153.048592 213.707399,152 Z" id="Path" fill="#C4C3C6"></path>
            <path d="M202.042636,139.392303 C204.49628,138.664935 207.154133,138.95752 209.373732,140.199336 C211.5293,141.475408 212.87521,143.707731 212.956693,146.142029 C213.282682,150.978168 211.759793,155.7621 208.674927,159.592571 C207.829592,160.822735 206.849926,161.962326 205.752653,162.99189 C204.462654,164.10164 202.58928,164.316623 201.06431,163.529912 C198.886879,162.337406 197.404747,160.242947 197.049359,157.856229 C196.879618,157.12326 197.155133,156.360939 197.76087,155.887558 C200.955384,153.092269 202.990792,149.278771 203.491067,145.15158 C203.671378,143.13135 203.162912,141.109579 202.042636,139.392303 Z" id="Path" fill="#FFFFFF"></path>
            <path d="M195.968302,143.915844 C195.438985,146.921002 194.383546,149.797489 192.855328,152.399924 C192.330396,153.231697 191.842086,153.167714 191.414815,152.399924 C188.973267,148.445805 185.542893,145.515407 182.735113,141.970776 C182.242099,141.35118 181.698863,140.777463 181.111484,140.256045 C178.669936,138.093436 178.462405,136.724211 179.89071,133.729829 C180.26915,132.962039 180.53772,132.744499 181.306808,133.345934 C185.526988,136.863503 190.113799,139.86852 194.979475,142.303485 C195.316112,142.37696 195.610472,142.58913 195.796416,142.892326 C195.982359,143.195521 196.044293,143.564315 195.968302,143.915844 Z" id="Path" fill="#C4C3C6"></path>
            <path d="M196.932819,138.080877 C196.856168,138.686959 197.303296,139.525157 196.575117,139.899122 C195.846937,140.273087 195.361484,139.512261 194.824931,139.164087 C190.676733,136.525467 186.742443,133.558826 183.059086,130.292083 C181.781578,129.183082 181.615502,125.391848 182.803584,124.282847 C183.518989,123.612289 184.081092,124.282847 184.464344,124.759976 C186.187179,126.514708 188.008502,128.16804 189.919302,129.711792 C191.746138,131.362397 193.470773,133.154852 195.412585,134.637817 C196.600509,135.335729 197.212841,136.722552 196.932819,138.080877 L196.932819,138.080877 Z" id="Path" fill="#FFFFFF"></path>
            <polygon id="Path" fill="#8B613B" points="278.475 228.445 278.555 228.555 278.445 228.475"></polygon>
            <polygon id="Path" fill="#8B613B" points="115.55 194.47 115.45 194.55 115.53 194.45"></polygon>
            <path d="M80.2050885,257.997008 L77.2152287,257.997008 C67.7908165,257.935147 58.3794029,257.280221 49.0357997,256.036043 C39.8481336,254.917332 30.7848178,252.930893 21.9651104,250.102865 C17.0518018,248.510508 12.3170169,246.404 7.83802271,243.817719 C6.75092844,243.188411 5.7063431,242.487129 4.71112763,241.718481 C1.34037711,239.239773 -0.429766803,235.109034 0.0893026326,230.93317 C0.375830867,228.419112 0.849225341,226.244451 1.33507756,224.069791 C1.48457056,223.340714 1.6465213,222.611637 1.78355654,221.88256 C2.16974677,219.921594 2.5808525,217.973199 3.02933147,216.012234 C3.60238794,213.25934 4.17544441,210.506446 4.68621213,207.740982 C5.81986732,201.744952 9.66931186,197.232218 15.7860668,194.693019 C22.9866459,191.713859 30.4239222,190.494541 37.4127196,189.501488 C43.6415943,188.621568 50.2068282,188.005623 58.067668,187.565663 C65.1935006,187.175984 72.5186572,187 82.5596031,187 C91.3672319,187 98.8543393,187.301687 105.519235,187.754218 C110.676743,188.106186 116.195526,188.659279 122.37457,189.426066 C127.190553,189.987686 131.967033,190.852532 136.676066,192.015546 C140.705161,192.891789 144.56994,194.41093 148.124738,196.515711 C151.874368,198.802719 154.622113,202.442557 155.811169,206.697647 C157.791951,213.887854 159.835022,220.952358 161.404699,226.307303 C163.074037,232.014215 161.192917,237.469722 156.259648,241.27852 C152.731177,243.951725 148.879854,246.160897 144.798519,247.852783 C139.831742,249.917304 134.701879,251.557207 129.463029,252.755197 C124.342894,254.012226 118.898858,255.005279 112.794561,255.860059 C101.994082,257.338346 91.104341,258.052406 80.2050885,257.997008 L80.2050885,257.997008 Z" id="Path" fill="#000000"></path>
            <path d="M83.1851317,193 C89.7331234,193 98.4803456,193.198479 107.215143,193.843534 C113.092183,194.265301 118.944373,194.922761 124.784138,195.70427 C129.507471,196.283984 134.185909,197.183342 138.787148,198.396135 C142.009912,199.132293 145.090505,200.389352 147.907121,202.117607 C149.781169,203.371597 151.112321,205.285351 151.634631,207.476527 C153.597786,215.105546 155.647916,222.709754 157.735321,230.301558 C158.456706,232.466457 157.668521,234.847359 155.797017,236.156674 C152.762301,238.602068 149.420703,240.641311 145.856991,242.222674 C141.131105,244.350125 136.22446,246.052215 131.195454,247.308686 C125.624911,248.720778 119.984622,249.842868 114.297411,250.670416 C102.14371,252.410772 89.8700907,253.178186 77.5938675,252.965324 C67.8859677,252.895959 58.1935599,252.179012 48.5814186,250.819275 C39.33412,249.618412 30.2307342,247.49482 21.4078745,244.480367 C16.8308396,242.90114 12.4429399,240.820991 8.32431617,238.277913 C7.54362064,237.793897 6.79263491,237.263673 6.07538545,236.690085 C5.25664885,236.037826 4.86093512,234.990645 5.04410782,233.961006 C5.40443374,230.71092 6.14993564,227.522858 6.74633716,224.322392 C7.76518975,218.839423 8.88344259,213.368859 9.85259506,207.873484 C10.3175192,204.712299 12.4698647,202.05475 15.4687094,200.939141 C22.0415511,198.036393 29.0244189,196.820712 36.0445617,195.75389 C43.0647046,194.687067 50.2587979,194.054417 57.3410659,193.63265 C65.1688359,193.173669 73.096006,193 83.1851317,193 Z M110.669302,215.775411 C111.178728,216.073128 111.688154,215.700981 112.222431,215.663767 C114.955938,215.502503 117.67702,215.155165 120.385676,214.832638 C123.094333,214.51011 125.815415,214.137963 128.524072,213.716196 C132.053102,213.160435 135.546405,212.39829 138.985949,211.433693 C141.726327,210.784557 144.321781,209.631955 146.639768,208.034748 C147.012942,207.846461 147.266236,207.48341 147.313783,207.068674 C147.36133,206.653937 147.196752,206.243136 146.875844,205.975534 C146.58054,205.664966 146.26059,205.378722 145.919116,205.119595 C144.341137,203.76746 142.303432,203.345693 140.427252,202.638613 C136.276181,201.332201 132.030966,200.34519 127.72887,199.686245 C124.299561,199.003975 120.783277,198.743472 117.291844,198.445755 C112.694582,197.999178 108.09732,197.552601 103.487633,197.205264 C98.6667211,196.895141 93.8333838,196.671853 89.0124715,196.609828 C82.924206,196.547804 76.8235155,196.473374 70.722825,196.709067 C67.6165671,196.833117 64.5103092,196.907546 61.4040513,197.006785 C59.6024217,197.006785 57.8007921,197.192859 55.9991625,197.304503 C53.5141562,197.440957 51.1409752,197.738675 48.705669,197.949558 C44.8290591,198.272086 40.9400242,198.594613 37.1006894,199.190049 C31.8893889,199.890751 26.7359913,200.968683 21.6812252,202.415325 C19.4848521,202.942319 17.3873692,203.817647 15.4687094,205.007951 C13.6546547,206.248442 13.7292049,207.612981 15.6675099,208.729423 C15.8663104,208.853472 16.0651109,208.952711 16.2763364,209.064356 C18.7802229,210.338296 21.4294937,211.304651 24.1662315,211.942294 C29.2713582,213.199056 34.4503072,214.135391 39.672671,214.745803 C43.0025794,215.179975 46.3449129,215.564527 49.6996715,215.84984 C53.8413487,216.197178 57.9581758,216.461816 62.0501529,216.643754 C66.78409,216.842233 71.505602,216.978687 76.239539,217.040711 C80.4143497,217.102736 84.5767353,217.040711 88.7515459,216.929067 C92.2926799,216.842233 95.8338139,216.755398 99.3749479,216.618944 C103.102457,216.408061 106.867242,216.246797 110.669302,215.775411 L110.669302,215.775411 Z M94.7528362,232.559251 C95.9953393,232.559251 97.2378425,232.435202 98.3685204,232.360772 C101.599029,232.174699 104.829537,232.013435 108.060045,231.765337 C112.545481,231.417999 117.006068,230.971423 121.466654,230.375987 C127.395892,229.639891 133.278318,228.567197 139.085349,227.163116 C143.079269,226.22478 146.96442,224.873624 150.677903,223.131521 C151.087154,223.017204 151.419858,222.719335 151.578107,222.32557 C151.736355,221.931805 151.70214,221.486953 151.485531,221.121926 C151.274305,220.5513 151.13763,220.390036 150.553653,220.724969 C147.809905,222.223151 144.887604,223.369339 141.856131,224.136319 C134.702345,226.015496 127.423563,227.383498 120.075051,228.229938 C114.989071,228.899803 109.89895,229.404269 104.804687,229.743337 C100.679576,230.02865 96.5544657,230.189914 92.3796551,230.375987 C88.8633712,230.524846 85.3595122,230.549656 81.8432283,230.586871 C72.9717557,230.6613 64.1127082,230.301558 55.2536606,229.755742 C52.5822788,229.582073 49.910897,229.445619 47.2519403,229.135496 C42.0707021,228.527656 36.9018889,227.895006 31.7579258,227.051472 C24.9671418,226.088509 18.3013125,224.391475 11.8778752,221.99027 C11.5175493,221.853816 11.0702482,221.556098 10.8590226,222.089509 C10.6477971,222.62292 10.5732469,223.032282 11.2814737,223.33 C12.8993596,224.088163 14.558647,224.754944 16.2514863,225.32719 C23.4844601,227.651955 30.9302537,229.25588 38.4798679,230.115484 C43.7853564,230.834969 49.0908449,231.467619 54.4211835,231.852171 C59.7515221,232.236723 65.3179362,232.534441 70.7725251,232.63368 C78.8363706,232.819754 86.825666,232.869374 94.7528362,232.559251 Z M150.727604,218.50449 L150.727604,218.231582 C149.998668,215.502503 149.26145,212.773423 148.515948,210.044343 C148.515948,209.907889 148.515948,209.647386 148.180472,209.672196 C147.434581,209.988982 146.923695,210.689716 146.850994,211.495718 C147.513662,213.90227 148.163905,216.308822 148.801724,218.715374 C148.888699,219.025497 148.801724,219.571312 149.336,219.422454 C149.870276,219.273595 150.528803,219.174355 150.727604,218.50449 Z M154.455113,231.97622 L154.219038,231.070662 C153.659911,229.061067 153.125635,227.063877 152.541658,225.066687 C152.467108,224.793779 152.541658,224.136319 152.007382,224.372012 C151.473106,224.607705 150.479103,224.607705 150.764879,225.525668 C151.38613,228.118294 152.119207,230.68611 152.802584,233.253926 C152.802584,233.464809 152.889559,233.799742 153.225035,233.601263 C153.815452,233.233723 154.238939,232.650702 154.405413,231.97622 L154.455113,231.97622 Z M14.5119819,211.297239 L14.5119819,211.297239 C14.5239532,211.19836 14.5239532,211.098401 14.5119819,210.999521 C14.5119819,210.354466 13.8783053,210.143583 13.4434292,210.044343 C13.0085531,209.945104 13.1452284,210.503325 13.0955283,210.801043 C12.8718777,212.041533 12.6482272,213.393668 12.3997265,214.696184 C12.1512259,215.998699 11.8406001,217.660957 11.5175493,219.149546 C11.3560239,219.91865 11.8530252,220.154343 12.3997265,220.315607 C12.9464279,220.476871 12.958853,219.94346 13.0955283,219.558908 C13.2604972,218.887349 13.3644603,218.202304 13.4061541,217.512098 C13.8286052,215.452883 14.151656,213.368859 14.5119819,211.297239 Z" id="Shape" fill="#000000"></path>
            <path d="M51.9529902,230.297345 L51.9529902,233.070102 C51.9529902,235.766545 50.7035962,238.475706 51.0659205,241.184868 C51.3157993,243.130885 53.0399631,244.453668 55.5512451,245.331284 C62.0231062,247.595278 73.7174344,246.972044 78.9648893,246.75582 C90.7216872,246.259776 109.125261,246.170743 119.120414,242.444056 C122.306368,241.261182 123.080993,233.795089 122.993535,229 C99.7048303,232.167048 74.829395,234.380166 51.9529902,230.297345 Z" id="Path" fill="#C4C3C6"></path>
            <path d="M35.2241893,211.945609 L35.2241893,213.939054 C35.2241893,215.894163 33.6423782,217.849273 34.0749047,219.804383 C34.39621,221.210017 36.6206319,222.155625 39.8831173,222.79455 C48.2370571,224.430197 63.3631257,223.98295 70.1352544,223.81683 C85.3354704,223.459032 109.124426,223.395139 122.038431,220.711656 C126.153611,219.855496 127.154601,214.47575 126.981591,211 C96.9518957,213.274572 64.796642,214.884662 35.2241893,211.945609 Z" id="Path" fill="#C4C3C6"></path>
            <path d="M110.417061,216.725192 C106.619648,217.20971 102.859465,217.375466 99.0992814,217.541222 C95.5624753,217.681477 92.0256691,217.770731 88.488863,217.859984 C84.3191547,217.974738 80.1618563,218.038491 75.992148,217.974738 C71.2639967,217.974738 66.5482551,217.770731 61.8201038,217.566723 C57.6834884,217.371216 53.5716928,217.099206 49.4847168,216.750693 C46.1340584,216.457432 42.7958098,216.062167 39.469971,215.6159 C34.2675609,215.003705 29.107434,214.05833 24.0197127,212.785294 C21.2800081,212.148116 18.6256111,211.171955 16.1146407,209.878185 C15.9036733,209.763431 15.7051158,209.661427 15.5065582,209.533922 C13.5706223,208.386379 13.4961632,206.983827 15.3080007,205.708779 C17.228814,204.464963 19.3324533,203.547883 21.5377434,202.992927 C26.579156,201.520108 31.7179052,200.424944 36.9135427,199.716054 C40.7481852,199.116782 44.632467,198.785269 48.504339,198.441006 C50.9863082,198.224248 53.3565888,197.918237 55.7889186,197.777981 C57.5883463,197.663227 59.387774,197.522972 61.1872016,197.47197 C64.2896632,197.369966 67.3921247,197.293463 70.4945862,197.165959 C76.5878206,196.923699 82.681055,197.000202 88.7618796,197.063955 C93.5768999,197.063955 98.40433,197.357216 103.21935,197.675978 C107.823403,197.969239 112.415046,198.428256 117.006689,198.951025 C120.493856,199.308039 124.005842,199.575799 127.43096,200.226073 C131.727798,200.903375 135.967824,201.917881 140.113823,203.260687 C141.987709,203.949213 144.022924,204.382729 145.598975,205.810783 C145.940031,206.077129 146.25959,206.371346 146.554533,206.690566 C146.875049,206.965622 147.039425,207.387868 146.991936,207.814158 C146.944448,208.240448 146.691463,208.613612 146.318746,208.807145 C144.003592,210.448846 141.411309,211.633557 138.674281,212.300776 C135.238941,213.292244 131.749907,214.075621 128.22519,214.646864 C125.519844,215.08038 122.810361,215.462894 120.096741,215.794407 C117.391395,216.125919 114.673638,216.482933 111.943472,216.648689 C111.434668,216.610437 110.888635,217.031203 110.417061,216.725192 Z" id="Path" fill="#C4C3C6"></path>
            <path d="M102.926059,204.322373 C100.326744,204.631165 97.7521854,204.721229 95.190004,204.811294 C92.6278227,204.901358 90.3503282,204.927091 87.9243014,204.96569 C85.0774332,204.96569 82.2305651,205.042888 79.3836969,204.96569 C76.1531204,204.888492 72.922544,204.785561 69.6919675,204.618299 C66.8698547,204.47248 64.0559937,204.270908 61.2503845,204.013581 C58.9605123,203.794853 56.6830178,203.511794 54.4055233,203.190136 C50.8466552,202.746789 47.3167369,202.08082 43.834978,201.195854 C41.9667886,200.760442 40.1551382,200.095286 38.4383062,199.214439 C38.3021517,199.137241 38.1536194,199.072909 38.0174648,198.982845 C36.70543,198.210865 36.6559192,197.310222 37.9060657,196.409578 C39.2476813,195.594841 40.7060457,195.008447 42.2258786,194.672623 C45.6806796,193.712457 49.1964526,193.007341 52.7469131,192.562545 C55.3833606,192.189421 58.0321857,191.98356 60.6933886,191.777698 C62.3519987,191.649035 64.0106089,191.468906 65.6444636,191.378842 C66.8822324,191.31451 68.1200012,191.224446 69.3577699,191.198713 C71.4867322,191.198713 73.6156945,191.121515 75.7322791,191.057184 C79.9035598,190.92852 84.0624628,191.057184 88.2337436,191.057184 C91.5262085,191.057184 94.8186734,191.301644 98.1358937,191.533238 C101.453114,191.764832 104.423759,192.08649 107.555314,192.421015 C109.944208,192.678342 112.345479,192.871337 114.684862,193.360257 C117.618168,193.8337 120.514078,194.530354 123.349243,195.444603 C124.674893,195.781446 125.932274,196.360892 127.06255,197.155826 C127.29793,197.332161 127.517496,197.53025 127.718567,197.747677 C127.925034,197.933968 128.028163,198.215268 127.993334,198.497144 C127.958505,198.77902 127.790335,199.0241 127.54528,199.150107 C125.941721,200.233581 124.164192,201.009267 122.29714,201.440315 C119.936444,202.080857 117.544028,202.587679 115.130459,202.958542 C113.286183,203.241601 111.417153,203.473195 109.572877,203.679056 C107.728602,203.884918 105.859571,204.116512 103.99054,204.206576 C103.606832,204.245175 103.272634,204.541101 102.926059,204.322373 Z" id="Path" fill="#000000"></path>
            <path d="M145.543738,204.707679 C143.961607,203.315523 141.906082,202.881273 140.024966,202.153265 C139.882292,202.094527 139.736758,202.043371 139.588945,202 C136.265312,203.159991 132.879564,204.123734 129.448356,204.886488 C126.757487,205.486776 124.054161,206.023203 121.350834,206.521314 C118.647507,207.019424 115.931723,207.530307 113.203481,207.798521 C112.667799,207.862381 112.181947,208.28386 111.646265,208.002874 C107.908947,208.705338 104.084425,209.101272 100.322192,209.484434 C96.7841978,209.842052 93.2337459,210.123038 89.6832939,210.429568 C85.4974979,210.787186 81.3241596,211.106488 77.1259059,211.285297 C72.3795122,211.48965 67.6206608,211.642915 62.8742671,211.706775 C58.7258443,211.770635 54.5649637,211.706775 50.4165409,211.61737 C47.0404971,211.527966 43.6644533,211.323613 40.2884095,211.068171 C35.0018835,210.778139 29.7384424,210.146799 24.5293858,209.177905 C21.7422013,208.711183 19.0222565,207.89177 16.4318638,206.738439 C16.2200824,206.636262 16.0083011,206.546858 15.7965197,206.431909 C14.7625285,205.895482 14.2268462,205.26965 14.1894731,204.592731 C12.50768,205.869938 12.6073418,207.147145 14.5009162,208.34772 L15.1238025,208.679794 C17.6547725,210.01083 20.3370686,211.014723 23.109205,211.668459 C28.2411603,212.964697 33.445792,213.937198 38.6938205,214.580491 C42.0449489,215.027514 45.4085349,215.43622 48.772121,215.729978 C52.9080861,216.087596 57.056509,216.355809 61.2298472,216.54739 C65.9886987,216.764516 70.7350923,216.905008 75.4939438,216.968869 C79.6797398,217.045501 83.8779935,216.968869 88.0762472,216.866692 C91.6391569,216.777288 95.1896089,216.700655 98.7525186,216.54739 C102.489836,216.394125 106.314358,216.228088 110.13888,215.74275 C110.649647,216.049279 111.160414,215.666117 111.696096,215.640573 C114.449254,215.461764 117.177496,215.104146 119.918195,214.772072 C122.658895,214.439998 125.37468,214.069608 128.090464,213.635358 C131.641327,213.058861 135.156257,212.269903 138.617242,211.272524 C141.375507,210.61322 143.98755,209.425907 146.316117,207.772977 C146.690273,207.579116 146.944233,207.20532 146.991905,206.778308 C147.039577,206.351296 146.874567,205.928335 146.552814,205.652813 C146.242995,205.309219 145.905438,204.993052 145.543738,204.707679 L145.543738,204.707679 Z" id="Path" fill="#FFFFFF"></path>
            <path d="M93.9580848,231.774992 C86.0282807,232.08006 78.0487601,232.031249 70.0692394,231.884817 C64.6128382,231.787195 59.156437,231.494331 53.712465,231.116047 C48.2684929,230.737764 43.0731041,230.115427 37.7658528,229.407671 C30.2137301,228.562079 22.7654626,226.984301 15.5300857,224.697432 C13.8366839,224.134515 12.1768452,223.478603 10.5584217,222.732799 C9.84995962,222.403326 9.9493929,221.927421 10.1358303,221.51253 C10.3222677,221.097638 10.7945758,221.280679 11.1550214,221.414908 C17.5805929,223.776971 24.248637,225.44634 31.0416773,226.393606 C36.1873495,227.211186 41.35788,227.845726 46.5408397,228.443658 C49.2006799,228.748725 51.8729493,228.882955 54.5452187,229.053792 C63.4072097,229.590711 72.2692007,229.944589 81.1436209,229.871373 C84.6610731,229.871373 88.1660962,229.810359 91.6835485,229.663927 C95.8100296,229.480887 99.9365107,229.322252 104.112708,229.04159 C109.21695,228.699914 114.308763,228.203672 119.388146,227.552862 C126.7391,226.72022 134.020301,225.374518 141.176463,223.525974 C144.208943,222.771497 147.132215,221.643994 149.876875,220.170234 C150.461046,219.840761 150.597766,219.999396 150.809062,220.56072 C151.025744,220.919796 151.05997,221.357397 150.901669,221.744743 C150.743368,222.132089 150.410554,222.425103 150.001167,222.537556 C146.28645,224.25126 142.400008,225.580391 138.404761,226.50343 C132.5958,227.884622 126.711419,228.93983 120.780212,229.663927 C116.318143,230.249656 111.856075,230.688953 107.369148,231.030628 C104.137567,231.274682 100.905985,231.433317 97.6744036,231.616357 C96.3817709,231.652966 95.2010007,231.8116 93.9580848,231.774992 Z" id="Path" fill="#FFFFFF"></path>
            <path d="M150,218.035161 C149.797468,218.720412 149.101266,218.82193 148.531646,218.974208 C147.962025,219.126486 148.075949,218.568134 147.987342,218.250888 C147.329114,215.78906 146.666667,213.327233 146,210.865405 C146.074066,210.040891 146.59454,209.324062 147.35443,209 C147.658228,209 147.658228,209.241107 147.696203,209.380695 C148.455696,212.172458 149.206751,214.964221 149.949367,217.755984 L150,218.035161 Z" id="Path" fill="#FFFFFF"></path>
            <path d="M154,230.555588 C153.805578,231.142521 153.326763,231.64354 152.669214,231.948087 C152.309902,232.118163 152.283286,231.83116 152.216747,231.650454 C151.484814,229.450093 150.69965,227.249732 150.034257,225.028112 C149.794716,224.24151 150.872653,224.23088 151.365043,224.039544 C151.857434,223.848208 151.857434,224.400956 151.937281,224.634811 C152.562751,226.346202 153.134989,228.057594 153.733843,229.779616 L154,230.555588 Z" id="Path" fill="#FFFFFF"></path>
            <path d="M13.9911469,211.236457 C13.6358534,213.24236 13.3173143,215.260275 12.9007632,217.242155 C12.8596518,217.910467 12.7571406,218.573781 12.5944757,219.224036 C12.4597092,219.596389 12.5944757,220.160925 11.9083916,219.956731 C11.2223074,219.752538 10.8792654,219.572367 11.0385349,218.82766 C11.357074,217.386292 11.626607,215.944925 11.9083916,214.515568 C12.1901761,213.086212 12.3739486,212.005186 12.5944757,210.743989 C12.5944757,210.455716 12.5944757,209.915203 12.9375177,210.011294 C13.2805598,210.107385 13.9421409,210.311579 13.9911469,210.936172 C14.002951,211.031915 14.002951,211.128703 13.9911469,211.224445 L13.9911469,211.236457 Z" id="Path" fill="#FFFFFF"></path>
            <path d="M9.99188123,225.429699 C9.63700287,227.621365 9.31883606,229.826155 8.90277177,231.991574 C8.85478582,232.720973 8.75248315,233.445088 8.59684214,234.156993 C8.46223311,234.550706 8.59684214,235.167522 7.91155978,234.957542 C7.22627742,234.747562 6.87139906,234.524458 7.04271965,233.645167 C7.34864927,232.083441 7.63010453,230.50859 7.91155978,228.93374 C8.15630348,227.621365 8.37657281,226.190876 8.59684214,224.826006 C8.59684214,224.497912 8.59684214,223.907343 8.93948332,224.012333 C9.2821245,224.117323 9.94293249,224.353551 9.99188123,225.035986 C10.0027063,225.136267 10.0027063,225.237552 9.99188123,225.337832 L9.99188123,225.429699 Z" id="Path" fill="#FFFFFF"></path>
            <path d="M282.397536,209.900337 C282.360603,209.854254 282.327757,209.805048 282.299369,209.753276 C280.969903,206.747022 278.9424,204.10037 276.384794,202.032535 C276.148947,201.850375 275.869969,201.732172 275.574915,201.689391 C275.460271,201.609935 275.336724,201.544128 275.206788,201.493309 L269.513089,196.983416 C267.058909,194.985827 264.518832,192.975983 261.966484,191.039671 C258.432465,188.368049 254.83709,185.769959 251.266258,183.135103 C247.695426,180.500247 244.075509,177.76735 240.431052,175.132494 C238.087309,173.441284 235.682213,171.823605 233.289387,170.230436 L229.951701,168 C228.896404,171.357909 222.711869,178.478148 220,180.880156 C221.701458,182.077485 223.339767,183.361906 224.908361,184.728272 C227.362541,186.836156 228.417839,187.10577 230.638872,189.434247 C231.865962,190.659761 234.185163,194.091202 235.424524,195.341226 C236.19759,196.1133 237.019741,196.836354 237.878704,197.534897 L239.940216,199.458955 C243.007941,202.363424 246.627857,204.802197 249.965542,207.473819 C252.996455,209.924848 256.211431,212.106263 259.500033,214.263169 C260.727123,215.096518 262.052381,215.905358 263.340825,216.714197 C265.026029,217.956052 266.711233,219.181566 268.396437,220.390741 C270.20026,221.677531 272.764878,224.312387 275.2436,224.692296 C275.862094,225.156941 276.730295,225.088625 277.268299,224.532979 L277.489175,224.287876 C277.714755,224.156798 277.924705,224.000566 278.114991,223.822181 C278.193446,223.762255 278.263593,223.692198 278.323597,223.613843 C278.593556,223.442271 282.986539,219.177481 283.146061,218.981399 C283.588256,218.37692 283.863342,217.666842 283.94367,216.922535 C284.185594,214.47736 283.644227,212.018593 282.397536,209.900337 L282.397536,209.900337 Z" id="Path" fill="#C4C3C6"></path>
        </g>
        <g id="membership" transform="translate(37.000000, 112.000000)" fill-rule="nonzero">
            <path d="M34.137931,120.729761 C34.0333027,120.718567 25.1240465,116.638002 21.1225645,111.876875 C18.8684921,109.19486 17.3379291,107.87061 15.4457052,107.139733 L15.3009313,107.080197 C14.3890206,106.681997 13.5337813,106.166417 12.7571338,105.546761 C7.20154524,101.39301 3.58948777,95.6811102 1.54794172,88.4833997 C1.15580352,87.1346161 0.918953086,86.0478113 0.479654069,83.7731598 C0.272845325,82.7023224 0.193444477,82.3002904 0.0778722403,81.754948 C0.0260977392,81.5106434 0,81.2616455 0,81.011971 L0,73.7997617 C0,73.4955718 0.0387382567,73.1926073 0.115289631,72.8981034 C0.290345345,72.2246396 0.433060068,71.6913262 0.755542399,70.4976648 C1.3826366,68.1764892 1.64892442,67.1520427 1.93965882,65.8855657 C2.15659134,64.9383131 2.35849806,64.1452523 2.76966748,62.5876454 L2.80194051,62.4654011 C3.4712258,59.9303976 3.74097638,58.8126366 3.9798939,57.4476929 C4.41677626,54.9454775 4.30894579,52.8195143 3.68467079,47.9098491 C3.63150067,47.4917466 3.60748179,47.3022084 3.57881932,47.0735036 C2.73746487,40.423226 4.42650137,34.2378673 8.34699359,28.4910454 C10.0587012,25.8579024 12.4662186,23.7439583 15.3391877,22.3648567 C18.3139318,20.973788 19.7581846,20.3350703 21.5976794,19.650037 C24.2500121,18.6697964 25.737189,17.1482071 26.33926,14.7688917 C27.1024326,11.2656142 29.0552776,8.1293383 31.9000436,5.8644193 C35.047378,3.41216111 38.683414,1.81750306 43.1813434,0.663586174 C43.5107647,0.575167807 43.7388648,0.533334805 44.16655,0.466958178 C44.2339658,0.456497444 44.2732107,0.450372362 44.3033737,0.445540807 C44.8358341,0.154335128 45.4355847,3.69482223e-13 46.0477156,3.69482223e-13 L50.7878555,3.69482223e-13 C51.1417093,3.69482223e-13 51.4936518,0.0516007875 51.8324587,0.153156652 C52.3326475,0.303086071 52.8340219,0.400423892 53.9137649,0.569561565 C53.9621508,0.577138121 53.9621508,0.577138121 54.010971,0.584776994 C55.2720854,0.782105219 55.8589456,0.88903805 56.713746,1.11286836 C60.5130922,2.19269797 64.3917501,2.97479673 68.2322333,3.44295806 C72.9437862,3.90824688 77.4486802,5.60042283 81.3343623,8.37920307 C82.5303634,9.26039545 83.7746071,10.0749812 85.0069364,10.7883524 C87.4598567,12.1511255 89.769173,13.7549535 91.9415898,15.6116561 C94.4778,17.8459685 97.254638,19.7948473 100.161893,21.3907914 C106.523597,24.7285246 110.718422,30.0887141 112.625233,37.1159411 C112.721142,37.4685098 112.721142,37.4685098 112.816569,37.8197505 C114.272432,43.1780952 115.004251,45.5347363 116.154131,48.2057646 C118.082942,52.4144795 119.111196,56.9756967 119.173693,61.6002752 L119.173125,61.7287697 C119.168956,61.9152429 119.225254,62.0981748 119.333818,62.2506297 C119.767226,62.8592586 120,63.5867255 120,64.332588 L120,72.3781537 C120,72.9426387 119.866709,73.4953779 119.615419,73.993547 C118.769425,79.7756004 116.336069,84.5169337 112.046577,88.144428 C111.117129,88.9256169 110.860734,89.8447871 111.20124,91.3951503 C112.252985,96.0267952 111.388386,100.884312 108.838753,104.817687 C105.988324,109.406319 102.320356,111.698754 95.3050996,114.452552 C93.2170048,115.265596 91.1497476,116.004088 89.0984626,116.667247 C89.4004489,117.612116 89.748563,118.719262 90.2169937,120.217507 C90.3896544,120.769783 90.4685373,121.021991 90.5621004,121.320695 C91.1560721,123.216977 91.5679003,124.509066 92.0000341,125.818388 C96.2115951,138.778726 100.431374,151.732937 104.65937,164.681021 C105.217282,166.389606 104.422648,168.221205 102.846478,169.009845 C101.530643,169.797463 99.8353301,169.677652 98.640171,168.66971 L85.8762709,157.905225 C84.9878803,161.61195 84.4627614,163.846111 83.9224719,166.248191 C83.7605791,166.974946 83.6075907,167.584185 83.3013313,168.754701 C83.2875299,168.807446 83.2875299,168.807446 83.2737663,168.860037 C82.6260005,171.335183 82.3951117,172.404029 82.2881493,173.674249 C82.1310096,175.540343 80.5625768,176.975336 78.6800962,176.975336 L78.4027148,176.975336 C76.8338725,176.975336 75.4435159,175.97026 74.9590127,174.485915 C73.8832768,171.190245 72.7602953,167.746122 71.4367911,163.68411 C71.6754393,164.416553 65.9805744,146.932455 64.384906,142.039013 C63.0672153,137.998047 61.8547192,134.283913 60.7047663,130.76676 C56.643063,143.158071 50.024738,163.34771 46.3649115,174.51453 C45.2319567,177.971389 40.2491842,177.770783 39.4007566,174.234154 C37.8989176,167.973812 36.6522338,162.770653 35.4894349,157.907835 C34.5793534,158.706252 33.4999377,159.610221 31.9617398,160.87993 L31.9245345,160.910641 C29.4215469,162.976735 28.3268862,163.912727 27.063393,165.111344 C26.532368,165.616927 26.0906704,165.921935 25.312648,166.394391 C25.269269,166.42072 25.269269,166.42072 25.227921,166.445803 C24.9682188,166.603384 24.8418238,166.683822 24.7631222,166.74084 L24.7409442,166.776246 C24.3699523,167.363963 24.060098,167.751539 23.4190906,168.183618 C22.2900005,168.944696 20.9071293,169.069715 19.6767763,168.597893 C17.2907781,167.698205 16.6293761,165.566734 17.1024739,163.605899 C17.1415761,163.443833 17.1791542,163.314281 17.2314978,163.147018 C17.2429423,163.110551 17.2429423,163.110551 17.247668,163.095645 C17.6406491,161.828792 18.0584486,160.532671 18.604275,158.875534 C18.859104,158.10187 24.0369893,145.386612 34.137931,120.729761 Z" id="Path-2" fill="#000000"></path>
            <path d="M64.8903243,102.957028 C65.3079195,102.275618 66.1185456,102.650087 66.665104,101.821345 C64.0489927,102.668503 61.5986913,102.545727 59.1606722,102.52731 C53.269192,102.445724 47.4875236,100.921801 42.3217588,98.0889382 C35.9500384,94.7820442 30.6872887,89.6813123 27.1839318,83.4171412 C21.8718749,73.9019591 20.5945248,63.8097272 23.5729613,53.2939162 C25.9101495,44.7813314 31.1745227,37.3648194 38.4405796,32.3482378 C41.5971082,30.1075658 45.1957965,28.7631627 48.6655215,27.0872629 C52.6265351,25.1596711 56.6489597,24.9570898 60.8064886,25.0062004 C68.9949881,25.1017537 76.9265938,27.8768933 83.3873364,32.906871 C87.4804081,35.9556522 90.9197817,39.7945476 93.5017384,44.1961743 C97.1127089,50.4393615 99.1454151,57.0324619 98.9918874,64.3622216 C98.7462432,76.0259933 94.3983399,85.7130626 85.8437789,93.4970955 C80.3199977,98.5211404 73.4379758,101.807143 66.0571345,102.944751 C65.835557,102.978642 65.6118916,102.997103 65.3877539,103 C65.2211735,102.996732 65.0549959,102.982376 64.8903243,102.957028 Z M43.6420966,92.7972692 C43.9275917,93.2522839 44.3614159,93.5948778 44.8703179,93.7672039 C53.4678666,97.7819969 62.2557897,98.3344913 71.2033815,95.1607177 C75.1292417,93.8718122 78.7027455,91.6906825 81.6432622,88.788615 C83.2706554,87.7757085 84.4374656,86.2901124 85.616558,84.8352103 C94.3577141,73.9684242 95.3804922,58.8016188 88.1773993,46.8604253 C87.1272701,45.129276 86.1999631,43.2385172 84.345349,42.1335283 C84.345349,41.5196456 83.9031893,41.1758713 83.5224407,40.8075416 C74.6362599,32.2070447 64.1104038,29.1376311 52.0369889,31.7589103 C46.7361703,32.8516669 41.8524368,35.420315 37.9492911,39.1684748 C37.5284368,39.3288576 37.1576186,39.5978658 36.8745975,39.9481058 C34.9669905,41.7102132 33.3135544,43.7287226 31.9617125,45.94574 C24.8687347,57.6095117 24.7950415,69.463587 31.4335774,81.3667729 C31.9248659,82.2384864 32.4038721,83.2084211 33.380308,83.6811108 C33.4861619,84.3427699 33.8104286,84.9500041 34.301474,85.4061212 C35.16737,86.3699171 36.1438059,87.2477694 36.9912785,88.2115653 C38.8633726,90.1878311 41.1290067,91.7499738 43.6420966,92.7972692 Z" id="Shape" fill="#C4C3C6"></path>
            <path d="M94.9821111,155.384659 C93.4019215,154.426389 92.1973997,153.010346 90.8736182,151.759102 C87.6893872,148.750011 84.570749,145.65547 81.2016656,142.390027 C80.0508105,148.762219 78.9476593,154.878058 77.8385452,161 L77.5881,161 C77.2243583,159.937968 76.8486906,158.888143 76.5088007,157.820008 C74.4336839,151.270811 69.4247812,135.706551 67.3675533,129.132939 C67.2125158,128.626338 66.7056625,128.052597 67.2363677,127.527684 C67.7670729,127.002772 68.0950368,127.680275 68.5303343,127.77183 C68.7863463,127.831535 69.0495852,127.852103 69.3114846,127.832866 C71.6966763,127.600928 74.6781661,128.119737 77.0991357,127.832866 C79.3114011,127.552099 79.4843275,123.871609 81.7681486,124.005889 C82.3415146,123.962179 82.9069996,124.163221 83.3304492,124.561319 C83.980414,125.342584 84.0161919,124.561319 84.2248961,124.066925 C85.1968618,125.721009 89.8837636,139.008615 90.3906169,140.650492 C91.3625825,143.824381 92.5909563,146.906715 93.4794402,150.098914 C93.9684046,151.85676 94.4931467,153.596295 95,155.341934 L94.9821111,155.384659 Z" id="Path" fill="#FFFFFF"></path>
            <path d="M53.913398,132.333485 C54.6173011,131.616484 54.3138946,130.69997 54.6294374,129.870742 C55.1391603,130.23236 55.0056614,130.69997 54.9085714,131.086527 C53.5735828,136.467153 47.9484262,154.535584 46.1037147,159.766575 C45.7153544,160.870134 45.4969017,162.029805 45.1692227,163.164538 C45.0782007,163.494982 45.0964051,163.912713 44.5077965,164 C44.2286625,160.932482 43.2941705,158.008364 42.7480388,155.003193 C42.2019071,151.998023 41.449459,149.06767 40.8001691,146.099909 C40.6181252,145.239507 40.5210351,144.69708 39.5865431,145.657238 C35.2538983,150.021594 30.8484359,154.255018 26.4611779,158.538321 C26.3164846,158.628127 26.1615977,158.699322 26,158.750304 C28.427252,150.956813 34.9686962,130.550335 37.6750821,123 C38.3365083,123.218218 38.2394182,123.536192 38.1787369,123.773114 C38.0391699,124.328011 38.1483963,124.546229 38.7552093,124.396594 C40.032367,124.110398 41.3625693,124.525848 42.2686566,125.493917 C43.1060585,126.31691 44.4531834,125.930353 45.3027216,126.77205 C46.8561628,128.336983 49.1074391,128.829532 50.6184034,130.469282 C50.8934801,130.768113 51.2595004,130.961648 51.6560537,131.017944 C52.5664803,131.072578 53.4005486,131.558658 53.913398,132.333485 L53.913398,132.333485 Z" id="Path" fill="#C4C3C6"></path>
            <path d="M28.2849125,107.053666 C27.7282872,104.867152 26.9970917,102.734695 26.0992246,100.679331 C25.7553431,99.9141636 26.3673357,97.68654 26.9851568,97.3409806 C27.9398444,96.7463163 29.1579451,96.9449174 29.8994073,97.8161247 C32.0709396,100.060274 34.0760414,102.478108 35.896935,105.048188 C36.9246695,106.484839 38.1214117,107.776728 39.4581492,108.892536 C40.5189364,109.774946 41.305784,110.990575 42.5938828,111.619986 C43.2408464,111.940863 43.0601629,112.477714 42.4365132,112.79859 C42.0557727,113.01762 41.6063891,113.060059 41.1950425,112.915834 C40.5828444,112.713672 39.9360949,112.656787 39.3007796,112.749225 C37.5529815,112.911169 35.7989606,112.522594 34.2591262,111.632328 C33.5353409,111.257252 32.7320948,111.087171 31.9277257,111.138671 C30.662941,111.138671 30.1791754,109.904531 29.4214703,109.083828 C28.9615311,108.451613 28.5704874,107.766439 28.25577,107.041325 L28.2849125,107.053666 Z" id="Path" fill="#C4C3C6"></path>
            <path d="M27.6986489,103.459178 C27.6007357,102.330528 27.3722192,101.218728 27.0181862,100.148525 C26.8702595,99.7245614 27.6572295,98.9639216 28.2015997,99.0013301 C29.0172906,99.0288086 29.7859805,99.4100993 30.325827,100.055003 C31.5780564,101.559461 32.7250343,103.157675 33.7577262,104.837058 C34.3505844,105.794871 35.0389012,106.683173 35.8109487,107.486828 C36.4012599,108.23363 37.0548313,108.922292 37.763581,109.544296 C38.201444,109.868503 37.9884296,110.036842 37.4736447,109.993198 C37.1388903,109.970891 36.8141579,109.863964 36.5269139,109.681461 C36.0869303,109.415213 35.618066,109.205875 35.1304859,109.057986 C33.8292811,108.636489 32.60641,107.982736 31.5151576,107.125212 C31.0065391,106.743316 30.4459461,106.444818 29.8524616,106.239878 C28.8998137,105.890731 28.7163846,105.198674 28.2785216,104.650016 C28.0327152,104.277573 27.8338187,103.873093 27.6868148,103.446709 L27.6986489,103.459178 Z" id="Path" fill="#FFFFFF"></path>
            <path d="M90.7917967,109.565753 C89.7494192,109.745151 88.7131734,109.980223 87.6646642,110.085387 C86.4504913,110.247996 85.2702994,110.607289 84.1696339,111.149398 C82.4164241,111.891087 80.6001536,112.470833 78.7431393,112.88151 C74.8618161,113.803241 70.9253083,113.333096 67.0439851,113.74138 C62.9357915,114.174408 58.8337295,114.724972 54.7132726,114.978602 C53.1488008,115.093961 51.5853675,114.741054 50.2187862,113.96408 C49.2561199,113.40733 49.1825404,112.893882 50.0103107,112.108246 C51.2856902,110.926698 52.8860462,110.654509 54.4925339,110.679254 C57.55835,110.722557 60.458612,109.831756 63.4385853,109.398728 C65.4129709,109.107981 67.460936,109.287378 69.478243,109.281192 C71.4955501,109.275006 73.2430652,108.476998 74.9415274,107.425358 C76.4866987,106.472697 78.1851608,105.76748 79.7242005,104.79626 C81.2632402,103.825041 82.8758595,103.082707 83.9488951,101.51762 C84.7092175,100.416492 86.1133613,100.546401 87.2109235,100.162862 C88.5494723,99.6951643 89.5475247,98.5544574 89.8413937,97.1564108 C90.4545569,94.9170379 91.8954905,93.1292512 92.8581567,91.0816478 C93.5694261,89.5784224 94.8080158,88.3411998 95.2065719,86.6956937 C95.4129418,85.6659517 95.7126062,84.657505 96.1017902,83.6830567 C96.5629911,82.5151326 97.4157722,81.5475031 98.5115217,80.9487948 C101.258493,79.482686 102.754611,77.1010325 103.760199,74.2616066 C104.097439,73.3151313 103.606908,72.4800061 103.698883,71.5953919 C103.95433,68.4467992 103.630025,65.2776997 102.742348,62.2481752 C102.055605,59.7118688 101.951367,57.039468 100.902858,54.5897673 C100.467512,53.5814309 100.498171,52.3813249 100.216115,51.2987552 C99.3760818,48.0510458 98.6034961,44.7909643 98.0025962,41.4937661 C97.8186472,40.4854296 97.0276667,39.8173294 96.488083,39.0193209 C95.6592925,37.627991 94.6624255,36.3459002 93.520373,35.2024891 C89.7800774,31.8124992 86.63455,27.7420369 82.0112993,25.3913139 C78.1299761,23.4117578 74.4755233,20.9434987 70.2079073,19.8238122 C68.9777143,19.5891073 67.7235616,19.5080785 66.4737433,19.5825538 C63.309821,19.5516233 60.1520304,19.3289232 56.9819766,19.3598538 C54.173689,19.3907843 51.3531382,19.2361315 48.538719,19.1866426 C45.9836529,19.0754772 43.4762456,19.9091738 41.4873419,21.5311794 C40.718231,22.0577478 39.8804312,22.4741241 38.9978992,22.768402 C36.6249576,23.7829246 34.6689669,25.3603834 32.6761864,26.9378422 C29.6103703,29.338054 26.9185837,32.1341771 23.7240033,34.3611778 C22.8103901,34.9797891 22.5773881,36.2541284 22.2033585,37.2872092 C21.528879,39.1430431 20.1308669,40.5225463 18.97812,42.0319579 C17.1876834,44.3703086 15.6302488,46.7024732 15.6915651,49.8450186 C15.7283549,51.7565275 16.0226733,53.7051531 15.2378243,55.5857315 C14.8883213,56.433229 15.660907,57.4044487 15.4033784,58.2519462 C14.9189795,59.8108466 14.6614509,61.419236 14.0176295,62.9595782 C13.2879653,64.7102481 12.625749,66.4856626 13.5945469,68.6384299 C14.5636042,70.6497434 15.2231733,72.798309 15.5505376,75.0101263 C15.7222233,76.4329323 16.8811018,77.4845715 16.9240232,78.9073775 C16.9914712,81.3818227 18.0399803,83.7078012 17.6475558,86.2379214 C17.3287109,88.2669664 15.7467498,89.4299557 14.8147417,91.0321589 C14.5020285,91.5703508 13.9317867,91.3785813 13.5577571,90.9455534 C10.9702083,87.9514747 8.14965748,85.0006988 8.30294828,80.6704197 C8.27139083,78.5844439 8.3840775,76.4987875 8.64018805,74.4286317 C8.68924111,74.1255121 8.79961049,73.7048564 8.64018805,73.5069008 C7.22378101,71.601578 8.54208194,69.8447219 8.94063803,68.0693075 C9.29265851,66.9610556 9.58132021,65.8333274 9.80519818,64.6916898 C9.97688388,63.114231 10.7617328,61.7347278 11.0315246,60.1758273 C11.7845938,56.56791 11.7322307,52.8361168 10.8782338,49.2511518 C9.95562658,45.3911702 10.284444,41.3344141 11.8163735,37.6769343 C12.3880863,36.0383948 13.1322195,34.466393 14.0360244,32.9878607 C14.9128478,31.6640325 16.3047283,30.9650017 17.2244732,29.7710819 C18.6838016,27.8843175 20.7562933,27.915248 22.7429422,27.915248 C25.2691747,27.915248 27.0350847,26.4676976 28.6354408,24.8221915 C30.2357968,23.1766855 32.0507599,22.0631851 33.467167,20.355818 C34.6934934,18.8464064 35.9198198,17.3431809 36.1773484,15.2955775 C36.2938494,14.3614745 37.08483,13.8356549 37.6795983,13.2912769 C40.1935675,11.0024151 42.6952735,8.68880885 45.8101426,7.20414173 C46.0472012,7.08467828 46.3059079,7.01521718 46.570465,7 C49.4305184,7.00582997 52.2454716,7.71953834 54.7684573,9.07853397 C56.3626817,9.87654254 57.9139847,10.7859012 59.5511305,11.4725597 C60.352562,11.765805 61.0617353,12.2698407 61.6052273,12.9324824 C62.5985517,14.2686828 64.0578802,14.8439913 65.3761811,15.6605582 C65.6775815,15.8621241 66.0480709,15.9292705 66.4001637,15.8461416 C67.9759931,15.4626026 69.4659798,15.8461416 70.962098,16.3286584 C71.8266582,16.6070335 72.7280081,16.5018696 73.6109632,16.6627085 C75.9053934,17.1996558 78.1181631,18.0443593 80.1902046,19.1742704 C83.1933503,20.5562548 86.0456427,22.2500792 88.7009101,24.2283247 C89.9946845,25.230475 91.6747517,25.5954557 92.9256047,26.7027699 C95.83813,29.2761929 98.8119716,31.8124992 101.356599,34.7447168 C103.281932,36.9655314 104.238466,39.8544461 105.513846,42.5021025 C107.03449,45.6446479 108.978218,48.552121 110.621495,51.620433 C111.873658,54.043275 112.626624,56.6968126 112.835015,59.4211215 C113.233571,63.7080978 112.963779,67.9641436 111.430871,72.0160476 C110.780918,73.7234148 110.057385,75.4555264 109.517802,77.1505214 C108.720689,79.6744555 107.261361,81.5179172 105.56903,83.3366344 C104.661549,84.3078541 103.61304,85.1553516 103.196089,86.5348548 C103.0205,87.0386419 102.921277,87.5662787 102.90177,88.0999414 C102.90177,90.4073615 102.852717,92.7147817 102.90177,95.0222018 C103.082317,98.7569956 101.42322,102.340814 98.4686002,104.598305 C96.7148457,106.139245 94.8474905,107.543416 92.8826833,108.798675 C92.2425842,109.21502 91.5171933,109.479412 90.7611385,109.57194 L90.6936906,109.516265 L90.7917967,109.565753 Z" id="Path" fill="#C4C3C6"></path>
            <path d="M111.825585,57.3106893 C111.617821,54.6434295 110.858985,52.045518 109.595249,49.675025 C107.942687,46.6707293 105.985707,43.830969 104.457398,40.7535465 C103.171382,38.1575425 102.208424,35.32997 100.270081,33.1544456 C97.7104747,30.2842158 94.7159838,27.803996 91.7836193,25.2872128 C90.5410919,24.2024975 88.8326168,23.8490509 87.5279631,22.8496503 C84.8489375,20.9189763 81.9738027,19.2648474 78.9483117,17.9135864 C76.8298026,16.9141858 74.6988682,15.8904096 72.325641,15.476024 C71.4372339,15.3175824 70.5301889,15.4272727 69.6604198,15.146953 C68.1631743,14.6716284 66.6535036,14.2999001 65.0630686,14.6716284 C64.7086087,14.7501955 64.3368037,14.6794659 64.0379835,14.4766234 C62.7084793,13.6783217 61.2485096,13.1176823 60.2482751,11.8074925 C59.7007567,11.1608842 58.989405,10.66699 58.1856797,10.3754246 C56.5331183,9.70509491 54.9737465,8.82147852 53.3646736,8.03536464 C50.8281922,6.70445774 47.997085,6.00549883 45.1205046,6 C44.8544285,6.01495952 44.5943276,6.08340905 44.3563503,6.2010989 C41.2500319,7.65144855 38.6966382,9.91838162 36.168095,12.1609391 C35.5468314,12.6911089 34.7764644,13.202997 34.6584243,14.1170829 C34.4037062,16.121978 33.192242,17.5967033 31.9248641,19.0775225 C30.4897451,20.7411588 28.625954,21.899001 27.0603696,23.4346653 C25.4947851,24.9703297 23.6558446,26.438961 21.1335141,26.4816184 C19.1206198,26.4816184 17.0393865,26.4816184 15.542141,28.3097902 C14.6102455,29.4798202 13.2124022,30.1684316 12.3239952,31.4664336 C11.415729,32.9135464 10.6680226,34.4518832 10.0936586,36.0551449 C8.56373343,39.6435798 8.2501053,43.6193263 9.19903889,47.3959041 C10.0568409,50.8949517 10.1141257,54.5369003 9.36678009,58.0602398 C9.06236088,59.5837163 8.27335602,60.9365634 8.12425274,62.4783217 C8.09318955,62.7098901 8.04970109,62.9414585 8,63.1669331 C8.66475213,62.1187812 9.32329163,61.0584416 9.98804376,59.9981019 C10.3759082,59.3502828 10.8229854,58.7383762 11.3237607,58.1699301 C11.8665702,55.1105562 11.7629561,51.974425 11.0193415,48.9559441 C10.1118567,45.3740188 10.4037449,41.6007115 11.8518348,38.1941059 C12.397046,36.6784231 13.1051309,35.2239481 13.9641313,33.8552448 C14.8028372,32.6364635 16.1261289,31.9783217 17.0083233,30.8692308 C18.3937413,29.1263736 20.3631471,29.1629371 22.2704266,29.1507493 C24.674717,29.1507493 26.3583416,27.8100899 27.8617997,26.2988012 C29.3652578,24.7875125 31.1172214,23.7454545 32.4653635,22.1671329 C33.6644024,20.7716284 34.8075276,19.3761239 35.0498204,17.4748252 C35.1616479,16.6155844 35.9133769,16.1280719 36.4787269,15.6466533 C38.870592,13.5320679 41.2624572,11.3809191 44.2196723,10.0158841 C44.4462113,9.90380277 44.6933914,9.83748995 44.9465508,9.82087912 C47.6711258,9.82587603 50.3527565,10.4871335 52.7558352,11.7465534 C54.2717185,12.49001 55.7503261,13.3248751 57.3159106,13.9647353 C58.0753717,14.2379842 58.748155,14.7024541 59.2666785,15.3114885 C60.2109993,16.5302697 61.5964173,17.0848152 62.8513699,17.8404595 C63.1383179,18.0275244 63.49157,18.0893207 63.8267539,18.0110889 C65.2441254,17.757253 66.7056753,17.8987146 68.0451342,18.4193806 C68.338295,18.4533692 68.6288494,18.5062981 68.9149034,18.5778222 L69.1137078,18.6326673 C69.6417819,18.6814186 70.169856,18.6753247 70.6979301,18.7728272 C72.8824315,19.2666432 74.9889214,20.0476298 76.960268,21.0946054 C79.8110758,22.3747823 82.5178818,23.9433194 85.0366958,25.7747253 C86.2792231,26.7070929 87.8696581,27.0422577 89.0624844,28.066034 C91.9025637,30.3719288 94.5839954,32.8596129 97.0892111,35.5127872 C98.9219389,37.5664336 99.8351965,40.2416583 101.052873,42.6975025 C102.500418,45.6103896 104.351783,48.2978022 105.917368,51.1375624 C107.109055,53.3827397 107.825447,55.841157 108.023452,58.3649351 C108.116641,59.3643357 108.172555,60.3698302 108.178768,61.3631369 C108.256888,61.5707103 108.346059,61.7741201 108.445911,61.9725275 C108.731692,62.4478521 109.036112,62.9475524 109.160364,63.1913087 C109.864463,64.471029 110.558208,65.7405927 111.241598,67 C111.987809,63.825062 112.185216,60.5497548 111.825585,57.3106893 Z" id="Path" fill="#FFFFFF"></path>
            <path d="M80.3444934,34.5360283 C83.1753304,36.0786519 85.4634361,37.491246 87.2519824,40.2100462 C89.6113577,41.1469686 91.61653,42.7510731 93,44.8083649 C90.2061674,37.9640808 84.5876652,33.3539413 78.5004405,29.6658296 C75.2872247,27.7212964 71.9753304,25.6644649 68.4845815,24.2755126 C64.9938326,22.8865603 61.2995595,22.774262 57.6052863,23.2648282 C53.7876652,23.7672152 49.7356828,24.3878109 46.2325991,26.0900162 C42.6993651,27.7302428 39.3337824,29.6832646 36.1797357,31.9236159 C33.860793,33.6199109 31.9242291,35.8717867 30.0740088,38.129573 L30.0185022,38.1827669 L29.938326,38.2891548 C29.5004405,38.8270044 29.0687225,39.3589436 28.630837,39.8849723 C26.4903455,42.413257 24.6049541,45.1304381 23,48 C24.1233586,46.8367591 25.4779196,45.9003422 26.984141,45.2457371 C27.7612335,44.1227544 28.5876652,43.0293239 29.4511013,41.9595351 L31.2643172,39.7194801 C32.7259912,39.0516009 33.5400881,37.8754243 34.4837004,36.6578746 C37.1966211,34.48997 40.1330943,32.5927629 43.2475771,30.9956776 C49.0619697,28.5751634 55.3429508,27.3547935 61.6819383,27.4139538 C65.2204687,27.3789382 68.7071359,28.2305864 71.7964758,29.8845157 C74.6581498,31.409408 77.4951542,32.9874943 80.3444934,34.5360283 Z M67.1215859,25.9895388 C66.9735683,25.9008823 66.8193833,25.8181362 66.6651982,25.7353901 C66.8440529,25.788584 67.0229075,25.841778 67.1955947,25.9067928 C67.3682819,25.9718075 67.6828194,26.0900162 67.923348,26.1845832 C67.6581498,26.0900162 67.3867841,26.0486432 67.1215859,25.9895388 Z" id="Shape" fill="#FFFFFF"></path>
            <path d="M79.0656688,87.4596449 C81.7390084,85.9168397 83.8937325,84.5040795 85.5792329,81.7908704 C87.8372252,80.825399 89.7299138,79.2176197 91,77.1860995 C88.3698784,84.031189 83.0664172,88.641871 77.3307764,92.3304167 C74.2993452,94.2751787 71.156782,96.3381634 67.884565,97.721368 C64.612348,99.1045726 61.0931712,99.2287063 57.6233863,98.7380825 C54.0239476,98.2297252 50.2145931,97.6149676 46.8806361,95.9362065 C43.5371781,94.2748833 40.3659851,92.3134421 37.4097287,90.0782758 C35.2241347,88.3817813 33.3966324,86.1237293 31.649392,83.8656773 L31.6,83.8124772 L31.5259121,83.7060768 C31.1122544,83.174075 30.7047708,82.6361621 30.2911132,82.1159826 C28.2730143,79.5705224 26.5019538,76.8539114 25,74 C26.046342,75.1492264 27.3227694,76.0858882 28.7537886,76.754587 C29.4884939,77.8777018 30.2725912,78.971261 31.0875585,80.0411757 C31.649392,80.7741559 32.2173994,81.5307807 32.7977549,82.2755831 C34.1745557,82.9494521 34.940131,84.1257671 35.8353601,85.34346 C38.377031,87.4994896 41.1454486,89.3972672 44.0961646,91.0063234 C49.5482612,93.4054247 55.4883155,94.6167455 61.4883068,94.5530018 C64.8425235,94.5828922 68.1405879,93.7280372 71.0209542,92.0821492 C73.7066417,90.5984553 76.3799813,89.0142723 79.0656688,87.4596449 Z M66.5942002,96.0130512 C66.4521983,96.1017181 66.3101964,96.1785628 66.1681946,96.2613187 C66.3348924,96.2081185 66.5015903,96.1549183 66.6682881,96.0898959 C66.834986,96.0248734 67.1251637,95.9066508 67.3536015,95.8120727 C67.1004677,95.8889174 66.847334,95.9480287 66.5942002,96.0130512 L66.5942002,96.0130512 Z" id="Shape" fill="#FFFFFF"></path>
            <path d="M93.4020328,101.114149 C93.7464605,99.6179627 94.2668841,98.1696777 94.9519947,96.8007652 C95.2258602,96.2601069 94.2702446,95.0956122 93.5477059,95.0183753 C92.4138079,94.9112793 91.2855278,95.275474 90.4186475,96.0283962 C88.4225451,97.8140608 86.5532345,99.7419032 84.8248001,101.797398 C83.8160554,102.974872 82.6826192,104.034913 81.445184,104.958169 C80.4021645,105.742421 79.6971067,106.657381 78.3802217,107.334689 C77.7159524,107.685226 77.9839909,107.958526 78.7065295,107.994173 C79.1735113,108.023772 79.6407361,107.940301 80.0700298,107.75058 C80.7252476,107.467601 81.4121774,107.268053 82.1152803,107.15645 C83.9927024,106.836161 85.8021146,106.189029 87.4643969,105.243352 C88.2366845,104.828673 89.0655341,104.534284 89.923359,104.369981 C91.310167,104.078857 91.6714363,103.181721 92.388148,102.534119 C92.7925038,102.080557 93.1372453,101.575263 93.4136867,101.03097 L93.4020328,101.114149 Z" id="Path" fill="#FFFFFF"></path>
            <path d="M74.0679117,47.307844 L69.2214396,45 L46.713591,47.3265058 L46,48.0729783 C46.0594659,49.3917463 46.1129852,50.7167349 46.160558,52.035503 L46.582766,52.4709452 L56.6325055,52.8441815 C56.8168499,60.812775 57.6493727,66.5295099 57.7385715,70.4671522 C58.2935867,73.2291003 57.7623579,74.9750164 56.144885,75.7049006 C54.5810641,76.5363991 52.9011132,77.1032898 51.167588,77.3844637 C51.167588,79.2506448 61.6811617,79.0515855 58.6246137,79.3190715 L51.4708641,79.7109695 L50.7929527,83.0825368 L54.4441599,86 L65.373995,85.6018814 C69.0430419,85.402822 72.0936433,84.3577606 73.6516503,82.5911091 C74.5633474,81.6592113 75.0521637,80.3650225 74.9955799,79.0329237 L74.0679117,47.307844 Z" id="Path" fill="#000000"></path>
            <path d="M69.4647897,45 L46,45.0791286 C46.0885018,46.7895243 46.1711036,48.5060067 46.241905,50.2164024 L58.8504682,50.4842223 L59.0510724,73.0480538 C59.0510724,74.874099 57.1099319,76.1462438 54.1539702,76.4201506 L47.2331257,76.840141 L50.1477866,83 L60.6972067,82.5556623 C64.2372806,82.3426237 67.1873422,81.2835175 68.6918736,79.5609483 C69.5777981,78.6310819 70.0499885,77.3636581 69.9958008,76.0610284 L69.4647897,45 Z" id="Path" fill="#C4C3C6"></path>
            <path d="M70.5204501,43 L46,43.1879699 C46,43.6015038 46.0418642,44.0087719 46.0657866,44.4411028 L68.1939976,44.9047619 L68.1939976,76.7218045 C68.1939976,79.2656642 65.3831168,81.1077694 61.1667955,81.4711779 L51.2808677,82.0977444 L51.7473543,83 L60.9694358,82.6052632 C64.755154,82.3734336 67.9188902,81.245614 69.5515933,79.4348371 C70.5028176,78.4715978 71.0273772,77.1362964 70.9988979,75.7506266 L70.5204501,43 Z" id="Path" fill="#FFFFFF"></path>
        </g>
    </g>
</svg>