<svg fill="none" height="85" viewBox="0 0 85 85" width="85" xmlns="http://www.w3.org/2000/svg"><path d="m79.8455 3.59687h-26.0138c-7.584 0-14.9471 2.59918-20.845 7.37043l-12.6056 10.1243-2.2826-7.26s.0884-11.30974-.2577-11.78834c-.081-.11781-13.26095-2.901067-13.26095.6185 0 .15462.45651 4.73447.47124 4.97746-.86885 0-1.56834.69949-1.56834 1.56834l-.16935 6.55314s0-.0073-.00737-.0073c-.14726 2.4887-.07363 6.4353-.07363 6.5605.00737.6406.11045 1.2443.56696 1.7377.39761.427-.0589 3.6742.16199 3.8288.16199.1104.81731.1325.80994.2945-.02209.3755.84676 6.6415.84676 6.6415l-.80994 17.1782c-.15463 3.2324.31661 6.4648 1.36954 9.5278 1.0971 3.1735 1.56097 6.5385 1.35481 9.896-.04418.7143-.08836 1.4064-.13254 2.0028-.10308 1.3474-.71422 2.6139-1.7156 3.5196l-3.95399 3.5858c-1.097103 1.0014-1.73033 2.4151-1.73033 3.8951v.0221c1.5168-.0074 76.4732-.0074 79.632-.0074 0 0-.081-.2503-.2283-.6848-3.8288-11.4128-5.8978-23.341-6.1334-35.3723 0-4.6977-2.0543-8.7842-5.2205-11.5822-2.0248-1.7819-1.8849-4.9774.2651-6.6121 5.0364-3.814 11.5233-11.0814 11.5233-23.19374v-3.39439zm-8.5338 63.84553c.0147.0073.0221.0147.0368.0294-.0074.0074-.0147.0074-.0221.0147-.0074-.0073-.0221-.0073-.0221-.0147 0-.0147.0074-.0221.0074-.0294zm-4.4915-20.2928c.1914-.1178 2.6949 4.764 2.7022 5.4487.0148.8468.5523 14.741.3903 15.4773-.2062-.2504-2.2163-5.0143-2.7833-6.3249-.1693-.3903-.508-14.4759-.3092-14.6011zm-45.4304 29.504c-.081.7952-2.5108 3.7478-3.0336 3.8215-.4123.0589-3.9687-3.5932-3.9098-4.5725.1105-.4786 3.122-7.0171 3.6816-6.5827.0883.081 3.3281 6.6416 3.2618 7.3337zm22.3912-2.9452c-.5669 1.6493-5.0658 8.3129-5.3824 8.3129-2.2605-.0074-3.7773-.0074-6.0378.0074-.3313 0-4.5872-8.556-4.8228-9.9918-.0221-.1472-.5301-6.7888-.0736-7.1127.8762-.6259 15.2637-1.7893 15.6392-1.7598.3682.0294.8689 9.9917.6774 10.544zm21.7286-.5596c.184.5669.8541 4.6461.5964 5.4118-.2136.6406-5.4046 3.4533-5.4414 3.4533-2.231 0-4.462 0-6.693 0-.2946 0-3.1735-5.7432-3.1514-5.8757.1472-.8836 3.711-9.5058 3.9834-9.6899.6259-.427 10.4188 5.8316 10.706 6.7005z" fill="#000"/><path d="m83.9551 80.7233h.0039s0-.0039-.0039 0z" fill="#4b4b4b"/><path d="m10.8174 40.792s0-.0077.0076-.0077v-.0076c0 .0077-.0076.0153-.0076.0153z" fill="#787878"/><path d="m10.8906 40.6371s.0039 0 0 0c.0039-.0039.0039-.0039.0039-.0039z" fill="#787878"/><path d="m84.9998 78.1872c-.0227.0076-.0455.0076-.0682.0076 0 0-.0152-.0455-.0076-.0455.0227-.0076.0455-.0152.0682-.0152.0076.0152.0076.0379.0076.0531z" fill="#4b4b4b"/><g fill="#a0a0a0"><path d="m78.5693 76.0873h.0327c-.0082 0-.0164 0-.0327 0 0 0 .0082-.0082 0 0z"/><path d="m77.2537 76.7419c-.0143-.0072-.0287-.0144-.0359-.0216.0072 0 .0144 0 .0216.0072.0072 0 .0071.0144.0143.0144z"/><path d="m78.5362 76.9355c-.0076-.0303-.0228-.0607-.0303-.0834.0303.0076.0682.0076.0985.0152-.0227.0227-.0455.0455-.0682.0682z"/></g><path d="m77.917 84.6978.0039-.0039z" fill="#4b4b4b"/><path d="m77.2451 76.7493s.0082-.0081 0 0c.0082-.0081 0 0 0 0z" fill="#a0a0a0"/><path d="m78.7309 77.258c-.0082 0-.0245 0-.0327-.0082.0082.0082.0245.0082.0327.0082 0 0 0 .0081 0 0z" fill="#787878"/><path d="m78.645 77.8543c-.0075-.0076-.0075-.0152-.0151-.0227.0151 0 .0303-.0076.0455-.0076-.0076.0076-.0228.0227-.0304.0303z" fill="#787878"/><path d="m8.40136 23.0869c-.78048-1.2812-2.03221-2.2016-3.50483-2.5256-.19144-.0441-.30189-.0662-.30189-.0662-.16199-.0884-.35343.0221-.36079.2061l-.82467 1.2739c.24298.103 2.65808.508 1.53153 1.6861v.0074c0 .0073 0 .0147-.00737.0221v.0073.0221.0074.0221.0073c0 .0074 0 .0074.00737.0148 0 0 0 .0073.00736.0073 0 .0074.00736.0074.00736.0147l.00736.0074.00737.0074s.00736 0 .00736.0073c.00736 0 .00736.0074.01473.0074.00736 0 .00736 0 .01472.0074.00737 0 .00737 0 .01473.0073h.02209.02209.02209.02209c.00736 0 .02209 0 .03681-.0073h.01473c.02209 0 .03681-.0074.0589-.0148.02209-.0073.04418-.0073.05891-.0073h.02945c.05154 0 .11045.0073.16199.0147.01473 0 .03681.0074.05154.0074.08099.0147.15463.0441.17672.1325.02208.0957-.05891.1546-.11781.2135-.00737.0074-.01473.0148-.02946.0221-.00736.0074-.02209.0147-.02945.0221-.53751.486-.62586.567-.47124 1.0382.01473.0368.081.2356.11045.3093.10308.2871-.15463.8246-.16199.8393-.02945.0516 1.78187 1.4432 1.78187 1.4432h.06627.02945c.00737 0 .00737 0 .01473-.0073.00736 0 .01472-.0074.02209-.0074.00736 0 .00736-.0074.01472-.0074.00737 0 .01473-.0073.02209-.0073.00737 0 .02946-.0148.03682-.0221.00736-.0074.00736-.0074.01472-.0148 0 0 .36816-.2429.93512-.6185 1.24436-.8393 1.53889-2.5329.6774-3.7625-.07363-.0957-.14726-.2062-.21353-.3166z" fill="#c4c3c6"/><path d="m43.8129 77.9865c.0079.008.0159.016.0079.024h-.0239c.008-.008.016-.016.016-.024z" fill="#a0a0a0"/><path d="m62.1301 7.08709c-14.3581 0-27.3908 5.69901-36.9481 14.96181-2.9747 2.8864-6.9508 4.5136-11.0962 4.5136 0 .1988.0147.3902.0294.5817.4418 5.0511-.1693 10.1243-1.8996 14.8882-2.0617 5.6696-3.18826 11.7883-3.18826 18.1648h2.90106c7.0318 0 13.3125-4.3884 15.735-10.9858 3.6742-10.0064 13.2094-16.6627 23.8712-16.6627h.022c14.0488 0 25.4322-11.3907 25.4322-25.43216v-.02945z" fill="#c4c3c6"/><path d="m66.8782 69.4158s.4344 6.6267.4344 6.9655c0 2.3267-2.2899 4.4546-3.9393 5.7064h8.0995c-.5081-2.5624-1.966-8.902-2.6876-12.0461-.2798-1.2075-.751-2.3635-1.3916-3.4238l-.3166-.5228c-1.4874-2.4593-2.0175-5.3751-1.4947-8.1951l-7.9964 4.8743z" fill="#c4c3c6"/><path d="m69.2208 82.0802c-.2503-2.0028-.7878-5.7285-.8688-5.7138-.081.0148-1.6788 4.7051-2.8569 5.7138z" fill="#fff"/><path d="m48.5541 82.08c.1325-.3092-.2798-2.0395-.243-2.2604s1.4431-4.1086 2.1058-5.942c.2135-.5817.0957-1.2297-.3019-1.7083-.7952-.9498-2.3046-.7805-2.8716.3166-1.2959 2.5182-3.2324 6.2219-3.5122 6.5164-.0221.0221-.0442.0368-.0662.0515 0 0-2.4446 1.8555-3.6816 3.0189h8.5707z" fill="#c4c3c6"/><path d="m43.7234 79.0102c-.0221.0221-.0442.0368-.0663.0516 0 0-2.4445 1.8555-3.6815 3.0188h6.4501c.6258-1.4505-2.5845-3.1882-2.7023-3.0704z" fill="#fff"/><path d="m22.7305 73.7009c.0368.5596.486 3.387.2577 4.2117-.1914.6995-2.1721 2.7832-3.4091 4.1675h7.5104c.0883-1.156-.0221-2.636.1914-2.7464.1914-.0958.994-.4197.9867-.6775-.0074-.2135-2.0985-3.1366-2.2384-4.0202-.0957-.5891-1.8334-9.7414-1.8334-9.7414l-.0148.0221c-2.0248 2.3194-2.6139 5.5591-1.5536 8.4528.0589.1768.1031.3019.1031.3314z" fill="#c4c3c6"/><path d="m22.9921 77.9121c-.1914.6995-2.1721 2.7833-3.4091 4.1675h6.6268c-.9793-2.4003-2.9968-4.9848-3.2177-4.1675z" fill="#fff"/><path d="m2.09082 82.0801h6.97286c.24298-.6848.50069-1.3622.56696-1.3474.53746.1693 1.24436-.7953 1.00876-.8689-.1326-.0442 1.7598-6.7593 3.0851-11.4423.7879-2.7832 2.879-5.0069 5.6034-5.9714l.1398-.0516c3.2619-1.156 5.8905-3.6226 7.2527-6.8108l.0074-.0148s26.5219-.081 26.4335 0c-.2356.2209-5.8831 9.1229-5.8831 9.1229 3.2839.0074 6.4354-1.3253 8.7106-3.6889 2.312-2.4004 5.2425-5.4045 7.1495-7.2453 1.48-1.4284 2.3194-3.387 2.3194-5.4487 0-1.3474-.3092-2.6802-.8983-3.8951l-1.6714-3.4385 1.1192.2577c1.9438.4418 3.6889 1.5241 4.9406 3.0704 1.2886 1.5904 1.9954 3.5711 1.9954 5.618v1.4579l-.0294.0074h.0368v14.4906h.0073c-.103 4.9038.5523 9.8371 1.966 14.6084 1.0603-.3682 2.1206-.7363 3.1735-1.1119-1.7892-4.381-2.8937-9.0566-3.2398-13.8573-.1767.0073-.3608.0073-.5375.0147v-16.3829c0-16.567-29.3125-19.4091-43.3466-2.9084 0 0-19.96872 13.8868-19.954 13.9531 0 .0147.46388 3.144.9867 6.2807.6626 3.9245-.58173 7.9227-3.36498 10.7648-1.81132 1.8555-3.64474 3.7994-4.5504 4.8376z" fill="#c4c3c6"/><path d="m31.5732 34.102 16.9498-10.0433c6.3618-3.7699 10.8091-9.9328 12.4731-16.9572-13.9089.29453-26.5071 5.9347-35.8141 14.9471-2.9747 2.8863-6.9508 4.5136-11.0962 4.5136 0 .1988.0147.3902.0294.5817.4418 5.0511-.1693 10.1242-1.8996 14.8882-2.0396 5.6033-3.1588 11.641-3.18826 17.9439l.09572-.0295c5.00694-1.4432 8.89464-5.3677 10.38194-10.3673 1.8997-6.4059 6.163-11.9724 12.0682-15.4772z" fill="#fff"/><path d="m63.4508 37.0402-5.5738-1.5168c-9.4469-1.4211-21.3751 1.8629-28.9002 10.7207 0 0-.1105.081-.3166.2209h1.826c5.1247 0 10.1169-1.5831 14.3065-4.5283 4.1896-2.9453 9.1818-4.5284 14.3065-4.5284h5.1837c-.2725-.1325-.5523-.2577-.8321-.3681z" fill="#fff"/><path d="m2.09082 82.0805c.23562-.2872 3.18822-2.15 3.40175-2.2458.53015-.2577 3.26922 2.0985 3.57111 2.2458.01473.0368-4.96273.1841-6.97286 0z" fill="#fff"/><path d="m12.7383 13.8316c-.7731 0-1.2223.8836-.7584 1.5095l.0736.0957h-8.0994c0 1.0529.85412 1.9071 1.90705 1.9071h6.54575c1.2002 0 1.3328 1.7965.1399 1.9291-.1251.0147-.2577.0073-.3976-.0147l-4.4031-.8615c0 2.6875 2.17948 4.867 4.867 4.867h.1325c2.6066 0 4.7124-2.1132 4.7124-4.7124 0-2.6065-2.1132-4.7198-4.7197-4.7198z" fill="#c4c3c6"/><path d="m31.5732 34.1023 13.666-5.0363c9.8886-3.6448 17.4284-11.8252 20.2559-21.97891h-4.5063c-3.4606 8.19511-9.4468 15.07231-17.0824 19.63741z" fill="#000"/></svg>