<?xml version="1.0" encoding="UTF-8"?>
<svg width="2326px" height="1826px" viewBox="0 0 2326 1826" version="1.1" xmlns="http://www.w3.org/2000/svg" xmlns:xlink="http://www.w3.org/1999/xlink">
    <!-- Generator: Sketch 53.2 (72643) - https://sketchapp.com -->
    <title>Group 3</title>
    <desc>Created with Sketch.</desc>
    <g id="Blog-Illustrations" stroke="none" stroke-width="1" fill="none" fill-rule="evenodd">
        <g id="Blog_illustrations-Copy-3" transform="translate(0.000000, -305.000000)">
            <g id="Group-3" transform="translate(-184.000000, 301.000000)">
                <path d="M129.117389,1374.77994 L416.293553,544.293982 C571.44537,557.57316 752.993674,589.978066 853.820945,655.815788 C942.548067,713.752411 964.372122,800.367381 911.791377,883.846585 C780.933219,1091.60201 590.638639,1441.37424 271.260113,1495.89486 C176.234747,1512.11649 67.6072856,1466.09059 4.17443857e-13,1446.04345 L129.117389,1374.77994 Z" id="Path-Copy-10" stroke="#000000" stroke-width="10" fill="#000000" transform="translate(470.000000, 1021.793982) rotate(180.000000) translate(-470.000000, -1021.793982) "></path>
                <ellipse id="Oval" fill="#000000" cx="1071.96909" cy="1291.73554" rx="384.5" ry="280"></ellipse>
                <path d="M1398.78711,254.109095 C1616.26096,291.950192 1583.662,254.401591 1667.8051,271.711331 C2123.44399,365.444406 2455.8501,632.248356 2482.58308,934.484203 C2530.33984,1474.40931 1965.8531,1673.3343 1492.28499,1730.90874 C1018.71687,1788.48317 683.208027,1725.03077 580.639044,1701.28736 L685.400664,1591.91041 L646.075626,1571.66068 L790.929176,1417.28496 C893.971455,1282.29571 961.234852,1179.26096 992.719366,1108.1807 C997.625364,1097.1048 1003.01803,1084.93019 1008.89735,1071.65687 C1036.04871,1010.35926 1099.25402,867.046519 1198.51327,641.718639 L1253.70135,652.960224 L1398.78711,254.109095 Z" id="Path-Copy-8" fill="#D8D8D8" transform="translate(1533.029588, 1004.250423) rotate(-1.000000) translate(-1533.029588, -1004.250423) "></path>
                <path d="M1332.9471,230.007177 C1916.34131,268.782617 2380.84279,566.265852 2412.5162,922.426318 C2460.27845,1459.50221 1895.72684,1657.37747 1422.1043,1714.64808 C948.481758,1771.9187 612.934355,1708.80114 510.353583,1685.18302 L615.127244,1576.38326 L575.797686,1556.24039 L720.667883,1402.67931 C823.722005,1268.40241 890.993132,1165.91137 922.481265,1095.20622 C927.387827,1084.18876 932.781108,1072.07839 938.661108,1058.87512 C965.815587,997.900983 1029.02816,855.344506 1128.29882,631.205691 L1183.49324,642.387954 L1332.9471,230.007177 Z" id="Path" fill="#000000" transform="translate(1462.853583, 984.007177) rotate(-1.000000) translate(-1462.853583, -984.007177) "></path>
                <path d="M1682.86307,468 C1751.81716,473.167326 1750.99709,399.55923 1813.60063,414.735538 C2177.95291,503.061564 2322.46909,721.240018 2322.46909,988.048537 C2322.46909,1143.44275 2236.51045,1289.62047 2088.17767,1395.60854 C1776.93561,1618 1184.12029,1620.60954 1148.60063,1618 C1480.54973,1589.14221 1856.46909,1415.98168 1856.46909,1159.46144 C1856.46909,955.485307 1654.46909,772.214097 1275.88082,702.434212 C1306.01682,651.371464 1332.09692,613.879104 1354.12113,589.957134 C1375.52375,566.710303 1499.52611,546.526127 1512.60063,527.551147 C1542.2901,484.462976 1613.90897,462.832674 1682.86307,468 Z" id="Path" fill="#D8D8D8"></path>
                <path d="M1371.27356,440.136437 C1367.99732,439.761882 1344.90517,498.328021 1341.60063,498 L1371.80666,412.735538 C1794.17955,444.392963 2186.68772,705.280122 2186.68772,986.138161 C2186.68772,990.683759 2186.60184,995.216422 2186.43108,999.735514 C2175.06547,723.660693 1787.9298,469.975494 1371.80666,438.786497 L1371.27356,440.136437 Z" id="Path" fill="#FFFFFF"></path>
                <path d="M1299.60063,598.735538 L1328.93769,511.735538 C1710.4213,540.318903 2064.93133,775.872897 2064.93133,1029.45852 C2064.93133,1033.56272 2064.85377,1037.65525 2064.69954,1041.73552 C2054.43422,792.468643 1704.77657,563.41727 1328.93769,535.256847 L1328.38768,536.64915 C1325.42765,536.313298 1302.58617,599.029306 1299.60063,598.735538 Z" id="Path" fill="#FFFFFF"></path>
                <path d="M1263.60063,706.235538 L1295.55401,617.735538 C1618.17501,641.896571 1917.98444,841.006362 1917.98444,1055.35798 C1917.98444,1058.8272 1917.91885,1062.28654 1917.78841,1065.73552 C1909.10702,855.034464 1613.40126,661.421228 1295.55401,637.617701 L1295.01411,638.983757 C1292.50993,638.701953 1266.12634,706.481631 1263.60063,706.235538 Z" id="Path" fill="#FFFFFF"></path>
                <path d="M1293.62546,619.998032 C1291.11819,619.715239 1288.59992,619.450229 1286.07105,619.203238 L1294.17177,598.735538 C1617.2421,622.896571 1917.46909,822.006362 1917.46909,1036.35798 C1917.46909,1039.8272 1917.4034,1043.28654 1917.27279,1046.73552 L1917.27279,1046.73554 C1908.57931,836.034464 1612.4617,642.421228 1294.17177,618.617701 L1293.62546,619.998032 Z" id="Combined-Shape-Copy-8" fill="#000000"></path>
                <g id="Group-17" transform="translate(1666.688644, 1414.058058) rotate(1.000000) translate(-1666.688644, -1414.058058) translate(1204.688644, 1201.058058)" fill="#000000">
                    <path d="M923.725608,0.934684368 C924.063643,3.49559168 926.130896,39.8858711 902.812573,88.3432373 C826.997689,245.89272 659.2,358.263609 349.101051,397.024225 C288.22307,410.369199 220.123245,419.3958 144.1378,423.66928 L0.919639686,425.934684 C2.59304309,425.811163 48.1502063,420.906764 137.591129,411.221489 C453.576662,393.450219 743.882964,209.981103 762.727603,62.2575375 C762.857273,64.832484 761.969025,101.258023 734.766268,148.197452 C686.11438,232.148204 610.792457,300.790921 500.825149,348.90191 C737.826815,276.609826 918.154409,122.341282 923.725608,0.934684368 Z" id="Path"></path>
                </g>
                <path d="M1325.3629,514.594847 C1322.39179,514.259778 1319.40764,513.945814 1316.41092,513.653237 L1325.87477,489.735538 C1708.70637,518.372834 2064.46909,754.371269 2064.46909,1008.43536 C2064.46909,1012.5473 2064.39125,1016.64755 2064.23648,1020.73552 L2064.23648,1020.73554 C2053.93488,770.998328 1703.0417,541.514782 1325.87477,513.301227 L1325.3629,514.594847 Z" id="Combined-Shape-Copy-9" fill="#000000"></path>
                <path d="M1368.48345,419.038245 C1365.15973,418.664457 1361.82143,418.314228 1358.46909,417.987872 L1369.25144,390.735538 C1797.46566,422.770479 2195.40213,686.768729 2195.40213,970.976012 C2195.40213,975.575816 2195.31507,980.162532 2195.14195,984.735514 L2195.14195,984.735538 C2183.61915,705.368489 1791.12948,448.658083 1369.25144,417.097156 L1368.48345,419.038245 Z" id="Combined-Shape-Copy-12" fill="#000000"></path>
                <g id="Group-16" transform="translate(1422.561049, 1129.027542) rotate(-2.000000) translate(-1422.561049, -1129.027542) translate(1065.061049, 698.027542)">
                    <path d="M186.962575,152.331868 C260.682571,157.621135 273.136685,82.1131192 340.050505,104.16438 C557.225957,175.733938 714.384793,321.132521 714.384793,473.427319 C714.384793,687.9825 432.604936,861.913841 85.011866,861.913841 C60.1051099,861.913841 35.5362671,861.020803 11.3847932,859.283771 C231.711707,840.534983 401.39679,723.824359 401.39679,582.645963 C401.39679,460.343616 300.618347,340.134993 68.9759288,291.737156 C60.0604786,289.874421 57.8209363,284.732016 62.2573019,276.309941 C66.6264368,258.260585 76.0682147,241.001072 90.5826358,224.531401 C94.0343106,220.614748 122.21738,218.533673 126.974736,213.931497 C137.015279,204.218467 157.011225,183.685257 186.962575,152.331868 Z" id="Path" fill="#D8D8D8"></path>
                    <g id="Group" transform="translate(375.658510, 328.587301) rotate(3.000000) translate(-375.658510, -328.587301) translate(49.658510, 97.587301)">
                        <path d="M42.5936821,66.4915274 C40.4813247,66.2514685 38.3596584,66.0263725 36.2290284,65.8164388 L43.1987364,48.2339625 C315.494455,68.565903 568.536953,236.120348 568.536953,416.501065 C568.536953,419.420469 568.48159,422.331566 568.371503,425.233947 L568.371503,425.233962 C561.044313,247.925246 311.465357,84.9962509 43.1987364,64.9651575 L42.5936821,66.4915274 Z" id="Combined-Shape-Copy-10" fill="#000000"></path>
                        <path d="M12.6154472,137.604682 C10.7818989,137.395901 8.94027442,137.200177 7.09087381,137.017686 L13.4047747,121.052183 C249.753864,138.741511 469.391411,284.518322 469.391411,441.45433 C469.391411,443.994289 469.343357,446.527021 469.247803,449.05217 L469.247804,449.052183 C462.887899,294.788897 246.25666,153.036349 13.4047747,135.608767 L12.6154472,137.604682 Z" id="Combined-Shape-Copy-11" fill="#000000"></path>
                        <path d="M90.1617003,19.3720159 C87.9053987,19.1072113 72.0021467,60.5125753 69.7263589,60.2806698 L90.5288379,9.09494702e-13 C381.411316,22.3813147 651.726359,206.824544 651.726359,405.38688 C651.726359,408.600547 651.667217,411.805071 651.549615,415 C643.722275,219.819327 377.107194,40.4677727 90.5288379,18.4176292 L90.1617003,19.3720159 Z" id="Path-Copy-3" fill="#FFFFFF"></path>
                        <path d="M36.0488743,125.316238 L56.4801091,63.1030275 C322.157107,83.5428305 569.048874,251.986165 569.048874,433.323816 C569.048874,436.258708 568.994857,439.185249 568.887446,442.103027 C561.738359,263.85369 318.225945,100.060343 56.4801091,79.9229828 L56.0970666,80.9186112 C54.0356123,80.6784448 38.1280975,125.526309 36.0488743,125.316238 Z" id="Path-Copy-4" fill="#FFFFFF"></path>
                        <path d="M0.550162077,197.809977 L23.353642,133.015331 C253.591624,150.70466 467.550162,296.481477 467.550162,453.417492 C467.550162,455.957451 467.503351,458.490183 467.410267,461.015331 C461.214806,306.752052 250.184845,164.999499 23.353642,147.571915 L22.9683388,148.572064 C21.1812399,148.365743 2.35262568,197.990152 0.550162077,197.809977 Z" id="Path-Copy-5" fill="#FFFFFF"></path>
                    </g>
                    <path d="M119.524409,0.689796697 L1.3636966,265.484965 L30.6593418,275.321222 L148.820054,10.5260537 L119.524409,0.689796697 Z" id="Rectangle" stroke="#979797" fill="#D8D8D8"></path>
                </g>
                <rect id="Rectangle-Copy-7" stroke="#979797" fill="#D8D8D8" transform="translate(1301.997885, 488.793070) rotate(19.000000) translate(-1301.997885, -488.793070) " x="1287.29789" y="276.29307" width="29.4" height="425"></rect>
                <path d="M690.91876,1589.89845 C809.250556,1612.99409 1179.96719,1710.4983 1765.60063,1556 C1342.26398,1710.4983 908.275845,1699.55503 638.600633,1636.60454 L690.91876,1589.89845 Z" id="Path-Copy" fill="#FFFFFF"></path>
                <path d="M747.218943,1444.21371 C803.540459,1478.25377 868.604,1531.88513 1037.34191,1556.91026 C1198.30051,1580.78167 1403.17879,1555.85985 1372.41957,1563.50886 C1241.75495,1596.00175 981.114035,1612.40627 680.513592,1508.43483 L747.218943,1444.21371 Z" id="Path-Copy-2" fill="#FFFFFF" transform="translate(1028.013592, 1516.213713) rotate(-5.000000) translate(-1028.013592, -1516.213713) "></path>
                <g id="Group-20-Copy-3" transform="translate(752.000000, 135.293982)">
                    <g id="Group-21" transform="translate(0.000000, -0.293982)">
                        <ellipse id="Oval-Copy-25" stroke="#000000" stroke-width="42" fill="#FFFFFF" cx="139.358547" cy="596.584625" rx="130.410775" ry="99.8787479"></ellipse>
                        <ellipse id="Oval-Copy-26" fill="#D8D8D8" cx="139.358547" cy="581.352867" rx="109.410775" ry="78.8787479"></ellipse>
                        <path d="M225.174206,568.581411 C213.74868,597.887219 178.840411,617.540634 139.358547,617.540634 C91.0637544,617.540634 49.6122223,588.134134 49.6122223,547.625402 C49.6122223,547.395052 49.6136286,547.164776 49.61644,546.934582 L49.612008,102.356129 L229.104872,102.356129 L229.104872,568.581411 L225.17421,568.581411 Z" id="Combined-Shape" stroke="#000000" stroke-width="43" fill="#D8D8D8" stroke-linecap="round" stroke-linejoin="round"></path>
                        <ellipse id="Oval-Copy-21" fill="#000000" cx="139.358547" cy="158.127585" rx="100.744575" ry="72.3508515"></ellipse>
                        <ellipse id="Oval-Copy-17" stroke="#000000" stroke-width="42" fill="#D8D8D8" cx="139.358547" cy="111.344328" rx="121.744575" ry="93.3508515"></ellipse>
                        <path d="M103.959893,80.1286048 C150.705592,31.6687681 251.24236,152.25933 230.747936,79.9611505 C210.253513,7.66297123 138.785348,31.6845116 92.1032795,31.7461666 C45.4212109,31.8078215 7.54942877,53.5264068 7.51428669,80.2559845 C7.4791446,106.985562 57.2141936,128.588441 103.959893,80.1286048 Z" id="Oval-Copy-27" fill="#000000" transform="translate(120.491099, 68.405501) rotate(-15.000000) translate(-120.491099, -68.405501) "></path>
                        <rect id="Rectangle" fill="#000000" x="168.606972" y="213.070713" width="18.4156749" height="330.74675" rx="9.20783746"></rect>
                        <rect id="Rectangle-Copy-8" fill="#000000" x="130.692347" y="227.214488" width="18.4156749" height="330.74675" rx="9.20783746"></rect>
                        <rect id="Rectangle-Copy-9" fill="#000000" x="92.7777222" y="213.070713" width="18.4156749" height="330.74675" rx="9.20783746"></rect>
                    </g>
                    <path d="M103.918809,68.0803174 C139.752376,40.9441687 217.062322,108.599083 201.251305,68.0610442 C185.440289,27.5230057 127.810106,26.6384675 91.9732698,26.6455637 C56.136434,26.6526599 29.8777536,53.1120163 29.8795588,68.0949783 C29.881364,83.0779402 68.0852414,95.2164661 103.918809,68.0803174 Z" id="Oval-Copy-29" fill="#F9F9F9" transform="translate(116.617650, 55.421281) rotate(-15.000000) translate(-116.617650, -55.421281) "></path>
                </g>
                <g id="Group-20-Copy-2" transform="translate(529.000000, 393.293982)">
                    <g id="Group-21" transform="translate(3.000000, 22.706018)">
                        <ellipse id="Oval-Copy-25" stroke="#000000" stroke-width="42" fill="#FFFFFF" cx="117.946561" cy="598.788439" rx="138.807576" ry="105.634667"></ellipse>
                        <ellipse id="Oval-Copy-26" fill="#D8D8D8" cx="117.946561" cy="582.445193" rx="117.807576" ry="84.6346667"></ellipse>
                        <path d="M209.184845,567.17289 C197.550809,598.52689 160.270233,619.704752 117.946561,619.704752 C66.7674901,619.704752 22.9626272,588.737675 22.9626272,546.256577 C22.9626272,546.012472 22.9641414,545.768448 22.9671687,545.524515 L22.9624121,70.0641264 L212.930495,70.0641264 L212.930495,567.17289 L209.184845,567.17289 Z" id="Combined-Shape" stroke="#000000" stroke-width="43" fill="#D8D8D8" stroke-linecap="round" stroke-linejoin="round"></path>
                        <ellipse id="Oval-Copy-21" fill="#000000" cx="117.946561" cy="128.33643" rx="108.476283" ry="77.6304184"></ellipse>
                        <ellipse id="Oval-Copy-17" stroke="#000000" stroke-width="42" fill="#D8D8D8" cx="117.946561" cy="78.1393172" rx="129.476283" ry="98.6304184"></ellipse>
                        <rect id="Rectangle" fill="#000000" x="149.439675" y="187.288853" width="19.828998" height="354.881913" rx="9.914499"></rect>
                        <rect id="Rectangle-Copy-8" fill="#000000" x="108.615268" y="202.464724" width="19.828998" height="354.881913" rx="9.914499"></rect>
                        <rect id="Rectangle-Copy-9" fill="#000000" x="67.7908602" y="187.288853" width="19.828998" height="354.881913" rx="9.914499"></rect>
                    </g>
                    <path d="M93.729322,85.2986865 C73.9170595,100.391261 51.6417215,106.738821 31.8525036,104.582632 C13.0755854,102.53674 -1.25358558,92.7153202 -1.25893473,79.3282565 C-1.26347221,67.9725343 8.71337028,52.4349861 23.3805907,39.8239552 C39.9059582,25.61527 60.0824622,16.862827 80.415192,16.8646235 C105.349626,16.8668266 129.621292,20.1986874 150.276323,27.6656838 C176.978052,37.3186204 196.186568,53.3552347 205.2148,76.6298839 C208.179053,84.2716832 209.011922,89.9229256 206.99753,94.6133769 C204.449144,100.547214 198.886219,102.428389 192.171879,101.670728 C188.098678,101.211099 183.291129,99.8154787 176.501871,97.3254476 C172.929891,96.0153871 159.324786,90.6940441 157.790026,90.1087246 C148.116983,86.4196652 140.569326,83.897824 133.317454,82.0928807 C115.702624,77.708665 102.658279,78.4967907 93.729322,85.2986865 Z" id="Oval-Copy-28" stroke="#000000" stroke-width="15" fill="#F9F9F9" transform="translate(103.411853, 60.924015) rotate(-15.000000) translate(-103.411853, -60.924015) "></path>
                </g>
                <g id="Group-20-Copy" transform="translate(342.000000, 714.293982)">
                    <g id="Group-21" transform="translate(1.000000, -0.293982)">
                        <ellipse id="Oval-Copy-25" stroke="#000000" stroke-width="42" fill="#FFFFFF" cx="131.402138" cy="677.718712" rx="152.327724" ry="114.641351"></ellipse>
                        <ellipse id="Oval-Copy-26" fill="#D8D8D8" cx="131.402138" cy="659.636244" rx="131.327724" ry="93.6413507"></ellipse>
                        <path d="M231.3257,640.450692 C219.378749,675.007474 178.29088,698.572909 131.402138,698.572909 C75.5830147,698.572909 27.9848451,665.17615 27.9848451,619.596494 C27.9848451,619.330838 27.9865331,619.065276 27.9899079,618.799816 L27.9846284,95.0164099 L234.819432,95.0164099 L234.819432,640.450692 L231.3257,640.450692 Z" id="Combined-Shape" stroke="#000000" stroke-width="43" fill="#D8D8D8" stroke-linecap="round" stroke-linejoin="round"></path>
                        <ellipse id="Oval-Copy-21" fill="#000000" cx="131.402138" cy="157.201962" rx="120.925528" ry="85.8917217"></ellipse>
                        <ellipse id="Oval-Copy-17" stroke="#000000" stroke-width="42" fill="#D8D8D8" cx="131.402138" cy="101.662954" rx="141.925528" ry="106.891722"></ellipse>
                        <path d="M98.5929789,79.0021168 C143.050661,45.3960309 239.202338,129.492149 219.488097,79.1595969 C199.773856,28.8270446 128.190667,27.6220296 83.6783139,27.564047 C39.1659606,27.5060644 6.59983155,60.2901726 6.6300259,78.8823242 C6.66022026,97.4744758 54.1352973,112.608203 98.5929789,79.0021168 Z" id="Oval-Copy-27" fill="#F9F9F9" transform="translate(114.373951, 63.241125) rotate(-15.000000) translate(-114.373951, -63.241125) "></path>
                        <rect id="Rectangle" fill="#000000" x="166.50955" y="222.428007" width="22.1046665" height="392.647871" rx="11.0523332"></rect>
                        <rect id="Rectangle-Copy-8" fill="#000000" x="120.999942" y="239.218869" width="22.1046665" height="392.647871" rx="11.0523332"></rect>
                        <rect id="Rectangle-Copy-9" fill="#000000" x="75.490335" y="222.428007" width="22.1046665" height="392.647871" rx="11.0523332"></rect>
                    </g>
                </g>
                <g id="Group-20" transform="translate(808.600633, 1102.000000)">
                    <path d="M3.20110605e-12,189.055894 C11.9464533,262.141315 115.422536,320.310201 242.601794,322.072051 C369.946427,323.836191 476.027531,268.422714 490.963599,195.572807 L486.751857,244.326706 L486.469844,246.165872 C480.374402,324.515795 376.412825,381.812282 242.795855,379.95617 C113.092465,378.154423 11.7121494,319.65279 3.24026996,244.326706 L3.19966276e-12,189.055894 Z M492.563941,172 L493,172 L492.721784,175.220543 C492.688925,174.144325 492.636243,173.070769 492.563941,172 Z" id="Combined-Shape" fill="#D8D8D8"></path>
                    <path d="M242.847489,303.957263 C108.653825,301.986476 1.27979416,232.355253 3.02087805,148.431574 C4.76196194,64.5078949 114.958848,-1.92805034 249.152511,0.0427369942 C383.346175,2.01352433 490.720206,71.6447472 488.979122,155.568426 C487.238038,239.492105 377.041152,305.92805 242.847489,303.957263 Z" id="Oval-Copy-18" fill="#D8D8D8"></path>
                    <path d="M3.00066146,282.052681 C2.99774651,281.262686 3.00446239,280.471373 3.02087805,279.678788 C4.76196194,195.615333 114.958848,129.068738 249.152511,131.042808 C383.346175,133.016878 490.720206,202.764072 488.979122,286.827527 C488.858714,292.641085 488.219599,298.370866 487.089712,304 C486.783461,221.001252 380.171315,152.544632 247.242885,150.589174 C122.329623,148.751625 18.2088282,206.285113 3.00066146,282.052681 L3.00066146,282.052681 Z" id="Path" fill="#FFFFFF" transform="translate(246.000000, 217.500000) scale(1, -1) translate(-246.000000, -217.500000) "></path>
                    <path d="M36.0000015,95.5931318 C58.3620736,154.35392 141.682643,198 241.049925,198 C357.554435,198 452.000001,138.001015 452.000001,63.9885157 C452.000001,48.579984 447.906509,33.7788309 440.372696,20 C444.229338,30.1340911 446.27285,40.7177489 446.27285,51.6046161 C446.27285,125.617115 351.827284,185.6161 235.322773,185.6161 C143.07313,185.6161 64.6536918,147.998783 36,95.5931292 Z" id="Combined-Shape" fill="#000000" transform="translate(244.000001, 109.000000) scale(-1, -1) translate(-244.000001, -109.000000) "></path>
                    <path d="M336.61614,180.936771 L174.842229,245.731219 C165.760256,249.368773 156.279777,244.918044 153.666987,235.790238 C153.058223,233.663516 152.863581,231.393207 153.093739,229.103866 L166.305242,97.6914068 C167.293071,87.8656443 175.712911,79.9450602 185.11148,80.0002871 C187.301288,80.0131546 189.426094,80.4677484 191.369327,81.3391285 L339.931735,147.95714 C348.272015,151.697069 351.430621,162.094815 346.986678,171.181156 C344.808787,175.634196 341.06704,179.154076 336.61614,180.936771 Z" id="Triangle-2" fill="#000000" transform="translate(251.000000, 163.500000) rotate(13.000000) translate(-251.000000, -163.500000) "></path>
                    <path d="M331.70991,162.936142 L189.91498,219.441131 C181.954625,222.613316 173.64498,218.731989 171.354867,210.771946 C170.821285,208.917306 170.650681,206.937448 170.852415,204.940993 L182.432305,90.3407487 C183.298139,81.7720423 190.678133,74.8647758 198.915984,74.9129372 C200.835352,74.9241585 202.697746,75.320594 204.400991,76.0804944 L334.616031,134.17575 C341.926292,137.437212 344.694811,146.504726 340.799692,154.428608 C338.89077,158.31195 335.611126,161.381515 331.70991,162.936142 Z" id="Triangle-2-Copy" fill="#F9F9F9" transform="translate(256.667312, 147.730139) rotate(13.000000) translate(-256.667312, -147.730139) "></path>
                </g>
                <g id="Group-3-Copy" transform="translate(2097.000000, 200.000000)">
                    <g id="Group-20-Copy-8" transform="translate(0.000000, 126.000000)">
                        <g id="Group-20-Copy-4">
                            <g id="Group-21">
                                <path d="M94.2412755,226.753142 C70.7862635,226.753142 48.4450995,221.637921 31.2996074,212.356705 C12.279335,202.06063 0.623878352,187.143665 0.623878352,170.496902 C0.623878352,153.850139 12.279335,138.933173 31.2996074,128.637099 C48.4450995,119.355883 70.7862635,114.240662 94.2412755,114.240662 C117.696288,114.240662 140.037452,119.355883 157.182944,128.637099 C176.203216,138.933173 187.858673,153.850139 187.858673,170.496902 C187.858673,187.143665 176.203216,202.06063 157.182944,212.356705 C140.037452,221.637921 117.696288,226.753142 94.2412755,226.753142 Z" id="Path" fill="#000000" fill-rule="nonzero"></path>
                                <path d="M94.2412755,208.155888 C132.312104,208.155888 163.174609,191.295386 163.174609,170.496902 C163.174609,149.698418 132.312104,132.837916 94.2412755,132.837916 C56.1704468,132.837916 25.3079422,149.698418 25.3079422,170.496902 C25.3079422,191.295386 56.1704468,208.155888 94.2412755,208.155888 Z" id="Path" fill="#FFFFFF" fill-rule="nonzero"></path>
                                <path d="M94.2412755,199.775614 C131.261772,199.775614 161.272814,183.530005 161.272814,163.490031 C161.272814,143.450056 131.261772,127.204447 94.2412755,127.204447 C57.220779,127.204447 27.2097369,143.450056 27.2097369,163.490031 C27.2097369,183.530005 57.220779,199.775614 94.2412755,199.775614 Z" id="Oval-Copy-26" fill="#D8D8D8" fill-rule="nonzero"></path>
                                <path d="M163.271883,147.974815 C163.271883,161.103631 154.103255,172.650343 139.55116,180.401799 C127.020193,187.076662 110.969857,190.692805 94.2412755,190.692805 C77.5126939,190.692805 61.4623584,187.076662 48.931391,180.401799 C34.3792962,172.650343 25.2106685,161.103631 25.2106685,147.974815 C25.2106685,147.849202 25.2115297,147.723615 25.2132517,147.598056 L25.2106685,61.8264753 C25.2105186,50.5342997 37.3968591,41.380123 52.4295237,41.380123 L136.053027,41.380123 C151.085586,41.380123 163.271883,50.5341754 163.271883,61.8262714 L163.271883,147.72457 C163.271883,147.760493 163.271759,147.796394 163.271513,147.832273 C163.271759,147.879784 163.271883,147.927298 163.271883,147.974815 Z" id="Path" fill="#000000" fill-rule="nonzero"></path>
                                <path d="M136.050442,147.72457 L136.053027,147.72457 L136.053027,61.8262714 L52.4295237,61.8262714 L52.4321086,147.72457 C52.4303869,147.807876 52.4295237,147.891292 52.4295237,147.974815 C52.4295237,160.275214 71.1492827,170.246657 94.2412755,170.246657 C117.333268,170.246657 136.053027,160.275214 136.053027,147.974815 C136.053027,147.891292 136.052164,147.807876 136.050442,147.72457 Z" id="Path" fill="#D8D8D8" fill-rule="nonzero"></path>
                                <path d="M94.2412755,109.323923 C72.2314724,109.323923 51.243608,104.537082 35.0934686,95.8283831 C17.0447593,86.0959116 5.93330715,71.9300152 5.93330715,56.0706271 C5.93330715,40.211239 17.0447593,26.0453426 35.0934686,16.3128711 C51.243608,7.6041724 72.2314724,2.81733156 94.2412755,2.81733156 C116.251079,2.81733156 137.238943,7.6041724 153.389083,16.3128711 C171.437792,26.0453426 182.549244,40.211239 182.549244,56.0706271 C182.549244,71.9300152 171.437792,86.0959116 153.389083,95.8283831 C137.238943,104.537082 116.251079,109.323923 94.2412755,109.323923 Z" id="Path" fill="#000000" fill-rule="nonzero"></path>
                                <path d="M94.2412755,89.353266 C128.329456,89.353266 155.963385,74.452121 155.963385,56.0706271 C155.963385,37.6891332 128.329456,22.7879882 94.2412755,22.7879882 C60.1530956,22.7879882 32.5191657,37.6891332 32.5191657,56.0706271 C32.5191657,74.452121 60.1530956,89.353266 94.2412755,89.353266 Z" id="Path" fill="#D8D8D8" fill-rule="nonzero"></path>
                                <path d="M73.4197051,40.9741806 C99.7316644,19.9701554 164.900263,80.5134786 149.794782,45.7337365 C134.689301,10.9539944 92.5511016,19.5226758 64.4305747,17.7702557 C36.3100478,16.0178356 14.32358,24.785626 15.3224242,37.3536637 C16.3212685,49.9217014 47.1077457,61.9782058 73.4197051,40.9741806 Z" id="Oval-Copy-27" fill="#000000" transform="translate(83.663836, 37.152192) rotate(-15.000000) translate(-83.663836, -37.152192) "></path>
                                <path d="M117.801866,102.866518 L117.801866,102.866518 C120.917452,102.866518 123.443134,105.3922 123.443134,108.507786 L123.443134,140.58183 C123.443134,143.697416 120.917452,146.223098 117.801866,146.223098 L117.801866,146.223098 C114.686279,146.223098 112.160598,143.697416 112.160598,140.58183 L112.160598,108.507786 C112.160598,105.3922 114.686279,102.866518 117.801866,102.866518 Z" id="Rectangle" fill="#000000"></path>
                                <path d="M94.5731148,102.829937 L94.5731148,102.829937 C97.6887012,102.829937 100.214383,105.355619 100.214383,108.471205 L100.214383,147.08821 C100.214383,150.203796 97.6887012,152.729478 94.5731148,152.729478 L94.5731148,152.729478 C91.4575285,152.729478 88.9318467,150.203796 88.9318467,147.08821 L88.9318467,108.471205 C88.9318467,105.355619 91.4575285,102.829937 94.5731148,102.829937 Z" id="Rectangle-Copy-8" fill="#000000"></path>
                                <path d="M71.3443638,102.866518 L71.3443638,102.866518 C74.4599502,102.866518 76.9856319,105.3922 76.9856319,108.507786 L76.9856319,140.58183 C76.9856319,143.697416 74.4599502,146.223098 71.3443638,146.223098 L71.3443638,146.223098 C68.2287775,146.223098 65.7030957,143.697416 65.7030957,140.58183 L65.7030957,108.507786 C65.7030957,105.3922 68.2287775,102.866518 71.3443638,102.866518 Z" id="Rectangle-Copy-9" fill="#000000"></path>
                            </g>
                            <path d="M73.2162171,35.6341872 C93.7680573,24.2410498 142.923969,59.0054429 131.851917,39.3393846 C120.779865,19.6733263 86.0277108,17.0581802 64.4386423,15.6939641 C42.8495738,14.3297481 28.0401471,25.770012 28.6129925,32.8157037 C29.1858379,39.8613954 52.664377,47.0273246 73.2162171,35.6341872 Z" id="Oval-Copy-29" fill="#F9F9F9" transform="translate(81.026284, 30.538486) rotate(-15.000000) translate(-81.026284, -30.538486) "></path>
                        </g>
                    </g>
                    <g id="Group-23" transform="translate(98.364142, 114.762059) rotate(2.000000) translate(-98.364142, -114.762059) translate(3.864142, 3.262059)">
                        <g id="Group-2" transform="translate(0.786260, 0.514592)">
                            <path d="M149.199054,114.121665 C159.168999,118.296236 164.539908,120.996077 169.720558,124.973734 C176.747672,130.369089 181.209198,137.03914 182.82248,145.594451 C184.877359,156.493013 185.970659,167.346689 187.104031,184.929833 C187.209311,186.56315 182.217065,216.227586 135.48538,217.851761 C121.643016,218.332857 108.698677,221.026065 94.4031299,221.026065 C49.5866141,221.026065 21.9215335,209.471508 5.15567254,188.951559 L4.39273104,188.017785 L4.24700724,186.823015 C4.1102841,185.70204 3.9562305,184.583083 3.78488484,183.466541 C3.74669434,183.217167 3.36847185,180.80726 3.23019394,179.901008 C2.96081871,178.135566 2.72277933,176.478609 2.49612434,174.755034 C1.26130947,165.365008 0.688754705,156.4536 1.08931527,147.950739 C1.43421766,140.629357 2.50416725,134.073333 4.44113573,128.425765 C7.94812087,118.20054 19.1742067,109.235358 28.431346,107.529005 C32.3188573,106.811516 35.5904936,105.925888 42.2720242,103.904372 C42.4908606,103.838156 42.4908606,103.838156 42.7099745,103.771841 C45.6050196,102.895673 47.1050036,102.449062 48.7120851,101.996423 L51.2408477,100.379682 C53.7130178,97.8945111 56.1699876,97.2698714 60.932027,96.9210198 L60.9430529,96.9202121 C63.6468971,96.7221408 64.6483797,96.5044677 65.3213633,95.8827059 C66.7394945,92.5295713 66.3969754,90.694164 63.7708953,87.8659109 C63.5204383,87.5983315 62.257284,86.2695396 61.8923769,85.8786892 C56.5455501,80.1517273 54.2385844,75.4601526 55.6658713,69.1031215 C55.4872808,66.9650647 54.9232769,64.965041 53.4797744,60.7869629 C51.2741048,54.4028669 50.4443752,50.9290938 50.823645,46.7989075 C45.0951229,37.8384994 46.0282674,26.048179 53.2413334,18.1032851 C64.0506265,0.114873645 95.7548162,-6.43732392 109.589524,7.65201281 C121.724262,19.4820596 127.423077,36.4724134 124.899183,53.2098723 C124.486328,56.2226056 123.474723,58.2515409 121.112648,61.8506304 C120.859484,62.236016 120.741278,62.4162272 120.617766,62.6059417 C118.616247,65.6802545 118.207742,67.0003637 118.813563,68.9025317 L119.210809,70.1498131 L118.820928,71.3993944 C118.683928,71.8384854 118.581482,72.2529258 118.356391,73.2458164 C117.709735,76.0982509 117.29819,77.3783161 116.201209,78.9675032 C115.093592,80.5720982 113.58007,81.7121706 111.704255,82.3492168 C111.49478,84.6145359 111.688113,87.1541283 112.242801,91.6214102 C112.299732,92.0799191 112.324484,92.2799415 112.35564,92.534339 C112.50074,93.7191344 112.610644,94.6928474 112.693971,95.579307 C124.377418,102.67358 136.577862,108.871054 149.199054,114.121665 Z" id="Path" fill="#000000" fill-rule="nonzero"></path>
                            <path d="M111.068768,55.283636 C110.211935,59.5343927 109.103166,65.4904094 109.103166,65.4904094 C104.36282,62.1854593 101.137346,57.1876356 100.122319,51.5747252 C99.5164712,48.1393147 99.3140271,43.8883899 96.2620655,42.4050361 C95.1288105,41.9745548 93.9209002,41.7645005 92.7058242,41.7866095 C86.2798299,41.5487433 79.9348293,40.2959086 73.9156847,38.076454 C70.9898865,36.9638375 64.7597527,33.3298186 61.5569461,34.8616089 C60.4675948,35.3956768 59.1550843,35.2187483 58.2529411,34.4162237 C57.0181813,33.2351754 56.9084095,31.3257558 58.0000317,30.017004 C58.1781274,29.7954654 58.3303616,29.5550872 58.4538932,29.3003557 C58.3025877,29.4239042 58.4538696,29.1520688 58.4538302,28.9049238 C58.4457783,28.4814059 58.4880301,28.0584234 58.5797338,27.6445047 C58.7178046,27.0020622 59.0519564,26.4160012 59.5378592,25.9640713 C59.5067044,22.320632 61.144492,18.8560326 64.0004496,16.5238435 C72.4481699,8.54240302 90.7332818,8.4217321 97.670596,18.3086298 C98.5960287,17.8772847 99.6706469,17.8774552 100.596217,18.309094 C107.709034,21.6466792 110.560221,29.3580531 111.570237,36.772561 C112.180373,41.5194661 112.274135,46.3162995 111.849946,51.0822963 C111.799575,51.5271492 111.471971,53.2076827 111.068768,55.283636 Z" id="Path" fill="#FFFFFF" fill-rule="nonzero" transform="translate(84.679701, 38.095731) rotate(-3.000000) translate(-84.679701, -38.095731) "></path>
                            <path d="M68.3788238,148.788039 C67.5547504,152.897101 73.5389543,177.656628 73.5389543,177.656628 C69.0061851,174.467131 58.8736217,150.637905 57.9078596,145.214194 C57.3315,141.894568 54.7083339,135.472757 51.7893825,134.042126 C50.7053988,133.627187 36.8471149,127.689727 31.0896027,125.550578 C28.2910125,124.478129 15.0401257,107.485344 17.7752687,105.228564 C30.1449883,108.32288 47.873791,107.679211 59.3725525,115.634228 C64.1147867,118.914977 68.5967773,128.805077 68.8768552,130.897169 C69.45603,135.484309 69.5410403,140.120208 69.130455,144.72681 C69.0818184,145.156796 68.7666857,146.7813 68.3788238,148.788039 Z" id="Path-Copy-6" fill="#FFFFFF" fill-rule="nonzero" transform="translate(45.472318, 141.442596) rotate(-104.000000) translate(-45.472318, -141.442596) "></path>
                            <path d="M69.0028728,62.016516 C68.3009541,60.8404521 69.7625066,58.4047823 70.2885944,57.0819191 C70.5224112,56.49398 71.0775372,53.9111723 72.3639946,53.5963891 C73.1241735,53.4075174 73.0077468,56.725365 72.9785447,56.9563511 C73.132541,57.7975243 72.9711801,58.6528986 72.5111185,59.4341769 C71.6648079,60.4943188 70.4577322,61.3828195 69.0028728,62.016516 L69.0028728,62.016516 Z" id="Path" fill="#C4C3C6" fill-rule="nonzero" transform="translate(70.925492, 57.802571) rotate(-3.000000) translate(-70.925492, -57.802571) "></path>
                            <path d="M168.350963,143.035177 C168.36349,143.087454 168.37588,143.139849 168.388133,143.192361 C164.49625,163.849748 156.432978,183.410683 144.295781,201.653695 C130.730209,205.386706 117.399535,206.893313 106.462982,207.477901 C106.540418,207.43253 106.617787,207.387126 106.695086,207.341689 C122.378749,198.125736 136.53888,188.495117 147.068429,177.092001 C156.588522,166.896227 165.387773,155.443517 168.350963,143.035177 L168.350963,143.035177 Z M93.1857739,207.826159 C92.9915843,207.8265 92.7992448,207.826662 92.608783,207.826662 C80.2963852,207.826662 69.775617,206.812929 60.7548344,205.057075 C70.5428337,199.601591 80.0579446,194.013006 89.730346,188.515 C119.324345,171.8545 151.789697,154.824745 152.452411,128.375872 C159.161493,130.638868 159.630006,134.896502 158.598586,137.763393 C153.787765,151.182397 147.374733,164.182696 137.003026,175.814206 C135.008272,178.03752 132.880624,180.211288 130.620081,182.335509 C128.209781,184.546833 125.634158,186.705611 123.06492,188.840685 C114.310594,195.709172 104.329509,202.04992 93.1857739,207.826159 L93.1857739,207.826159 Z M56.8293658,204.225489 C40.3171885,200.43369 29.198422,194.043583 21.3951435,186.990357 C23.379643,184.643011 25.407044,182.312148 27.4551116,179.990556 C28.6691114,178.518865 35.2252393,177.57379 37.8638433,176.735983 C41.9189529,175.451552 45.9122263,174.125229 49.8436637,172.757014 C57.4449642,170.103279 64.8378946,167.334709 72.0224547,164.451304 C72.7291767,170.809357 75.1411906,177.471356 79.2035939,184.285659 C79.5575221,184.896612 83.1526615,185.838196 84.315333,185.741686 C85.156988,186.153217 86.1277041,186.479608 87.1130439,186.682381 C78.9104648,191.914014 70.3122231,196.961117 61.3183189,201.823689 C59.828995,202.627644 58.3326773,203.428245 56.8293658,204.225489 L56.8293658,204.225489 Z M83.7404634,158.800628 C85.8724808,151.750354 89.9829296,145.287282 92.8419779,138.422314 C93.7344697,137.969183 94.5201979,137.462786 95.1923278,136.907527 C96.5722112,135.557999 97.5324628,134.05014 98.0533885,132.414876 C101.482076,124.660929 108.990194,118.131129 112.438945,110.519037 C117.89498,110.310043 127.63774,115.603597 134.007878,119.068014 C133.26999,122.338216 132.005099,125.46796 130.222889,128.433281 C120.512814,141.696104 110.800799,154.821903 97.6342865,166.711011 C96.6583541,167.594044 98.3945186,169.080723 100.79021,168.695662 C101.486205,168.542347 102.026516,168.286799 102.370606,167.948194 C119.674564,154.706077 133.057939,139.827701 142.295041,123.563966 C146.036379,124.817414 146.08944,127.288657 145.272479,128.879537 C143.522917,132.394482 141.543807,135.848226 139.33515,139.240768 C127.733066,157.22048 110.029113,172.83109 88.9872026,186.988663 C83.8559957,176.833072 81.081236,167.664073 83.7404634,158.800628 Z" id="Shape" fill="#D8D8D8"></path>
                        </g>
                    </g>
                </g>
                <g id="Group-3-Copy-3" transform="translate(1084.918004, 1591.000000) scale(-1, 1) translate(-1084.918004, -1591.000000) translate(945.418004, 1352.000000)">
                    <g id="Group-20-Copy-8" transform="translate(11.000000, 177.000000)">
                        <g id="Group-20-Copy-4">
                            <g id="Group-21">
                                <path d="M122.814428,300.67945 C92.2480562,300.67945 63.1332413,294.037226 40.789382,281.985371 C16.0023249,268.615701 0.813032959,249.245706 0.813032959,227.629532 C0.813032959,206.013357 16.0023249,186.643362 40.789382,173.273692 C63.1332413,161.221837 92.2480562,154.579613 122.814428,154.579613 C153.3808,154.579613 182.495615,161.221837 204.839474,173.273692 C229.626532,186.643362 244.815824,206.013357 244.815824,227.629532 C244.815824,249.245706 229.626532,268.615701 204.839474,281.985371 C182.495615,294.037226 153.3808,300.67945 122.814428,300.67945 Z" id="Path" fill="#000000" fill-rule="nonzero"></path>
                                <path d="M122.814428,276.530522 C172.428008,276.530522 212.647762,254.636803 212.647762,227.629532 C212.647762,200.62226 172.428008,178.728541 122.814428,178.728541 C73.2008482,178.728541 32.9810949,200.62226 32.9810949,227.629532 C32.9810949,254.636803 73.2008482,276.530522 122.814428,276.530522 Z" id="Path" fill="#FFFFFF" fill-rule="nonzero"></path>
                                <path d="M122.814428,265.648559 C171.059224,265.648559 210.169359,244.553292 210.169359,218.530961 C210.169359,192.50863 171.059224,171.413363 122.814428,171.413363 C74.5696322,171.413363 35.4594976,192.50863 35.4594976,218.530961 C35.4594976,244.553292 74.5696322,265.648559 122.814428,265.648559 Z" id="Oval-Copy-26" fill="#D8D8D8" fill-rule="nonzero"></path>
                                <path d="M212.774528,198.384126 C212.774528,215.43217 200.82605,230.425821 181.861884,240.49125 C165.531634,249.158701 144.614974,253.854339 122.814428,253.854339 C101.013883,253.854339 80.0972224,249.158701 63.7669723,240.49125 C44.8028063,230.425821 32.8543287,215.43217 32.8543287,198.384126 C32.8543287,198.221014 32.855451,198.057936 32.8576951,197.894895 L32.8543287,80.2829865 C32.8541333,65.6198575 48.7352685,53.7329653 68.3257091,53.7329653 L177.303147,53.7329653 C196.89345,53.7329653 212.774528,65.6196961 212.774528,80.2827217 L212.774528,198.059177 C212.774528,198.105823 212.774367,198.152441 212.774046,198.199031 C212.774367,198.260726 212.774528,198.322423 212.774528,198.384126 Z" id="Path" fill="#000000" fill-rule="nonzero"></path>
                                <path d="M177.299779,198.059177 L177.303147,80.2827217 L68.3257091,80.2827217 L68.3290778,198.059177 C68.326834,198.167352 68.3257091,198.275669 68.3257091,198.384126 C68.3257091,214.356453 92.7211396,227.304583 122.814428,227.304583 C152.907717,227.304583 177.303147,214.356453 177.303147,198.384126 C177.303147,198.275669 177.302023,198.167352 177.299779,198.059177 Z" id="Path" fill="#D8D8D8" fill-rule="nonzero"></path>
                                <path d="M122.814428,141.959427 C94.1314401,141.959427 66.7802338,135.743613 45.7335096,124.435183 C22.2125852,111.797363 7.73223538,93.4026467 7.73223538,72.8088957 C7.73223538,52.2151448 22.2125852,33.8204285 45.7335096,21.1826083 C66.7802338,9.87417876 94.1314401,3.65836465 122.814428,3.65836465 C151.497416,3.65836465 178.848623,9.87417876 199.895347,21.1826083 C223.416271,33.8204285 237.896621,52.2151448 237.896621,72.8088957 C237.896621,93.4026467 223.416271,111.797363 199.895347,124.435183 C178.848623,135.743613 151.497416,141.959427 122.814428,141.959427 Z" id="Path" fill="#000000" fill-rule="nonzero"></path>
                                <path d="M122.814428,116.027107 C167.237854,116.027107 203.250156,96.6776545 203.250156,72.8088957 C203.250156,48.9401369 167.237854,29.5906849 122.814428,29.5906849 C78.3910022,29.5906849 42.3787,48.9401369 42.3787,72.8088957 C42.3787,96.6776545 78.3910022,116.027107 122.814428,116.027107 Z" id="Path" fill="#D8D8D8" fill-rule="nonzero"></path>
                                <path d="M95.6931476,53.1919159 C129.949913,25.941895 214.927378,104.653712 195.206161,59.4629632 C175.484944,14.2722144 120.593989,25.3523093 83.9543092,23.0433735 C47.3146294,20.7344376 18.6791672,32.096671 19.9952143,48.4216321 C21.3112614,64.7465931 61.4363818,80.4419368 95.6931476,53.1919159 Z" id="Oval-Copy-27" fill="#000000" transform="translate(109.044771, 48.262389) rotate(-15.000000) translate(-109.044771, -48.262389) "></path>
                                <path d="M153.518389,133.57435 L153.518389,133.57435 C157.578595,133.57435 160.870042,136.865797 160.870042,140.926003 L160.870042,188.75783 C160.870042,192.818036 157.578595,196.109483 153.518389,196.109483 L153.518389,196.109483 C149.458183,196.109483 146.166736,192.818036 146.166736,188.75783 L146.166736,140.926003 C146.166736,136.865797 149.458183,133.57435 153.518389,133.57435 Z" id="Rectangle" fill="#000000"></path>
                                <path d="M123.246878,133.526849 L123.246878,133.526849 C127.307084,133.526849 130.598531,136.818296 130.598531,140.878502 L130.598531,197.206503 C130.598531,201.266709 127.307084,204.558156 123.246878,204.558156 L123.246878,204.558156 C119.186673,204.558156 115.895226,201.266709 115.895226,197.206503 L115.895226,140.878502 C115.895226,136.818296 119.186673,133.526849 123.246878,133.526849 Z" id="Rectangle-Copy-8" fill="#000000"></path>
                                <path d="M92.9753678,133.57435 L92.9753678,133.57435 C97.0355734,133.57435 100.32702,136.865797 100.32702,140.926003 L100.32702,188.75783 C100.32702,192.818036 97.0355734,196.109483 92.9753678,196.109483 L92.9753678,196.109483 C88.9151622,196.109483 85.6237152,192.818036 85.6237152,188.75783 L85.6237152,140.926003 C85.6237152,136.865797 88.9151622,133.57435 92.9753678,133.57435 Z" id="Rectangle-Copy-9" fill="#000000"></path>
                            </g>
                            <path d="M95.4273613,46.2613574 C122.190612,31.487559 186.27539,76.6981287 171.826888,51.1422558 C157.378386,25.5863828 112.097494,22.1491661 83.9679647,20.3520689 C55.8384357,18.5549718 36.5569075,33.3966843 37.311482,42.5485372 C38.0660565,51.7003901 68.6641103,61.0351558 95.4273613,46.2613574 Z" id="Oval-Copy-29" fill="#F9F9F9" transform="translate(105.605750, 39.669455) rotate(-15.000000) translate(-105.605750, -39.669455) "></path>
                        </g>
                    </g>
                    <g id="Group-23" transform="translate(139.567547, 161.317288) rotate(2.000000) translate(-139.567547, -161.317288) translate(6.067547, 5.317288)">
                        <g id="Group-2" transform="translate(0.021797, 0.668052)">
                            <path d="M209.302945,149.58686 L209.327401,149.597056 C223.814067,155.656548 231.172213,159.50375 238.56484,165.173848 C250.102484,174.023146 257.312877,185.215298 259.90737,198.959731 C262.577634,213.107424 264.079443,227.116393 265.647827,251.423049 C266.096247,258.372614 261.081748,271.224329 251.970785,281.286522 C238.43385,296.23678 217.148069,305.406178 187.456502,306.437045 C181.653694,306.638514 176.196085,307.107982 167.126163,308.092771 C166.386219,308.173112 165.881148,308.228314 164.418188,308.388508 C149.636485,310.007106 142.726731,310.56492 133.667364,310.56492 C74.3918075,310.56492 33.9432269,295.486122 8.75813904,264.693792 L5.64979892,260.893407 L5.05513563,256.022906 C4.8918585,254.685609 4.70790185,253.350876 4.50278566,252.01566 C4.48865887,251.923512 4.1851019,249.982987 4.11653801,249.54378 L4.11342166,249.523817 C3.96062147,248.544955 3.84926193,247.827676 3.78096622,247.380541 C3.4063571,244.927962 3.08928489,242.711359 2.79339277,240.463615 C1.01645865,226.965133 0.347103049,214.899805 0.879237645,203.615702 C1.38617546,192.865907 2.99949599,183.359916 5.84779827,175.063822 C11.5962961,158.320487 29.2119325,143.398682 45.8422606,140.336424 C50.1889671,139.535018 53.8881206,138.561052 62.5836038,135.932943 C62.7612138,135.879256 62.7612138,135.879256 62.8675771,135.847103 C62.9741038,135.814899 62.9741038,135.814899 63.1521667,135.761064 C66.1318984,134.860203 67.9361192,134.321245 69.5041559,133.8678 L70.4176586,133.284367 C73.3017858,130.634324 76.2618992,128.969252 79.884706,127.911902 C72.9192274,119.384302 70.0695911,111.202614 71.6445867,101.479201 C71.377355,100.165891 70.8044159,98.2996823 69.5852329,94.7745409 C66.6938566,86.4144263 65.4104722,81.1504528 65.3736747,75.6916183 C57.5078385,60.4863808 59.5728118,41.8233829 70.8823172,28.6855787 C89.2670577,-0.323561665 138.403197,-9.53635818 161.534049,13.8376578 C179.883274,31.7612772 188.517116,57.4616066 184.714232,82.8145651 C183.924509,88.4862286 182.130929,92.4569398 178.013608,98.723976 C177.66427,99.255213 177.535279,99.4518379 177.396448,99.6648603 C177.276346,99.8491439 177.165645,100.021324 177.063939,100.181875 L178.001083,103.121282 L176.408513,108.220228 C176.352009,108.401137 176.281035,108.683854 176.043468,109.730684 C174.844876,115.012249 173.837568,117.757221 171.482769,121.165056 C170.413037,122.713159 169.182628,124.103156 167.810978,125.321374 C167.915719,126.401471 168.05815,127.668578 168.243284,129.177085 C181.454484,136.895441 195.169589,143.713272 209.302945,149.58686 Z" id="Path" fill="#000000" fill-rule="nonzero"></path>
                            <path d="M86.2449116,56.6972562 C86.8841421,54.9228364 87.7008597,53.2207462 88.6821326,51.6179365 C91.682006,46.1719058 94.0088598,40.1882212 98.5871286,35.7293262 C99.4743431,34.7478471 100.551292,33.9648469 101.750235,33.4295774 C102.834563,33.0181081 104.00951,32.9507504 105.092898,32.5126025 C106.662346,31.5623216 108.123147,30.4367408 109.448416,29.1565751 C110.828367,27.8461383 112.910527,27.6746883 114.483201,28.7419989 C115.230388,26.9330987 116.603423,25.4691135 118.341092,24.62856 C120.290598,24.397163 122.261945,24.4277486 124.20474,24.719535 C126.295206,24.6472169 128.273961,22.1480385 130.260709,25.0709695 C130.576783,25.7562286 131.015679,26.3752458 131.554688,26.8959935 C132.218199,27.2357472 132.950311,27.4117147 133.691974,27.4097034 C138.003761,28.0084554 140.922418,32.8757811 145.250931,33.2068419 C146.223101,33.1429191 147.199254,33.244554 148.139428,33.5075853 C152.360059,35.2313638 154.585812,41.965737 155.977395,45.8174403 C158.888594,54.1841991 168.337202,62.3704128 161.303643,70.6538234 C160.248468,71.8923332 153.304396,62.5643886 148.094878,73.8340813 C142.88536,85.103774 149.841113,96.3056628 149.804207,98.252716 C148.988776,102.581438 149.249399,100.621297 146.67924,104.155962 C144.609128,107.032259 143.209214,110.366173 141.327659,113.396214 C132.365792,127.836501 106.873128,124.578156 97.2293132,112.250639 C94.1710502,108.961409 92.816296,104.391163 93.57698,99.9295414 C93.053431,99.3008585 92.7494885,98.5125316 92.7131185,97.6889689 C92.7034952,97.4084432 89.8946062,91.6669623 88.0244406,82.1187385 C86.4285348,73.970762 86.4600341,63.2741481 86.6000765,61.7709691 C86.5783686,60.5166977 85.9629562,57.9175997 86.2449116,56.6972562 Z" id="Shape" fill="#FFFFFF" fill-rule="nonzero" transform="translate(125.011488, 73.292213) rotate(2.000000) translate(-125.011488, -73.292213) "></path>
                            <path d="M99.8157542,205.248709 C98.7445616,210.588644 106.50598,242.761435 106.50598,242.761435 C100.622118,238.618161 87.4746092,207.655599 86.2224834,200.607862 C85.4752503,196.294234 82.071641,187.950004 78.2824336,186.091842 C76.8752341,185.552977 58.884971,177.841716 51.410698,175.063744 C47.7776413,173.670997 30.5794621,151.593291 34.1312004,148.659766 C50.1897684,152.676871 73.2071931,151.834813 88.1334602,162.168612 C94.2892407,166.430401 100.105054,179.281039 100.468015,181.999597 C101.218501,187.960342 101.327401,193.984606 100.79288,199.970957 C100.7296,200.529734 100.319949,202.640855 99.8157542,205.248709 Z" id="Path-Copy-6" fill="#FFFFFF" fill-rule="nonzero" transform="translate(70.078518, 195.710601) rotate(-104.000000) translate(-70.078518, -195.710601) "></path>
                            <path d="M229.815769,197.982009 C224.75801,224.799765 214.279255,250.194089 198.506165,273.877464 C180.876805,278.72372 163.552714,280.679622 149.339939,281.438543 C149.440572,281.379642 149.541119,281.320697 149.641574,281.26171 C170.023531,269.297411 188.425558,256.794784 202.109404,241.991073 C214.481395,228.754754 225.916603,213.886659 229.767464,197.77795 C229.783744,197.845817 229.799846,197.913837 229.815769,197.982009 Z M131.335491,281.89131 C115.334716,281.89131 101.662282,280.575266 89.939178,278.295787 C102.659331,271.213389 115.024847,263.958197 127.594772,256.820596 C166.054131,235.191664 208.245003,213.083359 209.106244,178.747002 C217.825141,181.68486 218.434004,187.21219 217.093606,190.934034 C210.841626,208.354804 202.507466,225.232003 189.028746,240.332219 C186.436432,243.218561 183.671412,246.040582 180.733688,248.798281 C177.601343,251.669058 174.254151,254.471618 170.915256,257.243406 C159.53843,266.160188 146.56735,274.391849 132.085329,281.890657 C131.832967,281.8911 131.583009,281.89131 131.335491,281.89131 Z M36.9633996,253.813529 C39.7340973,244.660749 113.99886,202.960928 117.714382,194.048715 C118.874234,193.460453 135.167635,172.800296 135.844613,170.677369 C140.300419,160.611069 146.699696,164.798958 151.181576,154.916817 C158.272055,154.645498 176.857938,162.165827 185.136354,166.663389 C184.17742,170.908818 182.533609,174.971903 180.217509,178.821531 C167.598626,196.039543 154.97722,213.07967 137.866466,228.514303 C136.598177,229.660671 138.854437,231.590702 141.967796,231.09081 C142.872288,230.891773 143.574458,230.560017 144.021625,230.120434 C166.509264,212.929302 183.901845,193.613953 195.90607,172.500108 C200.768186,174.127353 200.837143,177.335561 199.775447,179.400868 C197.501776,183.964027 194.929792,188.447733 192.059496,192.851987 C176.981821,216.193542 138.722415,244.20225 82.7577469,277.915204 C60.7180238,270.909379 33.5075577,265.320197 36.9633996,253.813529 Z" id="Shape" fill="#D8D8D8"></path>
                        </g>
                    </g>
                </g>
                <g id="Group-3-Copy-4" transform="translate(1794.500000, 1466.000000) scale(-1, 1) translate(-1794.500000, -1466.000000) translate(1655.000000, 1227.000000)">
                    <g id="Group-20-Copy-8" transform="translate(11.000000, 177.000000)">
                        <g id="Group-20-Copy-4">
                            <g id="Group-21">
                                <path d="M122.814428,300.67945 C92.2480562,300.67945 63.1332413,294.037226 40.789382,281.985371 C16.0023249,268.615701 0.813032959,249.245706 0.813032959,227.629532 C0.813032959,206.013357 16.0023249,186.643362 40.789382,173.273692 C63.1332413,161.221837 92.2480562,154.579613 122.814428,154.579613 C153.3808,154.579613 182.495615,161.221837 204.839474,173.273692 C229.626532,186.643362 244.815824,206.013357 244.815824,227.629532 C244.815824,249.245706 229.626532,268.615701 204.839474,281.985371 C182.495615,294.037226 153.3808,300.67945 122.814428,300.67945 Z" id="Path" fill="#000000" fill-rule="nonzero"></path>
                                <path d="M122.814428,276.530522 C172.428008,276.530522 212.647762,254.636803 212.647762,227.629532 C212.647762,200.62226 172.428008,178.728541 122.814428,178.728541 C73.2008482,178.728541 32.9810949,200.62226 32.9810949,227.629532 C32.9810949,254.636803 73.2008482,276.530522 122.814428,276.530522 Z" id="Path" fill="#FFFFFF" fill-rule="nonzero"></path>
                                <path d="M122.814428,265.648559 C171.059224,265.648559 210.169359,244.553292 210.169359,218.530961 C210.169359,192.50863 171.059224,171.413363 122.814428,171.413363 C74.5696322,171.413363 35.4594976,192.50863 35.4594976,218.530961 C35.4594976,244.553292 74.5696322,265.648559 122.814428,265.648559 Z" id="Oval-Copy-26" fill="#D8D8D8" fill-rule="nonzero"></path>
                                <path d="M212.774528,198.384126 C212.774528,215.43217 200.82605,230.425821 181.861884,240.49125 C165.531634,249.158701 144.614974,253.854339 122.814428,253.854339 C101.013883,253.854339 80.0972224,249.158701 63.7669723,240.49125 C44.8028063,230.425821 32.8543287,215.43217 32.8543287,198.384126 C32.8543287,198.221014 32.855451,198.057936 32.8576951,197.894895 L32.8543287,80.2829865 C32.8541333,65.6198575 48.7352685,53.7329653 68.3257091,53.7329653 L177.303147,53.7329653 C196.89345,53.7329653 212.774528,65.6196961 212.774528,80.2827217 L212.774528,198.059177 C212.774528,198.105823 212.774367,198.152441 212.774046,198.199031 C212.774367,198.260726 212.774528,198.322423 212.774528,198.384126 Z" id="Path" fill="#000000" fill-rule="nonzero"></path>
                                <path d="M177.299779,198.059177 L177.303147,80.2827217 L68.3257091,80.2827217 L68.3290778,198.059177 C68.326834,198.167352 68.3257091,198.275669 68.3257091,198.384126 C68.3257091,214.356453 92.7211396,227.304583 122.814428,227.304583 C152.907717,227.304583 177.303147,214.356453 177.303147,198.384126 C177.303147,198.275669 177.302023,198.167352 177.299779,198.059177 Z" id="Path" fill="#D8D8D8" fill-rule="nonzero"></path>
                                <path d="M122.814428,141.959427 C94.1314401,141.959427 66.7802338,135.743613 45.7335096,124.435183 C22.2125852,111.797363 7.73223538,93.4026467 7.73223538,72.8088957 C7.73223538,52.2151448 22.2125852,33.8204285 45.7335096,21.1826083 C66.7802338,9.87417876 94.1314401,3.65836465 122.814428,3.65836465 C151.497416,3.65836465 178.848623,9.87417876 199.895347,21.1826083 C223.416271,33.8204285 237.896621,52.2151448 237.896621,72.8088957 C237.896621,93.4026467 223.416271,111.797363 199.895347,124.435183 C178.848623,135.743613 151.497416,141.959427 122.814428,141.959427 Z" id="Path" fill="#000000" fill-rule="nonzero"></path>
                                <path d="M122.814428,116.027107 C167.237854,116.027107 203.250156,96.6776545 203.250156,72.8088957 C203.250156,48.9401369 167.237854,29.5906849 122.814428,29.5906849 C78.3910022,29.5906849 42.3787,48.9401369 42.3787,72.8088957 C42.3787,96.6776545 78.3910022,116.027107 122.814428,116.027107 Z" id="Path" fill="#D8D8D8" fill-rule="nonzero"></path>
                                <path d="M95.6931476,53.1919159 C129.949913,25.941895 214.927378,104.653712 195.206161,59.4629632 C175.484944,14.2722144 120.593989,25.3523093 83.9543092,23.0433735 C47.3146294,20.7344376 18.6791672,32.096671 19.9952143,48.4216321 C21.3112614,64.7465931 61.4363818,80.4419368 95.6931476,53.1919159 Z" id="Oval-Copy-27" fill="#000000" transform="translate(109.044771, 48.262389) rotate(-15.000000) translate(-109.044771, -48.262389) "></path>
                                <path d="M153.518389,133.57435 L153.518389,133.57435 C157.578595,133.57435 160.870042,136.865797 160.870042,140.926003 L160.870042,188.75783 C160.870042,192.818036 157.578595,196.109483 153.518389,196.109483 L153.518389,196.109483 C149.458183,196.109483 146.166736,192.818036 146.166736,188.75783 L146.166736,140.926003 C146.166736,136.865797 149.458183,133.57435 153.518389,133.57435 Z" id="Rectangle" fill="#000000"></path>
                                <path d="M123.246878,133.526849 L123.246878,133.526849 C127.307084,133.526849 130.598531,136.818296 130.598531,140.878502 L130.598531,197.206503 C130.598531,201.266709 127.307084,204.558156 123.246878,204.558156 L123.246878,204.558156 C119.186673,204.558156 115.895226,201.266709 115.895226,197.206503 L115.895226,140.878502 C115.895226,136.818296 119.186673,133.526849 123.246878,133.526849 Z" id="Rectangle-Copy-8" fill="#000000"></path>
                                <path d="M92.9753678,133.57435 L92.9753678,133.57435 C97.0355734,133.57435 100.32702,136.865797 100.32702,140.926003 L100.32702,188.75783 C100.32702,192.818036 97.0355734,196.109483 92.9753678,196.109483 L92.9753678,196.109483 C88.9151622,196.109483 85.6237152,192.818036 85.6237152,188.75783 L85.6237152,140.926003 C85.6237152,136.865797 88.9151622,133.57435 92.9753678,133.57435 Z" id="Rectangle-Copy-9" fill="#000000"></path>
                            </g>
                            <path d="M95.4273613,46.2613574 C122.190612,31.487559 186.27539,76.6981287 171.826888,51.1422558 C157.378386,25.5863828 112.097494,22.1491661 83.9679647,20.3520689 C55.8384357,18.5549718 36.5569075,33.3966843 37.311482,42.5485372 C38.0660565,51.7003901 68.6641103,61.0351558 95.4273613,46.2613574 Z" id="Oval-Copy-29" fill="#F9F9F9" transform="translate(105.605750, 39.669455) rotate(-15.000000) translate(-105.605750, -39.669455) "></path>
                        </g>
                    </g>
                    <g id="Group-23" transform="translate(139.567547, 161.317288) rotate(2.000000) translate(-139.567547, -161.317288) translate(6.067547, 5.317288)">
                        <g id="Group-2" transform="translate(0.021797, 0.668052)">
                            <path d="M209.302945,149.58686 L209.327401,149.597056 C223.814067,155.656548 231.172213,159.50375 238.56484,165.173848 C250.102484,174.023146 257.312877,185.215298 259.90737,198.959731 C262.577634,213.107424 264.079443,227.116393 265.647827,251.423049 C266.096247,258.372614 261.081748,271.224329 251.970785,281.286522 C238.43385,296.23678 217.148069,305.406178 187.456502,306.437045 C181.653694,306.638514 176.196085,307.107982 167.126163,308.092771 C166.386219,308.173112 165.881148,308.228314 164.418188,308.388508 C149.636485,310.007106 142.726731,310.56492 133.667364,310.56492 C74.3918075,310.56492 33.9432269,295.486122 8.75813904,264.693792 L5.64979892,260.893407 L5.05513563,256.022906 C4.8918585,254.685609 4.70790185,253.350876 4.50278566,252.01566 C4.48865887,251.923512 4.1851019,249.982987 4.11653801,249.54378 L4.11342166,249.523817 C3.96062147,248.544955 3.84926193,247.827676 3.78096622,247.380541 C3.4063571,244.927962 3.08928489,242.711359 2.79339277,240.463615 C1.01645865,226.965133 0.347103049,214.899805 0.879237645,203.615702 C1.38617546,192.865907 2.99949599,183.359916 5.84779827,175.063822 C11.5962961,158.320487 29.2119325,143.398682 45.8422606,140.336424 C50.1889671,139.535018 53.8881206,138.561052 62.5836038,135.932943 C62.7612138,135.879256 62.7612138,135.879256 62.8675771,135.847103 C62.9741038,135.814899 62.9741038,135.814899 63.1521667,135.761064 C66.1318984,134.860203 67.9361192,134.321245 69.5041559,133.8678 L70.4176586,133.284367 C73.3017858,130.634324 76.2618992,128.969252 79.884706,127.911902 C72.9192274,119.384302 70.0695911,111.202614 71.6445867,101.479201 C71.377355,100.165891 70.8044159,98.2996823 69.5852329,94.7745409 C66.6938566,86.4144263 65.4104722,81.1504528 65.3736747,75.6916183 C57.5078385,60.4863808 59.5728118,41.8233829 70.8823172,28.6855787 C89.2670577,-0.323561665 138.403197,-9.53635818 161.534049,13.8376578 C179.883274,31.7612772 188.517116,57.4616066 184.714232,82.8145651 C183.924509,88.4862286 182.130929,92.4569398 178.013608,98.723976 C177.66427,99.255213 177.535279,99.4518379 177.396448,99.6648603 C177.276346,99.8491439 177.165645,100.021324 177.063939,100.181875 L178.001083,103.121282 L176.408513,108.220228 C176.352009,108.401137 176.281035,108.683854 176.043468,109.730684 C174.844876,115.012249 173.837568,117.757221 171.482769,121.165056 C170.413037,122.713159 169.182628,124.103156 167.810978,125.321374 C167.915719,126.401471 168.05815,127.668578 168.243284,129.177085 C181.454484,136.895441 195.169589,143.713272 209.302945,149.58686 Z" id="Path" fill="#000000" fill-rule="nonzero"></path>
                            <path d="M86.2449116,56.6972562 C86.8841421,54.9228364 87.7008597,53.2207462 88.6821326,51.6179365 C91.682006,46.1719058 94.0088598,40.1882212 98.5871286,35.7293262 C99.4743431,34.7478471 100.551292,33.9648469 101.750235,33.4295774 C102.834563,33.0181081 104.00951,32.9507504 105.092898,32.5126025 C106.662346,31.5623216 108.123147,30.4367408 109.448416,29.1565751 C110.828367,27.8461383 112.910527,27.6746883 114.483201,28.7419989 C115.230388,26.9330987 116.603423,25.4691135 118.341092,24.62856 C120.290598,24.397163 122.261945,24.4277486 124.20474,24.719535 C126.295206,24.6472169 128.273961,22.1480385 130.260709,25.0709695 C130.576783,25.7562286 131.015679,26.3752458 131.554688,26.8959935 C132.218199,27.2357472 132.950311,27.4117147 133.691974,27.4097034 C138.003761,28.0084554 140.922418,32.8757811 145.250931,33.2068419 C146.223101,33.1429191 147.199254,33.244554 148.139428,33.5075853 C152.360059,35.2313638 154.585812,41.965737 155.977395,45.8174403 C158.888594,54.1841991 168.337202,62.3704128 161.303643,70.6538234 C160.248468,71.8923332 153.304396,62.5643886 148.094878,73.8340813 C142.88536,85.103774 149.841113,96.3056628 149.804207,98.252716 C148.988776,102.581438 149.249399,100.621297 146.67924,104.155962 C144.609128,107.032259 143.209214,110.366173 141.327659,113.396214 C132.365792,127.836501 106.873128,124.578156 97.2293132,112.250639 C94.1710502,108.961409 92.816296,104.391163 93.57698,99.9295414 C93.053431,99.3008585 92.7494885,98.5125316 92.7131185,97.6889689 C92.7034952,97.4084432 89.8946062,91.6669623 88.0244406,82.1187385 C86.4285348,73.970762 86.4600341,63.2741481 86.6000765,61.7709691 C86.5783686,60.5166977 85.9629562,57.9175997 86.2449116,56.6972562 Z" id="Shape" fill="#FFFFFF" fill-rule="nonzero" transform="translate(125.011488, 73.292213) rotate(2.000000) translate(-125.011488, -73.292213) "></path>
                            <path d="M99.8157542,205.248709 C98.7445616,210.588644 106.50598,242.761435 106.50598,242.761435 C100.622118,238.618161 87.4746092,207.655599 86.2224834,200.607862 C85.4752503,196.294234 82.071641,187.950004 78.2824336,186.091842 C76.8752341,185.552977 58.884971,177.841716 51.410698,175.063744 C47.7776413,173.670997 30.5794621,151.593291 34.1312004,148.659766 C50.1897684,152.676871 73.2071931,151.834813 88.1334602,162.168612 C94.2892407,166.430401 100.105054,179.281039 100.468015,181.999597 C101.218501,187.960342 101.327401,193.984606 100.79288,199.970957 C100.7296,200.529734 100.319949,202.640855 99.8157542,205.248709 Z" id="Path-Copy-6" fill="#FFFFFF" fill-rule="nonzero" transform="translate(70.078518, 195.710601) rotate(-104.000000) translate(-70.078518, -195.710601) "></path>
                            <path d="M229.815769,197.982009 C224.75801,224.799765 214.279255,250.194089 198.506165,273.877464 C180.876805,278.72372 163.552714,280.679622 149.339939,281.438543 C149.440572,281.379642 149.541119,281.320697 149.641574,281.26171 C170.023531,269.297411 188.425558,256.794784 202.109404,241.991073 C214.481395,228.754754 225.916603,213.886659 229.767464,197.77795 C229.783744,197.845817 229.799846,197.913837 229.815769,197.982009 Z M131.335491,281.89131 C115.334716,281.89131 101.662282,280.575266 89.939178,278.295787 C102.659331,271.213389 115.024847,263.958197 127.594772,256.820596 C166.054131,235.191664 208.245003,213.083359 209.106244,178.747002 C217.825141,181.68486 218.434004,187.21219 217.093606,190.934034 C210.841626,208.354804 202.507466,225.232003 189.028746,240.332219 C186.436432,243.218561 183.671412,246.040582 180.733688,248.798281 C177.601343,251.669058 174.254151,254.471618 170.915256,257.243406 C159.53843,266.160188 146.56735,274.391849 132.085329,281.890657 C131.832967,281.8911 131.583009,281.89131 131.335491,281.89131 Z M36.9633996,253.813529 C39.7340973,244.660749 113.99886,202.960928 117.714382,194.048715 C118.874234,193.460453 135.167635,172.800296 135.844613,170.677369 C140.300419,160.611069 146.699696,164.798958 151.181576,154.916817 C158.272055,154.645498 176.857938,162.165827 185.136354,166.663389 C184.17742,170.908818 182.533609,174.971903 180.217509,178.821531 C167.598626,196.039543 154.97722,213.07967 137.866466,228.514303 C136.598177,229.660671 138.854437,231.590702 141.967796,231.09081 C142.872288,230.891773 143.574458,230.560017 144.021625,230.120434 C166.509264,212.929302 183.901845,193.613953 195.90607,172.500108 C200.768186,174.127353 200.837143,177.335561 199.775447,179.400868 C197.501776,183.964027 194.929792,188.447733 192.059496,192.851987 C176.981821,216.193542 138.722415,244.20225 82.7577469,277.915204 C60.7180238,270.909379 33.5075577,265.320197 36.9633996,253.813529 Z" id="Shape" fill="#D8D8D8"></path>
                        </g>
                    </g>
                </g>
                <g id="Group-3-Copy-2" transform="translate(2286.000000, 806.000000)">
                    <g id="Group-20-Copy-8" transform="translate(0.000000, 178.000000)">
                        <g id="Group-20-Copy-4">
                            <g id="Group-21" transform="translate(0.000000, 0.030707)">
                                <path d="M112.287477,267.689102 C84.3410799,267.689102 57.7218206,261.58067 37.2931492,250.497344 C14.6306971,238.202108 0.74334442,220.388753 0.74334442,200.50973 C0.74334442,180.630707 14.6306971,162.817353 37.2931492,150.522116 C57.7218206,139.43879 84.3410799,133.330359 112.287477,133.330359 C140.233875,133.330359 166.853134,139.43879 187.281805,150.522116 C209.944257,162.817353 223.83161,180.630707 223.83161,200.50973 C223.83161,220.388753 209.944257,238.202108 187.281805,250.497344 C166.853134,261.58067 140.233875,267.689102 112.287477,267.689102 Z" id="Path" fill="#000000" fill-rule="nonzero"></path>
                                <path d="M112.287477,245.480866 C157.648465,245.480866 194.420811,225.346603 194.420811,200.50973 C194.420811,175.672858 157.648465,155.538594 112.287477,155.538594 C66.9264898,155.538594 30.1541439,175.672858 30.1541439,200.50973 C30.1541439,225.346603 66.9264898,245.480866 112.287477,245.480866 Z" id="Path" fill="#FFFFFF" fill-rule="nonzero"></path>
                                <path d="M112.287477,235.473416 C156.397005,235.473416 192.154842,216.073438 192.154842,192.142352 C192.154842,168.211267 156.397005,148.811289 112.287477,148.811289 C68.1779495,148.811289 32.4201121,168.211267 32.4201121,192.142352 C32.4201121,216.073438 68.1779495,235.473416 112.287477,235.473416 Z" id="Oval-Copy-26" fill="#D8D8D8" fill-rule="nonzero"></path>
                                <path d="M194.536711,173.614587 C194.536711,189.292591 183.612389,203.0813 166.273723,212.337836 C151.343208,220.30874 132.219404,224.62702 112.287477,224.62702 C92.3555501,224.62702 73.2317462,220.30874 58.3012318,212.337836 C40.9625657,203.0813 30.0382433,189.292591 30.0382433,173.614587 C30.0382433,173.464584 30.0392695,173.314611 30.0413212,173.164673 L30.0382433,70.7390431 C30.0380647,57.2542944 44.5579598,46.3226745 62.4692198,46.3226745 L162.105735,46.3226745 C180.016868,46.3226745 194.536711,57.254146 194.536711,70.7387996 L194.536711,173.315753 C194.536711,173.35865 194.536564,173.401522 194.536271,173.444368 C194.536564,173.501104 194.536711,173.557844 194.536711,173.614587 Z" id="Path" fill="#000000" fill-rule="nonzero"></path>
                                <path d="M162.102655,173.315753 L162.105735,173.315753 L162.105735,70.7387996 L62.4692198,70.7387996 L62.4722997,173.315753 C62.4702482,173.415234 62.4692198,173.514847 62.4692198,173.614587 C62.4692198,188.303323 84.7736134,200.210895 112.287477,200.210895 C139.801341,200.210895 162.105735,188.303323 162.105735,173.614587 C162.105735,173.514847 162.104706,173.415234 162.102655,173.315753 Z" id="Path" fill="#D8D8D8" fill-rule="nonzero"></path>
                                <path d="M112.287477,127.458949 C86.0630309,127.458949 61.0562137,121.742659 41.8134945,111.343015 C20.3086493,99.7208141 7.06947235,82.8043616 7.06947235,63.8655964 C7.06947235,44.9268313 20.3086493,28.0103788 41.8134945,16.388178 C61.0562137,5.9885334 86.0630309,0.272243852 112.287477,0.272243852 C138.511924,0.272243852 163.518741,5.9885334 182.76146,16.388178 C204.266305,28.0103788 217.505482,44.9268313 217.505482,63.8655964 C217.505482,82.8043616 204.266305,99.7208141 182.76146,111.343015 C163.518741,121.742659 138.511924,127.458949 112.287477,127.458949 Z" id="Path" fill="#000000" fill-rule="nonzero"></path>
                                <path d="M115.296699,104.790946 C159.844291,104.790946 195.957249,86.3324119 195.957249,63.5626555 C195.957249,40.7928991 159.844291,22.3343645 115.296699,22.3343645 C70.7491068,22.3343645 34.6361483,40.7928991 34.6361483,63.5626555 C34.6361483,86.3324119 70.7491068,104.790946 115.296699,104.790946 Z" id="Path" fill="#FFFFFF" fill-rule="nonzero"></path>
                                <path d="M140.35967,119.747726 L140.35967,119.747726 C144.071858,119.747726 147.081181,122.757049 147.081181,126.469237 L147.081181,164.801232 C147.081181,168.51342 144.071858,171.522743 140.35967,171.522743 L140.35967,171.522743 C136.647482,171.522743 133.638159,168.51342 133.638159,164.801232 L133.638159,126.469237 C133.638159,122.757049 136.647482,119.747726 140.35967,119.747726 Z" id="Rectangle" fill="#000000"></path>
                                <path d="M112.68286,119.704043 L112.68286,119.704043 C116.395048,119.704043 119.404371,122.713366 119.404371,126.425554 L119.404371,172.57094 C119.404371,176.283128 116.395048,179.292451 112.68286,179.292451 L112.68286,179.292451 C108.970672,179.292451 105.961349,176.283128 105.961349,172.57094 L105.961349,126.425554 C105.961349,122.713366 108.970672,119.704043 112.68286,119.704043 Z" id="Rectangle-Copy-8" fill="#000000"></path>
                                <path d="M85.0060505,119.747726 L85.0060505,119.747726 C88.7182385,119.747726 91.7275615,122.757049 91.7275615,126.469237 L91.7275615,164.801232 C91.7275615,168.51342 88.7182385,171.522743 85.0060505,171.522743 L85.0060505,171.522743 C81.2938626,171.522743 78.2845396,168.51342 78.2845396,164.801232 L78.2845396,126.469237 C78.2845396,122.757049 81.2938626,119.747726 85.0060505,119.747726 Z" id="Rectangle-Copy-9" fill="#000000"></path>
                            </g>
                            <path d="M87.2291097,39.4977299 C111.727724,25.8806999 170.282012,67.3560591 157.100961,43.8824333 C143.919909,20.4088075 102.508604,17.3096217 76.7824984,15.6952185 C51.0563933,14.0808153 33.4008027,27.750269 34.0787274,36.1623572 C34.7566521,44.5744455 62.7304959,53.1147599 87.2291097,39.4977299 Z" id="Oval-Copy-29" fill="#F9F9F9" transform="translate(96.534506, 33.398277) rotate(-15.000000) translate(-96.534506, -33.398277) "></path>
                        </g>
                    </g>
                    <g id="Group-23" transform="translate(117.196744, 137.182211) rotate(2.000000) translate(-117.196744, -137.182211) translate(24.196744, 3.182211)">
                        <g id="Group-2" transform="translate(0.493127, 0.921767)">
                            <path d="M138.115167,136.437409 C151.456392,141.750892 158.643443,145.187307 165.5759,150.250153 C174.979193,157.117476 180.949358,165.607259 183.108161,176.496639 C185.857887,190.368561 184.140689,206.211939 184.910229,228.358762 C185.679769,250.505584 138.86214,263.421745 90.1782728,266.507658 C52.4291781,268.90045 23.6216482,253.959311 13.8232307,242.552327 C7.29095234,234.947671 3.16171293,228.421218 1.43551243,222.972968 C0.244652384,206.199961 -0.172108365,194.205917 0.185230179,186.990836 C0.64675934,177.672025 2.07850625,169.327379 4.67044952,162.139034 C9.36330158,149.124151 6.35886093,142.756388 46.1946064,122.041972 C48.0922705,117.774031 49.3313447,115.381602 45.8172707,111.781741 C45.4821231,111.44116 37.8892393,114.853349 33.3085525,112.196513 C28.7278658,109.539677 27.6931631,111.196052 25.9995986,99.1273957 C25.7606188,96.4060317 29.0060938,82.7101076 20.8241398,82.9814101 C12.6421858,83.2527127 25.3454615,66.4161357 25.8529794,61.1591468 C18.1873903,49.754149 20.3776607,33.1551026 30.0297836,23.0426729 C44.4941771,0.1466406 86.9189569,-8.19313566 105.431791,9.74007146 C121.669822,24.7976063 129.295658,46.4232897 125.918324,67.7270829 C125.365865,71.5617538 124.012191,74.1442259 120.851394,78.7252234 C120.512624,79.2157504 120.354448,79.445127 120.18917,79.6865997 C117.51085,83.5996504 110.771718,104.005414 108.261607,104.81626 C107.981299,107.699606 108.240006,110.932053 108.982259,116.618104 C109.058441,117.201704 109.091563,117.456297 109.133254,117.7801 C109.327419,119.288132 109.474486,120.527495 109.58599,121.6558 C125.220128,130.685541 121.226191,129.75432 138.115167,136.437409 Z" id="Path" fill="#000000" fill-rule="nonzero"></path>
                            <path d="M106.541755,84.4786115 C100.749138,87.3102673 80.8623055,100.185364 79.465854,92.9359386 C78.9919843,90.4143033 80.314132,85.9585598 79.7473498,74.8972163 C79.6819632,73.6211287 78.9683342,70.8005536 77.6064629,66.435491 C74.0014059,62.3418982 69.1979183,62.2586445 63.196,66.1857299 C54.4771916,65.85646 66.8827613,51.8533086 58.7090703,48.9673366 C54.735869,47.5209103 46.2710473,42.8080945 41.9311711,44.7744762 C40.4551203,45.4601615 38.6738588,45.2272236 37.4471711,44.1880975 C35.7679231,42.6591718 35.6124021,40.1938504 37.0888575,38.5081041 C37.3297102,38.2227268 37.5354122,37.9129394 37.7021244,37.5845236 C37.4972787,37.7434943 37.7015801,37.3930943 37.7006729,37.0740454 C37.6882859,36.5272822 37.7441466,35.981384 37.8671288,35.4473575 C38.0522266,34.6184811 38.5035375,33.863067 39.1611885,33.2813322 C39.1063348,28.5777705 41.3163115,24.1108456 45.1828613,21.1100004 C56.6161003,10.8356398 81.7458273,5.77161427 91.1916644,18.5589515 C92.4456858,18.0053088 97.2860751,24.1544857 98.5432642,24.7149021 C102.750573,26.601919 114.706562,37.5922592 115.691325,50.0620918 C116.967889,66.2269378 106.541755,84.4786115 106.541755,84.4786115 Z" id="Path" fill="#FFFFFF" fill-rule="nonzero" transform="translate(75.938227, 53.039073) rotate(-3.000000) translate(-75.938227, -53.039073) "></path>
                            <path d="M173.493355,207.28062 C171.1123,208.44417 143.623202,191.130929 131.219248,178.123994 C118.923198,165.230209 118.176302,146.601582 119.751821,145.379238 C136.160211,140.732794 164.178107,153.4449 170.768577,176.251441 C170.965484,176.932844 173.493355,207.28062 173.493355,207.28062 Z" id="Path-Copy-7" fill="#FFFFFF" fill-rule="nonzero" transform="translate(146.319417, 175.882277) rotate(-3.000000) translate(-146.319417, -175.882277) "></path>
                            <path d="M175.657478,180.53855 C169.116859,201.196695 158.241656,220.455518 143.161598,238.097396 C128.224864,240.940846 113.795697,241.545043 102.032946,241.380775 C102.12098,241.340168 102.208946,241.299522 102.296841,241.258838 C120.129994,233.007304 136.381647,224.230299 148.954896,213.406502 C160.309619,203.736 171.038214,192.742273 175.635828,180.376741 C175.643205,180.430568 175.650422,180.484504 175.657478,180.53855 Z M86.8338902,241.351222 C73.758666,240.505478 62.7051413,238.735259 53.3317008,236.3012 C64.3668973,231.336101 75.1279317,226.214717 86.0453627,221.197737 C119.42974,206.014384 155.906739,190.646694 159.717057,163.361195 C166.576007,166.160518 166.573468,170.592339 165.141416,173.484 C158.45641,187.020111 150.119107,200.013494 137.738634,211.320513 C135.359155,213.480961 132.844367,215.581081 130.194271,217.620874 C127.374907,219.740388 124.386151,221.794247 121.406959,223.82405 C111.303513,230.320284 99.9592906,236.186909 87.4466881,241.390336 C87.2404274,241.377349 87.0361522,241.364304 86.8338902,241.351222 Z M14.6909024,214.977805 C17.053575,212.71956 19.4595332,210.481045 21.8861885,208.253391 C23.3356725,206.835506 30.3519248,206.318606 33.2287293,205.644135 C37.6495502,204.610787 42.0100836,203.53051 46.3103293,202.403304 C54.6256744,200.215389 62.7348157,197.896183 70.6377532,195.445686 C70.6453868,201.976836 72.4142772,208.934106 75.9041609,216.159134 C76.2062078,216.80621 79.8844724,218.011277 81.1205037,217.992096 C81.9594714,218.469066 82.9442693,218.868017 83.9588,219.141917 C74.711251,223.917417 65.068268,228.477798 55.0298507,232.82306 C53.3677081,233.541329 51.6985866,234.255699 50.0224861,234.966172 C33.0667696,229.974691 22.0940163,222.701361 14.6909024,214.977805 Z M83.6054185,190.374639 C86.6998686,183.317746 91.8377962,176.997456 95.6867201,170.180106 C96.6919486,169.778706 97.5894098,169.315507 98.3712967,168.794538 C100.000853,167.510835 101.200905,166.036375 101.946839,164.401399 C106.507016,156.715004 115.279193,150.561102 119.844309,143.021042 C125.692078,143.184169 135.476193,149.265841 141.872986,153.245629 C140.705589,156.536231 138.992009,159.646928 136.745366,162.553899 C124.840937,175.435692 112.950349,188.177338 97.5162409,199.416816 C96.3720217,200.251736 98.0524475,201.890713 100.654209,201.662648 C101.414885,201.554038 102.021266,201.330219 102.427857,201.007982 C122.435208,188.671622 138.447968,174.392633 150.196108,158.411806 C154.043842,159.950898 153.813459,162.479718 152.756705,164.048903 C150.481073,167.519743 147.967543,170.912198 145.216113,174.22627 C130.744413,191.797234 110.035042,206.526142 85.9316669,219.539864 C81.6343822,208.80846 79.7376635,199.24786 83.6054185,190.374639 Z" id="Shape" fill="#D8D8D8" transform="translate(95.174190, 192.213293) scale(-1, 1) translate(-95.174190, -192.213293) "></path>
                        </g>
                    </g>
                </g>
                <g id="Group-3-Copy-2" transform="translate(1560.000000, 0.000000)">
                    <g id="Group-20-Copy-8" transform="translate(0.000000, 113.000000)">
                        <g id="Group-20-Copy-4">
                            <g id="Group-21">
                                <path d="M84.7168913,209.779749 C63.6323326,209.779749 43.5490522,205.21586 28.1363492,196.934998 C11.0383384,187.748662 0.560826817,174.439488 0.560826817,159.586957 C0.560826817,144.734426 11.0383384,131.425251 28.1363492,122.238916 C43.5490522,113.958054 63.6323326,109.394164 84.7168913,109.394164 C105.80145,109.394164 125.88473,113.958054 141.297433,122.238916 C158.395444,131.425251 168.872956,144.734426 168.872956,159.586957 C168.872956,174.439488 158.395444,187.748662 141.297433,196.934998 C125.88473,205.21586 105.80145,209.779749 84.7168913,209.779749 Z" id="Path" fill="#000000" fill-rule="nonzero"></path>
                                <path d="M84.7168913,193.186957 C118.940136,193.186957 146.683558,178.143724 146.683558,159.586957 C146.683558,141.030189 118.940136,125.986957 84.7168913,125.986957 C50.4936463,125.986957 22.7502246,141.030189 22.7502246,159.586957 C22.7502246,178.143724 50.4936463,193.186957 84.7168913,193.186957 Z" id="Path" fill="#FFFFFF" fill-rule="nonzero"></path>
                                <path d="M84.7168913,185.709931 C117.995955,185.709931 144.973966,171.215317 144.973966,153.335305 C144.973966,135.455292 117.995955,120.960678 84.7168913,120.960678 C51.4378279,120.960678 24.4598167,135.455292 24.4598167,153.335305 C24.4598167,171.215317 51.4378279,185.709931 84.7168913,185.709931 Z" id="Oval-Copy-26" fill="#D8D8D8" fill-rule="nonzero"></path>
                                <path d="M146.771001,139.492361 C146.771001,151.206118 138.52899,161.508294 125.447585,168.424278 C114.183046,174.379706 99.7548185,177.606091 84.7168913,177.606091 C69.6789642,177.606091 55.2507371,174.379706 43.9861972,168.424278 C30.9047929,161.508294 22.6627818,151.206118 22.6627818,139.492361 C22.6627818,139.380287 22.663556,139.268235 22.665104,139.156209 L22.6627818,55.1626526 C22.662647,45.0875778 33.6173893,36.9200627 47.1307953,36.9200627 L122.302987,36.9200627 C135.816298,36.9200627 146.771001,45.087467 146.771001,55.1624707 L146.771001,139.269088 C146.771001,139.301139 146.77089,139.33317 146.770668,139.365182 C146.77089,139.407573 146.771001,139.449965 146.771001,139.492361 Z" id="Path" fill="#000000" fill-rule="nonzero"></path>
                                <path d="M122.300664,139.269088 L122.302987,139.269088 L122.302987,55.1624707 L47.1307953,55.1624707 L47.1331189,139.269088 C47.1315712,139.343415 47.1307953,139.41784 47.1307953,139.492361 C47.1307953,150.466989 63.9586637,159.363684 84.7168913,159.363684 C105.475119,159.363684 122.302987,150.466989 122.302987,139.492361 C122.302987,139.41784 122.302211,139.343415 122.300664,139.269088 Z" id="Path" fill="#D8D8D8" fill-rule="nonzero"></path>
                                <path d="M84.7168913,97.5406981 C64.9314831,97.5406981 46.0647327,93.2697957 31.5467882,85.4997439 C15.3221506,76.8162642 5.33366441,64.1772059 5.33366441,50.0271851 C5.33366441,35.8771642 15.3221506,23.238106 31.5467882,14.5546263 C46.0647327,6.78457437 64.9314831,2.51367204 84.7168913,2.51367204 C104.502299,2.51367204 123.36905,6.78457437 137.886994,14.5546263 C154.111632,23.238106 164.100118,35.8771642 164.100118,50.0271851 C164.100118,64.1772059 154.111632,76.8162642 137.886994,85.4997439 C123.36905,93.2697957 104.502299,97.5406981 84.7168913,97.5406981 Z" id="Path" fill="#000000" fill-rule="nonzero"></path>
                                <path d="M84.7168913,79.7225322 C115.359989,79.7225322 140.201128,66.4274724 140.201128,50.0271851 C140.201128,33.6268977 115.359989,20.3318379 84.7168913,20.3318379 C54.0737934,20.3318379 29.2326543,33.6268977 29.2326543,50.0271851 C29.2326543,66.4274724 54.0737934,79.7225322 84.7168913,79.7225322 Z" id="Path" fill="#D8D8D8" fill-rule="nonzero"></path>
                                <path d="M66.0186258,36.5378435 C89.6242747,17.8324313 148.27905,71.9869469 134.648565,40.914832 C121.01808,9.84271705 83.1718872,17.4209196 57.9030413,15.8093569 C32.6341954,14.1977943 12.8943872,21.9875841 13.8129455,33.2083395 C14.7315039,44.4290948 42.412977,55.2432557 66.0186258,36.5378435 Z" id="Oval-Copy-27" fill="#000000" transform="translate(75.229687, 33.175815) rotate(-15.000000) translate(-75.229687, -33.175815) "></path>
                                <path d="M105.896358,91.7792897 L105.896358,91.7792897 C108.697071,91.7792897 110.967498,94.0497164 110.967498,96.8504296 L110.967498,132.858308 C110.967498,135.659021 108.697071,137.929448 105.896358,137.929448 L105.896358,137.929448 C103.095645,137.929448 100.825218,135.659021 100.825218,132.858308 L100.825218,96.8504296 C100.825218,94.0497164 103.095645,91.7792897 105.896358,91.7792897 Z" id="Rectangle" fill="#000000"></path>
                                <path d="M85.0151937,91.7466518 L85.0151937,91.7466518 C87.8159069,91.7466518 90.0863336,94.0170785 90.0863336,96.8177917 L90.0863336,138.663414 C90.0863336,141.464127 87.8159069,143.734553 85.0151937,143.734553 L85.0151937,143.734553 C82.2144804,143.734553 79.9440537,141.464127 79.9440537,138.663414 L79.9440537,96.8177917 C79.9440537,94.0170785 82.2144804,91.7466518 85.0151937,91.7466518 Z" id="Rectangle-Copy-8" fill="#000000"></path>
                                <path d="M64.1340292,91.7792897 L64.1340292,91.7792897 C66.9347425,91.7792897 69.2051691,94.0497164 69.2051691,96.8504296 L69.2051691,132.858308 C69.2051691,135.659021 66.9347425,137.929448 64.1340292,137.929448 L64.1340292,137.929448 C61.3333159,137.929448 59.0628893,135.659021 59.0628893,132.858308 L59.0628893,96.8504296 C59.0628893,94.0497164 61.3333159,91.7792897 64.1340292,91.7792897 Z" id="Rectangle-Copy-9" fill="#000000"></path>
                            </g>
                            <path d="M65.8348421,31.7784948 C84.2812475,21.6427335 128.505545,52.7583418 118.524427,35.1844947 C108.543308,17.6106476 77.3145887,15.2178184 57.9148194,13.9637638 C38.5150501,12.7097093 25.2282025,22.8971844 25.7547309,29.1876059 C26.2812592,35.4780275 47.3884367,41.914256 65.8348421,31.7784948 Z" id="Oval-Copy-29" fill="#F9F9F9" transform="translate(72.856133, 27.267929) rotate(-15.000000) translate(-72.856133, -27.267929) "></path>
                        </g>
                    </g>
                    <g id="Group-23" transform="translate(87.910129, 102.880394) rotate(2.000000) translate(-87.910129, -102.880394) translate(3.410129, 3.880394)">
                        <g id="Group-2" transform="translate(0.702669, 0.458594)">
                            <path d="M133.337012,101.702935 C142.247006,105.423229 147.046909,107.829273 151.67678,111.374081 C157.956809,116.182313 161.94401,122.126529 163.385776,129.750849 C165.222192,139.463429 166.199258,149.136008 167.212135,164.805752 C167.306223,166.261332 162.844726,192.697681 121.081302,194.145113 C108.710584,194.573856 97.1424181,196.973988 84.3666964,196.973988 C44.3148318,196.973988 19.5909538,186.6768 4.60754914,168.389833 L3.92571948,167.557673 L3.79548825,166.492918 C3.67330078,165.493928 3.53562533,164.496735 3.38249622,163.501696 C3.34836593,163.279459 3.01035403,161.131798 2.88677708,160.324165 C2.64604038,158.750837 2.43330806,157.274191 2.23074981,155.738176 C1.12721382,147.369973 0.615530006,139.428305 0.973505119,131.850727 C1.28173934,125.326058 2.23793764,119.483461 3.96897805,114.450462 C7.10311937,105.337947 17.1357081,97.348357 25.408678,95.8276887 C28.88289,95.188277 31.8067035,94.3990235 37.7778897,92.5974894 C37.9734606,92.5384782 37.9734606,92.5384782 38.1692795,92.4793802 C40.756539,91.6985565 42.0970527,91.3005455 43.533278,90.8971634 L45.7931961,89.4563559 C48.0025383,87.2416217 50.1982963,86.6849553 54.4540613,86.3740657 L54.463915,86.3733459 C56.880301,86.1968288 57.7753113,86.0028429 58.376747,85.4487413 C59.6441101,82.4604951 59.3380057,80.824817 56.9911163,78.3043346 C56.7672866,78.0658732 55.6384241,76.8816806 55.3123119,76.5333625 C50.5339311,71.4296091 48.4722296,67.2485721 49.747775,61.5833136 C49.5881713,59.6779204 49.0841292,57.8955395 47.7940921,54.1721202 C45.8229175,48.4827421 45.0814002,45.3869853 45.4203482,41.7062462 C40.3008517,33.7209105 41.1347894,23.2136138 47.5810009,16.133284 C57.241108,0.102373085 85.5746787,-5.73681375 97.9385543,6.81932009 C108.783192,17.3620201 113.87614,32.5034821 111.620573,47.4195693 C111.251611,50.1044566 110.347554,51.912603 108.236602,55.1200393 C108.010353,55.4634872 107.904714,55.6240878 107.794333,55.7931576 C106.005605,58.5329234 105.64053,59.7093781 106.181943,61.4045521 L106.536956,62.5161041 L106.188526,63.6297059 C106.06609,64.021015 105.974536,64.390356 105.773375,65.2752001 C105.195468,67.8172324 104.827676,68.9580008 103.847321,70.3742525 C102.85746,71.8042353 101.504847,72.8202449 99.8284587,73.3879677 C99.6412538,75.4067746 99.8140328,77.6700083 100.309749,81.6511602 C100.360628,82.0597741 100.382749,82.23803 100.410592,82.464744 C100.540266,83.5206098 100.638486,84.3883633 100.712954,85.1783583 C111.15428,91.5006317 122.057637,97.0236959 133.337012,101.702935 Z" id="Path" fill="#000000" fill-rule="nonzero"></path>
                            <path d="M51.7554025,30.6135324 C52.1949884,29.3954555 52.7566286,28.2270303 53.4314301,27.1267577 C55.4943824,23.3882487 57.0945127,19.2806592 60.2428956,16.2197843 C60.8530151,15.5460333 61.5936113,15.0085312 62.4180999,14.6410874 C63.1637706,14.3586282 63.9717576,14.3123895 64.7167816,14.0116163 C65.7960593,13.3592819 66.8006225,12.5866102 67.7119835,11.7078213 C68.6609477,10.8082525 70.0928071,10.690558 71.1743031,11.4232293 C71.6881286,10.1814828 72.6323371,9.1765083 73.8272968,8.59949784 C75.1679329,8.44065194 76.5235883,8.4616479 77.8596095,8.66194903 C79.2971805,8.61230513 80.6579306,6.89670686 82.0241768,8.90319648 C82.2415345,9.3736028 82.5433542,9.79853637 82.91402,10.1560114 C83.3703032,10.3892404 83.8737616,10.5100359 84.3837884,10.5086552 C87.3489171,10.9196775 89.3560184,14.2609257 92.3326495,14.4881874 C93.0011908,14.4443066 93.6724721,14.5140753 94.3190104,14.6946371 C97.221453,15.8779506 98.7520584,20.5008615 99.7090217,23.1449206 C101.710995,28.8884069 107.83947,38.8901144 103.002633,44.5763851 C102.277011,45.4265786 101.259347,46.1585028 101.081868,47.246476 C100.904389,48.3344492 101.14654,49.077877 100.817543,49.9510464 C100.488546,50.8242159 99.5670587,51.2227646 99.0852505,51.8445023 C98.5011046,53.0402857 98.1849387,54.3538451 98.1595591,55.6904288 C97.598804,58.6619447 95.0823151,60.7658449 93.314869,63.1922687 C91.8912944,65.1667453 90.9286016,67.4553603 89.6346948,69.5353772 C83.4717995,79.4481271 65.9410099,77.2113879 59.3091535,68.7489802 C57.2060478,66.491039 56.2744107,63.353726 56.7975178,60.290979 C56.4374837,59.8594103 56.2284686,59.3182516 56.2034577,58.7529046 C56.1911927,58.3960032 56.2147512,58.0388354 56.2737659,57.6869688 L56.262125,57.3573166 C56.1873654,57.1307398 56.0892053,56.9128508 55.9692986,56.7073204 C55.2093209,55.4548679 55.5665218,53.8154205 56.7743763,53.0122499 C57.6576162,52.4683465 58.769157,52.4869262 59.6367224,53.0600947 C61.6458568,54.4209477 71.2249216,51.5780731 73.7002045,51.3642393 C79.5413342,50.8385645 85.4134345,50.7522275 91.268828,51.1059294 C92.8168214,48.5141451 94.1237124,45.7802426 95.1724914,42.9398051 C95.4199059,42.4000257 95.5050384,41.7974114 95.4171838,41.2077388 C95.1280993,40.1542139 93.9272287,39.7739479 93.0593739,39.1438093 C89.8659066,36.8520289 91.2123834,32.1847723 87.3561182,30.4843071 C85.528112,29.6672895 83.383258,29.5579947 81.4872535,28.8533433 C79.0957214,27.8724226 76.8091434,25.7876969 74.3127956,26.423994 C72.1732538,26.9746242 70.5335353,29.4516462 68.3597174,29.0316337 C67.5625862,28.8757978 66.7698435,28.3347471 66.0248195,28.6355203 C65.2797955,28.9362935 65.0966341,30.3728534 64.5520014,31.2534694 C63.7526987,32.5646159 61.8318876,32.6859567 60.8669778,33.892804 C59.902068,35.0996514 60.2194697,36.4455799 59.6485985,37.6021472 C59.0882166,38.5503212 58.1750447,39.2265712 57.1166017,39.477219 C56.0581587,39.7278668 54.9443391,39.5316246 54.0282591,38.9330887 C52.2430597,37.6025484 51.2767446,35.4126807 51.4859034,33.1715908 C51.4709753,32.3105775 51.5615074,31.4512554 51.7554025,30.6135324 Z M78.6306981,58.103258 C74.5015617,57.8055712 69.0782987,56.0805569 65.3224494,59.3202541 C64.9308566,59.6665055 64.5657416,60.0469583 64.2307393,60.457825 C64.1918027,60.768719 64.1059292,61.0705626 63.976606,61.3510977 C65.9592883,62.2843076 67.9887601,63.0951658 70.055429,63.7798397 C76.0529402,65.388203 82.3209282,62.5393561 85.5085209,56.7562953 C83.2745735,57.5113349 80.9645845,57.9637265 78.6306981,58.103258 Z" id="Shape" fill="#FFFFFF" fill-rule="nonzero" transform="translate(78.138586, 42.005388) rotate(2.000000) translate(-78.138586, -42.005388) "></path>
                            <path d="M61.0510557,132.601181 C60.3141206,136.273272 65.6334388,158.393349 65.6334388,158.393349 C61.5951371,155.546076 52.5777288,134.259699 51.7201093,129.413971 C51.208337,126.448096 48.8740162,120.711501 46.2731188,119.434893 C45.3071793,119.064767 32.958415,113.767567 27.8278496,111.859541 C25.3340225,110.902912 13.5331492,95.7269937 15.9723821,93.7088642 C26.9960216,96.4664806 42.7985527,95.8809104 53.0430256,102.982264 C57.2679752,105.910951 61.2570759,114.745503 61.5054864,116.614703 C62.0190224,120.71315 62.0920679,124.855455 61.7233931,128.971874 C61.6797892,129.356112 61.3979476,130.807854 61.0510557,132.601181 Z" id="Path-Copy-6" fill="#FFFFFF" fill-rule="nonzero" transform="translate(40.637910, 126.051107) rotate(-104.000000) translate(-40.637910, -126.051107) "></path>
                            <path d="M150.486011,127.610155 C147.007893,146.019604 139.801865,163.451916 128.955029,179.709722 C116.831675,183.036507 104.918247,184.379164 95.1444095,184.900137 C95.2136132,184.859704 95.282757,184.81924 95.3518378,184.778748 C109.368098,176.565676 122.0228,167.983062 131.432904,157.820834 C139.940872,148.734565 147.804633,138.52814 150.452793,127.470076 C150.463989,127.516665 150.475062,127.563357 150.486011,127.610155 Z M82.7631148,185.210946 C71.7597049,185.210946 62.3574484,184.307528 54.2957068,182.742746 C63.0430986,177.880928 71.5466141,172.900493 80.1906978,168.000781 C106.638421,153.153278 135.652232,137.976702 136.24449,114.405998 C142.240299,116.422734 142.659002,120.217052 141.737237,122.771968 C137.437876,134.730715 131.706644,146.31632 122.4376,156.682088 C120.654918,158.663461 118.75347,160.600679 116.733256,162.493743 C114.579206,164.46443 112.27741,166.38829 109.981319,168.291025 C102.157706,174.412083 93.2377563,180.062829 83.2787631,185.210498 C83.1052188,185.210802 82.9333278,185.210946 82.7631148,185.210946 Z M34.8542453,169.579493 C36.7595981,163.29643 80.416428,129.477107 82.9715177,123.359185 C83.7691245,122.955364 84.4713183,122.504073 85.071991,122.009238 C86.3051726,120.806566 87.1633354,119.462792 87.6288791,118.005477 C90.6930471,111.095316 97.4029421,105.276089 100.48504,98.4923454 C104.792123,98.3278249 109.080253,99.9609517 114.647898,102.945582 C115.383295,103.339803 119.096672,105.750803 119.760881,106.111022 C119.101441,109.02536 117.971026,111.814525 116.378291,114.45716 C107.700539,126.276721 83.0200502,141.184335 71.2533305,151.779669 C70.3811539,152.56661 71.9327387,153.891508 74.0737327,153.54835 C74.6957333,153.411718 75.1786018,153.183979 75.4861095,152.882221 C90.9504043,141.081112 118.911934,124.611638 127.166997,110.117725 C130.510576,111.234771 130.557996,113.437094 129.827889,114.854854 C128.264331,117.987303 126.49563,121.06521 124.521786,124.088575 C114.153173,140.111734 80.0602594,164.276064 51.1397239,179.884675 C46.5540393,170.834216 32.4777327,177.478416 34.8542453,169.579493 Z" id="Shape" fill="#D8D8D8"></path>
                        </g>
                    </g>
                </g>
            </g>
        </g>
    </g>
</svg>