<?xml version="1.0" encoding="UTF-8"?>
<svg width="1500px" height="1500px" viewBox="0 0 1500 1500" version="1.1" xmlns="http://www.w3.org/2000/svg" xmlns:xlink="http://www.w3.org/1999/xlink">
    <!-- Generator: Sketch 53.2 (72643) - https://sketchapp.com -->
    <title>Artboard</title>
    <desc>Created with Sketch.</desc>
    <g id="Artboard" stroke="none" stroke-width="1" fill="none" fill-rule="evenodd">
        <g id="Group" transform="translate(0.000000, 241.000000)">
            <path d="M567,478.182666 C485.277843,538.756757 439.921439,583.95451 430.930789,614.201018 C391.45638,746.459243 368.838832,797.707784 404.225102,838.128448 C438.690293,877.678525 336.479807,984.577749 230.347819,994.04745 C124.215831,1003.48249 143.449204,1000.6479 69.0937588,974.935628 C3.66161372,952.565382 -15.373462,917.796231 12.3140929,865.601514 C37.9459467,817.080551 220.371539,666.07066 257.965132,604.423119 C321.43461,499.567 343.214536,436.451738 448.741699,375.535923 C505.546268,342.437246 496.908182,365.957986 544.497305,368.091378 L567,478.182666 Z" id="Path-Copy-11" stroke="#000000" stroke-width="5" fill="#000000"></path>
            <g id="Group-3" transform="translate(421.000000, 0.000000)">
                <path d="M106.205666,492.288508 C60.3974261,495.182704 20.8220033,467.939803 18.9042237,429.912502 C16.9946688,392.043043 53.3583619,359.870141 99.047881,356.628711 C144.892696,353.385796 184.514102,380.685578 186.429367,419.046398 C188.336111,457.231307 151.940364,489.407526 106.205666,492.288508 Z" id="Oval-Copy-25" stroke="#000000" stroke-width="21" fill="#FFFFFF"></path>
                <path d="M105.544567,470.096348 C146.013656,467.517523 177.531854,439.635069 175.942433,407.807577 C174.353012,375.975723 140.257854,352.506423 99.788766,355.398996 C59.3196777,358.299982 27.8014796,386.211547 29.3909002,417.729653 C30.9803209,449.243398 65.075479,472.683587 105.544567,470.096348 Z" id="Oval-Copy-26" fill="#D8D8D8"></path>
                <path d="M44.7452282,392.387375 L28.8343883,75.5378522 L141.397587,65.3674932 L141.955328,76.5452399 L157.352394,385.124483 C157.353593,385.152514 157.354547,385.171614 157.360577,385.287637 C157.364235,385.357522 157.364235,385.357522 157.368628,385.444121 L157.368627,385.444098 C158.667398,411.454381 134.061106,432.977947 103.548514,435.023511 C72.925124,437.080481 46.0762443,418.935556 44.7657474,392.852097 C44.7579646,392.697184 44.751125,392.542275 44.7452282,392.387375 Z" id="Path" stroke="#000000" stroke-width="21.5" fill="#D8D8D8" stroke-linecap="round" stroke-linejoin="round"></path>
                <path d="M89.1516959,158.724749 C126.113686,155.582409 154.905019,129.500762 153.458937,100.460039 C152.012855,71.4156686 120.876961,50.6235328 83.9149707,54.0292246 C46.9529804,57.4420059 18.1616479,83.5481178 19.6077296,112.329137 C21.0538114,141.106508 52.1897056,161.874179 89.1516959,158.724749 Z" id="Oval-Copy-21" fill="#000000"></path>
                <path d="M88.1100717,134.04241 C45.7393523,137.748082 8.94535389,113.291921 7.16541143,77.8824939 C5.4057651,42.8723935 38.8851503,12.449368 80.9726198,8.46831323 C123.376246,4.46548242 160.212823,28.9714971 161.990379,64.6614932 C163.747506,99.9368743 130.239109,130.365089 88.1100717,134.04241 Z" id="Oval-Copy-17" stroke="#000000" stroke-width="21" fill="#D8D8D8"></path>
                <path d="M62.3940748,53.6477524 C82.0849663,8.97324667 171.326044,66.773509 143.18172,22.1573413 C115.037396,-22.3022503 74.4895466,11.9469919 44.7443569,23.5729954 C14.9991672,35.1674854 -4.61261077,59.2704789 0.940224838,77.4463252 C6.49306045,95.6323964 42.7031834,98.1909872 62.3940748,53.6477524 Z" id="Oval-Copy-27" fill="#000000"></path>
                <path d="M114.304181,143.450198 C117.669816,143.158544 120.547018,145.932071 120.730594,149.644935 L131.990779,377.271472 C132.174354,380.980623 129.594786,384.178965 126.229152,384.415278 C122.863518,384.651651 119.986315,381.838996 119.802739,378.13293 L108.542554,150.695628 C108.358979,146.985849 110.938547,143.741911 114.304181,143.450198 Z" id="Rectangle" fill="#000000"></path>
                <path d="M89.859737,156.134121 C93.2253712,155.845055 96.102574,158.608502 96.2861494,162.306347 L107.546335,389.01184 C107.72991,392.70598 105.150342,395.890159 101.784707,396.124012 C98.4190733,396.357924 95.5418704,393.555438 95.358295,389.864377 L84.0981099,163.347684 C83.9145345,159.652917 86.4941028,156.423247 89.859737,156.134121 Z" id="Rectangle-Copy-8" fill="#000000"></path>
                <path d="M64.4375147,147.353218 C67.8031489,147.06086 70.6803518,149.821634 70.8639272,153.519471 L82.1241124,380.224321 C82.3076878,383.918447 79.7281194,387.105208 76.3624853,387.342261 C72.9968511,387.579372 70.1196482,384.779496 69.9360728,381.088453 L58.6758876,154.572718 C58.4923122,150.877965 61.0718806,147.645636 64.4375147,147.353218 Z" id="Rectangle-Copy-9" fill="#000000"></path>
                <path d="M62.0943137,44.1688363 C79.1755976,16.8140709 142.19574,43.9397826 123.7706,20.0942912 C105.34546,-3.69344922 68.6414013,10.0225672 45.9328195,18.9083008 C23.2242377,27.7755824 12.0702931,52.2170428 15.1781639,62.3908016 C18.2860346,72.567786 45.0130297,71.4584895 62.0943137,44.1688363 Z" id="Oval-Copy-29" fill="#F9F9F9"></path>
            </g>
            <path d="M407.034795,679.356066 C359.515431,681.784155 318.555126,653.111938 316.573272,613.786681 C314.59371,574.501132 352.398361,541.509648 399.880008,538.6907 C447.438677,535.877724 488.447779,564.611939 490.427002,604.307424 C492.403538,643.943234 454.564485,676.936982 407.034795,679.356066 Z" id="Oval-Copy-25" stroke="#000000" stroke-width="21" fill="#FFFFFF"></path>
            <path d="M405.500026,656.86563 C447.716691,654.684003 480.596902,625.993267 478.940033,592.770218 C477.283164,559.542324 441.716638,534.646641 399.499974,537.177013 C357.283309,539.716745 324.403098,568.439846 326.059967,601.318995 C327.716836,634.193299 363.283362,659.056617 405.500026,656.86563 Z" id="Oval-Copy-26" fill="#D8D8D8"></path>
            <path d="M342.429796,574.929115 L325.738056,243.742453 L442.959061,234.404782 L443.512614,245.462525 L459.682954,568.485579 C459.684298,568.516886 459.685386,568.538605 459.691759,568.660784 C459.695591,568.733748 459.695591,568.733748 459.700158,568.823484 L459.700156,568.823459 C461.052471,595.816784 435.353609,617.88856 403.516101,619.637428 C371.654046,621.392038 343.809135,602.340203 342.451204,575.412578 C342.443077,575.251411 342.435941,575.090255 342.429796,574.929115 Z" id="Path" stroke="#000000" stroke-width="21.5" fill="#D8D8D8" stroke-linecap="round" stroke-linejoin="round"></path>
            <path d="M388.773618,331.74717 C427.955334,328.876196 458.476599,301.940234 456.944772,271.573191 C455.412945,241.20209 422.408097,219.137758 383.226382,222.301954 C344.044666,225.474049 313.523401,252.437255 315.055228,282.515136 C316.587055,312.588958 349.591903,334.626044 388.773618,331.74717 Z" id="Oval-Copy-21" fill="#000000"></path>
            <path d="M387.566801,305.200504 C343.033545,308.578278 304.437866,282.901595 302.568828,246.219024 C300.714366,209.81764 336.02265,178.550819 380.356445,174.856107 C424.924,171.150894 463.564956,196.881468 465.43143,233.875747 C467.283105,270.571816 431.943802,301.842626 387.566801,305.200504 Z" id="Oval-Copy-17" stroke="#000000" stroke-width="21" fill="#D8D8D8"></path>
            <path d="M414.904153,315.01695 C418.347532,314.74881 421.291198,317.69385 421.479014,321.59476 L432.990566,560.560847 C433.178382,564.457606 430.539226,567.783665 427.095847,567.989928 C423.652468,568.196259 420.708802,565.207472 420.520986,561.314165 L409.009434,322.559653 C408.821618,318.662194 411.460774,315.285157 414.904153,315.01695 Z" id="Rectangle" fill="#000000"></path>
            <path d="M388.904153,329.01661 C392.347532,328.752227 395.291198,331.675323 395.479014,335.54541 L406.990566,572.622988 C407.178382,576.488947 404.539226,579.787297 401.095847,579.990178 C397.652468,580.193125 394.708802,577.226546 394.520986,573.364018 L383.009434,336.496735 C382.821618,332.63008 385.460774,329.28106 388.904153,329.01661 Z" id="Rectangle-Copy-8" fill="#000000"></path>
            <path d="M361.904153,320.017064 C365.347532,319.74908 368.291198,322.669255 368.479014,326.539335 L379.990566,563.616351 C380.178382,567.482298 377.539226,570.783466 374.095847,570.989838 C370.652468,571.196276 367.708802,568.232542 367.520986,564.370033 L356.009434,327.503687 C355.821618,323.637043 358.460774,320.285114 361.904153,320.017064 Z" id="Rectangle-Copy-9" fill="#000000"></path>
            <path d="M366.299363,228.238908 C385.086818,198.673585 454.681237,229.208842 434.299402,202.920454 C413.917568,176.702193 373.448699,191.112024 348.411776,200.460506 C323.374853,209.786808 311.121351,236.255147 314.572837,247.388678 C318.024323,258.52614 347.511908,257.725662 366.299363,228.238908 Z" id="Oval-Copy-28" fill="#F9F9F9"></path>
            <g id="Group-4" transform="translate(196.000000, 427.000000)">
                <path d="M100.396689,525.432933 C49.2734226,527.131909 5.31519977,496.258739 3.19952428,454.814449 C1.07679449,413.225307 41.9232133,378.987055 93.1332717,376.830532 C144.298105,374.68818 188.309624,405.630969 190.422404,447.506122 C192.541659,489.502948 151.657416,523.74061 100.396689,525.432933 Z" id="Oval-Copy-25" stroke="#000000" stroke-width="21" fill="#FFFFFF"></path>
                <path d="M99.0761104,503.230962 C144.984745,501.676679 180.751223,471.699636 178.962775,436.260314 C177.174326,400.815378 138.5082,373.659376 92.5995653,375.620732 C46.6909304,377.593094 10.9244525,407.608006 12.712901,442.645868 C14.5013496,477.678115 53.1674754,504.796249 99.0761104,503.230962 Z" id="Oval-Copy-26" fill="#D8D8D8"></path>
                <path d="M32.0053613,414.458992 L14.0205237,61.960193 L139.598177,53.9268443 L140.149191,64.8066351 L157.597433,409.328441 C157.598976,409.364014 157.600248,409.389099 157.607172,409.520209 C157.611296,409.597819 157.611296,409.597819 157.616172,409.69251 L157.616171,409.692483 C159.060598,438.189334 131.40157,461.013979 97.2212967,462.292997 C63.1424889,463.573302 33.4690928,443.192614 32.028281,414.971162 C32.0195641,414.800415 32.0119244,414.62969 32.0053613,414.458992 Z" id="Path" stroke="#000000" stroke-width="21.5" fill="#D8D8D8" stroke-linecap="round" stroke-linejoin="round"></path>
                <path d="M81.2860278,154.911582 C123.436311,152.450648 156.279867,123.996648 154.644164,91.3450274 C153.00846,58.6886671 117.512904,34.4797406 75.3626208,37.2856437 C33.2123374,40.1009095 0.36878127,68.5870407 2.00448495,100.898432 C3.64018862,133.205083 39.1357444,157.381878 81.2860278,154.911582 Z" id="Oval-Copy-21" fill="#000000"></path>
                <path d="M79.9805836,128.311786 C32.5223414,131.216923 -8.46078245,103.409446 -10.428025,64.5656438 C-12.3879175,25.8612952 25.3385222,-6.94941613 72.6919804,-10.2360076 C120.187984,-13.5219475 161.220553,14.3467747 163.18506,53.55638 C165.141875,92.6068002 127.381271,125.419706 79.9805836,128.311786 Z" id="Oval-Copy-17" stroke="#000000" stroke-width="21" fill="#D8D8D8"></path>
                <path d="M58.1678297,47.4745316 C78.3902365,15.3763675 153.150414,49.8355013 131.274157,20.7415555 C109.3979,-8.26887926 65.8909239,6.92883892 38.9739174,16.8031532 C12.056911,26.6509701 -1.14029154,55.4431535 2.55703376,67.6789796 C6.25435905,79.9194817 37.9454229,79.4789473 58.1678297,47.4745316 Z" id="Oval-Copy-27" fill="#F9F9F9"></path>
                <path d="M110.59512,139.490623 C114.378431,139.262937 117.612696,142.456553 117.819053,146.623623 L130.368013,399.884381 C130.57437,404.046634 127.674677,407.547058 123.891366,407.702938 C120.108056,407.858896 116.873791,404.614538 116.667434,400.456321 L104.118473,147.440981 C103.912116,143.277947 106.81181,139.718387 110.59512,139.490623 Z" id="Rectangle" fill="#000000"></path>
                <path d="M81.4059312,151.194966 C85.1892418,150.969307 88.4235065,154.164578 88.6298636,158.331663 L101.178824,411.593005 C101.385181,415.755263 98.4854874,419.253927 94.7021769,419.407633 C90.9188663,419.561416 87.6846016,416.315298 87.4782445,412.157085 L74.9292842,159.141665 C74.722927,154.978624 77.6226207,151.420703 81.4059312,151.194966 Z" id="Rectangle-Copy-8" fill="#000000"></path>
                <path d="M53.189715,142.416926 C56.9730255,142.187997 60.2072903,145.368331 60.4136474,149.520261 L72.9626077,401.860246 C73.1689649,406.007357 70.2692712,409.496493 66.4859607,409.653591 C62.7026501,409.810767 59.4683854,406.579673 59.2620283,402.436599 L46.713068,150.342119 C46.5067108,146.194227 49.4064045,142.645934 53.189715,142.416926 Z" id="Rectangle-Copy-9" fill="#000000"></path>
            </g>
            <g id="Group-2" transform="translate(886.188497, 586.853896) rotate(2.000000) translate(-886.188497, -586.853896) translate(291.688497, 42.853896)">
                <path d="M364.77574,959.063873 C501.025635,949.648561 604.265914,851.517039 595.369358,739.880984 C586.472802,628.24493 468.808355,548.281469 332.55846,561.277596 C196.308566,574.273723 93.0682859,672.405245 101.964842,780.460485 C110.861398,888.515725 228.525845,968.479186 364.77574,959.063873 Z" id="Oval-Copy" fill="#000000"></path>
                <path d="M456.701116,2.67152535 C838.541956,-25.6949239 1153.33371,175.411344 1184.12667,435.85523 C1232.28193,843.850981 905.908388,983.393 602.099483,1051.33372 C298.290579,1117.35824 68.3114813,1075.22164 -7.57502956e-14,1064.08963 C69.3088921,978.9216 110.81128,913.163813 124.507164,867.354524 C140.608483,813.367123 210.931251,714.176524 234.235994,635.203854 L337.082664,283.103737 C350.368557,282.320957 363.550449,281.827857 376.613293,281.617996 L456.701116,2.67152535 Z" id="Path-Copy-3" stroke="#000000" stroke-width="5" fill="#000000"></path>
                <path d="M698.771924,116.383837 C744.986405,114.723545 741.029486,51.8994675 782.633254,65.2675004 C1017.09548,140.604397 1136.7764,293.901257 1152.69195,501.338486 C1172.77786,763.130693 910.116396,961.705706 562.419263,984.845557 C538.050926,986.467313 484.554068,1001.14241 460.751166,1000.77808 C680.025124,964.267479 868.840292,798.723633 855.597032,629.471995 C843.429536,473.968833 698.015461,348.609582 441.807542,323.638636 C458.824636,283.41178 473.951007,253.510708 487.186653,233.984658 C500.048755,214.976936 581.399411,190.181613 588.971895,174.902384 C606.167406,140.14671 652.557443,118.067247 698.771924,116.383837 Z" id="Path-Copy-4" fill="#D8D8D8"></path>
                <path d="M489.410506,121.433371 C487.205048,121.421964 484.991365,121.429041 482.769831,121.454778 L488.129774,100.963424 C771.464662,90.1009266 1048.58548,259.442964 1065.35398,476.224902 C1065.62537,479.733448 1065.83877,483.237486 1065.9948,486.736441 C1041.93849,274.47327 768.82758,110.026486 489.685135,120.38347 L489.410506,121.433371 Z" id="Path-Copy-5" fill="#FFFFFF"></path>
                <path d="M460.338101,196.526108 L465.215138,177.879507 C721.055782,169.175734 971.281304,322.79127 986.417704,518.227945 C986.662682,521.391025 986.855293,524.54996 986.996099,527.704237 C965.27899,336.322304 718.674141,187.151704 466.619113,195.444505 L466.335818,196.527624 C464.343878,196.510368 462.344526,196.509808 460.338101,196.526108 Z" id="Path-Copy-6" fill="#FFFFFF"></path>
                <path d="M444.73342,275.530715 L448.90104,259.684428 C665.40409,253.361206 877.150207,383.08357 889.952976,547.065072 C890.160184,549.71906 890.323078,552.369546 890.442133,555.016102 C872.070367,394.422962 663.388063,268.464557 450.08856,274.492733 L449.810249,275.550924 C448.12413,275.530059 446.431758,275.523276 444.73342,275.530715 Z" id="Path-Copy-8" fill="#FFFFFF"></path>
                <path d="M443.758127,261.876184 L447.93009,246.044819 C664.447253,239.499225 876.192596,368.767122 888.97851,532.448161 C889.185446,535.097286 889.348065,537.742961 889.46684,540.384746 C871.111212,380.092069 662.429454,254.578081 449.116046,260.825424 L448.834692,261.893068 C447.148674,261.873294 445.456391,261.867619 443.758127,261.876184 Z" id="Path" fill="#000000"></path>
                <path d="M542.463528,974.709419 C747.169854,950.7348 931.53814,807.109281 936.160914,684.747458 C936.376808,686.863391 937.683132,716.904319 922.409348,756.614204 C872.067205,886.868516 760.092838,976.441928 552.312026,1000.61667 L398.894668,1008.58814 C400.518519,1008.3634 517.17626,983.141261 519.53239,977.698717 L542.463528,974.709419 Z" id="Path" fill="#000000"></path>
                <path d="M675.07657,962.51281 C877.103363,922.806031 1041.30916,750.547929 1038.06428,627.197458 C1038.41645,629.305862 1041.64159,659.386435 1028.98444,700.499156 C987.266669,835.445227 881.685419,934.299654 676.624384,974.448305 L670.026008,963.115379 C671.626255,962.767261 673.218303,962.409111 674.801908,962.0411 L675.07657,962.51281 Z" id="Path-Copy-7" fill="#000000"></path>
                <path d="M457.412224,179.934152 L462.290626,161.32479 C719.109757,152.280585 970.271877,305.858512 985.4414,501.629355 C985.686914,504.797844 985.879861,507.962242 986.020806,511.122034 C964.244909,319.421267 716.71671,170.29111 463.697674,178.917818 L463.433819,179.924315 C461.433943,179.910683 459.426631,179.913907 457.412224,179.934152 Z" id="Path" fill="#000000"></path>
                <path d="M478.868661,105.667153 L484.423294,84.4221207 C771.517429,73.0390413 1052.28891,244.47984 1069.24819,464.368999 C1069.52267,467.927835 1069.73838,471.482148 1069.89597,475.031356 C1045.55156,259.733872 768.842418,93.250921 485.99635,104.111136 L485.600713,105.62432 C483.364875,105.619661 481.120731,105.633878 478.868661,105.667153 Z" id="Path" fill="#000000"></path>
                <path d="M444.073947,428.269484 C493.461664,425.200305 489.960983,379.667945 536.219579,389.644721 C686.356449,422.622563 791.701235,518.990207 804.331179,634.608896 C822.124432,797.583476 649.450725,950.158393 418.653661,975.051754 C402.115914,976.824957 385.728477,977.913479 369.548173,978.35 C514.28739,948.661521 617.277057,848.848594 605.569007,743.020842 C594.840809,646.089553 509.442001,561.006637 332.574772,553.113457 C343.253767,523.70543 352.72903,502.242421 361.000564,488.748983 C362.967617,485.537845 399.522869,488.458606 402.300026,484.612102 C408.1613,476.489265 422.08594,457.728157 444.073947,428.269484 Z" id="Path" stroke="#000000" stroke-width="5" fill="#D8D8D8"></path>
                <path d="M356.957087,435.750662 L360.136033,422.174392 C543.15742,411.331194 725.602541,513.203804 740.605497,648.899518 C740.848315,651.096313 741.053575,653.291535 741.222367,655.484746 C721.594814,522.754624 541.840892,423.928402 361.527631,434.466884 L361.25166,435.645489 C359.825008,435.668616 358.393402,435.703637 356.957087,435.750662 Z" id="Path" fill="#000000"></path>
                <path d="M346.228869,496.994559 L349.164872,484.438564 C514.500957,475.252509 679.319139,567.874209 692.875614,690.50186 C693.095021,692.487044 693.280499,694.470736 693.43303,696.452542 C675.698901,576.492485 513.311946,486.640044 350.422301,495.571905 L350.109571,496.909335 C348.820383,496.926953 347.526742,496.955327 346.228869,496.994559 Z" id="Path" fill="#000000"></path>
                <path d="M346.046021,356.327853 L309.459937,542.290615 L329.832186,546.91197 L366.417404,360.733265 L346.046021,356.327853 Z" id="Rectangle" stroke="#979797" stroke-width="0.5" fill="#D8D8D8"></path>
                <path d="M468.037177,38.34608 L406.992943,314.539604 L426.306849,319.630885 L487.349683,43.1494325 L468.037177,38.34608 Z" id="Rectangle-Copy-10" stroke="#979797" stroke-width="0.5" fill="#D8D8D8"></path>
                <path d="M102.650939,1001.67487 C192.924124,1030.03091 520.817275,1070.21311 811.912543,940.442833 C570.421986,1065.15392 261.889758,1086.30066 65.8700501,1050.514 L102.650939,1001.67487 Z" id="Path-Copy-9" fill="#FFFFFF" transform="translate(438.891297, 1003.301954) rotate(1.000000) translate(-438.891297, -1003.301954) "></path>
                <path d="M168.508597,960.427866 C206.786228,968.819831 304.034242,999.213885 484.595781,905.204664 C376.716524,991.040035 241.039107,1009.57828 153.464607,984.937849 L168.508597,960.427866 Z" id="Path-Copy-10" fill="#FFFFFF" transform="translate(319.030194, 950.093106) rotate(13.000000) translate(-319.030194, -950.093106) "></path>
                <path d="M184.330299,758.937624 C192.43087,820.374523 268.416323,865.520877 357.475243,860.62071 C449.052279,855.599131 519.77417,798.492998 515.437009,733.046168 C515.295822,730.915519 515.076835,728.802883 514.782105,726.709571 L515.020758,726.690678 L519.830949,783.60747 L519.641869,783.621772 C520.923431,847.435338 451.228781,902.158358 361.515873,906.817717 C274.430615,911.356569 199.842441,868.042248 189.001161,808.63141 L188.620452,808.660207 L184.330299,758.937624 Z" id="Path" stroke="#979797" stroke-width="0.5" fill="#D8D8D8"></path>
                <path d="M357.076478,847.26944 C270.184979,852.36005 196.417148,804.85755 192.311416,741.145361 C188.205685,677.42363 255.316809,620.541315 342.208308,614.11943 C429.099807,607.714817 502.867637,655.278411 506.973369,720.331416 C511.079101,785.37488 443.967977,842.196101 357.076478,847.26944 Z" id="Oval-Copy-18" stroke="#979797" stroke-width="0.5" fill="#D8D8D8"></path>
                <path d="M358.067108,832.815779 C443.809402,824.691573 508.420828,766.46824 503.461427,702.305085 C504.541039,706.593959 505.309896,710.987755 505.748904,715.474681 C512.096917,780.360274 447.07355,839.55961 360.515148,847.675815 C273.956747,855.774743 198.641216,810.79993 192.293203,747.246041 C192.233351,746.646874 192.179844,746.048147 192.13264,745.449897 C206.664107,802.027334 277.494807,840.43467 358.067108,832.815779 Z" id="Path" fill="#FFFFFF"></path>
                <path d="M347.798513,639.999083 C272.753349,646.725585 215.652436,697.659907 220.260054,753.764075 C220.937812,762.016717 222.913,769.931883 226.028109,777.412712 C220.317487,767.362908 216.759267,756.361948 215.800015,744.684595 C211.192397,688.594237 268.29331,637.633003 343.338474,630.859492 C407.344871,625.082331 463.732114,653.87508 481.794538,697.935073 C460.075069,659.128369 407.220157,634.67296 347.798513,639.999083 Z" id="Path" fill="#000000"></path>
                <path d="M412.024304,747.693365 L307.622078,777.053386 C301.760946,778.693123 296.381191,774.565625 295.606058,767.835361 C295.425457,766.26728 295.510118,764.639995 295.855397,763.0427 L315.675027,671.192574 C317.156948,664.312073 322.998037,659.517534 328.721462,660.486263 C330.054985,660.712126 331.309335,661.245663 332.415696,662.057653 L416.998293,724.497541 C421.746752,728.024119 422.740839,735.77407 419.218648,741.802819 C417.492491,744.75631 414.896732,746.881513 412.024304,747.693365 Z" id="Path" fill="#FFFFFF"></path>
                <path d="M407.860473,754.239296 L311.549371,781.949708 C306.142474,783.497829 301.183914,779.614688 300.474115,773.277346 C300.308737,771.800809 300.388051,770.268352 300.707707,768.763979 L319.056555,682.2671 C320.428506,675.788396 325.819265,671.272909 331.097152,672.183751 C332.326867,672.396106 333.483331,672.898147 334.503096,673.662371 L412.46535,732.40482 C416.842144,735.721145 417.753158,743.014379 414.500157,748.690572 C412.905923,751.471415 410.510289,753.473302 407.860473,754.239296 Z" id="Path" fill="#000000"></path>
            </g>
        </g>
    </g>
</svg>