<?xml version="1.0" encoding="UTF-8"?>
<svg width="680px" height="502px" viewBox="0 0 680 502" version="1.1" xmlns="http://www.w3.org/2000/svg" xmlns:xlink="http://www.w3.org/1999/xlink">
    <!-- Generator: Sketch 53.2 (72643) - https://sketchapp.com -->
    <title>Group 30</title>
    <desc>Created with Sketch.</desc>
    <defs>
        <polygon id="path-1" points="0.677230549 0.0534382482 150.875739 0.0534382482 150.875739 118.180741 0.677230549 118.180741"></polygon>
    </defs>
    <g id="Illustrations" stroke="none" stroke-width="1" fill="none" fill-rule="evenodd">
        <g id="Artboard-Copy" transform="translate(-84.000000, -2145.000000)">
            <g id="Group-30" transform="translate(397.864546, 2431.688625) rotate(5.000000) translate(-397.864546, -2431.688625) translate(4.864546, 2152.188625)">
                <g id="Group-24" transform="translate(656.617304, 273.609065) scale(-1, -1) rotate(12.000000) translate(-656.617304, -273.609065) translate(541.617304, 194.109065)" fill-rule="nonzero">
                    <g id="Group-25" transform="translate(115.098464, 79.145905) rotate(14.000000) translate(-115.098464, -79.145905) translate(11.098464, 23.645905)">
                        <path d="M23.779849,83.2529408 L-4.54747351e-13,81.2012035 L15.0098473,66.5371167 C36.1073122,45.9256441 55.1262265,33.2332707 72.9734577,28.6009238 C87.5529847,24.8167276 96.4695069,24.0826481 109.855558,24.4664086 C112.874177,24.5529485 113.921448,24.5723797 115.247948,24.551804 C117.626015,24.5149172 119.476294,24.3105553 121.492734,23.8338062 C122.972824,23.4838669 125.608555,22.2401484 128.879484,20.2008726 C131.230044,18.7354051 133.792427,16.942244 136.643361,14.791781 C138.336173,13.5148908 140.045238,12.1791142 142.151901,10.4978322 C142.331786,10.3542693 146.093293,7.33729766 147.066087,6.56936159 C148.919863,5.10596785 150.249749,4.10748423 151.476345,3.29423768 C152.500811,2.61500567 153.462065,2.05510383 154.573148,1.5527278 C155.610188,1.0838306 156.706414,0.695620468 158.014482,0.4099601 C160.581236,-0.150576603 163.389057,-0.206265552 166.410545,0.68578279 L168.055697,1.17148891 L169.480023,1.98141547 C173.747688,4.40817356 177.071207,5.93752236 179.169953,6.55714519 C180.918224,7.0732957 185.332531,7.77857341 191.865909,8.47613835 L193.32531,8.6319577 L194.704287,9.03907981 C201.525577,11.052962 207.301645,15.7065058 207.301645,21.9951784 L207.301645,25.3056266 L204.853353,27.9971461 C187.225647,47.3760902 165.551648,58.9128082 140.188778,62.0012096 C137.193194,62.3659778 134.587517,62.4106842 131.78652,62.2034379 C131.143895,62.1558899 130.522826,62.0985395 129.768193,62.0206757 C129.485577,61.9915152 128.388617,61.8746568 128.118767,61.8468334 C123.53756,61.3744786 119.202594,61.3732302 110.310551,62.2399111 C109.717486,62.2977154 108.369846,62.7243947 106.43494,63.6710249 C103.832136,64.944416 100.712842,66.9056271 97.1577362,69.5499372 C89.4868166,75.2556156 80.1944865,83.8278507 69.4027569,95.2115746 L54.8644236,110.547427 L46.5941508,92.5532729 C45.1144605,89.3338174 43.6944963,86.9825468 42.4776646,85.5707469 C42.4061171,85.4877357 42.3390639,85.4122634 42.2770239,85.3442539 C38.9433795,84.7491783 32.6326853,84.0167679 23.779849,83.2529408 Z" id="Path" fill="#000000"></path>
                        <path d="M161.998581,11.9752296 C159.733914,11.3066211 139.422114,32.0396036 125.445743,35.3440527 C111.469371,38.6485019 103.993066,33.0897608 77.2602116,40.02842 C62.3374323,43.9017093 45.0483169,55.4396923 25.3928655,74.642369 C36.508791,75.6014566 43.9240789,76.5178959 47.638729,77.3916868 C51.6354366,78.3318257 55.4539827,82.7622023 59.0943673,90.6828166 C81.5049666,67.042855 98.102803,54.6972796 108.887877,53.6460906 C130.114145,51.5772294 130.518447,54.4069128 138.373382,53.4504283 C160.036819,50.8125017 178.70998,40.8730814 194.392866,23.6321675 C194.392866,22.4762255 192.55699,20.9971351 190.292323,20.3285266 C182.848547,19.533759 177.670435,18.7064475 174.757989,17.846592 C171.382937,16.8501592 167.129801,14.8930384 161.998581,11.9752296 Z" id="Path" fill="#FFFFFF"></path>
                    </g>
                </g>
                <g id="Group-29" transform="translate(226.426429, 238.572314) rotate(-2.000000) translate(-226.426429, -238.572314) translate(6.926429, 43.072314)">
                    <g id="Group-28" transform="translate(219.661068, 195.612987) rotate(-14.000000) translate(-219.661068, -195.612987) translate(32.161068, 41.112987)">
                        <g id="Group-3" transform="translate(186.829314, 183.974501)">
                            <mask id="mask-2" fill="white">
                                <use xlink:href="#path-1"></use>
                            </mask>
                            <g id="Clip-2"></g>
                        </g>
                        <path d="M237.500301,116.145274 C232.66574,127.330191 212.072258,154.947824 211.857889,155.167965 C211.574658,155.458944 282.307439,207.456084 344.640448,246.464018 L363.063198,257.992955 L306.394579,261.762712 C308.817962,280.589139 309.274709,284.618866 309.069731,285.788126 L307.729316,293.434317 C287.355085,285.747795 275.459459,280.660599 272.042436,278.172727 C262.604248,271.300955 249.855638,261.858336 235.780359,251.325497 C207.87645,230.44439 181.001125,209.962056 174.439596,204.534406 C171.849644,202.488092 168.736933,200.010555 165.844536,197.697691 C164.040478,199.153241 161.898585,200.882534 159.37713,202.91902 L159.372245,202.922966 C152.784493,208.24365 152.564032,218.141259 150.110578,220.108334 C145.808024,223.557638 69.2336317,284.917929 69.7522206,282.184708 C69.7899907,281.985641 59.7695625,236.912498 60.3980764,233.726899 C56.565194,233.539464 40.3786385,228.898043 11.8384099,219.802638 C33.6644235,209.526427 46.7803268,202.390198 51.1861197,198.393951 C85.9485992,174.526885 103.650404,162.306171 104.291534,161.731809 C99.3971374,156.019763 94.8307647,149.568913 88.5531295,135.53856 C84.3025343,126.038589 78.2155742,86.8757103 90.7951566,60.2608236 C104.413338,31.448552 137.956543,15.4343174 165.94967,15.4343174 C219.80101,15.4343174 238.801115,56.262094 241.033336,64.6152112 C244.585599,77.9080146 242.334861,104.960357 237.500301,116.145274 Z" id="Path" fill="#000000" fill-rule="nonzero" transform="translate(187.450804, 154.434317) rotate(-5.000000) translate(-187.450804, -154.434317) "></path>
                        <path d="M142.357366,163.518651 C160.725859,144.724224 178.579406,118.565609 178.931335,118.297458 C181.319107,119.159021 184.142604,119.723117 186.018157,120.932262 C189.953404,123.470097 204.59926,130.959749 208.143544,139.48689 C211.929964,148.596582 204.382836,158.803225 200.895251,162.597089 C191.353002,172.977337 176.765421,186.970481 157.132509,204.576519 C156.799524,204.792724 156.468186,205.00893 156.136976,205.225639 C156.287388,205.274197 156.442297,205.318099 156.602197,205.356747 C149.715176,211.81624 96.0390925,258.006668 88.3720977,262.782549 C86.6823738,253.441553 90.2032213,231.242348 88.7921914,230.60017 C84.7062926,228.740716 56.8366832,227.354309 53.1548203,227.646527 C53.0744007,227.446387 53.0666494,227.244328 53.1305976,227.041629 C60.6726029,223.527338 67.1148939,219.211845 73.5097083,214.861183 C79.7369011,210.90185 129.038528,177.14633 142.357366,163.518651 Z" id="Path" fill="#F9F9F9"></path>
                        <path d="M204.98993,156.574328 C198.877539,167.147109 181.348099,118.097164 178.983539,117.235407 C185.568269,106.852481 192.048525,96.436089 195.831629,85.392847 C197.381485,80.8691016 198.666504,60.0488894 198.971299,51.9481092 C199.025932,50.4807398 194.104456,41.6304852 195.977318,40.4398565 C203.131382,44.321306 208.033987,49.3476898 211.115487,55.0434 C215.08837,62.3847521 220.212194,68.9171861 222.211763,77.2721158 C235.456415,132.613124 211.102321,146.001546 204.98993,156.574328 Z" id="Fill-14" fill="#C4C3C6"></path>
                        <path d="M122.819906,46.2515549 C122.867807,48.0664114 122.964589,49.8825527 122.953835,51.6980517 C122.905933,58.7486888 122.384878,65.8147443 124.706653,72.7792962 C125.556178,78.943384 127.863289,84.9012527 130.443147,90.8366365 C132.167173,94.8030622 138.918584,104.179421 137.898375,112.563595 C137.122927,118.936298 128.934078,124.87355 127.638443,126.624964 C122.129728,134.071336 117.317055,141.739346 112.213062,149.314846 C111.596203,148.579267 110.885068,147.820207 110.376171,147.103612 C86.2440211,113.122303 99.4844469,82.2857475 102.829871,75.1810539 C105.080392,70.401613 108.470389,63.8666507 114.548869,55.7726742 C116.041619,53.7849588 118.798631,50.6112524 122.819906,46.2515549 Z" id="Fill-20" fill="#F9F9F9"></path>
                        <path d="M124.12934,159.201003 C117.744053,158.512699 113.735049,152.13301 111.546961,148.765842 C116.69907,141.22077 128.449822,90.7587276 132.293427,95.9363675 C133.141093,97.078494 154.418704,128.703448 155.296961,129.835976 C151.123762,137.87885 130.132514,159.848118 124.12934,159.201003 Z" id="Fill-26" fill="#C4C3C6"></path>
                        <path d="M157.008957,95.7478468 C154.269409,93.351819 156.498733,70.3603866 150.685502,62.238176 C142.627592,50.9797137 139.677145,49.8525744 137.237553,46.0346494 C142.335385,38.443286 159.418356,13.8591094 163.220689,19.0679906 C164.059252,20.2170085 202.681839,35.1134456 196.533019,76.5971548 C192.403645,84.6892794 159.881246,95.7450654 157.008957,95.7478468 Z" id="Fill-26" fill="#C4C3C6" transform="translate(167.216786, 57.048907) rotate(-61.000000) translate(-167.216786, -57.048907) "></path>
                    </g>
                </g>
                <g id="Group-20" transform="translate(186.000000, 0.067331)">
                    <g id="Group-22" transform="translate(102.563710, 170.581282)">
                        <path d="M123.183183,31.1157325 C190.796391,-18.5622488 230.052198,5.97350732 231.073436,6.65056596 C232.754366,7.76487031 312.814724,64.5223605 319.535435,69.6584712 C355.993813,97.4805087 369.200177,134.480513 388.235827,173.721028 C397.153805,192.13205 411.359467,209.324368 412.68623,223.473059 C413.421033,231.351705 412.885768,238.379541 410.863194,244.483299 C408.428449,251.823837 403.798642,257.918452 396.795609,261.973968 C396.759801,262.003963 396.72128,262.036423 396.680242,262.071234 C396.063606,262.594304 395.193284,263.38081 394.052364,264.447704 C392.618432,265.788567 386.459274,271.691699 385.588135,272.518533 C384.461399,273.587943 383.42187,274.565768 382.417483,275.499369 C378.392232,279.240758 374.983941,282.223254 371.840095,284.679125 C366.96361,288.488355 362.897747,290.997201 358.139301,292.389269 C330.879068,300.3621 284.178645,292.587546 246.410257,292.389269 C202.646888,292.124708 184.093882,289.389565 154.959847,275.499369 C125.825812,261.609174 92.4727715,239.123479 5.7101416,268.002959 C-17.7981986,275.827855 39.0328328,222.464274 36.6483114,220.37158 C29.3181534,213.936628 26.9350326,203.527495 27.4871836,189.866844 C27.9530741,178.163843 30.7572451,164.144102 35.5914133,149.627593 C46.8174159,115.800142 55.474717,80.8445864 123.183183,31.1157325 Z" id="Path" fill="#000000" fill-rule="nonzero"></path>
                        <path d="M228.523448,16.5311653 C238.886907,21.8273928 247.515752,28.9507158 260.656569,35.5612618 C279.981235,45.5037966 298.121204,61.6815025 308.593337,71.0575378 C327.261786,88.0630555 362.474923,127.521751 369.272083,154.436925 C385.130574,214.364885 409.172477,244.036416 394.03992,252.100271 C378.907363,260.164126 368.99916,273.113 362.714571,274.417344 C336.403453,279.931332 308.593337,274.417344 272.035928,261.192412 C235.478519,247.96748 211.653125,251.536323 197.01996,243.834688 C165.807731,227.883181 173.115432,210.800902 144.310222,178.05685 C115.213868,145.467944 92.6860153,130.666789 94.0334785,124.351569 C99.3207899,100.525477 111.814308,74.0520664 133.613365,54.5727917 C181.363949,12.1682058 217.526738,18.5727335 228.523448,16.5311653 Z" id="Path-Copy-15" fill="#C4C3C6"></path>
                        <path d="M46.988024,197.547425 C48.2801074,152.702921 71.9301364,106.52372 117.918424,59.0203373 C163.922192,11.4387216 204.922537,21.2776716 216.326136,19.0108401 C220.508805,21.0376523 229.272563,37.1800922 254.844864,61.0043706 C294.301455,97.7638647 259.384305,106.619402 318.199601,140.133226 C303.006961,137.659382 304.850549,134.055016 301.62267,133.938313 C279.257792,133.129717 273.109959,117.532188 259.384305,112.325578 C252.961443,109.889167 234.582564,118.097231 222.227393,105.649471 C217.667677,101.055584 209.711407,74.3526509 208.801961,73.4866557 C178.517435,44.6490344 151.8705,42.4454488 119.263197,70.855384 C68.7892329,114.800336 55.7397643,179.983521 46.988024,197.547425 Z" id="Path-Copy-6" fill="#F9F9F9"></path>
                        <path d="M308.307385,238.590088 C314.178109,214.212682 327.264635,208.050169 341.027394,199.14982 C349.401059,193.736591 348.28708,182.013927 361.616615,177.089761 C360.495259,175.474347 372.2105,183.924467 371.000006,182.387277 C376.593748,187.2425 382.65176,190.681925 370.463419,194.719073 C358.275077,198.756222 355.454299,211.146848 347.080633,216.560076 C333.280574,225.484548 325.815044,221.098153 319.864321,238.124526 C313.913598,255.150898 311.926219,243.784015 308.307385,238.590088 Z" id="Path" fill="#F9F9F9"></path>
                        <path d="M311.13107,165.311653 C334.274625,150.367097 356.381601,165.647876 372.606786,189.092367 C359.474066,194.127689 350.056289,194.774219 341.755534,200.172901 C328.075562,209.07328 317.393872,220.083267 311.13107,243.834688 C306.108058,239.858365 302.984756,236.438235 299.171316,230.738237 C281.804612,204.937919 286.708349,181.092954 311.13107,165.311653 Z" id="Path" fill="#000000"></path>
                        <path d="M189.08317,123.164496 C205.542874,116.829187 242.742936,129.871285 237.786827,141.240454 C235.566869,146.639545 225.472988,149.937244 223.227514,151.337843 C187.51388,173.615622 203.918389,190.85077 182.332538,197.547425 C184.773056,193.697067 186.694277,184.356763 184.715321,179.823094 C181.342223,172.071583 176.090585,164.381688 175.052179,155.492673 C173.358871,140.296799 179.2248,126.962297 189.08317,123.164496 Z" id="Path-Copy-10" fill="#F9F9F9"></path>
                        <path d="M245.293322,78.5791928 C248.255141,71.4507627 258.750807,69.0592886 270.682922,72.917764 C284.062397,77.3327791 303.319209,86.2011931 313.253493,86.5991796 C301.796896,95.1324799 284.000841,87.0809199 276.489366,105.436716 C269.181291,123.681466 263.505886,116.752517 259.348937,117.549015 C250.408404,105.258274 240.405135,90.4700655 245.293322,78.5791928 Z" id="Path-Copy-11" fill="#F9F9F9"></path>
                        <path d="M244.881742,73.4110173 C248.20989,66.9796717 258.689308,64.412649 270.237466,67.3061687 C283.193208,70.6249348 297.238491,80.1204287 300.888224,82.9126005 C283.559163,80.4979352 273.127336,84.3361078 264.71666,100.863511 C263.858049,102.564814 260.600774,109.04349 256.444934,109.932249 C248.348706,99.4462509 239.370726,84.1411254 244.881742,73.4110173 Z" id="Path-Copy-7" fill="#000000"></path>
                        <path d="M187.322216,120.07366 C204.067122,113.692914 222.822554,124.829186 234.94012,134.898328 C232.431719,139.923032 222.46403,143.684396 219.847399,144.672238 C194.446991,154.270981 186.165378,166.668137 184.681901,187.628726 C181.845207,183.098862 172.575153,165.820526 171.535076,150.201443 C170.707442,136.326705 177.293053,123.898673 187.322216,120.07366 Z" id="Path" fill="#000000"></path>
                        <path d="M254.790075,112.334689 C244.685549,105.690427 243.183633,89.4956655 243.183633,84.3089431 C247.697104,93.1938157 256.385854,95.6272066 264.416222,103.713334 C280.091974,119.693616 316.187989,122.498332 326.040731,137.918226 C326.899191,139.266516 332.057778,150.25674 326.040731,157.707954 C321.083027,163.866091 308.044987,170.635646 303.874222,172.434974 C304.129815,172.130479 301.192999,173.193963 299.133005,172.525789 C297.367293,171.954973 287.330684,173.254735 287.870855,172.434974 C288.416958,171.606798 288.705784,164.681872 293.546067,157.872629 C297.281731,152.61735 303.874222,147.127371 305.177708,143.420843 C306.481194,139.714315 296.353497,136.16796 291.57618,133.454325 C279.433141,126.632351 264.8946,118.97895 254.790075,112.334689 Z" id="Path" fill="#000000"></path>
                        <path d="M309.69097,138.033524 C311.279249,138.450997 314.951288,139.522198 314.901698,140.211988 C314.806117,141.541528 310.04513,141.500785 305.816773,145.408045 C301.588416,149.315305 298.711664,151.402077 293.546067,157.872629 C293.703556,148.436423 276.429112,130.134174 244.042222,117.576276 C227.746198,111.257552 212.19312,99.9888649 231.58667,105.725315 C263.936263,115.294055 301.564879,135.897612 309.69097,138.033524 Z" id="Path-Copy-13" fill="#F9F9F9"></path>
                        <ellipse id="Oval" fill="#000000" transform="translate(292.148884, 169.563505) rotate(12.000000) translate(-292.148884, -169.563505) " cx="292.148884" cy="169.563505" rx="12.0097767" ry="5.85381031"></ellipse>
                    </g>
                    <g id="Group-12" transform="translate(0.272312, 0.333196)">
                        <path d="M149.990377,2.57595971 C237.909782,16.4235878 266.296345,47.379085 296.125582,75.7832657 C308.916758,87.9633578 319.662644,100.742886 327.020836,112.432498 C335.607032,126.07298 339.747988,137.994934 337.306566,148.55732 C336.51251,151.992667 327.251128,176.010812 317.898234,198.908231 C305.225495,229.933175 293.809615,255.598396 285.378457,271.010436 C268.937039,301.065118 239.640534,329.483715 202.9017,353.606174 C171.242275,374.393529 135.864972,390.557254 108.24974,397.278269 C103.430833,398.451098 98.5257489,398.106714 92.1643629,396.877036 C88.0627858,396.084186 83.4244713,394.89802 77.8148589,393.273626 C76.4149847,392.86826 74.9591589,392.436914 73.3754192,391.959632 C72.1508897,391.590603 63.4577292,388.923084 61.4535987,388.336202 C59.8589043,387.869218 58.6587789,387.5409 57.8289389,387.343166 C57.7737116,387.330006 57.7220014,387.317875 57.6740394,387.30678 C49.3793314,386.98479 41.8467546,383.288307 35.4005983,377.123911 C30.0394216,371.99707 25.3652088,365.116525 21.2396399,356.675456 C13.8289149,341.512833 15.3722426,316.224607 11.7420794,292.574589 C4.00253318,242.152502 -7.32581193,197.194127 6.53039187,148.929251 C9.08680736,140.02457 42.4008167,38.4650226 43.1507836,36.411654 C43.6064472,35.1640717 62.0709722,-11.2716684 149.990377,2.57595971 Z" id="Path" fill="#000000" fill-rule="nonzero"></path>
                        <path d="M128.336494,34.3994177 C126.535069,34.0493475 134.843454,42.1551538 153.261649,58.7168367 C180.888943,83.5593611 181.70732,70.0925709 238.147143,87.5331633 C294.586966,104.973756 267.66525,136.850296 267.044332,171.280612 C266.157301,220.467149 267.044332,228.012755 255.998958,263.470554 C250.473964,281.206856 230.380049,301.470026 216.862211,315.178893 C180.041438,352.520005 130.405438,373.064219 97.3393971,381.764209 C89.3919445,383.85526 65.6966987,373 61,373 C57.6641831,373 45.0758178,367.634342 43,366 C31.0123466,356.561829 40.5422143,323.080576 20.5261992,263.470554 C10.0393408,232.23947 20.0846926,172.69348 27.4051167,145.12749 C31.4671915,129.83123 38.3016775,103.399875 49.8787591,82.6997138 C57.6651745,68.7773748 60.9265701,56.789581 66.838016,45.7250512 C77.7494532,41.8823656 61.189095,18.6877481 128.336494,34.3994177 Z" id="Path" fill="#C4C3C6"></path>
                        <path d="M313,130.900093 C301.433159,122.370641 276.703121,91.6250278 243.814925,73.8646127 C226.002133,64.2452772 199.119455,61.2414787 185.861194,61.2414787 C148.123881,61.2414787 140.291124,38.1544247 127.907463,40.5034728 C86.098523,48.434182 69.412323,83.2329581 63.4380952,93.9633522 C51.9244156,114.643233 35.2065049,131.101742 31.1666761,146.383017 C23.8863423,173.922 13.896004,233.409652 24.325431,264.610139 C42.110864,317.816722 39.7753369,352.490482 47.5785972,366 C29.6595707,362.074702 38.5698866,324.588697 16.5014114,258.569043 C6.0719844,227.368556 16.0623227,167.880904 23.3426565,140.34192 C27.3824853,125.060646 34.1795421,98.6551866 45.6932218,77.9753053 C53.4369948,64.0666062 60.4806297,43.4422907 66.3597015,32.388601 C77.3877187,28.4872987 102.399903,4.75714762 170.156662,28.2304695 C237.707393,51.6324163 285.321839,85.8556242 313,130.900093 Z" id="Path" fill="#F9F9F9"></path>
                        <path d="M185.671008,134.002564 C197.378797,133.795484 211.016208,146.150113 218.67548,164.057832 C223.16847,174.562641 222.856789,185.626018 224.41684,195.909285 C225.329825,201.927337 233.138241,211.622286 238,214.877681 C212.399099,217.030893 217.795828,190.161508 169.051355,181.156215 C165.991122,180.590853 154.001107,181.422415 148.625236,176.349646 C137.10295,165.80461 166.080568,134.349068 185.671008,134.002564 Z" id="Path-Copy-10" fill="#F9F9F9"></path>
                        <path d="M183.808846,130.002872 C195.416612,129.796957 208.913475,140.682447 216.472877,156.484483 C225.014017,174.338725 226.891735,197.696455 227,204 C212.646807,181.291906 197.262101,171.151709 167.241749,171.684252 C164.141775,171.739243 152.32008,171.948953 147,167.478968 C152.914778,150.980776 164.385773,130.347426 183.808846,130.002872 Z" id="Path" fill="#000000"></path>
                        <path d="M82.5859189,121.172975 C97.8688841,129.656623 110.31786,146.79911 109.993814,164.333226 C104.421693,166.172204 101.130229,173.439605 77.5088379,160.327257 C53.887447,147.214908 43.4645087,163.526485 23,162.440112 C34.6089109,155.799652 46.1054858,137.776339 58.2937694,125.085717 C69.0811038,113.853785 73.4523956,116.102912 82.5859189,121.172975 Z" id="Path-Copy-11" fill="#F9F9F9"></path>
                        <path d="M90.3020173,108.669214 C105.287589,115.754561 107.585466,136.358335 106.891172,151.691086 C101.322637,153.418701 92.2017913,149.106263 89.8100541,147.975423 C66.6483156,137.024292 51.4387262,139.781013 33,153 C35.1058579,147.971857 44.0567003,129.857696 56.4214022,118.50238 C67.3648771,108.45227 81.3462247,104.434815 90.3020173,108.669214 Z" id="Path-Copy-7" fill="#000000"></path>
                        <path d="M177.836755,253.578468 C174.923955,253.955942 172.259279,254.967698 170,256.434292 C172.36999,252.536634 176.659199,246.658922 181.126525,246.079995 C185.290336,245.5404 190.394865,247.77227 193.48335,251.516707 C195.562626,254.037594 195.602828,260.475619 196,264 C193.817834,257.031041 186.222504,252.491745 177.836755,253.578468 Z" id="Path" fill="#000000"></path>
                        <path d="M184.809684,265.897021 C195.105695,274.912939 135.80653,332.59992 114.780449,338.622638 C88.0169995,346.28877 62.2650443,341.708171 55.0419679,316.545218 C52.3474699,307.158425 39.9942862,262.152789 39,248 C61.1874388,268.323837 73.2504933,289.000915 100.656882,295.618865 C118.927807,300.030832 146.978741,290.123551 184.809684,265.897021 Z" id="Path-Copy-12" fill="#F9F9F9"></path>
                        <path d="M183.820109,264.423036 C194.094334,273.426884 134.469637,319.466238 113.483403,325.486166 C86.7706724,333.148747 57.39295,323.101979 50.1887386,297.96865 C47.5012779,288.592907 38.9896575,251.136707 38,237 C47.0806715,253.571641 48.4998024,263.612086 81.4405595,276.182623 C103.401064,284.562982 137.527581,280.643119 183.820109,264.423036 Z" id="Path-Copy-2" fill="#000000"></path>
                        <path d="M127.828593,142.223803 C135.180564,141.717202 105.818068,190.974713 98.3324766,205.681164 C89.1499145,223.721542 78.8180024,237.920103 87.28141,241.596237 C87.6841144,241.771154 92.8832423,245.221645 101.247394,246.758381 C106.697749,247.759768 115.283089,246.994504 118.353847,248.602254 C119.516595,249.211032 120.159921,252.310312 118.735075,253.974541 C117.070694,255.918548 113.216811,256.42335 113.707199,256.617682 C108.01914,257.009628 96.9491335,257.955657 87.3086637,253.904807 C85.4638666,253.129637 68.2549398,245.54787 64.0660331,243.08589 C58.6892164,239.925728 60.3842798,230.907324 69.1512233,216.030675 C77.3141372,206.221417 83.3575327,196.945343 87.28141,188.202454 C92.0417736,177.595769 97.5459161,160.176658 93.7948372,148.779141 C88.9787243,134.145557 98.3324766,133.319018 105.529891,131 C107.878767,137.236203 116.000769,143.03882 127.828593,142.223803 Z" id="Path" fill="#000000"></path>
                        <path d="M79.6749349,236.512748 C81.2479609,233.202211 90.7517838,214.828192 100.054157,194.743826 C111.52181,169.984496 123.375943,143.004041 128.040138,143 C134.641978,142.99428 105.210551,203.392985 100.054157,233.756229 C98.6124302,242.245788 113.096475,245.698703 115.387814,248.434163 C104.054747,252.683039 74.1472936,248.146034 79.6749349,236.512748 Z" id="Path-Copy-13" fill="#F9F9F9"></path>
                    </g>
                </g>
                <g id="Group-23" transform="translate(320.905958, 429.564644) rotate(18.000000) translate(-320.905958, -429.564644) translate(197.405958, 334.564644)" fill-rule="nonzero">
                    <g id="Group-28" transform="translate(123.583316, 95.136484) rotate(2.000000) translate(-123.583316, -95.136484) translate(3.583316, 4.636484)">
                        <g id="Group-8" transform="translate(0.962852, 0.142480)">
                            <path d="M0.185116377,155.705819 C13.2448464,124.294521 33.0999347,88.1864385 39.9711188,77.8487453 C56.2512727,53.3552613 83.2773043,42.4460175 91.4595437,39.727816 C107.980884,34.2393025 118.449371,33.1849506 134.778007,33.7422101 C138.588221,33.8722441 139.918723,33.9017036 141.62359,33.8698823 C144.795028,33.8106875 147.266881,33.474335 149.863713,32.6932177 C151.975907,32.0578777 155.101964,30.0592207 158.74375,26.848456 C161.270423,24.6208264 163.94615,21.9133282 166.86608,18.676653 C168.589256,16.7665524 170.310793,14.7729608 172.418657,12.2679985 C172.603164,12.0487324 176.330889,7.59122657 177.292872,6.46339546 C179.096479,4.34884294 182.604534,0.817107539 185.529057,0.713939074 C188.453581,0.610770609 236.503686,18.6790899 238.133917,26.6789177 L238.960866,30.7369034 L237.131213,34.033397 C221.517363,62.1649296 201.427915,74.7972062 171.825672,79.2507466 C170.713201,79.4181135 139.217365,76.9427226 127.147264,93.1582091 C119.02164,104.074518 107.183955,134.064444 96.3621992,179.372609 C83.4033701,165.353451 71.9682397,151.405792 62.0568079,137.529633 L0.185116377,155.705819 Z" id="Path" fill="#000000"></path>
                            <path d="M189.164794,11.3717818 C186.228876,10.4079325 164.516643,39.460319 148.580579,44.2239306 C132.644515,48.9875422 122.992834,38.6651393 93.1691053,49.3853738 C62.0894246,60.5570643 33.9855317,107.284126 24.4777019,139.514552 C28.5217735,139.37157 35.6722095,133.677015 46.2290888,129.371714 C49.4955139,128.039602 54.631258,125.644765 61.6363212,122.187203 C73.1606811,132.757048 81.1663598,141.848024 85.6533574,149.460131 C90.9903267,140.440566 95.1238728,111.710254 105.354245,91.2679973 C111.417779,79.1518892 111.25225,74.7858033 127.56579,67.1786746 C143.87933,59.5715459 158.586174,71.4911993 182.461739,60.7096624 C198.236948,53.5860194 211.458949,41.2884257 221.47432,23.3884081 C221.47432,23.3884081 203.011706,19.0391208 189.164794,11.3717818 Z" id="Path" fill="#F9F9F9"></path>
                        </g>
                    </g>
                </g>
            </g>
        </g>
    </g>
</svg>