<?xml version="1.0" encoding="UTF-8"?>
<svg width="400px" height="320px" viewBox="0 0 400 320" version="1.1" xmlns="http://www.w3.org/2000/svg" xmlns:xlink="http://www.w3.org/1999/xlink">
    <!-- Generator: Sketch 53.2 (72643) - https://sketchapp.com -->
    <title>Validator</title>
    <desc>Created with Sketch.</desc>
    <g id="Validator" stroke="none" stroke-width="1" fill="none" fill-rule="evenodd">
        <g id="Illustration" transform="translate(0.000000, 32.000000)">
            <g id="Group" transform="translate(8.373134, 0.000000)">
                <path d="M184.522171,194.173678 C177.335505,190.078189 163.913808,182.408489 163.959531,174.138336 L173.440243,90.7835816 C173.485848,82.5348075 177.949564,74.894805 185.152492,70.737146 L258.158258,28.5969069 C265.361185,24.4392479 274.210996,24.3944429 281.379084,28.4793439 L353.854063,69.7808903 C361.040729,73.8763785 365.442817,81.4992711 365.397093,89.7694244 L364.935991,173.170986 C364.890386,181.41976 360.426669,189.059763 353.223742,193.217422 L280.217976,235.357661 C273.015049,239.51532 264.165238,239.560125 256.99715,235.475224 L184.522171,194.173678 Z" id="Polygon" fill="#000000"></path>
                <path d="M240.211449,167.746924 C238.418632,165.842472 236.142594,166.275566 233.652397,167.34371 C231.398275,165.974028 229.266264,164.447619 228.849509,160.837575 C228.775439,160.194479 225.283195,159.810558 224.84207,159.60925 C221.258441,157.97304 223.378764,153.9143 219.073284,153.745144 C216.40071,153.640191 216.440376,155.068052 214.888175,153.13189 C214.6554,152.841565 213.972749,152.032711 212.840221,150.705326 L211.641396,140.980424 L200.899404,129.886007 C192.505879,127.235589 188.134295,125.896382 187.78465,125.868386 C188.336986,126.383405 191.642823,128.963508 197.702161,133.608697 L207.902872,143.476418 C209.382091,149.112819 210.53318,152.497517 211.35614,153.630512 C209.548817,151.848808 197.501937,144.487383 195.253321,143.52943 C192.931492,142.539657 188.533824,142.068447 186.203257,141.08703 C187.713811,142.814957 200.027322,153.124181 202.15936,153.816026 C204.582634,154.602744 207.852258,152.96297 209.097716,155.465525 C209.670763,156.616698 209.694626,159.014121 211.130382,157.893777 C211.808245,157.364681 213.25024,159.600379 213.666323,159.656085 C216.150431,159.989567 215.972331,162.141079 218.050824,163.324175 C222.230225,165.702156 222.143939,167.537518 222.861426,173.234126 C223.067795,174.872762 226.648728,174.927343 226.867819,176.538363 C226.904118,176.805285 227.216643,176.981231 227.472444,176.987437 C231.544563,177.080597 236.933276,187.103951 239.009593,190.677625 C238.792458,187.853751 237.047695,178.840794 235.520785,177.905938 C233.40468,176.610771 231.464026,176.291424 229.890438,174.012452 C229.492653,173.435801 226.653335,171.556915 226.913869,170.665421 C227.656037,168.127255 227.010263,168.255083 226.93365,165.913387 C228.297782,166.143975 228.978395,167.311269 229.915447,168.004322 C230.954168,168.771282 232.086909,168.879222 233.594385,168.010718 C235.797717,167.586312 237.932288,167.407743 240.211449,167.746924 Z M217.230755,106.946608 C217.581556,107.150494 217.932643,107.355124 218.282944,107.559878 C218.432503,107.495236 218.581526,107.430284 218.731335,107.365208 C218.930354,107.472697 219.129659,107.580929 219.328928,107.687984 C219.162573,107.981973 219.039037,108.297813 219.262015,108.404677 C219.476983,108.50807 219.686709,108.245511 219.849739,107.946128 C220.040947,108.039263 220.232388,108.131374 220.423596,108.224509 C220.31104,108.624835 220.432105,108.620131 220.68987,108.37781 C221.137822,108.631472 221.585773,108.885135 222.03426,109.139107 C222.396463,109.860681 222.656333,110.806161 223.868584,109.667806 C224.853201,109.814277 225.447571,110.746426 226.539006,110.677951 C226.334324,112.0947 226.685864,112.270651 227.916523,111.366937 C228.405344,111.639009 228.894666,111.910212 229.383219,112.182129 C229.441619,112.545807 229.612849,112.579353 229.922614,112.209065 C230.0312,112.009032 230.138998,111.809123 230.247316,111.608935 C230.8656,111.910096 231.517615,112.158976 231.882701,112.853855 C228.303844,117.532954 224.562129,122.062949 221.187284,126.927669 C216.817534,133.226522 214.455115,142.257072 213.950448,148.988846 C213.907573,149.56778 213.890768,150.137469 213.883262,150.700955 C213.868124,151.832485 213.838016,152.983148 215.32369,151.431508 C215.572733,151.170833 216.038094,150.874836 216.195921,150.961993 C217.687898,151.785427 219.154859,149.99781 220.606632,148.746087 C223.000143,146.682417 225.398039,145.855907 227.746671,145.256766 C230.556016,144.539535 233.450985,143.455034 236.132804,143.358113 C238.833576,143.260568 241.511112,139.068166 244.050862,136.620162 C246.017551,134.723688 243.459778,132.713771 245.538448,131.105437 C245.747053,131.006616 245.956176,130.907517 246.165049,130.808851 C246.165049,130.808851 246.086755,130.702828 246.086003,130.704131 C246.511044,130.993174 246.888399,131.378527 247.369031,131.553834 C252.242344,133.335193 257.083298,135.188149 261.396457,138.010078 C265.666853,140.803242 265.291238,147.270985 265.223204,154.064658 C262.86523,152.004502 260.853103,150.246084 258.840726,148.488101 C258.902615,149.325534 259.188665,149.863604 259.552851,150.301545 C261.557992,152.710572 263.148331,155.641615 265.452224,157.673412 L265.586334,158.581523 C264.983593,159.415731 265.04174,159.893291 265.633457,160.082436 C265.59273,166.174151 266.946458,172.433121 264.818199,178.642793 C264.328993,180.06992 263.54751,180.211013 262.956496,179.599735 C262.211262,178.828716 261.850502,177.657073 261.685659,176.341654 C261.616619,175.791235 261.603307,175.166518 261.101092,175.192903 C258.67368,175.320503 254.58157,172.794917 254.620014,170.549311 C254.648623,168.894785 254.903343,167.031741 253.43973,166.467224 C253.02243,168.705739 252.628165,170.816911 252.200163,173.111174 C250.54231,171.925043 249.677534,169.881571 247.531058,169.574181 C248.163591,172.601144 253.846097,174.740579 256.259892,175.061221 C259.11867,175.441062 260.441466,177.338261 260.473422,181.000411 C260.485831,182.451163 261.0515,183.30537 262.321735,183.425311 C263.560771,183.541692 263.922827,184.957189 263.842678,186.475426 C263.519298,192.613328 264.450636,210.773205 262.952698,217.26379 C262.717551,218.282069 262.36363,218.804537 261.524343,219.125811 C257.609753,220.62417 253.846478,221.54838 250.383881,220.962561 C246.88819,220.371508 242.022436,206.983346 238.947591,205.572784 C236.320849,204.368508 233.518578,203.468548 231.163507,201.757941 C230.658491,200.879167 230.236417,199.823742 228.766762,200.997987 C228.010233,201.651867 227.822796,200.984984 227.471867,200.698253 C228.222631,198.822622 227.580259,198.832259 226.401912,199.565931 C226.207882,199.457853 226.013852,199.349774 225.819804,199.241106 C225.276241,197.573696 222.357388,196.993016 221.033968,198.289394 C220.717205,198.49762 220.457782,198.51903 220.271049,198.303456 C220.301067,198.023289 220.205088,198.021075 220.013288,198.231479 L219.883199,198.3039 L219.838771,198.185035 C219.519383,198.280031 219.368203,197.828006 218.964121,198.198777 C213.142583,198.176041 212.479754,193.660616 206.902887,192.944037 C198.57103,191.872866 191.108726,189.142892 185.170006,183.48012 C184.886214,183.209034 184.283616,183.165832 184.616046,182.350215 C185.403796,180.416659 184.759119,179.25806 184.526037,177.899153 C183.996218,174.809417 182.924125,172.086415 182.829214,168.713182 C182.747058,165.797642 182.657217,162.758424 184.707843,159.355743 C185.017559,159.350663 185.04387,159.200904 184.917412,158.974435 C185.044071,158.692235 185.171267,158.410345 185.297676,158.12858 C185.981384,157.742286 186.400194,157.300728 185.915445,156.665774 C185.935231,156.50935 185.997748,156.36315 186.104552,156.226336 L186.142653,155.64638 C187.049414,151.762092 181.953305,152.364232 181.631176,148.996869 C181.014919,142.552687 178.329029,137.57099 178.709439,130.406222 C178.931114,126.233684 178.290645,122.227398 179.839737,117.77315 C182.47194,110.205645 180.244664,106.845999 181.492499,99.4804065 C181.566298,99.0443696 181.289946,98.2687996 181.806868,98.1884011 C182.359444,98.101981 183.054399,97.3199064 183.549116,98.0057695 C184.931485,99.9211888 187.297888,100.295478 189.3348,100.96267 C194.027661,102.500828 202.310179,100.764303 206.820783,102.628358 C206.937143,103.419708 207.175226,103.931216 208.071657,102.927542 C208.270498,103.02914 208.468839,103.131606 208.666893,103.233327 C208.571526,103.792923 208.742817,103.880915 209.173021,103.511349 C210.15485,103.460567 210.622823,104.316777 211.351748,104.713134 L211.793184,104.515023 C212.889505,105.106334 213.986344,105.697365 215.083165,106.287808 C215.793435,106.519997 216.175069,107.457704 217.230755,106.946608 Z" id="Shape" fill="#C4C3C6"></path>
                <path d="M199.30112,87.985329 C194.287397,85.1645433 193.780867,80.8241634 198.169754,78.2908191 L262.141353,41.3652632 C266.53024,38.8319189 274.152561,39.0649362 279.166284,41.8857219 L341.805511,77.1273635 C346.819234,79.9481492 347.325764,84.2885291 342.936877,86.8218734 L278.965278,123.747429 C274.576391,126.280774 266.95407,126.047756 261.940347,123.226971 L199.30112,87.985329 Z" id="Rectangle" fill="#FFFFFF"></path>
                <path d="M272.33175,214.140936 L273.048335,142.329182 C273.105691,136.581278 276.701572,129.872913 281.079959,127.34563 L344.898516,90.5084124 C349.276903,87.9811288 352.779791,90.5919573 352.722434,96.3398612 L352.005849,168.151615 C351.948493,173.899519 348.352612,180.607884 343.974225,183.135168 L280.155668,219.972385 C275.777281,222.499669 272.274393,219.88884 272.33175,214.140936 Z" id="Rectangle-Copy-6" fill="#C4C3C6"></path>
                <g id="Group-14" transform="translate(182.502926, 81.528037) rotate(-17.000000) translate(-182.502926, -81.528037) translate(126.123821, 13.960280)">
                    <path d="M0.138699115,47.4852584 C1.47862797,39.6114772 8.05396806,17.8973843 10.3544072,14.2440057 C12.5604506,10.7405392 18.5833497,8.48674733 20.1808066,7.81754856 C25.8972019,5.42390004 32.3416325,4.37103825 38.2327781,2.41635643 C43.2424236,0.754577623 48.4634922,-0.340112038 53.9017263,0.840910548 C52.9991416,2.28366668 58.3131185,7.89425815 59.8423307,10.0737472 C62.4673634,13.8169098 63.0732795,17.7499604 60.6317582,21.8551437 C59.7805042,23.287509 59.0415079,24.8144296 58.4684948,26.3790827 C57.8027052,28.1943883 57.8961961,28.1023464 60.3146687,27.6873089 C61.5078314,29.8950123 62.8782565,32.1018321 63.9320994,34.446696 C66.2534592,39.614411 112.66356,101.16273 112.484982,105.117164 C112.335133,108.423181 108.157183,115.237817 109.727628,118.343405 C110.680191,120.227081 107.225311,128.333165 105.702289,130.651751 C105.541117,130.897029 105.72166,131.519926 105.939273,131.835142 C107.235361,133.713282 105.881859,133.878252 104.54528,134.061931 C103.880093,134.152823 103.210674,134.231737 102.539843,134.274425 C94.7417347,134.761899 83.1830437,135.895229 77.3138939,130.685085 C72.7815456,126.660443 68.7799622,122.042519 64.5421856,117.688007 C55.783459,108.900539 44.396477,92.21728 36.6440191,82.5587307 C32.4325601,77.3121174 28.6410368,71.6839399 23.678684,67.0913807 C22.214108,65.7357845 21.3255982,64.3538766 20.8382657,62.5479537 C20.5186432,61.3611389 20.0151325,60.2114882 19.8032486,59.0109648 C19.5817723,57.7589667 19.0605499,57.5643908 17.9010995,57.8687344 C15.4531672,58.51083 12.9688437,59.0189111 10.4955221,59.565429 C8.52352089,60.0011716 6.21537528,61.2417206 4.65917942,60.6131598 C2.93530644,59.9165312 2.69526423,57.1145142 1.78726427,55.2396028 C1.22226764,54.0716 -0.105885636,48.9198558 0.138699115,47.4852584 Z" id="Path" fill="#000000"></path>
                    <path d="M5.5231284,46.0922083 C7.93686382,37.9829081 10.8353027,30.0497678 13.8991228,22.1650041 C15.6082928,17.765951 18.8919125,15.2496761 23.0898229,13.8841419 C28.3541614,12.1719071 33.7100192,10.6861227 39.1059182,9.43200661 C41.8513489,8.7945575 44.4586276,7.43262072 47.3963731,7.63869069 C45.4359874,13.8169434 43.6591057,20.0971586 40.2169954,25.6493217 C36.475851,31.6816557 31.9332267,37.2309239 25.6339884,40.6218494 C19.4729828,43.9379422 12.5036447,45.2406986 5.5231284,46.0922083 Z" id="Fill-15-Copy" fill="#C4C3C6"></path>
                    <path d="M52.1928601,8.08621637 C53.6578121,10.466654 54.8363925,12.4150433 56.051977,14.3396141 C56.4701493,15.0022537 56.8592821,15.5923684 56.3978618,16.4121656 C52.2476181,23.7902221 49.4356064,31.8757758 44.4294951,38.8076014 C41.7071695,42.5778372 41.8665963,42.5547958 38.6890523,39.2868008 C37.2664114,37.8239774 37.0026584,36.8438241 38.3365526,35.1117898 C44.5124115,27.0908031 49.7454163,18.5412977 52.1928601,8.08621637 Z" id="Fill-77-Copy" fill="#C4C3C6"></path>
                    <path d="M5.25272156,50.6732608 C14.5447421,47.702311 24.2352352,46.4860807 32.6569485,41.5872279 C33.1009402,41.3287722 33.4495563,41.2814027 33.8560691,41.9221892 C36.1713026,45.5745578 35.9296011,46.798602 32.2046554,49.106696 C31.4213922,49.5923748 30.6150617,50.0485238 29.7866995,50.4526977 C23.8146417,53.3667237 17.1688567,54.105726 10.9149801,56.1108747 C10.3061062,56.3058766 9.82235663,56.2294233 9.36789163,55.653199 C8.0703222,54.0090167 6.7036671,52.4188291 5.25272156,50.6732608 Z" id="Fill-79-Copy" fill="#C4C3C6"></path>
                    <path d="M29.0582771,60.0899716 C35.7474084,56.6025543 42.093759,53.3650666 48.3582134,49.9767255 C49.9289089,49.1270546 50.6493526,49.4241652 51.2208868,50.9633492 C51.4592373,51.6056054 51.8816463,52.1796077 52.2257656,52.7809207 C63.3299772,72.1638515 73.994177,91.8175751 87.333664,109.824259 C89.6806797,112.992226 92.0383227,116.152857 94.455541,119.267284 C94.9772886,119.94026 95.4019507,120.743796 95.1711977,121.387834 C94.9342485,122.048489 93.9379999,121.756003 93.2812368,121.756848 C89.1169127,121.761264 85.0153048,121.089817 80.9015904,120.562025 C80.5940455,120.523245 80.2472767,120.367365 80.0246415,120.154557 C78.0523062,118.271106 75.8999214,116.529153 74.1840467,114.432167 C67.7551307,106.574135 61.4652186,98.6017826 55.1333456,90.6635519 C51.466595,86.0664125 47.8607431,81.420181 44.154068,76.8560136 C39.4687612,71.0865469 35.3346521,64.8212846 29.0582771,60.0899716 Z" id="Fill-73-Copy" fill="#FFFFFF"></path>
                    <path d="M97.1765388,120.766425 L89.7481369,110.092798 C85.7548527,104.613657 81.9700879,99.4270033 78.1917536,94.2344521 C68.6654672,81.1430013 60.6796422,67.0841823 51.8909374,53.5297789 C50.2300291,50.9668193 49.6283842,48.9633133 51.3147807,46.1743453 C53.6785307,42.2660175 55.5527164,38.0625242 57.755009,33.753244 C60.9589702,39.5342149 64.0689465,44.9734716 67.0160123,50.4973653 C73.8330525,63.2722685 80.3954649,76.2006014 90.7286769,86.7286133 C91.2118143,87.2203357 99.8345526,100.908899 99.7684114,101.688968 C99.1694064,108.766618 97.7773497,113.300256 97.1765388,120.766425 Z" id="Fill-75-Copy" fill="#B1B2B7"></path>
                </g>
                <path d="M235.767065,183.944534 C226.813091,182.942855 217.867408,182.974799 209.023816,183.264797 C198.897442,183.594296 192.046291,177.767789 183.963262,172.700219 C193.544394,167.629629 226.398775,174.765044 235.767065,183.944534 Z" id="Fill-107-Copy" fill="#FFFFFF"></path>
                <g id="Group-2" transform="translate(0.000000, 52.648091)">
                    <path d="M111.516568,127.624798 C108.613088,133.978327 107.481707,140.877359 105.872776,147.6177 C105.529959,149.053704 106.253423,150.332786 106.791533,151.625244 C107.247013,152.719769 108.559946,153.931742 107.205847,155.021152 C105.829916,156.127827 104.555237,157.904023 102.359444,157.19766 C101.745716,157.000716 101.304194,156.948624 100.737284,157.191661 C89.3484602,162.062102 77.8898889,160.136705 66.5983199,157.19424 C52.3665415,153.485652 38.6936405,148.248337 25.5585596,141.62484 C18.2725213,137.9502 13.2312548,132.363671 9.07873015,125.586501 C7.20478208,122.527396 4.11133116,120.220774 2.87854927,116.664734 C2.80514954,116.453007 2.49596104,116.24054 2.53329431,116.083125 C3.16328924,113.454223 1.67110009,111.533477 0.567140136,109.361009 C-0.85519969,106.563494 0.556154073,104.697403 3.0412759,102.77831 C11.5557214,96.200781 18.3272069,88.1275349 22.7839665,78.3215865 C23.5830817,76.5630241 21.9320316,74.1914633 19.8072153,73.9805037 C15.8317425,73.5873866 11.8436151,73.3069626 7.52431779,72.9524655 C9.05885488,70.6933467 8.22481714,68.908368 6.92981985,66.9008042 C4.92808278,63.8008988 4.04253795,60.4377959 5.46851885,56.6371977 C7.46701196,51.3106463 9.12124162,45.8764134 12.9339761,41.4032731 C14.7727246,39.246268 21.7501559,38.8066476 23.5710393,40.8912137 C28.2653336,46.262388 28.6843685,46.4844062 35.5799396,49.8850974 C37.4277259,50.7969317 38.055181,50.4197469 38.9906565,48.6616215 C46.4532505,34.639755 50.8729019,19.6219989 54.2310656,4.26172374 C54.642493,2.37959016 55.3581588,1.537028 57.1580852,0.913951012 C59.9433261,-0.0499800266 64.2368649,-0.284776107 71.2210345,0.369530824 C79.7715278,1.17057768 91.1272071,3.08884145 93.5039828,3.96954152 C102.014317,7.12248199 110.319746,10.584589 117.499037,16.2112458 C128.047465,24.4784969 144.233648,40.4846615 151.20417,52.1875691 C152.173056,53.8140296 150.0415,58.9364373 146.333899,65.6787162 C146.714159,65.60319 147.15226,65.5380473 147.672393,65.4863518 C146.591645,66.3473771 145.719773,67.1994262 145.006958,68.0445195 C144.219899,69.4228066 143.379803,70.8542715 142.497883,72.3251151 C140.719394,76.9995722 141.302156,81.5621623 135.257298,86.3774637 C143.237431,87.9091697 147.488066,94.5263865 154.90645,95.9879017 C157.971438,96.5919157 160.3525,95.481879 163.415943,96.0932699 C169.627105,97.3328712 176.502353,100.373168 182.580022,102.185548 C184.483188,102.752774 186.402202,103.172831 187.869415,104.732946 C189.095495,106.037061 190.750592,104.587858 192.333279,105.164456 C200.667145,108.200076 209.094039,110.987799 217.492172,113.851266 C223.956788,116.054609 230.390365,118.275708 235.91298,122.482565 C237.299541,123.53869 235.20199,123.801659 236.238436,125.297907 C238.862802,129.084365 247.835969,141.975806 239.053363,142.426879 C240.41377,151.380337 238.857542,156.070724 238.787332,165.166207 C238.75724,168.963854 237.991884,169.79296 235.131834,172.593873 C232.875409,174.803234 231.621572,175.39932 231.531542,178.130379 C229.184129,178.202223 227.347544,176.873922 225.362708,176.113613 C204.638479,168.173521 186.758331,155.579453 168.931958,142.843896 C164.603781,139.751928 125.44427,128.025756 112.247537,121.513085 C112.478311,123.616065 112.468829,125.541264 111.516568,127.624798 Z" id="Path" fill="#000000"></path>
                    <path d="M124.057577,112.470022 L124.130563,112.464098 C124.464594,111.193515 123.598909,111.702304 123.041542,111.753209 C119.665726,110.27448 116.361802,108.592472 112.616328,108.139077 C112.846673,104.415369 113.729461,100.825486 114.912876,97.2961563 C115.838393,94.5349881 117.829349,92.9850772 120.719712,93.07655 C131.062453,93.4068904 141.285829,94.5688383 149.606967,101.389514 C163.689896,112.93252 180.356324,120.314903 195.746142,129.747402 C198.868814,131.661296 211.34998,134.327321 216.103518,140.201576 C220.470459,145.598086 217.253377,154.255611 217.375459,155.486051 C217.646089,158.218848 218.085252,160.935814 218.518596,164.166219 C212.353477,160.07126 206.506291,156.23126 200.70616,152.325091 C189.798581,144.979791 178.359355,138.529004 166.513583,132.779961 C164.86044,131.977521 164.122999,129.896423 161.997051,129.902807 C161.742865,129.723613 161.488751,129.545815 161.234602,129.367319 L161.334219,129.462206 C160.594257,128.473311 159.624472,127.987189 158.359014,128.145899 L158.395997,128.172664 C158.341931,127.154831 157.637578,126.913118 156.775787,126.858165 C156.775787,126.858165 156.902043,126.945356 156.901333,126.945393 C155.3883,125.775572 153.83652,124.68248 152.248772,123.660595 C150.350216,122.438672 148.400231,121.318563 146.40357,120.290828 C141.470782,117.751787 136.253108,115.77654 130.822197,114.222721 C128.606472,113.493861 126.848263,111.067221 124.057577,112.470022 Z" id="Path" fill="#C4C3C6"></path>
                    <path d="M82.2052846,16.2871961 C84.4075887,12.0226519 84.4195951,11.9396164 88.6561662,13.8912701 C99.5560568,18.9134858 107.189012,18.981166 116.18173,26.9750541 C117.90954,28.5111345 118.529882,29.3592124 116.371542,31.4372593 C103.175732,44.1490884 93.3604115,59.311451 84.4552648,75.1095072 C77.5332096,87.3892912 70.467689,99.5901515 63.5609192,111.878197 C62.4535954,113.849152 61.4720046,114.356828 59.1559655,113.588119 C48.3288058,109.994147 37.072216,108.315382 25.7481397,107.182068 C23.0992603,106.917817 20.4091986,107.077513 17.6999547,106.781573 C14.358104,106.417465 15.4569336,105.313501 16.4658293,103.657828 C19.6209079,98.4765708 22.4942972,93.1155406 25.8750424,88.0842298 C38.851856,68.7736889 46.4038952,53.9816624 53.1487085,32.0341897 C55.1582033,25.4924485 62.1555865,18.3348806 59.8815491,11.5568192 C59.0649587,9.12160647 60.1601848,7.30072454 63.1057874,7.22514012 C69.6477781,7.05528248 73.2719201,8.48425439 79.476741,10.3035813 C81.7298884,10.9639264 80.1530818,12.1443845 79.8057112,12.9442827 C75.2167922,23.50397 70.5519473,34.0321003 65.9282949,44.5768841 C65.4639628,45.6344001 65.1348575,46.7482372 64.743557,47.8360684 C63.9619866,48.9307729 62.9959074,49.9878477 64.0904545,51.7595376 C64.6218224,50.5469203 65.0619868,49.5423657 65.5014814,48.5385451 C71.0706397,37.7889611 76.649223,27.0437617 82.2052846,16.2871961 Z" id="Fill-81" fill="#C4C3C6"></path>
                    <path d="M116.246662,35.0720949 C118.809736,35.015515 121.36218,34.550817 123.986689,34.5173674 C127.22391,34.4752184 126.303787,35.6532551 125.534687,37.3457152 C123.12993,42.6418427 121.015623,48.0762495 118.377482,53.2559604 C108.250892,73.1362188 102.776685,88.0869703 98.9178675,109.751344 C97.7685434,116.208601 91.9242047,123.831668 94.8971315,130.015715 C95.9648367,132.23756 95.1327009,134.097232 92.3260818,134.51162 C86.0929987,135.433842 73.4471501,124.016675 76.6231374,113.447101 C76.9422578,112.387025 67.1878159,113.755461 67.4335548,112.675036 C68.0515197,111.542695 87.3883044,93.8156863 86.1331626,92.2574144 C85.7682568,93.4728434 85.4659912,94.4797235 85.1642794,95.4858275 C81.1086885,106.360175 105.288981,35.3105221 116.246662,35.0720949 Z" id="Fill-81-Copy-2" fill="#C4C3C6"></path>
                    <path d="M25.7481397,107.182068 C23.0992603,106.917817 20.4091986,107.077513 17.6999547,106.781573 C14.358104,106.417465 15.4569336,105.313501 16.4658293,103.657828 C19.6209079,98.4765708 22.4942972,93.1155406 25.8750424,88.0842298 C38.851856,68.7736889 46.4038952,53.9816624 53.1487085,32.0341897 C55.1582033,25.4924485 62.1555865,18.3348806 59.8815491,11.5568192 C59.0649587,9.12160647 60.1601848,7.30072454 63.1057874,7.22514012 C69.6477781,7.05528248 37.072216,108.315382 25.7481397,107.182068 Z" id="Fill-81-Copy" fill="#FFFFFF"></path>
                    <path d="M17.8488532,57.3865971 C17.7952786,57.2815816 17.7640952,57.1503661 17.6848312,57.0752988 C11.7297699,51.449367 11.7283167,50.7286035 17.9761733,44.1524726 C18.0999473,47.1706813 20.3730539,47.6694178 22.312125,48.5696289 C23.9987072,49.3525845 25.6872318,50.1325787 27.3668876,50.9301923 C32.8452372,53.5310416 32.8439912,53.5339658 30.483854,59.1095152 C25.5899069,70.6713866 25.1173525,70.9045123 12.9298843,68.5297306 C11.8628661,68.3223719 11.2269892,68.0541285 11.0768341,66.8990844 C10.9086514,65.6106935 10.4639012,64.3342123 10.4692739,63.0537003 C10.4993332,56.2244659 11.4420265,55.575454 17.3710137,58.0872301 C17.7593842,58.3079641 18.1799659,58.5712716 18.4555539,57.9971725 C18.4953529,57.9157478 18.0628256,57.5966396 17.8488532,57.3865971 Z" id="Fill-85" fill="#C4C3C6"></path>
                    <path d="M227.906882,130.78499 C228.128034,136.384189 228.954808,141.87494 229.923747,147.277189 C231.031729,153.4633 228.232471,158.253522 225.989713,163.724405 C222.149636,158.347237 223.367973,137.456382 227.906882,130.78499 Z" id="Fill-107" fill="#FFFFFF"></path>
                </g>
                <path d="M290.847864,113.476437 C292.030135,113.020215 292.536874,114.071856 292.497694,116.340023 C291.710321,115.91382 291.24816,114.764994 290.847864,113.476437 Z" id="Fill-43" fill="#FDFDFD"></path>
                <path d="M189.028884,197.55017 C188.724067,197.457324 188.419851,197.364446 188.115688,197.272571 C188.169892,197.211344 188.215307,197.108347 188.281749,197.097256 C188.656917,197.031966 188.983177,197.083941 189.144629,197.417771 C189.144603,197.417269 189.028884,197.55017 189.028884,197.55017 Z" id="Fill-119" fill="#B1B2B7"></path>
            </g>
        </g>
    </g>
</svg>